{
 "id": "07JEW41K2A",
 "fps": {
  "num": 25,
  "den": 1
 },
 "display_ratio": {
  "num": 16,
  "den": 9
 },
 "pixel_ratio": {
  "num": 1,
  "den": 1
 },
 "width": 1920,
 "height": 1080,
 "sample_rate": 44100,
 "channels": 2,
 "channel_layout": 3,
 "settings": {},
 "clips": [
  {
   "alpha": {
    "Points": [
     {
      "co": {
       "X": 1,
       "Y": 1
      },
      "handle_left": {
       "X": 0.5,
       "Y": 1
      },
      "handle_right": {
       "X": 0.5,
       "Y": 0
      },
      "handle_type": 0,
      "interpolation": 0
     },
     {
      "co": {
       "X": 151,
       "Y": 1
      },
      "handle_left": {
       "X": 0.5,
       "Y": 1
      },
      "handle_right": {
       "X": 0.5,
       "Y": 0
      },
      "handle_type": 0,
      "interpolation": 0
     },
     {
      "co": {
       "X": 176,
       "Y": 0
      },
      "handle_left": {
       "X": 0.5,
       "Y": 1
      },
      "handle_right": {
       "X": 0.5,
       "Y": 0
      },
      "handle_type": 0,
      "interpolation": 0
     }
    ]
   },
   "anchor": 0,
   "channel_filter": {
    "Points": [
     {
      "co": {
       "X": 1,
       "Y": -1
      },
      "interpolation": 2
     }
    ]
   },
   "channel_mapping": {
    "Points": [
     {
      "co": {
       "X": 1,
       "Y": -1
      },
      "interpolation": 2
     }
    ]
   },
   "crop_height": {
    "Points": [
     {
      "co": {
       "X": 1,
       "Y": 1
      },
      "interpolation": 2
     }
    ]
   },
   "crop_width": {
    "Points": [
     {
      "co": {
       "X": 1,
       "Y": 1
      },
      "interpolation": 2
     }
    ]
   },
   "crop_x": {
    "Points": [
     {
      "co": {
       "X": 1,
       "Y": 0
      },
      "interpolation": 2
     }
    ]
   },
   "crop_y": {
    "Points": [
     {
      "co": {
       "X": 1,
       "Y": 0
      },
      "interpolation": 2
     }
    ]
   },
   "display": 0,
   "duration": 73.36000061035156,
   "effects": [],
   "end": 7,
   "gravity": 4,
   "has_audio": {
    "Points": [
     {
      "co": {
       "X": 1,
       "Y": -0.8686131386861313
      },
      "interpolation": 2
     }
    ]
   },
   "has_video": {
    "Points": [
     {
      "co": {
       "X": 1,
       "Y": -1
      },
      "interpolation": 2
     }
    ]
   },
   "id": "5CXUIX8A32",
   "layer": 4000000,
   "location_x": {
    "Points": [
     {
      "co": {
       "X": 1,
       "Y": 0.032258064516129004
      },
      "interpolation": 2
     }
    ]
   },
   "location_y": {
    "Points": [
     {
      "co": {
       "X": 1,
       "Y": -0.05069124423963134
      },
      "interpolation": 2
     }
    ]
   },
   "mixing": 0,
   "perspective_c1_x": {
    "Points": [
     {
      "co": {
       "X": 1,
       "Y": -1
      },
      "interpolation": 2
     }
    ]
   },
   "perspective_c1_y": {
    "Points": [
     {
      "co": {
       "X": 1,
       "Y": -1
      },
      "interpolation": 2
     }
    ]
   },
   "perspective_c2_x": {
    "Points": [
     {
      "co": {
       "X": 1,
       "Y": -1
      },
      "interpolation": 2
     }
    ]
   },
   "perspective_c2_y": {
    "Points": [
     {
      "co": {
       "X": 1,
       "Y": -1
      },
      "interpolation": 2
     }
    ]
   },
   "perspective_c3_x": {
    "Points": [
     {
      "co": {
       "X": 1,
       "Y": -1
      },
      "interpolation": 2
     }
    ]
   },
   "perspective_c3_y": {
    "Points": [
     {
      "co": {
       "X": 1,
       "Y": -1
      },
      "interpolation": 2
     }
    ]
   },
   "perspective_c4_x": {
    "Points": [
     {
      "co": {
       "X": 1,
       "Y": -1
      },
      "interpolation": 2
     }
    ]
   },
   "perspective_c4_y": {
    "Points": [
     {
      "co": {
       "X": 1,
       "Y": -1
      },
      "interpolation": 2
     }
    ]
   },
   "position": 0,
   "reader": {
    "acodec": "",
    "audio_bit_rate": 0,
    "audio_stream_index": -1,
    "audio_timebase": {
     "den": 1,
     "num": 1
    },
    "channel_layout": 4,
    "channels": 0,
    "display_ratio": {
     "den": 9,
     "num": 16
    },
    "duration": 73.36000061035156,
    "file_size": "8991315",
    "fps": {
     "den": 1,
     "num": 25
    },
    "has_audio": false,
    "has_single_image": false,
    "has_video": true,
    "height": 720,
    "interlaced_frame": false,
    "metadata": {
     "compatible_brands": "iso6avc1mp41",
     "creation_time": "2013-12-07T02:59:06.000000Z",
     "handler_name": "VideoHandler",
     "language": "und",
     "major_brand": "dash",
     "minor_version": "0"
    },
    "path": "./Airflow across a wing-UqBmdZ-BNig.f136.mp4",
    "pixel_format": 0,
    "pixel_ratio": {
     "den": 1,
     "num": 1
    },
    "sample_rate": 0,
    "top_field_first": true,
    "type": "FFmpegReader",
    "vcodec": "h264",
    "video_bit_rate": 122564,
    "video_length": "1834",
    "video_stream_index": 0,
    "video_timebase": {
     "den": 90000,
     "num": 1
    },
    "width": 1280
   },
   "rotation": {
    "Points": [
     {
      "co": {
       "X": 1,
       "Y": 0
      },
      "interpolation": 2
     }
    ]
   },
   "scale": 1,
   "scale_x": {
    "Points": [
     {
      "co": {
       "X": 1,
       "Y": 1.5
      },
      "interpolation": 0
     }
    ]
   },
   "scale_y": {
    "Points": [
     {
      "co": {
       "X": 1,
       "Y": 1.3015267175572518
      },
      "interpolation": 0
     }
    ]
   },
   "shear_x": {
    "Points": [
     {
      "co": {
       "X": 1,
       "Y": 0.0
      },
      "interpolation": 2
     }
    ]
   },
   "shear_y": {
    "Points": [
     {
      "co": {
       "X": 1,
       "Y": 0
      },
      "interpolation": 2
     }
    ]
   },
   "start": 0,
   "time": {
    "Points": [
     {
      "co": {
       "X": 1,
       "Y": 1
      },
      "interpolation": 2
     }
    ]
   },
   "volume": {
    "Points": [
     {
      "co": {
       "X": 1,
       "Y": 0.0
      },
      "interpolation": 2
     }
    ]
   },
   "wave_color": {
    "alpha": {
     "Points": [
      {
       "co": {
        "X": 1,
        "Y": 255
       },
       "handle_left": {
        "X": 0.5,
        "Y": 1
       },
       "handle_right": {
        "X": 0.5,
        "Y": 0
       },
       "handle_type": 0,
       "interpolation": 0
      }
     ]
    },
    "blue": {
     "Points": [
      {
       "co": {
        "X": 1,
        "Y": 255
       },
       "handle_left": {
        "X": 0.5,
        "Y": 1
       },
       "handle_right": {
        "X": 0.5,
        "Y": 0
       },
       "handle_type": 0,
       "interpolation": 0
      }
     ]
    },
    "green": {
     "Points": [
      {
       "co": {
        "X": 1,
        "Y": 123
       },
       "handle_left": {
        "X": 0.5,
        "Y": 1
       },
       "handle_right": {
        "X": 0.5,
        "Y": 0
       },
       "handle_type": 0,
       "interpolation": 0
      }
     ]
    },
    "red": {
     "Points": [
      {
       "co": {
        "X": 1,
        "Y": 0
       },
       "handle_left": {
        "X": 0.5,
        "Y": 1
       },
       "handle_right": {
        "X": 0.5,
        "Y": 0
       },
       "handle_type": 0,
       "interpolation": 0
      }
     ]
    }
   },
   "waveform": false,
   "file_id": "BQRQPYRVSK",
   "title": "Airflow across a wing-UqBmdZ-BNig.f136.mp4",
   "image": "thumbnail/BQRQPYRVSK.png"
  },
  {
   "alpha": {
    "Points": [
     {
      "co": {
       "X": 1,
       "Y": 1
      },
      "interpolation": 2
     }
    ]
   },
   "anchor": 0,
   "channel_filter": {
    "Points": [
     {
      "co": {
       "X": 1,
       "Y": -1
      },
      "interpolation": 2
     }
    ]
   },
   "channel_mapping": {
    "Points": [
     {
      "co": {
       "X": 1,
       "Y": -1
      },
      "interpolation": 2
     }
    ]
   },
   "crop_height": {
    "Points": [
     {
      "co": {
       "X": 1,
       "Y": 1
      },
      "interpolation": 2
     }
    ]
   },
   "crop_width": {
    "Points": [
     {
      "co": {
       "X": 1,
       "Y": 1
      },
      "interpolation": 2
     }
    ]
   },
   "crop_x": {
    "Points": [
     {
      "co": {
       "X": 1,
       "Y": 0
      },
      "interpolation": 2
     }
    ]
   },
   "crop_y": {
    "Points": [
     {
      "co": {
       "X": 1,
       "Y": 0
      },
      "interpolation": 2
     }
    ]
   },
   "display": 0,
   "duration": 3600.0,
   "effects": [],
   "end": 3,
   "gravity": 4,
   "has_audio": {
    "Points": [
     {
      "co": {
       "X": 1,
       "Y": -1
      },
      "interpolation": 2
     }
    ]
   },
   "has_video": {
    "Points": [
     {
      "co": {
       "X": 1,
       "Y": -1
      },
      "interpolation": 2
     }
    ]
   },
   "id": "TRGEWM93I8",
   "layer": 4000000,
   "location_x": {
    "Points": [
     {
      "co": {
       "X": 1,
       "Y": 0
      },
      "interpolation": 2
     }
    ]
   },
   "location_y": {
    "Points": [
     {
      "co": {
       "X": 1,
       "Y": 0
      },
      "interpolation": 2
     }
    ]
   },
   "mixing": 0,
   "perspective_c1_x": {
    "Points": [
     {
      "co": {
       "X": 1,
       "Y": -1
      },
      "interpolation": 2
     }
    ]
   },
   "perspective_c1_y": {
    "Points": [
     {
      "co": {
       "X": 1,
       "Y": -1
      },
      "interpolation": 2
     }
    ]
   },
   "perspective_c2_x": {
    "Points": [
     {
      "co": {
       "X": 1,
       "Y": -1
      },
      "interpolation": 2
     }
    ]
   },
   "perspective_c2_y": {
    "Points": [
     {
      "co": {
       "X": 1,
       "Y": -1
      },
      "interpolation": 2
     }
    ]
   },
   "perspective_c3_x": {
    "Points": [
     {
      "co": {
       "X": 1,
       "Y": -1
      },
      "interpolation": 2
     }
    ]
   },
   "perspective_c3_y": {
    "Points": [
     {
      "co": {
       "X": 1,
       "Y": -1
      },
      "interpolation": 2
     }
    ]
   },
   "perspective_c4_x": {
    "Points": [
     {
      "co": {
       "X": 1,
       "Y": -1
      },
      "interpolation": 2
     }
    ]
   },
   "perspective_c4_y": {
    "Points": [
     {
      "co": {
       "X": 1,
       "Y": -1
      },
      "interpolation": 2
     }
    ]
   },
   "position": 6,
   "reader": {
    "acodec": "",
    "audio_bit_rate": 0,
    "audio_stream_index": -1,
    "audio_timebase": {
     "den": 1,
     "num": 1
    },
    "channel_layout": 4,
    "channels": 0,
    "display_ratio": {
     "den": 9,
     "num": 16
    },
    "duration": 3600.0,
    "file_size": "8294400",
    "fps": {
     "den": 1,
     "num": 30
    },
    "has_audio": false,
    "has_single_image": true,
    "has_video": true,
    "height": 1080,
    "interlaced_frame": false,
    "metadata": {},
    "path": "generated/g0.png",
    "pixel_format": -1,
    "pixel_ratio": {
     "den": 1,
     "num": 1
    },
    "sample_rate": 0,
    "top_field_first": true,
    "type": "QtImageReader",
    "vcodec": "",
    "video_bit_rate": 0,
    "video_length": "108000",
    "video_stream_index": -1,
    "video_timebase": {
     "den": 30,
     "num": 1
    },
    "width": 1920
   },
   "rotation": {
    "Points": [
     {
      "co": {
       "X": 1,
       "Y": 0
      },
      "interpolation": 2
     }
    ]
   },
   "scale": 1,
   "scale_x": {
    "Points": [
     {
      "co": {
       "X": 1,
       "Y": 1
      },
      "interpolation": 2
     }
    ]
   },
   "scale_y": {
    "Points": [
     {
      "co": {
       "X": 1,
       "Y": 1
      },
      "interpolation": 2
     }
    ]
   },
   "shear_x": {
    "Points": [
     {
      "co": {
       "X": 1,
       "Y": 0
      },
      "interpolation": 2
     }
    ]
   },
   "shear_y": {
    "Points": [
     {
      "co": {
       "X": 1,
       "Y": 0
      },
      "interpolation": 2
     }
    ]
   },
   "start": 0,
   "time": {
    "Points": [
     {
      "co": {
       "X": 1,
       "Y": 1
      },
      "interpolation": 2
     }
    ]
   },
   "volume": {
    "Points": [
     {
      "co": {
       "X": 1,
       "Y": 1
      },
      "interpolation": 2
     }
    ]
   },
   "wave_color": {
    "alpha": {
     "Points": [
      {
       "co": {
        "X": 1,
        "Y": 255
       },
       "handle_left": {
        "X": 0.5,
        "Y": 1
       },
       "handle_right": {
        "X": 0.5,
        "Y": 0
       },
       "handle_type": 0,
       "interpolation": 0
      }
     ]
    },
    "blue": {
     "Points": [
      {
       "co": {
        "X": 1,
        "Y": 255
       },
       "handle_left": {
        "X": 0.5,
        "Y": 1
       },
       "handle_right": {
        "X": 0.5,
        "Y": 0
       },
       "handle_type": 0,
       "interpolation": 0
      }
     ]
    },
    "green": {
     "Points": [
      {
       "co": {
        "X": 1,
        "Y": 123
       },
       "handle_left": {
        "X": 0.5,
        "Y": 1
       },
       "handle_right": {
        "X": 0.5,
        "Y": 0
       },
       "handle_type": 0,
       "interpolation": 0
      }
     ]
    },
    "red": {
     "Points": [
      {
       "co": {
        "X": 1,
        "Y": 0
       },
       "handle_left": {
        "X": 0.5,
        "Y": 1
       },
       "handle_right": {
        "X": 0.5,
        "Y": 0
       },
       "handle_type": 0,
       "interpolation": 0
      }
     ]
    }
   },
   "waveform": false,
   "file_id": "14XMU5A0GJ",
   "title": "g0.png",
   "image": "thumbnail/14XMU5A0GJ.png"
  },
  {
   "alpha": {
    "Points": [
     {
      "co": {
       "X": 1,
       "Y": 1
      },
      "interpolation": 2
     }
    ]
   },
   "anchor": 0,
   "channel_filter": {
    "Points": [
     {
      "co": {
       "X": 1,
       "Y": -1
      },
      "interpolation": 2
     }
    ]
   },
   "channel_mapping": {
    "Points": [
     {
      "co": {
       "X": 1,
       "Y": -1
      },
      "interpolation": 2
     }
    ]
   },
   "crop_height": {
    "Points": [
     {
      "co": {
       "X": 1,
       "Y": 1
      },
      "interpolation": 2
     }
    ]
   },
   "crop_width": {
    "Points": [
     {
      "co": {
       "X": 1,
       "Y": 1
      },
      "interpolation": 2
     }
    ]
   },
   "crop_x": {
    "Points": [
     {
      "co": {
       "X": 1,
       "Y": 0
      },
      "interpolation": 2
     }
    ]
   },
   "crop_y": {
    "Points": [
     {
      "co": {
       "X": 1,
       "Y": 0
      },
      "interpolation": 2
     }
    ]
   },
   "display": 0,
   "duration": 3600.0,
   "effects": [],
   "end": 3,
   "gravity": 4,
   "has_audio": {
    "Points": [
     {
      "co": {
       "X": 1,
       "Y": -1
      },
      "interpolation": 2
     }
    ]
   },
   "has_video": {
    "Points": [
     {
      "co": {
       "X": 1,
       "Y": -1
      },
      "interpolation": 2
     }
    ]
   },
   "id": "PP95N7ZUS4",
   "layer": 4000000,
   "location_x": {
    "Points": [
     {
      "co": {
       "X": 1,
       "Y": 0
      },
      "interpolation": 2
     }
    ]
   },
   "location_y": {
    "Points": [
     {
      "co": {
       "X": 1,
       "Y": 0
      },
      "interpolation": 2
     }
    ]
   },
   "mixing": 0,
   "perspective_c1_x": {
    "Points": [
     {
      "co": {
       "X": 1,
       "Y": -1
      },
      "interpolation": 2
     }
    ]
   },
   "perspective_c1_y": {
    "Points": [
     {
      "co": {
       "X": 1,
       "Y": -1
      },
      "interpolation": 2
     }
    ]
   },
   "perspective_c2_x": {
    "Points": [
     {
      "co": {
       "X": 1,
       "Y": -1
      },
      "interpolation": 2
     }
    ]
   },
   "perspective_c2_y": {
    "Points": [
     {
      "co": {
       "X": 1,
       "Y": -1
      },
      "interpolation": 2
     }
    ]
   },
   "perspective_c3_x": {
    "Points": [
     {
      "co": {
       "X": 1,
       "Y": -1
      },
      "interpolation": 2
     }
    ]
   },
   "perspective_c3_y": {
    "Points": [
     {
      "co": {
       "X": 1,
       "Y": -1
      },
      "interpolation": 2
     }
    ]
   },
   "perspective_c4_x": {
    "Points": [
     {
      "co": {
       "X": 1,
       "Y": -1
      },
      "interpolation": 2
     }
    ]
   },
   "perspective_c4_y": {
    "Points": [
     {
      "co": {
       "X": 1,
       "Y": -1
      },
      "interpolation": 2
     }
    ]
   },
   "position": 8,
   "reader": {
    "acodec": "",
    "audio_bit_rate": 0,
    "audio_stream_index": -1,
    "audio_timebase": {
     "den": 1,
     "num": 1
    },
    "channel_layout": 4,
    "channels": 0,
    "display_ratio": {
     "den": 9,
     "num": 16
    },
    "duration": 3600.0,
    "file_size": "8294400",
    "fps": {
     "den": 1,
     "num": 30
    },
    "has_audio": false,
    "has_single_image": true,
    "has_video": true,
    "height": 1080,
    "interlaced_frame": false,
    "metadata": {},
    "path": "generated/g1.png",
    "pixel_format": -1,
    "pixel_ratio": {
     "den": 1,
     "num": 1
    },
    "sample_rate": 0,
    "top_field_first": true,
    "type": "QtImageReader",
    "vcodec": "",
    "video_bit_rate": 0,
    "video_length": "108000",
    "video_stream_index": -1,
    "video_timebase": {
     "den": 30,
     "num": 1
    },
    "width": 1920
   },
   "rotation": {
    "Points": [
     {
      "co": {
       "X": 1,
       "Y": 0
      },
      "interpolation": 2
     }
    ]
   },
   "scale": 1,
   "scale_x": {
    "Points": [
     {
      "co": {
       "X": 1,
       "Y": 1
      },
      "interpolation": 2
     }
    ]
   },
   "scale_y": {
    "Points": [
     {
      "co": {
       "X": 1,
       "Y": 1
      },
      "interpolation": 2
     }
    ]
   },
   "shear_x": {
    "Points": [
     {
      "co": {
       "X": 1,
       "Y": 0
      },
      "interpolation": 2
     }
    ]
   },
   "shear_y": {
    "Points": [
     {
      "co": {
       "X": 1,
       "Y": 0
      },
      "interpolation": 2
     }
    ]
   },
   "start": 0,
   "time": {
    "Points": [
     {
      "co": {
       "X": 1,
       "Y": 1
      },
      "interpolation": 2
     }
    ]
   },
   "volume": {
    "Points": [
     {
      "co": {
       "X": 1,
       "Y": 1
      },
      "interpolation": 2
     }
    ]
   },
   "wave_color": {
    "alpha": {
     "Points": [
      {
       "co": {
        "X": 1,
        "Y": 255
       },
       "handle_left": {
        "X": 0.5,
        "Y": 1
       },
       "handle_right": {
        "X": 0.5,
        "Y": 0
       },
       "handle_type": 0,
       "interpolation": 0
      }
     ]
    },
    "blue": {
     "Points": [
      {
       "co": {
        "X": 1,
        "Y": 255
       },
       "handle_left": {
        "X": 0.5,
        "Y": 1
       },
       "handle_right": {
        "X": 0.5,
        "Y": 0
       },
       "handle_type": 0,
       "interpolation": 0
      }
     ]
    },
    "green": {
     "Points": [
      {
       "co": {
        "X": 1,
        "Y": 123
       },
       "handle_left": {
        "X": 0.5,
        "Y": 1
       },
       "handle_right": {
        "X": 0.5,
        "Y": 0
       },
       "handle_type": 0,
       "interpolation": 0
      }
     ]
    },
    "red": {
     "Points": [
      {
       "co": {
        "X": 1,
        "Y": 0
       },
       "handle_left": {
        "X": 0.5,
        "Y": 1
       },
       "handle_right": {
        "X": 0.5,
        "Y": 0
       },
       "handle_type": 0,
       "interpolation": 0
      }
     ]
    }
   },
   "waveform": false,
   "file_id": "0HEIAFGKHN",
   "title": "g1.png",
   "image": "thumbnail/0HEIAFGKHN.png"
  },
  {
   "alpha": {
    "Points": [
     {
      "co": {
       "X": 1,
       "Y": 1
      },
      "interpolation": 2
     }
    ]
   },
   "anchor": 0,
   "channel_filter": {
    "Points": [
     {
      "co": {
       "X": 1,
       "Y": -1
      },
      "interpolation": 2
     }
    ]
   },
   "channel_mapping": {
    "Points": [
     {
      "co": {
       "X": 1,
       "Y": -1
      },
      "interpolation": 2
     }
    ]
   },
   "crop_height": {
    "Points": [
     {
      "co": {
       "X": 1,
       "Y": 1
      },
      "interpolation": 2
     }
    ]
   },
   "crop_width": {
    "Points": [
     {
      "co": {
       "X": 1,
       "Y": 1
      },
      "interpolation": 2
     }
    ]
   },
   "crop_x": {
    "Points": [
     {
      "co": {
       "X": 1,
       "Y": 0
      },
      "interpolation": 2
     }
    ]
   },
   "crop_y": {
    "Points": [
     {
      "co": {
       "X": 1,
       "Y": 0
      },
      "interpolation": 2
     }
    ]
   },
   "display": 0,
   "duration": 3600.0,
   "effects": [],
   "end": 3,
   "gravity": 4,
   "has_audio": {
    "Points": [
     {
      "co": {
       "X": 1,
       "Y": -1
      },
      "interpolation": 2
     }
    ]
   },
   "has_video": {
    "Points": [
     {
      "co": {
       "X": 1,
       "Y": -1
      },
      "interpolation": 2
     }
    ]
   },
   "id": "6SHW9SUNDG",
   "layer": 4000000,
   "location_x": {
    "Points": [
     {
      "co": {
       "X": 1,
       "Y": 0
      },
      "interpolation": 2
     }
    ]
   },
   "location_y": {
    "Points": [
     {
      "co": {
       "X": 1,
       "Y": 0
      },
      "interpolation": 2
     }
    ]
   },
   "mixing": 0,
   "perspective_c1_x": {
    "Points": [
     {
      "co": {
       "X": 1,
       "Y": -1
      },
      "interpolation": 2
     }
    ]
   },
   "perspective_c1_y": {
    "Points": [
     {
      "co": {
       "X": 1,
       "Y": -1
      },
      "interpolation": 2
     }
    ]
   },
   "perspective_c2_x": {
    "Points": [
     {
      "co": {
       "X": 1,
       "Y": -1
      },
      "interpolation": 2
     }
    ]
   },
   "perspective_c2_y": {
    "Points": [
     {
      "co": {
       "X": 1,
       "Y": -1
      },
      "interpolation": 2
     }
    ]
   },
   "perspective_c3_x": {
    "Points": [
     {
      "co": {
       "X": 1,
       "Y": -1
      },
      "interpolation": 2
     }
    ]
   },
   "perspective_c3_y": {
    "Points": [
     {
      "co": {
       "X": 1,
       "Y": -1
      },
      "interpolation": 2
     }
    ]
   },
   "perspective_c4_x": {
    "Points": [
     {
      "co": {
       "X": 1,
       "Y": -1
      },
      "interpolation": 2
     }
    ]
   },
   "perspective_c4_y": {
    "Points": [
     {
      "co": {
       "X": 1,
       "Y": -1
      },
      "interpolation": 2
     }
    ]
   },
   "position": 10,
   "reader": {
    "acodec": "",
    "audio_bit_rate": 0,
    "audio_stream_index": -1,
    "audio_timebase": {
     "den": 1,
     "num": 1
    },
    "channel_layout": 4,
    "channels": 0,
    "display_ratio": {
     "den": 9,
     "num": 16
    },
    "duration": 3600.0,
    "file_size": "8294400",
    "fps": {
     "den": 1,
     "num": 30
    },
    "has_audio": false,
    "has_single_image": true,
    "has_video": true,
    "height": 1080,
    "interlaced_frame": false,
    "metadata": {},
    "path": "generated/g2.png",
    "pixel_format": -1,
    "pixel_ratio": {
     "den": 1,
     "num": 1
    },
    "sample_rate": 0,
    "top_field_first": true,
    "type": "QtImageReader",
    "vcodec": "",
    "video_bit_rate": 0,
    "video_length": "108000",
    "video_stream_index": -1,
    "video_timebase": {
     "den": 30,
     "num": 1
    },
    "width": 1920
   },
   "rotation": {
    "Points": [
     {
      "co": {
       "X": 1,
       "Y": 0
      },
      "interpolation": 2
     }
    ]
   },
   "scale": 1,
   "scale_x": {
    "Points": [
     {
      "co": {
       "X": 1,
       "Y": 1
      },
      "interpolation": 2
     }
    ]
   },
   "scale_y": {
    "Points": [
     {
      "co": {
       "X": 1,
       "Y": 1
      },
      "interpolation": 2
     }
    ]
   },
   "shear_x": {
    "Points": [
     {
      "co": {
       "X": 1,
       "Y": 0
      },
      "interpolation": 2
     }
    ]
   },
   "shear_y": {
    "Points": [
     {
      "co": {
       "X": 1,
       "Y": 0
      },
      "interpolation": 2
     }
    ]
   },
   "start": 0,
   "time": {
    "Points": [
     {
      "co": {
       "X": 1,
       "Y": 1
      },
      "interpolation": 2
     }
    ]
   },
   "volume": {
    "Points": [
     {
      "co": {
       "X": 1,
       "Y": 1
      },
      "interpolation": 2
     }
    ]
   },
   "wave_color": {
    "alpha": {
     "Points": [
      {
       "co": {
        "X": 1,
        "Y": 255
       },
       "handle_left": {
        "X": 0.5,
        "Y": 1
       },
       "handle_right": {
        "X": 0.5,
        "Y": 0
       },
       "handle_type": 0,
       "interpolation": 0
      }
     ]
    },
    "blue": {
     "Points": [
      {
       "co": {
        "X": 1,
        "Y": 255
       },
       "handle_left": {
        "X": 0.5,
        "Y": 1
       },
       "handle_right": {
        "X": 0.5,
        "Y": 0
       },
       "handle_type": 0,
       "interpolation": 0
      }
     ]
    },
    "green": {
     "Points": [
      {
       "co": {
        "X": 1,
        "Y": 123
       },
       "handle_left": {
        "X": 0.5,
        "Y": 1
       },
       "handle_right": {
        "X": 0.5,
        "Y": 0
       },
       "handle_type": 0,
       "interpolation": 0
      }
     ]
    },
    "red": {
     "Points": [
      {
       "co": {
        "X": 1,
        "Y": 0
       },
       "handle_left": {
        "X": 0.5,
        "Y": 1
       },
       "handle_right": {
        "X": 0.5,
        "Y": 0
       },
       "handle_type": 0,
       "interpolation": 0
      }
     ]
    }
   },
   "waveform": false,
   "file_id": "30TG8KEIVW",
   "title": "g2.png",
   "image": "thumbnail/30TG8KEIVW.png"
  },
  {
   "alpha": {
    "Points": [
     {
      "co": {
       "X": 1,
       "Y": 1
      },
      "interpolation": 2
     }
    ]
   },
   "anchor": 0,
   "channel_filter": {
    "Points": [
     {
      "co": {
       "X": 1,
       "Y": -1
      },
      "interpolation": 2
     }
    ]
   },
   "channel_mapping": {
    "Points": [
     {
      "co": {
       "X": 1,
       "Y": -1
      },
      "interpolation": 2
     }
    ]
   },
   "crop_height": {
    "Points": [
     {
      "co": {
       "X": 1,
       "Y": 1
      },
      "interpolation": 2
     }
    ]
   },
   "crop_width": {
    "Points": [
     {
      "co": {
       "X": 1,
       "Y": 1
      },
      "interpolation": 2
     }
    ]
   },
   "crop_x": {
    "Points": [
     {
      "co": {
       "X": 1,
       "Y": 0
      },
      "interpolation": 2
     }
    ]
   },
   "crop_y": {
    "Points": [
     {
      "co": {
       "X": 1,
       "Y": 0
      },
      "interpolation": 2
     }
    ]
   },
   "display": 0,
   "duration": 3600.0,
   "effects": [],
   "end": 3,
   "gravity": 4,
   "has_audio": {
    "Points": [
     {
      "co": {
       "X": 1,
       "Y": -1
      },
      "interpolation": 2
     }
    ]
   },
   "has_video": {
    "Points": [
     {
      "co": {
       "X": 1,
       "Y": -1
      },
      "interpolation": 2
     }
    ]
   },
   "id": "4AI8YYFUYY",
   "layer": 4000000,
   "location_x": {
    "Points": [
     {
      "co": {
       "X": 1,
       "Y": 0
      },
      "interpolation": 2
     }
    ]
   },
   "location_y": {
    "Points": [
     {
      "co": {
       "X": 1,
       "Y": 0
      },
      "interpolation": 2
     }
    ]
   },
   "mixing": 0,
   "perspective_c1_x": {
    "Points": [
     {
      "co": {
       "X": 1,
       "Y": -1
      },
      "interpolation": 2
     }
    ]
   },
   "perspective_c1_y": {
    "Points": [
     {
      "co": {
       "X": 1,
       "Y": -1
      },
      "interpolation": 2
     }
    ]
   },
   "perspective_c2_x": {
    "Points": [
     {
      "co": {
       "X": 1,
       "Y": -1
      },
      "interpolation": 2
     }
    ]
   },
   "perspective_c2_y": {
    "Points": [
     {
      "co": {
       "X": 1,
       "Y": -1
      },
      "interpolation": 2
     }
    ]
   },
   "perspective_c3_x": {
    "Points": [
     {
      "co": {
       "X": 1,
       "Y": -1
      },
      "interpolation": 2
     }
    ]
   },
   "perspective_c3_y": {
    "Points": [
     {
      "co": {
       "X": 1,
       "Y": -1
      },
      "interpolation": 2
     }
    ]
   },
   "perspective_c4_x": {
    "Points": [
     {
      "co": {
       "X": 1,
       "Y": -1
      },
      "interpolation": 2
     }
    ]
   },
   "perspective_c4_y": {
    "Points": [
     {
      "co": {
       "X": 1,
       "Y": -1
      },
      "interpolation": 2
     }
    ]
   },
   "position": 12,
   "reader": {
    "acodec": "",
    "audio_bit_rate": 0,
    "audio_stream_index": -1,
    "audio_timebase": {
     "den": 1,
     "num": 1
    },
    "channel_layout": 4,
    "channels": 0,
    "display_ratio": {
     "den": 9,
     "num": 16
    },
    "duration": 3600.0,
    "file_size": "8294400",
    "fps": {
     "den": 1,
     "num": 30
    },
    "has_audio": false,
    "has_single_image": true,
    "has_video": true,
    "height": 1080,
    "interlaced_frame": false,
    "metadata": {},
    "path": "generated/g3.png",
    "pixel_format": -1,
    "pixel_ratio": {
     "den": 1,
     "num": 1
    },
    "sample_rate": 0,
    "top_field_first": true,
    "type": "QtImageReader",
    "vcodec": "",
    "video_bit_rate": 0,
    "video_length": "108000",
    "video_stream_index": -1,
    "video_timebase": {
     "den": 30,
     "num": 1
    },
    "width": 1920
   },
   "rotation": {
    "Points": [
     {
      "co": {
       "X": 1,
       "Y": 0
      },
      "interpolation": 2
     }
    ]
   },
   "scale": 1,
   "scale_x": {
    "Points": [
     {
      "co": {
       "X": 1,
       "Y": 1
      },
      "interpolation": 2
     }
    ]
   },
   "scale_y": {
    "Points": [
     {
      "co": {
       "X": 1,
       "Y": 1
      },
      "interpolation": 2
     }
    ]
   },
   "shear_x": {
    "Points": [
     {
      "co": {
       "X": 1,
       "Y": 0
      },
      "interpolation": 2
     }
    ]
   },
   "shear_y": {
    "Points": [
     {
      "co": {
       "X": 1,
       "Y": 0
      },
      "interpolation": 2
     }
    ]
   },
   "start": 0,
   "time": {
    "Points": [
     {
      "co": {
       "X": 1,
       "Y": 1
      },
      "interpolation": 2
     }
    ]
   },
   "volume": {
    "Points": [
     {
      "co": {
       "X": 1,
       "Y": 1
      },
      "interpolation": 2
     }
    ]
   },
   "wave_color": {
    "alpha": {
     "Points": [
      {
       "co": {
        "X": 1,
        "Y": 255
       },
       "handle_left": {
        "X": 0.5,
        "Y": 1
       },
       "handle_right": {
        "X": 0.5,
        "Y": 0
       },
       "handle_type": 0,
       "interpolation": 0
      }
     ]
    },
    "blue": {
     "Points": [
      {
       "co": {
        "X": 1,
        "Y": 255
       },
       "handle_left": {
        "X": 0.5,
        "Y": 1
       },
       "handle_right": {
        "X": 0.5,
        "Y": 0
       },
       "handle_type": 0,
       "interpolation": 0
      }
     ]
    },
    "green": {
     "Points": [
      {
       "co": {
        "X": 1,
        "Y": 123
       },
       "handle_left": {
        "X": 0.5,
        "Y": 1
       },
       "handle_right": {
        "X": 0.5,
        "Y": 0
       },
       "handle_type": 0,
       "interpolation": 0
      }
     ]
    },
    "red": {
     "Points": [
      {
       "co": {
        "X": 1,
        "Y": 0
       },
       "handle_left": {
        "X": 0.5,
        "Y": 1
       },
       "handle_right": {
        "X": 0.5,
        "Y": 0
       },
       "handle_type": 0,
       "interpolation": 0
      }
     ]
    }
   },
   "waveform": false,
   "file_id": "NFH7JMUJJU",
   "title": "g3.png",
   "image": "thumbnail/NFH7JMUJJU.png"
  },
  {
   "alpha": {
    "Points": [
     {
      "co": {
       "X": 1,
       "Y": 1
      },
      "interpolation": 2
     }
    ]
   },
   "anchor": 0,
   "channel_filter": {
    "Points": [
     {
      "co": {
       "X": 1,
       "Y": -1
      },
      "interpolation": 2
     }
    ]
   },
   "channel_mapping": {
    "Points": [
     {
      "co": {
       "X": 1,
       "Y": -1
      },
      "interpolation": 2
     }
    ]
   },
   "crop_height": {
    "Points": [
     {
      "co": {
       "X": 1,
       "Y": 1
      },
      "interpolation": 2
     }
    ]
   },
   "crop_width": {
    "Points": [
     {
      "co": {
       "X": 1,
       "Y": 1
      },
      "interpolation": 2
     }
    ]
   },
   "crop_x": {
    "Points": [
     {
      "co": {
       "X": 1,
       "Y": 0
      },
      "interpolation": 2
     }
    ]
   },
   "crop_y": {
    "Points": [
     {
      "co": {
       "X": 1,
       "Y": 0
      },
      "interpolation": 2
     }
    ]
   },
   "display": 0,
   "duration": 3600.0,
   "effects": [],
   "end": 5,
   "gravity": 4,
   "has_audio": {
    "Points": [
     {
      "co": {
       "X": 1,
       "Y": -1
      },
      "interpolation": 2
     }
    ]
   },
   "has_video": {
    "Points": [
     {
      "co": {
       "X": 1,
       "Y": -1
      },
      "interpolation": 2
     }
    ]
   },
   "id": "THWDPIF57E",
   "layer": 4000000,
   "location_x": {
    "Points": [
     {
      "co": {
       "X": 1,
       "Y": 0
      },
      "interpolation": 2
     }
    ]
   },
   "location_y": {
    "Points": [
     {
      "co": {
       "X": 1,
       "Y": 0
      },
      "interpolation": 2
     }
    ]
   },
   "mixing": 0,
   "perspective_c1_x": {
    "Points": [
     {
      "co": {
       "X": 1,
       "Y": -1
      },
      "interpolation": 2
     }
    ]
   },
   "perspective_c1_y": {
    "Points": [
     {
      "co": {
       "X": 1,
       "Y": -1
      },
      "interpolation": 2
     }
    ]
   },
   "perspective_c2_x": {
    "Points": [
     {
      "co": {
       "X": 1,
       "Y": -1
      },
      "interpolation": 2
     }
    ]
   },
   "perspective_c2_y": {
    "Points": [
     {
      "co": {
       "X": 1,
       "Y": -1
      },
      "interpolation": 2
     }
    ]
   },
   "perspective_c3_x": {
    "Points": [
     {
      "co": {
       "X": 1,
       "Y": -1
      },
      "interpolation": 2
     }
    ]
   },
   "perspective_c3_y": {
    "Points": [
     {
      "co": {
       "X": 1,
       "Y": -1
      },
      "interpolation": 2
     }
    ]
   },
   "perspective_c4_x": {
    "Points": [
     {
      "co": {
       "X": 1,
       "Y": -1
      },
      "interpolation": 2
     }
    ]
   },
   "perspective_c4_y": {
    "Points": [
     {
      "co": {
       "X": 1,
       "Y": -1
      },
      "interpolation": 2
     }
    ]
   },
   "position": 14,
   "reader": {
    "acodec": "",
    "audio_bit_rate": 0,
    "audio_stream_index": -1,
    "audio_timebase": {
     "den": 1,
     "num": 1
    },
    "channel_layout": 4,
    "channels": 0,
    "display_ratio": {
     "den": 9,
     "num": 16
    },
    "duration": 3600.0,
    "file_size": "8294400",
    "fps": {
     "den": 1,
     "num": 30
    },
    "has_audio": false,
    "has_single_image": true,
    "has_video": true,
    "height": 1080,
    "interlaced_frame": false,
    "metadata": {},
    "path": "generated/g4.png",
    "pixel_format": -1,
    "pixel_ratio": {
     "den": 1,
     "num": 1
    },
    "sample_rate": 0,
    "top_field_first": true,
    "type": "QtImageReader",
    "vcodec": "",
    "video_bit_rate": 0,
    "video_length": "108000",
    "video_stream_index": -1,
    "video_timebase": {
     "den": 30,
     "num": 1
    },
    "width": 1920
   },
   "rotation": {
    "Points": [
     {
      "co": {
       "X": 1,
       "Y": 0
      },
      "interpolation": 2
     }
    ]
   },
   "scale": 1,
   "scale_x": {
    "Points": [
     {
      "co": {
       "X": 1,
       "Y": 1
      },
      "interpolation": 2
     }
    ]
   },
   "scale_y": {
    "Points": [
     {
      "co": {
       "X": 1,
       "Y": 1
      },
      "interpolation": 2
     }
    ]
   },
   "shear_x": {
    "Points": [
     {
      "co": {
       "X": 1,
       "Y": 0
      },
      "interpolation": 2
     }
    ]
   },
   "shear_y": {
    "Points": [
     {
      "co": {
       "X": 1,
       "Y": 0
      },
      "interpolation": 2
     }
    ]
   },
   "start": 0,
   "time": {
    "Points": [
     {
      "co": {
       "X": 1,
       "Y": 1
      },
      "interpolation": 2
     }
    ]
   },
   "volume": {
    "Points": [
     {
      "co": {
       "X": 1,
       "Y": 1
      },
      "interpolation": 2
     }
    ]
   },
   "wave_color": {
    "alpha": {
     "Points": [
      {
       "co": {
        "X": 1,
        "Y": 255
       },
       "handle_left": {
        "X": 0.5,
        "Y": 1
       },
       "handle_right": {
        "X": 0.5,
        "Y": 0
       },
       "handle_type": 0,
       "interpolation": 0
      }
     ]
    },
    "blue": {
     "Points": [
      {
       "co": {
        "X": 1,
        "Y": 255
       },
       "handle_left": {
        "X": 0.5,
        "Y": 1
       },
       "handle_right": {
        "X": 0.5,
        "Y": 0
       },
       "handle_type": 0,
       "interpolation": 0
      }
     ]
    },
    "green": {
     "Points": [
      {
       "co": {
        "X": 1,
        "Y": 123
       },
       "handle_left": {
        "X": 0.5,
        "Y": 1
       },
       "handle_right": {
        "X": 0.5,
        "Y": 0
       },
       "handle_type": 0,
       "interpolation": 0
      }
     ]
    },
    "red": {
     "Points": [
      {
       "co": {
        "X": 1,
        "Y": 0
       },
       "handle_left": {
        "X": 0.5,
        "Y": 1
       },
       "handle_right": {
        "X": 0.5,
        "Y": 0
       },
       "handle_type": 0,
       "interpolation": 0
      }
     ]
    }
   },
   "waveform": false,
   "file_id": "B73V91GBIH",
   "title": "g4.png",
   "image": "thumbnail/B73V91GBIH.png"
  },
  {
   "alpha": {
    "Points": [
     {
      "co": {
       "X": 1,
       "Y": 1
      },
      "interpolation": 2
     }
    ]
   },
   "anchor": 0,
   "channel_filter": {
    "Points": [
     {
      "co": {
       "X": 1,
       "Y": -1
      },
      "interpolation": 2
     }
    ]
   },
   "channel_mapping": {
    "Points": [
     {
      "co": {
       "X": 1,
       "Y": -1
      },
      "interpolation": 2
     }
    ]
   },
   "crop_height": {
    "Points": [
     {
      "co": {
       "X": 1,
       "Y": 1
      },
      "interpolation": 2
     }
    ]
   },
   "crop_width": {
    "Points": [
     {
      "co": {
       "X": 1,
       "Y": 1
      },
      "interpolation": 2
     }
    ]
   },
   "crop_x": {
    "Points": [
     {
      "co": {
       "X": 1,
       "Y": 0
      },
      "interpolation": 2
     }
    ]
   },
   "crop_y": {
    "Points": [
     {
      "co": {
       "X": 1,
       "Y": 0
      },
      "interpolation": 2
     }
    ]
   },
   "display": 0,
   "duration": 3600.0,
   "effects": [],
   "end": 4,
   "gravity": 4,
   "has_audio": {
    "Points": [
     {
      "co": {
       "X": 1,
       "Y": -1
      },
      "interpolation": 2
     }
    ]
   },
   "has_video": {
    "Points": [
     {
      "co": {
       "X": 1,
       "Y": -1
      },
      "interpolation": 2
     }
    ]
   },
   "id": "2QLTOSNJL5",
   "layer": 4000000,
   "location_x": {
    "Points": [
     {
      "co": {
       "X": 1,
       "Y": 0
      },
      "interpolation": 2
     }
    ]
   },
   "location_y": {
    "Points": [
     {
      "co": {
       "X": 1,
       "Y": 0
      },
      "interpolation": 2
     }
    ]
   },
   "mixing": 0,
   "perspective_c1_x": {
    "Points": [
     {
      "co": {
       "X": 1,
       "Y": -1
      },
      "interpolation": 2
     }
    ]
   },
   "perspective_c1_y": {
    "Points": [
     {
      "co": {
       "X": 1,
       "Y": -1
      },
      "interpolation": 2
     }
    ]
   },
   "perspective_c2_x": {
    "Points": [
     {
      "co": {
       "X": 1,
       "Y": -1
      },
      "interpolation": 2
     }
    ]
   },
   "perspective_c2_y": {
    "Points": [
     {
      "co": {
       "X": 1,
       "Y": -1
      },
      "interpolation": 2
     }
    ]
   },
   "perspective_c3_x": {
    "Points": [
     {
      "co": {
       "X": 1,
       "Y": -1
      },
      "interpolation": 2
     }
    ]
   },
   "perspective_c3_y": {
    "Points": [
     {
      "co": {
       "X": 1,
       "Y": -1
      },
      "interpolation": 2
     }
    ]
   },
   "perspective_c4_x": {
    "Points": [
     {
      "co": {
       "X": 1,
       "Y": -1
      },
      "interpolation": 2
     }
    ]
   },
   "perspective_c4_y": {
    "Points": [
     {
      "co": {
       "X": 1,
       "Y": -1
      },
      "interpolation": 2
     }
    ]
   },
   "position": 30,
   "reader": {
    "acodec": "",
    "audio_bit_rate": 0,
    "audio_stream_index": -1,
    "audio_timebase": {
     "den": 1,
     "num": 1
    },
    "channel_layout": 4,
    "channels": 0,
    "display_ratio": {
     "den": 9,
     "num": 16
    },
    "duration": 3600.0,
    "file_size": "8294400",
    "fps": {
     "den": 1,
     "num": 30
    },
    "has_audio": false,
    "has_single_image": true,
    "has_video": true,
    "height": 1080,
    "interlaced_frame": false,
    "metadata": {},
    "path": "generated/g1.png",
    "pixel_format": -1,
    "pixel_ratio": {
     "den": 1,
     "num": 1
    },
    "sample_rate": 0,
    "top_field_first": true,
    "type": "QtImageReader",
    "vcodec": "",
    "video_bit_rate": 0,
    "video_length": "108000",
    "video_stream_index": -1,
    "video_timebase": {
     "den": 30,
     "num": 1
    },
    "width": 1920
   },
   "rotation": {
    "Points": [
     {
      "co": {
       "X": 1,
       "Y": 0
      },
      "interpolation": 2
     }
    ]
   },
   "scale": 1,
   "scale_x": {
    "Points": [
     {
      "co": {
       "X": 1,
       "Y": 1
      },
      "interpolation": 2
     }
    ]
   },
   "scale_y": {
    "Points": [
     {
      "co": {
       "X": 1,
       "Y": 1
      },
      "interpolation": 2
     }
    ]
   },
   "shear_x": {
    "Points": [
     {
      "co": {
       "X": 1,
       "Y": 0
      },
      "interpolation": 2
     }
    ]
   },
   "shear_y": {
    "Points": [
     {
      "co": {
       "X": 1,
       "Y": 0
      },
      "interpolation": 2
     }
    ]
   },
   "start": 0,
   "time": {
    "Points": [
     {
      "co": {
       "X": 1,
       "Y": 1
      },
      "interpolation": 2
     }
    ]
   },
   "volume": {
    "Points": [
     {
      "co": {
       "X": 1,
       "Y": 1
      },
      "interpolation": 2
     }
    ]
   },
   "wave_color": {
    "alpha": {
     "Points": [
      {
       "co": {
        "X": 1,
        "Y": 255
       },
       "handle_left": {
        "X": 0.5,
        "Y": 1
       },
       "handle_right": {
        "X": 0.5,
        "Y": 0
       },
       "handle_type": 0,
       "interpolation": 0
      }
     ]
    },
    "blue": {
     "Points": [
      {
       "co": {
        "X": 1,
        "Y": 255
       },
       "handle_left": {
        "X": 0.5,
        "Y": 1
       },
       "handle_right": {
        "X": 0.5,
        "Y": 0
       },
       "handle_type": 0,
       "interpolation": 0
      }
     ]
    },
    "green": {
     "Points": [
      {
       "co": {
        "X": 1,
        "Y": 123
       },
       "handle_left": {
        "X": 0.5,
        "Y": 1
       },
       "handle_right": {
        "X": 0.5,
        "Y": 0
       },
       "handle_type": 0,
       "interpolation": 0
      }
     ]
    },
    "red": {
     "Points": [
      {
       "co": {
        "X": 1,
        "Y": 0
       },
       "handle_left": {
        "X": 0.5,
        "Y": 1
       },
       "handle_right": {
        "X": 0.5,
        "Y": 0
       },
       "handle_type": 0,
       "interpolation": 0
      }
     ]
    }
   },
   "waveform": false,
   "file_id": "0HEIAFGKHN",
   "title": "g1.png",
   "image": "thumbnail/0HEIAFGKHN.png"
  },
  {
   "alpha": {
    "Points": [
     {
      "co": {
       "X": 1,
       "Y": 1
      },
      "interpolation": 2
     }
    ]
   },
   "anchor": 0,
   "channel_filter": {
    "Points": [
     {
      "co": {
       "X": 1,
       "Y": -1
      },
      "interpolation": 2
     }
    ]
   },
   "channel_mapping": {
    "Points": [
     {
      "co": {
       "X": 1,
       "Y": -1
      },
      "interpolation": 2
     }
    ]
   },
   "crop_height": {
    "Points": [
     {
      "co": {
       "X": 1,
       "Y": 1
      },
      "interpolation": 2
     }
    ]
   },
   "crop_width": {
    "Points": [
     {
      "co": {
       "X": 1,
       "Y": 1
      },
      "interpolation": 2
     }
    ]
   },
   "crop_x": {
    "Points": [
     {
      "co": {
       "X": 1,
       "Y": 0
      },
      "interpolation": 2
     }
    ]
   },
   "crop_y": {
    "Points": [
     {
      "co": {
       "X": 1,
       "Y": 0
      },
      "interpolation": 2
     }
    ]
   },
   "display": 0,
   "duration": 3600.0,
   "effects": [],
   "end": 3,
   "gravity": 4,
   "has_audio": {
    "Points": [
     {
      "co": {
       "X": 1,
       "Y": -1
      },
      "interpolation": 2
     }
    ]
   },
   "has_video": {
    "Points": [
     {
      "co": {
       "X": 1,
       "Y": -1
      },
      "interpolation": 2
     }
    ]
   },
   "id": "XVEL3AY0OA",
   "layer": 4000000,
   "location_x": {
    "Points": [
     {
      "co": {
       "X": 1,
       "Y": 0
      },
      "interpolation": 2
     }
    ]
   },
   "location_y": {
    "Points": [
     {
      "co": {
       "X": 1,
       "Y": 0
      },
      "interpolation": 2
     }
    ]
   },
   "mixing": 0,
   "perspective_c1_x": {
    "Points": [
     {
      "co": {
       "X": 1,
       "Y": -1
      },
      "interpolation": 2
     }
    ]
   },
   "perspective_c1_y": {
    "Points": [
     {
      "co": {
       "X": 1,
       "Y": -1
      },
      "interpolation": 2
     }
    ]
   },
   "perspective_c2_x": {
    "Points": [
     {
      "co": {
       "X": 1,
       "Y": -1
      },
      "interpolation": 2
     }
    ]
   },
   "perspective_c2_y": {
    "Points": [
     {
      "co": {
       "X": 1,
       "Y": -1
      },
      "interpolation": 2
     }
    ]
   },
   "perspective_c3_x": {
    "Points": [
     {
      "co": {
       "X": 1,
       "Y": -1
      },
      "interpolation": 2
     }
    ]
   },
   "perspective_c3_y": {
    "Points": [
     {
      "co": {
       "X": 1,
       "Y": -1
      },
      "interpolation": 2
     }
    ]
   },
   "perspective_c4_x": {
    "Points": [
     {
      "co": {
       "X": 1,
       "Y": -1
      },
      "interpolation": 2
     }
    ]
   },
   "perspective_c4_y": {
    "Points": [
     {
      "co": {
       "X": 1,
       "Y": -1
      },
      "interpolation": 2
     }
    ]
   },
   "position": 33,
   "reader": {
    "acodec": "",
    "audio_bit_rate": 0,
    "audio_stream_index": -1,
    "audio_timebase": {
     "den": 1,
     "num": 1
    },
    "channel_layout": 4,
    "channels": 0,
    "display_ratio": {
     "den": 9,
     "num": 16
    },
    "duration": 3600.0,
    "file_size": "8294400",
    "fps": {
     "den": 1,
     "num": 30
    },
    "has_audio": false,
    "has_single_image": true,
    "has_video": true,
    "height": 1080,
    "interlaced_frame": false,
    "metadata": {},
    "path": "generated/g2.png",
    "pixel_format": -1,
    "pixel_ratio": {
     "den": 1,
     "num": 1
    },
    "sample_rate": 0,
    "top_field_first": true,
    "type": "QtImageReader",
    "vcodec": "",
    "video_bit_rate": 0,
    "video_length": "108000",
    "video_stream_index": -1,
    "video_timebase": {
     "den": 30,
     "num": 1
    },
    "width": 1920
   },
   "rotation": {
    "Points": [
     {
      "co": {
       "X": 1,
       "Y": 0
      },
      "interpolation": 2
     }
    ]
   },
   "scale": 1,
   "scale_x": {
    "Points": [
     {
      "co": {
       "X": 1,
       "Y": 1
      },
      "interpolation": 2
     }
    ]
   },
   "scale_y": {
    "Points": [
     {
      "co": {
       "X": 1,
       "Y": 1
      },
      "interpolation": 2
     }
    ]
   },
   "shear_x": {
    "Points": [
     {
      "co": {
       "X": 1,
       "Y": 0
      },
      "interpolation": 2
     }
    ]
   },
   "shear_y": {
    "Points": [
     {
      "co": {
       "X": 1,
       "Y": 0
      },
      "interpolation": 2
     }
    ]
   },
   "start": 0,
   "time": {
    "Points": [
     {
      "co": {
       "X": 1,
       "Y": 1
      },
      "interpolation": 2
     }
    ]
   },
   "volume": {
    "Points": [
     {
      "co": {
       "X": 1,
       "Y": 1
      },
      "interpolation": 2
     }
    ]
   },
   "wave_color": {
    "alpha": {
     "Points": [
      {
       "co": {
        "X": 1,
        "Y": 255
       },
       "handle_left": {
        "X": 0.5,
        "Y": 1
       },
       "handle_right": {
        "X": 0.5,
        "Y": 0
       },
       "handle_type": 0,
       "interpolation": 0
      }
     ]
    },
    "blue": {
     "Points": [
      {
       "co": {
        "X": 1,
        "Y": 255
       },
       "handle_left": {
        "X": 0.5,
        "Y": 1
       },
       "handle_right": {
        "X": 0.5,
        "Y": 0
       },
       "handle_type": 0,
       "interpolation": 0
      }
     ]
    },
    "green": {
     "Points": [
      {
       "co": {
        "X": 1,
        "Y": 123
       },
       "handle_left": {
        "X": 0.5,
        "Y": 1
       },
       "handle_right": {
        "X": 0.5,
        "Y": 0
       },
       "handle_type": 0,
       "interpolation": 0
      }
     ]
    },
    "red": {
     "Points": [
      {
       "co": {
        "X": 1,
        "Y": 0
       },
       "handle_left": {
        "X": 0.5,
        "Y": 1
       },
       "handle_right": {
        "X": 0.5,
        "Y": 0
       },
       "handle_type": 0,
       "interpolation": 0
      }
     ]
    }
   },
   "waveform": false,
   "file_id": "30TG8KEIVW",
   "title": "g2.png",
   "image": "thumbnail/30TG8KEIVW.png"
  },
  {
   "alpha": {
    "Points": [
     {
      "co": {
       "X": 1,
       "Y": 1
      },
      "interpolation": 2
     }
    ]
   },
   "anchor": 0,
   "channel_filter": {
    "Points": [
     {
      "co": {
       "X": 1,
       "Y": -1
      },
      "interpolation": 2
     }
    ]
   },
   "channel_mapping": {
    "Points": [
     {
      "co": {
       "X": 1,
       "Y": -1
      },
      "interpolation": 2
     }
    ]
   },
   "crop_height": {
    "Points": [
     {
      "co": {
       "X": 1,
       "Y": 1
      },
      "interpolation": 2
     }
    ]
   },
   "crop_width": {
    "Points": [
     {
      "co": {
       "X": 1,
       "Y": 1
      },
      "interpolation": 2
     }
    ]
   },
   "crop_x": {
    "Points": [
     {
      "co": {
       "X": 1,
       "Y": 0
      },
      "interpolation": 2
     }
    ]
   },
   "crop_y": {
    "Points": [
     {
      "co": {
       "X": 1,
       "Y": 0
      },
      "interpolation": 2
     }
    ]
   },
   "display": 0,
   "duration": 3600.0,
   "effects": [],
   "end": 7.0,
   "gravity": 4,
   "has_audio": {
    "Points": [
     {
      "co": {
       "X": 1,
       "Y": -1
      },
      "interpolation": 2
     }
    ]
   },
   "has_video": {
    "Points": [
     {
      "co": {
       "X": 1,
       "Y": -1
      },
      "interpolation": 2
     }
    ]
   },
   "id": "6VOHFTJALE",
   "layer": 4000000,
   "location_x": {
    "Points": [
     {
      "co": {
       "X": 1,
       "Y": 0
      },
      "interpolation": 2
     }
    ]
   },
   "location_y": {
    "Points": [
     {
      "co": {
       "X": 1,
       "Y": 0
      },
      "interpolation": 2
     }
    ]
   },
   "mixing": 0,
   "perspective_c1_x": {
    "Points": [
     {
      "co": {
       "X": 1,
       "Y": -1
      },
      "interpolation": 2
     }
    ]
   },
   "perspective_c1_y": {
    "Points": [
     {
      "co": {
       "X": 1,
       "Y": -1
      },
      "interpolation": 2
     }
    ]
   },
   "perspective_c2_x": {
    "Points": [
     {
      "co": {
       "X": 1,
       "Y": -1
      },
      "interpolation": 2
     }
    ]
   },
   "perspective_c2_y": {
    "Points": [
     {
      "co": {
       "X": 1,
       "Y": -1
      },
      "interpolation": 2
     }
    ]
   },
   "perspective_c3_x": {
    "Points": [
     {
      "co": {
       "X": 1,
       "Y": -1
      },
      "interpolation": 2
     }
    ]
   },
   "perspective_c3_y": {
    "Points": [
     {
      "co": {
       "X": 1,
       "Y": -1
      },
      "interpolation": 2
     }
    ]
   },
   "perspective_c4_x": {
    "Points": [
     {
      "co": {
       "X": 1,
       "Y": -1
      },
      "interpolation": 2
     }
    ]
   },
   "perspective_c4_y": {
    "Points": [
     {
      "co": {
       "X": 1,
       "Y": -1
      },
      "interpolation": 2
     }
    ]
   },
   "position": 35.04,
   "reader": {
    "acodec": "",
    "audio_bit_rate": 0,
    "audio_stream_index": -1,
    "audio_timebase": {
     "den": 1,
     "num": 1
    },
    "channel_layout": 4,
    "channels": 0,
    "display_ratio": {
     "den": 9,
     "num": 16
    },
    "duration": 3600.0,
    "file_size": "8294400",
    "fps": {
     "den": 1,
     "num": 30
    },
    "has_audio": false,
    "has_single_image": true,
    "has_video": true,
    "height": 1080,
    "interlaced_frame": false,
    "metadata": {},
    "path": "generated/g3.png",
    "pixel_format": -1,
    "pixel_ratio": {
     "den": 1,
     "num": 1
    },
    "sample_rate": 0,
    "top_field_first": true,
    "type": "QtImageReader",
    "vcodec": "",
    "video_bit_rate": 0,
    "video_length": "108000",
    "video_stream_index": -1,
    "video_timebase": {
     "den": 30,
     "num": 1
    },
    "width": 1920
   },
   "rotation": {
    "Points": [
     {
      "co": {
       "X": 1,
       "Y": 0
      },
      "interpolation": 2
     }
    ]
   },
   "scale": 1,
   "scale_x": {
    "Points": [
     {
      "co": {
       "X": 1,
       "Y": 1
      },
      "interpolation": 2
     }
    ]
   },
   "scale_y": {
    "Points": [
     {
      "co": {
       "X": 1,
       "Y": 1
      },
      "interpolation": 2
     }
    ]
   },
   "shear_x": {
    "Points": [
     {
      "co": {
       "X": 1,
       "Y": 0
      },
      "interpolation": 2
     }
    ]
   },
   "shear_y": {
    "Points": [
     {
      "co": {
       "X": 1,
       "Y": 0
      },
      "interpolation": 2
     }
    ]
   },
   "start": 0,
   "time": {
    "Points": [
     {
      "co": {
       "X": 1,
       "Y": 1
      },
      "interpolation": 2
     }
    ]
   },
   "volume": {
    "Points": [
     {
      "co": {
       "X": 1,
       "Y": 1
      },
      "interpolation": 2
     }
    ]
   },
   "wave_color": {
    "alpha": {
     "Points": [
      {
       "co": {
        "X": 1,
        "Y": 255
       },
       "handle_left": {
        "X": 0.5,
        "Y": 1
       },
       "handle_right": {
        "X": 0.5,
        "Y": 0
       },
       "handle_type": 0,
       "interpolation": 0
      }
     ]
    },
    "blue": {
     "Points": [
      {
       "co": {
        "X": 1,
        "Y": 255
       },
       "handle_left": {
        "X": 0.5,
        "Y": 1
       },
       "handle_right": {
        "X": 0.5,
        "Y": 0
       },
       "handle_type": 0,
       "interpolation": 0
      }
     ]
    },
    "green": {
     "Points": [
      {
       "co": {
        "X": 1,
        "Y": 123
       },
       "handle_left": {
        "X": 0.5,
        "Y": 1
       },
       "handle_right": {
        "X": 0.5,
        "Y": 0
       },
       "handle_type": 0,
       "interpolation": 0
      }
     ]
    },
    "red": {
     "Points": [
      {
       "co": {
        "X": 1,
        "Y": 0
       },
       "handle_left": {
        "X": 0.5,
        "Y": 1
       },
       "handle_right": {
        "X": 0.5,
        "Y": 0
       },
       "handle_type": 0,
       "interpolation": 0
      }
     ]
    }
   },
   "waveform": false,
   "file_id": "NFH7JMUJJU",
   "title": "g3.png",
   "image": "thumbnail/NFH7JMUJJU.png"
  },
  {
   "alpha": {
    "Points": [
     {
      "co": {
       "X": 1,
       "Y": 1
      },
      "interpolation": 2
     }
    ]
   },
   "anchor": 0,
   "channel_filter": {
    "Points": [
     {
      "co": {
       "X": 1,
       "Y": -1
      },
      "interpolation": 2
     }
    ]
   },
   "channel_mapping": {
    "Points": [
     {
      "co": {
       "X": 1,
       "Y": -1
      },
      "interpolation": 2
     }
    ]
   },
   "crop_height": {
    "Points": [
     {
      "co": {
       "X": 1,
       "Y": 1
      },
      "interpolation": 2
     }
    ]
   },
   "crop_width": {
    "Points": [
     {
      "co": {
       "X": 1,
       "Y": 1
      },
      "interpolation": 2
     }
    ]
   },
   "crop_x": {
    "Points": [
     {
      "co": {
       "X": 1,
       "Y": 0
      },
      "interpolation": 2
     }
    ]
   },
   "crop_y": {
    "Points": [
     {
      "co": {
       "X": 1,
       "Y": 0
      },
      "interpolation": 2
     }
    ]
   },
   "display": 0,
   "duration": 3600.0,
   "effects": [],
   "end": 7,
   "gravity": 4,
   "has_audio": {
    "Points": [
     {
      "co": {
       "X": 1,
       "Y": -1
      },
      "interpolation": 2
     }
    ]
   },
   "has_video": {
    "Points": [
     {
      "co": {
       "X": 1,
       "Y": -1
      },
      "interpolation": 2
     }
    ]
   },
   "id": "0LP7G81MB2",
   "layer": 4000000,
   "location_x": {
    "Points": [
     {
      "co": {
       "X": 1,
       "Y": 0
      },
      "interpolation": 2
     }
    ]
   },
   "location_y": {
    "Points": [
     {
      "co": {
       "X": 1,
       "Y": 0
      },
      "interpolation": 2
     }
    ]
   },
   "mixing": 0,
   "perspective_c1_x": {
    "Points": [
     {
      "co": {
       "X": 1,
       "Y": -1
      },
      "interpolation": 2
     }
    ]
   },
   "perspective_c1_y": {
    "Points": [
     {
      "co": {
       "X": 1,
       "Y": -1
      },
      "interpolation": 2
     }
    ]
   },
   "perspective_c2_x": {
    "Points": [
     {
      "co": {
       "X": 1,
       "Y": -1
      },
      "interpolation": 2
     }
    ]
   },
   "perspective_c2_y": {
    "Points": [
     {
      "co": {
       "X": 1,
       "Y": -1
      },
      "interpolation": 2
     }
    ]
   },
   "perspective_c3_x": {
    "Points": [
     {
      "co": {
       "X": 1,
       "Y": -1
      },
      "interpolation": 2
     }
    ]
   },
   "perspective_c3_y": {
    "Points": [
     {
      "co": {
       "X": 1,
       "Y": -1
      },
      "interpolation": 2
     }
    ]
   },
   "perspective_c4_x": {
    "Points": [
     {
      "co": {
       "X": 1,
       "Y": -1
      },
      "interpolation": 2
     }
    ]
   },
   "perspective_c4_y": {
    "Points": [
     {
      "co": {
       "X": 1,
       "Y": -1
      },
      "interpolation": 2
     }
    ]
   },
   "position": 43.0,
   "reader": {
    "acodec": "",
    "audio_bit_rate": 0,
    "audio_stream_index": -1,
    "audio_timebase": {
     "den": 1,
     "num": 1
    },
    "channel_layout": 4,
    "channels": 0,
    "display_ratio": {
     "den": 9,
     "num": 16
    },
    "duration": 3600.0,
    "file_size": "8294400",
    "fps": {
     "den": 1,
     "num": 30
    },
    "has_audio": false,
    "has_single_image": true,
    "has_video": true,
    "height": 1080,
    "interlaced_frame": false,
    "metadata": {},
    "path": "generated/i0.png",
    "pixel_format": -1,
    "pixel_ratio": {
     "den": 1,
     "num": 1
    },
    "sample_rate": 0,
    "top_field_first": true,
    "type": "QtImageReader",
    "vcodec": "",
    "video_bit_rate": 0,
    "video_length": "108000",
    "video_stream_index": -1,
    "video_timebase": {
     "den": 30,
     "num": 1
    },
    "width": 1920
   },
   "rotation": {
    "Points": [
     {
      "co": {
       "X": 1,
       "Y": 0
      },
      "interpolation": 2
     }
    ]
   },
   "scale": 1,
   "scale_x": {
    "Points": [
     {
      "co": {
       "X": 1,
       "Y": 1
      },
      "interpolation": 2
     }
    ]
   },
   "scale_y": {
    "Points": [
     {
      "co": {
       "X": 1,
       "Y": 1
      },
      "interpolation": 2
     }
    ]
   },
   "shear_x": {
    "Points": [
     {
      "co": {
       "X": 1,
       "Y": 0
      },
      "interpolation": 2
     }
    ]
   },
   "shear_y": {
    "Points": [
     {
      "co": {
       "X": 1,
       "Y": 0
      },
      "interpolation": 2
     }
    ]
   },
   "start": 0,
   "time": {
    "Points": [
     {
      "co": {
       "X": 1,
       "Y": 1
      },
      "interpolation": 2
     }
    ]
   },
   "volume": {
    "Points": [
     {
      "co": {
       "X": 1,
       "Y": 1
      },
      "interpolation": 2
     }
    ]
   },
   "wave_color": {
    "alpha": {
     "Points": [
      {
       "co": {
        "X": 1,
        "Y": 255
       },
       "handle_left": {
        "X": 0.5,
        "Y": 1
       },
       "handle_right": {
        "X": 0.5,
        "Y": 0
       },
       "handle_type": 0,
       "interpolation": 0
      }
     ]
    },
    "blue": {
     "Points": [
      {
       "co": {
        "X": 1,
        "Y": 255
       },
       "handle_left": {
        "X": 0.5,
        "Y": 1
       },
       "handle_right": {
        "X": 0.5,
        "Y": 0
       },
       "handle_type": 0,
       "interpolation": 0
      }
     ]
    },
    "green": {
     "Points": [
      {
       "co": {
        "X": 1,
        "Y": 123
       },
       "handle_left": {
        "X": 0.5,
        "Y": 1
       },
       "handle_right": {
        "X": 0.5,
        "Y": 0
       },
       "handle_type": 0,
       "interpolation": 0
      }
     ]
    },
    "red": {
     "Points": [
      {
       "co": {
        "X": 1,
        "Y": 0
       },
       "handle_left": {
        "X": 0.5,
        "Y": 1
       },
       "handle_right": {
        "X": 0.5,
        "Y": 0
       },
       "handle_type": 0,
       "interpolation": 0
      }
     ]
    }
   },
   "waveform": false,
   "file_id": "GS0GI0S0DY",
   "title": "i0.png",
   "image": "thumbnail/GS0GI0S0DY.png"
  },
  {
   "alpha": {
    "Points": [
     {
      "co": {
       "X": 1,
       "Y": 1
      },
      "interpolation": 2
     }
    ]
   },
   "anchor": 0,
   "channel_filter": {
    "Points": [
     {
      "co": {
       "X": 1,
       "Y": -1
      },
      "interpolation": 2
     }
    ]
   },
   "channel_mapping": {
    "Points": [
     {
      "co": {
       "X": 1,
       "Y": -1
      },
      "interpolation": 2
     }
    ]
   },
   "crop_height": {
    "Points": [
     {
      "co": {
       "X": 1,
       "Y": 1
      },
      "interpolation": 2
     }
    ]
   },
   "crop_width": {
    "Points": [
     {
      "co": {
       "X": 1,
       "Y": 1
      },
      "interpolation": 2
     }
    ]
   },
   "crop_x": {
    "Points": [
     {
      "co": {
       "X": 1,
       "Y": 0
      },
      "interpolation": 2
     }
    ]
   },
   "crop_y": {
    "Points": [
     {
      "co": {
       "X": 1,
       "Y": 0
      },
      "interpolation": 2
     }
    ]
   },
   "display": 0,
   "duration": 3600.0,
   "effects": [],
   "end": 6,
   "gravity": 4,
   "has_audio": {
    "Points": [
     {
      "co": {
       "X": 1,
       "Y": -1
      },
      "interpolation": 2
     }
    ]
   },
   "has_video": {
    "Points": [
     {
      "co": {
       "X": 1,
       "Y": -1
      },
      "interpolation": 2
     }
    ]
   },
   "id": "11H8KXEBX0",
   "layer": 4000000,
   "location_x": {
    "Points": [
     {
      "co": {
       "X": 1,
       "Y": 0
      },
      "interpolation": 2
     }
    ]
   },
   "location_y": {
    "Points": [
     {
      "co": {
       "X": 1,
       "Y": 0
      },
      "interpolation": 2
     }
    ]
   },
   "mixing": 0,
   "perspective_c1_x": {
    "Points": [
     {
      "co": {
       "X": 1,
       "Y": -1
      },
      "interpolation": 2
     }
    ]
   },
   "perspective_c1_y": {
    "Points": [
     {
      "co": {
       "X": 1,
       "Y": -1
      },
      "interpolation": 2
     }
    ]
   },
   "perspective_c2_x": {
    "Points": [
     {
      "co": {
       "X": 1,
       "Y": -1
      },
      "interpolation": 2
     }
    ]
   },
   "perspective_c2_y": {
    "Points": [
     {
      "co": {
       "X": 1,
       "Y": -1
      },
      "interpolation": 2
     }
    ]
   },
   "perspective_c3_x": {
    "Points": [
     {
      "co": {
       "X": 1,
       "Y": -1
      },
      "interpolation": 2
     }
    ]
   },
   "perspective_c3_y": {
    "Points": [
     {
      "co": {
       "X": 1,
       "Y": -1
      },
      "interpolation": 2
     }
    ]
   },
   "perspective_c4_x": {
    "Points": [
     {
      "co": {
       "X": 1,
       "Y": -1
      },
      "interpolation": 2
     }
    ]
   },
   "perspective_c4_y": {
    "Points": [
     {
      "co": {
       "X": 1,
       "Y": -1
      },
      "interpolation": 2
     }
    ]
   },
   "position": 47.48,
   "reader": {
    "acodec": "",
    "audio_bit_rate": 0,
    "audio_stream_index": -1,
    "audio_timebase": {
     "den": 1,
     "num": 1
    },
    "channel_layout": 4,
    "channels": 0,
    "display_ratio": {
     "den": 9,
     "num": 16
    },
    "duration": 3600.0,
    "file_size": "8294400",
    "fps": {
     "den": 1,
     "num": 30
    },
    "has_audio": false,
    "has_single_image": true,
    "has_video": true,
    "height": 1080,
    "interlaced_frame": false,
    "metadata": {},
    "path": "generated/i1.png",
    "pixel_format": -1,
    "pixel_ratio": {
     "den": 1,
     "num": 1
    },
    "sample_rate": 0,
    "top_field_first": true,
    "type": "QtImageReader",
    "vcodec": "",
    "video_bit_rate": 0,
    "video_length": "108000",
    "video_stream_index": -1,
    "video_timebase": {
     "den": 30,
     "num": 1
    },
    "width": 1920
   },
   "rotation": {
    "Points": [
     {
      "co": {
       "X": 1,
       "Y": 0
      },
      "interpolation": 2
     }
    ]
   },
   "scale": 1,
   "scale_x": {
    "Points": [
     {
      "co": {
       "X": 1,
       "Y": 1
      },
      "interpolation": 2
     }
    ]
   },
   "scale_y": {
    "Points": [
     {
      "co": {
       "X": 1,
       "Y": 1
      },
      "interpolation": 2
     }
    ]
   },
   "shear_x": {
    "Points": [
     {
      "co": {
       "X": 1,
       "Y": 0
      },
      "interpolation": 2
     }
    ]
   },
   "shear_y": {
    "Points": [
     {
      "co": {
       "X": 1,
       "Y": 0
      },
      "interpolation": 2
     }
    ]
   },
   "start": 0,
   "time": {
    "Points": [
     {
      "co": {
       "X": 1,
       "Y": 1
      },
      "interpolation": 2
     }
    ]
   },
   "volume": {
    "Points": [
     {
      "co": {
       "X": 1,
       "Y": 1
      },
      "interpolation": 2
     }
    ]
   },
   "wave_color": {
    "alpha": {
     "Points": [
      {
       "co": {
        "X": 1,
        "Y": 255
       },
       "handle_left": {
        "X": 0.5,
        "Y": 1
       },
       "handle_right": {
        "X": 0.5,
        "Y": 0
       },
       "handle_type": 0,
       "interpolation": 0
      }
     ]
    },
    "blue": {
     "Points": [
      {
       "co": {
        "X": 1,
        "Y": 255
       },
       "handle_left": {
        "X": 0.5,
        "Y": 1
       },
       "handle_right": {
        "X": 0.5,
        "Y": 0
       },
       "handle_type": 0,
       "interpolation": 0
      }
     ]
    },
    "green": {
     "Points": [
      {
       "co": {
        "X": 1,
        "Y": 123
       },
       "handle_left": {
        "X": 0.5,
        "Y": 1
       },
       "handle_right": {
        "X": 0.5,
        "Y": 0
       },
       "handle_type": 0,
       "interpolation": 0
      }
     ]
    },
    "red": {
     "Points": [
      {
       "co": {
        "X": 1,
        "Y": 0
       },
       "handle_left": {
        "X": 0.5,
        "Y": 1
       },
       "handle_right": {
        "X": 0.5,
        "Y": 0
       },
       "handle_type": 0,
       "interpolation": 0
      }
     ]
    }
   },
   "waveform": false,
   "file_id": "9OBXZNQR45",
   "title": "i1.png",
   "image": "thumbnail/9OBXZNQR45.png"
  },
  {
   "alpha": {
    "Points": [
     {
      "co": {
       "X": 1,
       "Y": 1
      },
      "interpolation": 2
     }
    ]
   },
   "anchor": 0,
   "channel_filter": {
    "Points": [
     {
      "co": {
       "X": 1,
       "Y": -1
      },
      "interpolation": 2
     }
    ]
   },
   "channel_mapping": {
    "Points": [
     {
      "co": {
       "X": 1,
       "Y": -1
      },
      "interpolation": 2
     }
    ]
   },
   "crop_height": {
    "Points": [
     {
      "co": {
       "X": 1,
       "Y": 1
      },
      "interpolation": 2
     }
    ]
   },
   "crop_width": {
    "Points": [
     {
      "co": {
       "X": 1,
       "Y": 1
      },
      "interpolation": 2
     }
    ]
   },
   "crop_x": {
    "Points": [
     {
      "co": {
       "X": 1,
       "Y": 0
      },
      "interpolation": 2
     }
    ]
   },
   "crop_y": {
    "Points": [
     {
      "co": {
       "X": 1,
       "Y": 0
      },
      "interpolation": 2
     }
    ]
   },
   "display": 0,
   "duration": 3600.0,
   "effects": [],
   "end": 6,
   "gravity": 4,
   "has_audio": {
    "Points": [
     {
      "co": {
       "X": 1,
       "Y": -1
      },
      "interpolation": 2
     }
    ]
   },
   "has_video": {
    "Points": [
     {
      "co": {
       "X": 1,
       "Y": -1
      },
      "interpolation": 2
     }
    ]
   },
   "id": "FYGPVRXHG0",
   "layer": 4000000,
   "location_x": {
    "Points": [
     {
      "co": {
       "X": 1,
       "Y": 0
      },
      "interpolation": 2
     }
    ]
   },
   "location_y": {
    "Points": [
     {
      "co": {
       "X": 1,
       "Y": 0
      },
      "interpolation": 2
     }
    ]
   },
   "mixing": 0,
   "perspective_c1_x": {
    "Points": [
     {
      "co": {
       "X": 1,
       "Y": -1
      },
      "interpolation": 2
     }
    ]
   },
   "perspective_c1_y": {
    "Points": [
     {
      "co": {
       "X": 1,
       "Y": -1
      },
      "interpolation": 2
     }
    ]
   },
   "perspective_c2_x": {
    "Points": [
     {
      "co": {
       "X": 1,
       "Y": -1
      },
      "interpolation": 2
     }
    ]
   },
   "perspective_c2_y": {
    "Points": [
     {
      "co": {
       "X": 1,
       "Y": -1
      },
      "interpolation": 2
     }
    ]
   },
   "perspective_c3_x": {
    "Points": [
     {
      "co": {
       "X": 1,
       "Y": -1
      },
      "interpolation": 2
     }
    ]
   },
   "perspective_c3_y": {
    "Points": [
     {
      "co": {
       "X": 1,
       "Y": -1
      },
      "interpolation": 2
     }
    ]
   },
   "perspective_c4_x": {
    "Points": [
     {
      "co": {
       "X": 1,
       "Y": -1
      },
      "interpolation": 2
     }
    ]
   },
   "perspective_c4_y": {
    "Points": [
     {
      "co": {
       "X": 1,
       "Y": -1
      },
      "interpolation": 2
     }
    ]
   },
   "position": 51,
   "reader": {
    "acodec": "",
    "audio_bit_rate": 0,
    "audio_stream_index": -1,
    "audio_timebase": {
     "den": 1,
     "num": 1
    },
    "channel_layout": 4,
    "channels": 0,
    "display_ratio": {
     "den": 9,
     "num": 16
    },
    "duration": 3600.0,
    "file_size": "8294400",
    "fps": {
     "den": 1,
     "num": 30
    },
    "has_audio": false,
    "has_single_image": true,
    "has_video": true,
    "height": 1080,
    "interlaced_frame": false,
    "metadata": {},
    "path": "generated/i2.png",
    "pixel_format": -1,
    "pixel_ratio": {
     "den": 1,
     "num": 1
    },
    "sample_rate": 0,
    "top_field_first": true,
    "type": "QtImageReader",
    "vcodec": "",
    "video_bit_rate": 0,
    "video_length": "108000",
    "video_stream_index": -1,
    "video_timebase": {
     "den": 30,
     "num": 1
    },
    "width": 1920
   },
   "rotation": {
    "Points": [
     {
      "co": {
       "X": 1,
       "Y": 0
      },
      "interpolation": 2
     }
    ]
   },
   "scale": 1,
   "scale_x": {
    "Points": [
     {
      "co": {
       "X": 1,
       "Y": 1
      },
      "interpolation": 2
     }
    ]
   },
   "scale_y": {
    "Points": [
     {
      "co": {
       "X": 1,
       "Y": 1
      },
      "interpolation": 2
     }
    ]
   },
   "shear_x": {
    "Points": [
     {
      "co": {
       "X": 1,
       "Y": 0
      },
      "interpolation": 2
     }
    ]
   },
   "shear_y": {
    "Points": [
     {
      "co": {
       "X": 1,
       "Y": 0
      },
      "interpolation": 2
     }
    ]
   },
   "start": 0,
   "time": {
    "Points": [
     {
      "co": {
       "X": 1,
       "Y": 1
      },
      "interpolation": 2
     }
    ]
   },
   "volume": {
    "Points": [
     {
      "co": {
       "X": 1,
       "Y": 1
      },
      "interpolation": 2
     }
    ]
   },
   "wave_color": {
    "alpha": {
     "Points": [
      {
       "co": {
        "X": 1,
        "Y": 255
       },
       "handle_left": {
        "X": 0.5,
        "Y": 1
       },
       "handle_right": {
        "X": 0.5,
        "Y": 0
       },
       "handle_type": 0,
       "interpolation": 0
      }
     ]
    },
    "blue": {
     "Points": [
      {
       "co": {
        "X": 1,
        "Y": 255
       },
       "handle_left": {
        "X": 0.5,
        "Y": 1
       },
       "handle_right": {
        "X": 0.5,
        "Y": 0
       },
       "handle_type": 0,
       "interpolation": 0
      }
     ]
    },
    "green": {
     "Points": [
      {
       "co": {
        "X": 1,
        "Y": 123
       },
       "handle_left": {
        "X": 0.5,
        "Y": 1
       },
       "handle_right": {
        "X": 0.5,
        "Y": 0
       },
       "handle_type": 0,
       "interpolation": 0
      }
     ]
    },
    "red": {
     "Points": [
      {
       "co": {
        "X": 1,
        "Y": 0
       },
       "handle_left": {
        "X": 0.5,
        "Y": 1
       },
       "handle_right": {
        "X": 0.5,
        "Y": 0
       },
       "handle_type": 0,
       "interpolation": 0
      }
     ]
    }
   },
   "waveform": false,
   "file_id": "KN2RPS9LTZ",
   "title": "i2.png",
   "image": "thumbnail/KN2RPS9LTZ.png"
  },
  {
   "alpha": {
    "Points": [
     {
      "co": {
       "X": 1,
       "Y": 1
      },
      "interpolation": 2
     }
    ]
   },
   "anchor": 0,
   "channel_filter": {
    "Points": [
     {
      "co": {
       "X": 1,
       "Y": -1
      },
      "interpolation": 2
     }
    ]
   },
   "channel_mapping": {
    "Points": [
     {
      "co": {
       "X": 1,
       "Y": -1
      },
      "interpolation": 2
     }
    ]
   },
   "crop_height": {
    "Points": [
     {
      "co": {
       "X": 1,
       "Y": 1
      },
      "interpolation": 2
     }
    ]
   },
   "crop_width": {
    "Points": [
     {
      "co": {
       "X": 1,
       "Y": 1
      },
      "interpolation": 2
     }
    ]
   },
   "crop_x": {
    "Points": [
     {
      "co": {
       "X": 1,
       "Y": 0
      },
      "interpolation": 2
     }
    ]
   },
   "crop_y": {
    "Points": [
     {
      "co": {
       "X": 1,
       "Y": 0
      },
      "interpolation": 2
     }
    ]
   },
   "display": 0,
   "duration": 3600.0,
   "effects": [],
   "end": 5.0,
   "gravity": 4,
   "has_audio": {
    "Points": [
     {
      "co": {
       "X": 1,
       "Y": -1
      },
      "interpolation": 2
     }
    ]
   },
   "has_video": {
    "Points": [
     {
      "co": {
       "X": 1,
       "Y": -1
      },
      "interpolation": 2
     }
    ]
   },
   "id": "2I65B7Z1DV",
   "layer": 4000000,
   "location_x": {
    "Points": [
     {
      "co": {
       "X": 1,
       "Y": 0
      },
      "interpolation": 2
     }
    ]
   },
   "location_y": {
    "Points": [
     {
      "co": {
       "X": 1,
       "Y": 0
      },
      "interpolation": 2
     }
    ]
   },
   "mixing": 0,
   "perspective_c1_x": {
    "Points": [
     {
      "co": {
       "X": 1,
       "Y": -1
      },
      "interpolation": 2
     }
    ]
   },
   "perspective_c1_y": {
    "Points": [
     {
      "co": {
       "X": 1,
       "Y": -1
      },
      "interpolation": 2
     }
    ]
   },
   "perspective_c2_x": {
    "Points": [
     {
      "co": {
       "X": 1,
       "Y": -1
      },
      "interpolation": 2
     }
    ]
   },
   "perspective_c2_y": {
    "Points": [
     {
      "co": {
       "X": 1,
       "Y": -1
      },
      "interpolation": 2
     }
    ]
   },
   "perspective_c3_x": {
    "Points": [
     {
      "co": {
       "X": 1,
       "Y": -1
      },
      "interpolation": 2
     }
    ]
   },
   "perspective_c3_y": {
    "Points": [
     {
      "co": {
       "X": 1,
       "Y": -1
      },
      "interpolation": 2
     }
    ]
   },
   "perspective_c4_x": {
    "Points": [
     {
      "co": {
       "X": 1,
       "Y": -1
      },
      "interpolation": 2
     }
    ]
   },
   "perspective_c4_y": {
    "Points": [
     {
      "co": {
       "X": 1,
       "Y": -1
      },
      "interpolation": 2
     }
    ]
   },
   "position": 55,
   "reader": {
    "acodec": "",
    "audio_bit_rate": 0,
    "audio_stream_index": -1,
    "audio_timebase": {
     "den": 1,
     "num": 1
    },
    "channel_layout": 4,
    "channels": 0,
    "display_ratio": {
     "den": 9,
     "num": 16
    },
    "duration": 3600.0,
    "file_size": "8294400",
    "fps": {
     "den": 1,
     "num": 30
    },
    "has_audio": false,
    "has_single_image": true,
    "has_video": true,
    "height": 1080,
    "interlaced_frame": false,
    "metadata": {},
    "path": "generated/i3.png",
    "pixel_format": -1,
    "pixel_ratio": {
     "den": 1,
     "num": 1
    },
    "sample_rate": 0,
    "top_field_first": true,
    "type": "QtImageReader",
    "vcodec": "",
    "video_bit_rate": 0,
    "video_length": "108000",
    "video_stream_index": -1,
    "video_timebase": {
     "den": 30,
     "num": 1
    },
    "width": 1920
   },
   "rotation": {
    "Points": [
     {
      "co": {
       "X": 1,
       "Y": 0
      },
      "interpolation": 2
     }
    ]
   },
   "scale": 1,
   "scale_x": {
    "Points": [
     {
      "co": {
       "X": 1,
       "Y": 1
      },
      "interpolation": 2
     }
    ]
   },
   "scale_y": {
    "Points": [
     {
      "co": {
       "X": 1,
       "Y": 1
      },
      "interpolation": 2
     }
    ]
   },
   "shear_x": {
    "Points": [
     {
      "co": {
       "X": 1,
       "Y": 0
      },
      "interpolation": 2
     }
    ]
   },
   "shear_y": {
    "Points": [
     {
      "co": {
       "X": 1,
       "Y": 0
      },
      "interpolation": 2
     }
    ]
   },
   "start": 0,
   "time": {
    "Points": [
     {
      "co": {
       "X": 1,
       "Y": 1
      },
      "interpolation": 2
     }
    ]
   },
   "volume": {
    "Points": [
     {
      "co": {
       "X": 1,
       "Y": 1
      },
      "interpolation": 2
     }
    ]
   },
   "wave_color": {
    "alpha": {
     "Points": [
      {
       "co": {
        "X": 1,
        "Y": 255
       },
       "handle_left": {
        "X": 0.5,
        "Y": 1
       },
       "handle_right": {
        "X": 0.5,
        "Y": 0
       },
       "handle_type": 0,
       "interpolation": 0
      }
     ]
    },
    "blue": {
     "Points": [
      {
       "co": {
        "X": 1,
        "Y": 255
       },
       "handle_left": {
        "X": 0.5,
        "Y": 1
       },
       "handle_right": {
        "X": 0.5,
        "Y": 0
       },
       "handle_type": 0,
       "interpolation": 0
      }
     ]
    },
    "green": {
     "Points": [
      {
       "co": {
        "X": 1,
        "Y": 123
       },
       "handle_left": {
        "X": 0.5,
        "Y": 1
       },
       "handle_right": {
        "X": 0.5,
        "Y": 0
       },
       "handle_type": 0,
       "interpolation": 0
      }
     ]
    },
    "red": {
     "Points": [
      {
       "co": {
        "X": 1,
        "Y": 0
       },
       "handle_left": {
        "X": 0.5,
        "Y": 1
       },
       "handle_right": {
        "X": 0.5,
        "Y": 0
       },
       "handle_type": 0,
       "interpolation": 0
      }
     ]
    }
   },
   "waveform": false,
   "file_id": "K2FDZNO37T",
   "title": "i3.png",
   "image": "thumbnail/K2FDZNO37T.png"
  },
  {
   "alpha": {
    "Points": [
     {
      "co": {
       "X": 1,
       "Y": 1
      },
      "interpolation": 2
     }
    ]
   },
   "anchor": 0,
   "channel_filter": {
    "Points": [
     {
      "co": {
       "X": 1,
       "Y": -1
      },
      "interpolation": 2
     }
    ]
   },
   "channel_mapping": {
    "Points": [
     {
      "co": {
       "X": 1,
       "Y": -1
      },
      "interpolation": 2
     }
    ]
   },
   "crop_height": {
    "Points": [
     {
      "co": {
       "X": 1,
       "Y": 1
      },
      "interpolation": 2
     }
    ]
   },
   "crop_width": {
    "Points": [
     {
      "co": {
       "X": 1,
       "Y": 1
      },
      "interpolation": 2
     }
    ]
   },
   "crop_x": {
    "Points": [
     {
      "co": {
       "X": 1,
       "Y": 0
      },
      "interpolation": 2
     }
    ]
   },
   "crop_y": {
    "Points": [
     {
      "co": {
       "X": 1,
       "Y": 0
      },
      "interpolation": 2
     }
    ]
   },
   "display": 0,
   "duration": 3600.0,
   "effects": [],
   "end": 3,
   "gravity": 4,
   "has_audio": {
    "Points": [
     {
      "co": {
       "X": 1,
       "Y": -1
      },
      "interpolation": 2
     }
    ]
   },
   "has_video": {
    "Points": [
     {
      "co": {
       "X": 1,
       "Y": -1
      },
      "interpolation": 2
     }
    ]
   },
   "id": "8E7J22Q9ES",
   "layer": 4000000,
   "location_x": {
    "Points": [
     {
      "co": {
       "X": 1,
       "Y": 0
      },
      "interpolation": 2
     }
    ]
   },
   "location_y": {
    "Points": [
     {
      "co": {
       "X": 1,
       "Y": 0
      },
      "interpolation": 2
     }
    ]
   },
   "mixing": 0,
   "perspective_c1_x": {
    "Points": [
     {
      "co": {
       "X": 1,
       "Y": -1
      },
      "interpolation": 2
     }
    ]
   },
   "perspective_c1_y": {
    "Points": [
     {
      "co": {
       "X": 1,
       "Y": -1
      },
      "interpolation": 2
     }
    ]
   },
   "perspective_c2_x": {
    "Points": [
     {
      "co": {
       "X": 1,
       "Y": -1
      },
      "interpolation": 2
     }
    ]
   },
   "perspective_c2_y": {
    "Points": [
     {
      "co": {
       "X": 1,
       "Y": -1
      },
      "interpolation": 2
     }
    ]
   },
   "perspective_c3_x": {
    "Points": [
     {
      "co": {
       "X": 1,
       "Y": -1
      },
      "interpolation": 2
     }
    ]
   },
   "perspective_c3_y": {
    "Points": [
     {
      "co": {
       "X": 1,
       "Y": -1
      },
      "interpolation": 2
     }
    ]
   },
   "perspective_c4_x": {
    "Points": [
     {
      "co": {
       "X": 1,
       "Y": -1
      },
      "interpolation": 2
     }
    ]
   },
   "perspective_c4_y": {
    "Points": [
     {
      "co": {
       "X": 1,
       "Y": -1
      },
      "interpolation": 2
     }
    ]
   },
   "position": 28,
   "reader": {
    "acodec": "",
    "audio_bit_rate": 0,
    "audio_stream_index": -1,
    "audio_timebase": {
     "den": 1,
     "num": 1
    },
    "channel_layout": 4,
    "channels": 0,
    "display_ratio": {
     "den": 9,
     "num": 16
    },
    "duration": 3600.0,
    "file_size": "8294400",
    "fps": {
     "den": 1,
     "num": 30
    },
    "has_audio": false,
    "has_single_image": true,
    "has_video": true,
    "height": 1080,
    "interlaced_frame": false,
    "metadata": {},
    "path": "generated/g0.png",
    "pixel_format": -1,
    "pixel_ratio": {
     "den": 1,
     "num": 1
    },
    "sample_rate": 0,
    "top_field_first": true,
    "type": "QtImageReader",
    "vcodec": "",
    "video_bit_rate": 0,
    "video_length": "108000",
    "video_stream_index": -1,
    "video_timebase": {
     "den": 30,
     "num": 1
    },
    "width": 1920
   },
   "rotation": {
    "Points": [
     {
      "co": {
       "X": 1,
       "Y": 0
      },
      "interpolation": 2
     }
    ]
   },
   "scale": 1,
   "scale_x": {
    "Points": [
     {
      "co": {
       "X": 1,
       "Y": 1
      },
      "interpolation": 2
     }
    ]
   },
   "scale_y": {
    "Points": [
     {
      "co": {
       "X": 1,
       "Y": 1
      },
      "interpolation": 2
     }
    ]
   },
   "shear_x": {
    "Points": [
     {
      "co": {
       "X": 1,
       "Y": 0
      },
      "interpolation": 2
     }
    ]
   },
   "shear_y": {
    "Points": [
     {
      "co": {
       "X": 1,
       "Y": 0
      },
      "interpolation": 2
     }
    ]
   },
   "start": 0,
   "time": {
    "Points": [
     {
      "co": {
       "X": 1,
       "Y": 1
      },
      "interpolation": 2
     }
    ]
   },
   "volume": {
    "Points": [
     {
      "co": {
       "X": 1,
       "Y": 1
      },
      "interpolation": 2
     }
    ]
   },
   "wave_color": {
    "alpha": {
     "Points": [
      {
       "co": {
        "X": 1,
        "Y": 255
       },
       "handle_left": {
        "X": 0.5,
        "Y": 1
       },
       "handle_right": {
        "X": 0.5,
        "Y": 0
       },
       "handle_type": 0,
       "interpolation": 0
      }
     ]
    },
    "blue": {
     "Points": [
      {
       "co": {
        "X": 1,
        "Y": 255
       },
       "handle_left": {
        "X": 0.5,
        "Y": 1
       },
       "handle_right": {
        "X": 0.5,
        "Y": 0
       },
       "handle_type": 0,
       "interpolation": 0
      }
     ]
    },
    "green": {
     "Points": [
      {
       "co": {
        "X": 1,
        "Y": 123
       },
       "handle_left": {
        "X": 0.5,
        "Y": 1
       },
       "handle_right": {
        "X": 0.5,
        "Y": 0
       },
       "handle_type": 0,
       "interpolation": 0
      }
     ]
    },
    "red": {
     "Points": [
      {
       "co": {
        "X": 1,
        "Y": 0
       },
       "handle_left": {
        "X": 0.5,
        "Y": 1
       },
       "handle_right": {
        "X": 0.5,
        "Y": 0
       },
       "handle_type": 0,
       "interpolation": 0
      }
     ]
    }
   },
   "waveform": false,
   "file_id": "14XMU5A0GJ",
   "title": "g0.png",
   "image": "thumbnail/14XMU5A0GJ.png"
  },
  {
   "alpha": {
    "Points": [
     {
      "co": {
       "X": 1,
       "Y": 1
      },
      "interpolation": 2
     }
    ]
   },
   "anchor": 0,
   "channel_filter": {
    "Points": [
     {
      "co": {
       "X": 1,
       "Y": -1
      },
      "interpolation": 2
     }
    ]
   },
   "channel_mapping": {
    "Points": [
     {
      "co": {
       "X": 1,
       "Y": -1
      },
      "interpolation": 2
     }
    ]
   },
   "crop_height": {
    "Points": [
     {
      "co": {
       "X": 1,
       "Y": 1
      },
      "interpolation": 2
     }
    ]
   },
   "crop_width": {
    "Points": [
     {
      "co": {
       "X": 1,
       "Y": 1
      },
      "interpolation": 2
     }
    ]
   },
   "crop_x": {
    "Points": [
     {
      "co": {
       "X": 1,
       "Y": 0
      },
      "interpolation": 2
     }
    ]
   },
   "crop_y": {
    "Points": [
     {
      "co": {
       "X": 1,
       "Y": 0
      },
      "interpolation": 2
     }
    ]
   },
   "display": 0,
   "duration": 3600.0,
   "effects": [],
   "end": 4.0,
   "gravity": 4,
   "has_audio": {
    "Points": [
     {
      "co": {
       "X": 1,
       "Y": -1
      },
      "interpolation": 2
     }
    ]
   },
   "has_video": {
    "Points": [
     {
      "co": {
       "X": 1,
       "Y": -1
      },
      "interpolation": 2
     }
    ]
   },
   "layer": 4000000,
   "location_x": {
    "Points": [
     {
      "co": {
       "X": 1,
       "Y": 0
      },
      "interpolation": 2
     }
    ]
   },
   "location_y": {
    "Points": [
     {
      "co": {
       "X": 1,
       "Y": 0
      },
      "interpolation": 2
     }
    ]
   },
   "mixing": 0,
   "perspective_c1_x": {
    "Points": [
     {
      "co": {
       "X": 1,
       "Y": -1
      },
      "interpolation": 2
     }
    ]
   },
   "perspective_c1_y": {
    "Points": [
     {
      "co": {
       "X": 1,
       "Y": -1
      },
      "interpolation": 2
     }
    ]
   },
   "perspective_c2_x": {
    "Points": [
     {
      "co": {
       "X": 1,
       "Y": -1
      },
      "interpolation": 2
     }
    ]
   },
   "perspective_c2_y": {
    "Points": [
     {
      "co": {
       "X": 1,
       "Y": -1
      },
      "interpolation": 2
     }
    ]
   },
   "perspective_c3_x": {
    "Points": [
     {
      "co": {
       "X": 1,
       "Y": -1
      },
      "interpolation": 2
     }
    ]
   },
   "perspective_c3_y": {
    "Points": [
     {
      "co": {
       "X": 1,
       "Y": -1
      },
      "interpolation": 2
     }
    ]
   },
   "perspective_c4_x": {
    "Points": [
     {
      "co": {
       "X": 1,
       "Y": -1
      },
      "interpolation": 2
     }
    ]
   },
   "perspective_c4_y": {
    "Points": [
     {
      "co": {
       "X": 1,
       "Y": -1
      },
      "interpolation": 2
     }
    ]
   },
   "position": 40.0,
   "reader": {
    "acodec": "",
    "audio_bit_rate": 0,
    "audio_stream_index": -1,
    "audio_timebase": {
     "den": 1,
     "num": 1
    },
    "channel_layout": 4,
    "channels": 0,
    "display_ratio": {
     "den": 9,
     "num": 16
    },
    "duration": 3600.0,
    "file_size": "8294400",
    "fps": {
     "den": 1,
     "num": 30
    },
    "has_audio": false,
    "has_single_image": true,
    "has_video": true,
    "height": 1080,
    "interlaced_frame": false,
    "metadata": {},
    "path": "generated/g0.png",
    "pixel_format": -1,
    "pixel_ratio": {
     "den": 1,
     "num": 1
    },
    "sample_rate": 0,
    "top_field_first": true,
    "type": "QtImageReader",
    "vcodec": "",
    "video_bit_rate": 0,
    "video_length": "108000",
    "video_stream_index": -1,
    "video_timebase": {
     "den": 30,
     "num": 1
    },
    "width": 1920
   },
   "rotation": {
    "Points": [
     {
      "co": {
       "X": 1,
       "Y": 0
      },
      "interpolation": 2
     }
    ]
   },
   "scale": 1,
   "scale_x": {
    "Points": [
     {
      "co": {
       "X": 1,
       "Y": 1
      },
      "interpolation": 2
     }
    ]
   },
   "scale_y": {
    "Points": [
     {
      "co": {
       "X": 1,
       "Y": 1
      },
      "interpolation": 2
     }
    ]
   },
   "shear_x": {
    "Points": [
     {
      "co": {
       "X": 1,
       "Y": 0
      },
      "interpolation": 2
     }
    ]
   },
   "shear_y": {
    "Points": [
     {
      "co": {
       "X": 1,
       "Y": 0
      },
      "interpolation": 2
     }
    ]
   },
   "start": 0,
   "time": {
    "Points": [
     {
      "co": {
       "X": 1,
       "Y": 1
      },
      "interpolation": 2
     }
    ]
   },
   "volume": {
    "Points": [
     {
      "co": {
       "X": 1,
       "Y": 1
      },
      "interpolation": 2
     }
    ]
   },
   "wave_color": {
    "alpha": {
     "Points": [
      {
       "co": {
        "X": 1,
        "Y": 255
       },
       "handle_left": {
        "X": 0.5,
        "Y": 1
       },
       "handle_right": {
        "X": 0.5,
        "Y": 0
       },
       "handle_type": 0,
       "interpolation": 0
      }
     ]
    },
    "blue": {
     "Points": [
      {
       "co": {
        "X": 1,
        "Y": 255
       },
       "handle_left": {
        "X": 0.5,
        "Y": 1
       },
       "handle_right": {
        "X": 0.5,
        "Y": 0
       },
       "handle_type": 0,
       "interpolation": 0
      }
     ]
    },
    "green": {
     "Points": [
      {
       "co": {
        "X": 1,
        "Y": 123
       },
       "handle_left": {
        "X": 0.5,
        "Y": 1
       },
       "handle_right": {
        "X": 0.5,
        "Y": 0
       },
       "handle_type": 0,
       "interpolation": 0
      }
     ]
    },
    "red": {
     "Points": [
      {
       "co": {
        "X": 1,
        "Y": 0
       },
       "handle_left": {
        "X": 0.5,
        "Y": 1
       },
       "handle_right": {
        "X": 0.5,
        "Y": 0
       },
       "handle_type": 0,
       "interpolation": 0
      }
     ]
    }
   },
   "waveform": false,
   "file_id": "14XMU5A0GJ",
   "title": "g0.png",
   "image": "thumbnail/14XMU5A0GJ.png",
   "id": "7RK9VP477J"
  },
  {
   "alpha": {
    "Points": [
     {
      "co": {
       "X": 1,
       "Y": 1
      },
      "interpolation": 2
     }
    ]
   },
   "anchor": 0,
   "channel_filter": {
    "Points": [
     {
      "co": {
       "X": 1,
       "Y": -1
      },
      "interpolation": 2
     }
    ]
   },
   "channel_mapping": {
    "Points": [
     {
      "co": {
       "X": 1,
       "Y": -1
      },
      "interpolation": 2
     }
    ]
   },
   "crop_height": {
    "Points": [
     {
      "co": {
       "X": 1,
       "Y": 1
      },
      "interpolation": 2
     }
    ]
   },
   "crop_width": {
    "Points": [
     {
      "co": {
       "X": 1,
       "Y": 1
      },
      "interpolation": 2
     }
    ]
   },
   "crop_x": {
    "Points": [
     {
      "co": {
       "X": 1,
       "Y": 0
      },
      "interpolation": 2
     }
    ]
   },
   "crop_y": {
    "Points": [
     {
      "co": {
       "X": 1,
       "Y": 0
      },
      "interpolation": 2
     }
    ]
   },
   "display": 0,
   "duration": 3600.0,
   "effects": [],
   "end": 2.0,
   "gravity": 4,
   "has_audio": {
    "Points": [
     {
      "co": {
       "X": 1,
       "Y": -1
      },
      "interpolation": 2
     }
    ]
   },
   "has_video": {
    "Points": [
     {
      "co": {
       "X": 1,
       "Y": -1
      },
      "interpolation": 2
     }
    ]
   },
   "id": "SV22ZA9D4P",
   "layer": 4000000,
   "location_x": {
    "Points": [
     {
      "co": {
       "X": 1,
       "Y": 0
      },
      "interpolation": 2
     }
    ]
   },
   "location_y": {
    "Points": [
     {
      "co": {
       "X": 1,
       "Y": 0
      },
      "interpolation": 2
     }
    ]
   },
   "mixing": 0,
   "perspective_c1_x": {
    "Points": [
     {
      "co": {
       "X": 1,
       "Y": -1
      },
      "interpolation": 2
     }
    ]
   },
   "perspective_c1_y": {
    "Points": [
     {
      "co": {
       "X": 1,
       "Y": -1
      },
      "interpolation": 2
     }
    ]
   },
   "perspective_c2_x": {
    "Points": [
     {
      "co": {
       "X": 1,
       "Y": -1
      },
      "interpolation": 2
     }
    ]
   },
   "perspective_c2_y": {
    "Points": [
     {
      "co": {
       "X": 1,
       "Y": -1
      },
      "interpolation": 2
     }
    ]
   },
   "perspective_c3_x": {
    "Points": [
     {
      "co": {
       "X": 1,
       "Y": -1
      },
      "interpolation": 2
     }
    ]
   },
   "perspective_c3_y": {
    "Points": [
     {
      "co": {
       "X": 1,
       "Y": -1
      },
      "interpolation": 2
     }
    ]
   },
   "perspective_c4_x": {
    "Points": [
     {
      "co": {
       "X": 1,
       "Y": -1
      },
      "interpolation": 2
     }
    ]
   },
   "perspective_c4_y": {
    "Points": [
     {
      "co": {
       "X": 1,
       "Y": -1
      },
      "interpolation": 2
     }
    ]
   },
   "position": 18,
   "reader": {
    "acodec": "",
    "audio_bit_rate": 0,
    "audio_stream_index": -1,
    "audio_timebase": {
     "den": 1,
     "num": 1
    },
    "channel_layout": 4,
    "channels": 0,
    "display_ratio": {
     "den": 9,
     "num": 16
    },
    "duration": 3600.0,
    "file_size": "8294400",
    "fps": {
     "den": 1,
     "num": 30
    },
    "has_audio": false,
    "has_single_image": true,
    "has_video": true,
    "height": 1080,
    "interlaced_frame": false,
    "metadata": {},
    "path": "generated/h0.png",
    "pixel_format": -1,
    "pixel_ratio": {
     "den": 1,
     "num": 1
    },
    "sample_rate": 0,
    "top_field_first": true,
    "type": "QtImageReader",
    "vcodec": "",
    "video_bit_rate": 0,
    "video_length": "108000",
    "video_stream_index": -1,
    "video_timebase": {
     "den": 30,
     "num": 1
    },
    "width": 1920
   },
   "rotation": {
    "Points": [
     {
      "co": {
       "X": 1,
       "Y": 0
      },
      "interpolation": 2
     }
    ]
   },
   "scale": 1,
   "scale_x": {
    "Points": [
     {
      "co": {
       "X": 1,
       "Y": 1
      },
      "interpolation": 2
     }
    ]
   },
   "scale_y": {
    "Points": [
     {
      "co": {
       "X": 1,
       "Y": 1
      },
      "interpolation": 2
     }
    ]
   },
   "shear_x": {
    "Points": [
     {
      "co": {
       "X": 1,
       "Y": 0
      },
      "interpolation": 2
     }
    ]
   },
   "shear_y": {
    "Points": [
     {
      "co": {
       "X": 1,
       "Y": 0
      },
      "interpolation": 2
     }
    ]
   },
   "start": 0,
   "time": {
    "Points": [
     {
      "co": {
       "X": 1,
       "Y": 1
      },
      "interpolation": 2
     }
    ]
   },
   "volume": {
    "Points": [
     {
      "co": {
       "X": 1,
       "Y": 1
      },
      "interpolation": 2
     }
    ]
   },
   "wave_color": {
    "alpha": {
     "Points": [
      {
       "co": {
        "X": 1,
        "Y": 255
       },
       "handle_left": {
        "X": 0.5,
        "Y": 1
       },
       "handle_right": {
        "X": 0.5,
        "Y": 0
       },
       "handle_type": 0,
       "interpolation": 0
      }
     ]
    },
    "blue": {
     "Points": [
      {
       "co": {
        "X": 1,
        "Y": 255
       },
       "handle_left": {
        "X": 0.5,
        "Y": 1
       },
       "handle_right": {
        "X": 0.5,
        "Y": 0
       },
       "handle_type": 0,
       "interpolation": 0
      }
     ]
    },
    "green": {
     "Points": [
      {
       "co": {
        "X": 1,
        "Y": 123
       },
       "handle_left": {
        "X": 0.5,
        "Y": 1
       },
       "handle_right": {
        "X": 0.5,
        "Y": 0
       },
       "handle_type": 0,
       "interpolation": 0
      }
     ]
    },
    "red": {
     "Points": [
      {
       "co": {
        "X": 1,
        "Y": 0
       },
       "handle_left": {
        "X": 0.5,
        "Y": 1
       },
       "handle_right": {
        "X": 0.5,
        "Y": 0
       },
       "handle_type": 0,
       "interpolation": 0
      }
     ]
    }
   },
   "waveform": false,
   "file_id": "QVT1S32TXK",
   "title": "h0.png",
   "image": "thumbnail/QVT1S32TXK.png"
  },
  {
   "alpha": {
    "Points": [
     {
      "co": {
       "X": 1,
       "Y": 1
      },
      "interpolation": 2
     }
    ]
   },
   "anchor": 0,
   "channel_filter": {
    "Points": [
     {
      "co": {
       "X": 1,
       "Y": -1
      },
      "interpolation": 2
     }
    ]
   },
   "channel_mapping": {
    "Points": [
     {
      "co": {
       "X": 1,
       "Y": -1
      },
      "interpolation": 2
     }
    ]
   },
   "crop_height": {
    "Points": [
     {
      "co": {
       "X": 1,
       "Y": 1
      },
      "interpolation": 2
     }
    ]
   },
   "crop_width": {
    "Points": [
     {
      "co": {
       "X": 1,
       "Y": 1
      },
      "interpolation": 2
     }
    ]
   },
   "crop_x": {
    "Points": [
     {
      "co": {
       "X": 1,
       "Y": 0
      },
      "interpolation": 2
     }
    ]
   },
   "crop_y": {
    "Points": [
     {
      "co": {
       "X": 1,
       "Y": 0
      },
      "interpolation": 2
     }
    ]
   },
   "display": 0,
   "duration": 3600.0,
   "effects": [],
   "end": 2,
   "gravity": 4,
   "has_audio": {
    "Points": [
     {
      "co": {
       "X": 1,
       "Y": -1
      },
      "interpolation": 2
     }
    ]
   },
   "has_video": {
    "Points": [
     {
      "co": {
       "X": 1,
       "Y": -1
      },
      "interpolation": 2
     }
    ]
   },
   "id": "VYRPQRJA3D",
   "layer": 4000000,
   "location_x": {
    "Points": [
     {
      "co": {
       "X": 1,
       "Y": 0
      },
      "interpolation": 2
     }
    ]
   },
   "location_y": {
    "Points": [
     {
      "co": {
       "X": 1,
       "Y": 0
      },
      "interpolation": 2
     }
    ]
   },
   "mixing": 0,
   "perspective_c1_x": {
    "Points": [
     {
      "co": {
       "X": 1,
       "Y": -1
      },
      "interpolation": 2
     }
    ]
   },
   "perspective_c1_y": {
    "Points": [
     {
      "co": {
       "X": 1,
       "Y": -1
      },
      "interpolation": 2
     }
    ]
   },
   "perspective_c2_x": {
    "Points": [
     {
      "co": {
       "X": 1,
       "Y": -1
      },
      "interpolation": 2
     }
    ]
   },
   "perspective_c2_y": {
    "Points": [
     {
      "co": {
       "X": 1,
       "Y": -1
      },
      "interpolation": 2
     }
    ]
   },
   "perspective_c3_x": {
    "Points": [
     {
      "co": {
       "X": 1,
       "Y": -1
      },
      "interpolation": 2
     }
    ]
   },
   "perspective_c3_y": {
    "Points": [
     {
      "co": {
       "X": 1,
       "Y": -1
      },
      "interpolation": 2
     }
    ]
   },
   "perspective_c4_x": {
    "Points": [
     {
      "co": {
       "X": 1,
       "Y": -1
      },
      "interpolation": 2
     }
    ]
   },
   "perspective_c4_y": {
    "Points": [
     {
      "co": {
       "X": 1,
       "Y": -1
      },
      "interpolation": 2
     }
    ]
   },
   "position": 19,
   "reader": {
    "acodec": "",
    "audio_bit_rate": 0,
    "audio_stream_index": -1,
    "audio_timebase": {
     "den": 1,
     "num": 1
    },
    "channel_layout": 4,
    "channels": 0,
    "display_ratio": {
     "den": 9,
     "num": 16
    },
    "duration": 3600.0,
    "file_size": "8294400",
    "fps": {
     "den": 1,
     "num": 30
    },
    "has_audio": false,
    "has_single_image": true,
    "has_video": true,
    "height": 1080,
    "interlaced_frame": false,
    "metadata": {},
    "path": "generated/h1.png",
    "pixel_format": -1,
    "pixel_ratio": {
     "den": 1,
     "num": 1
    },
    "sample_rate": 0,
    "top_field_first": true,
    "type": "QtImageReader",
    "vcodec": "",
    "video_bit_rate": 0,
    "video_length": "108000",
    "video_stream_index": -1,
    "video_timebase": {
     "den": 30,
     "num": 1
    },
    "width": 1920
   },
   "rotation": {
    "Points": [
     {
      "co": {
       "X": 1,
       "Y": 0
      },
      "interpolation": 2
     }
    ]
   },
   "scale": 1,
   "scale_x": {
    "Points": [
     {
      "co": {
       "X": 1,
       "Y": 1
      },
      "interpolation": 2
     }
    ]
   },
   "scale_y": {
    "Points": [
     {
      "co": {
       "X": 1,
       "Y": 1
      },
      "interpolation": 2
     }
    ]
   },
   "shear_x": {
    "Points": [
     {
      "co": {
       "X": 1,
       "Y": 0
      },
      "interpolation": 2
     }
    ]
   },
   "shear_y": {
    "Points": [
     {
      "co": {
       "X": 1,
       "Y": 0
      },
      "interpolation": 2
     }
    ]
   },
   "start": 0,
   "time": {
    "Points": [
     {
      "co": {
       "X": 1,
       "Y": 1
      },
      "interpolation": 2
     }
    ]
   },
   "volume": {
    "Points": [
     {
      "co": {
       "X": 1,
       "Y": 1
      },
      "interpolation": 2
     }
    ]
   },
   "wave_color": {
    "alpha": {
     "Points": [
      {
       "co": {
        "X": 1,
        "Y": 255
       },
       "handle_left": {
        "X": 0.5,
        "Y": 1
       },
       "handle_right": {
        "X": 0.5,
        "Y": 0
       },
       "handle_type": 0,
       "interpolation": 0
      }
     ]
    },
    "blue": {
     "Points": [
      {
       "co": {
        "X": 1,
        "Y": 255
       },
       "handle_left": {
        "X": 0.5,
        "Y": 1
       },
       "handle_right": {
        "X": 0.5,
        "Y": 0
       },
       "handle_type": 0,
       "interpolation": 0
      }
     ]
    },
    "green": {
     "Points": [
      {
       "co": {
        "X": 1,
        "Y": 123
       },
       "handle_left": {
        "X": 0.5,
        "Y": 1
       },
       "handle_right": {
        "X": 0.5,
        "Y": 0
       },
       "handle_type": 0,
       "interpolation": 0
      }
     ]
    },
    "red": {
     "Points": [
      {
       "co": {
        "X": 1,
        "Y": 0
       },
       "handle_left": {
        "X": 0.5,
        "Y": 1
       },
       "handle_right": {
        "X": 0.5,
        "Y": 0
       },
       "handle_type": 0,
       "interpolation": 0
      }
     ]
    }
   },
   "waveform": false,
   "file_id": "N9ZVMRMPJO",
   "title": "h1.png",
   "image": "thumbnail/N9ZVMRMPJO.png"
  },
  {
   "alpha": {
    "Points": [
     {
      "co": {
       "X": 1,
       "Y": 1
      },
      "interpolation": 2
     }
    ]
   },
   "anchor": 0,
   "channel_filter": {
    "Points": [
     {
      "co": {
       "X": 1,
       "Y": -1
      },
      "interpolation": 2
     }
    ]
   },
   "channel_mapping": {
    "Points": [
     {
      "co": {
       "X": 1,
       "Y": -1
      },
      "interpolation": 2
     }
    ]
   },
   "crop_height": {
    "Points": [
     {
      "co": {
       "X": 1,
       "Y": 1
      },
      "interpolation": 2
     }
    ]
   },
   "crop_width": {
    "Points": [
     {
      "co": {
       "X": 1,
       "Y": 1
      },
      "interpolation": 2
     }
    ]
   },
   "crop_x": {
    "Points": [
     {
      "co": {
       "X": 1,
       "Y": 0
      },
      "interpolation": 2
     }
    ]
   },
   "crop_y": {
    "Points": [
     {
      "co": {
       "X": 1,
       "Y": 0
      },
      "interpolation": 2
     }
    ]
   },
   "display": 0,
   "duration": 3600.0,
   "effects": [],
   "end": 3.0,
   "gravity": 4,
   "has_audio": {
    "Points": [
     {
      "co": {
       "X": 1,
       "Y": -1
      },
      "interpolation": 2
     }
    ]
   },
   "has_video": {
    "Points": [
     {
      "co": {
       "X": 1,
       "Y": -1
      },
      "interpolation": 2
     }
    ]
   },
   "id": "TLQZTYM12K",
   "layer": 4000000,
   "location_x": {
    "Points": [
     {
      "co": {
       "X": 1,
       "Y": 0
      },
      "interpolation": 2
     }
    ]
   },
   "location_y": {
    "Points": [
     {
      "co": {
       "X": 1,
       "Y": 0
      },
      "interpolation": 2
     }
    ]
   },
   "mixing": 0,
   "perspective_c1_x": {
    "Points": [
     {
      "co": {
       "X": 1,
       "Y": -1
      },
      "interpolation": 2
     }
    ]
   },
   "perspective_c1_y": {
    "Points": [
     {
      "co": {
       "X": 1,
       "Y": -1
      },
      "interpolation": 2
     }
    ]
   },
   "perspective_c2_x": {
    "Points": [
     {
      "co": {
       "X": 1,
       "Y": -1
      },
      "interpolation": 2
     }
    ]
   },
   "perspective_c2_y": {
    "Points": [
     {
      "co": {
       "X": 1,
       "Y": -1
      },
      "interpolation": 2
     }
    ]
   },
   "perspective_c3_x": {
    "Points": [
     {
      "co": {
       "X": 1,
       "Y": -1
      },
      "interpolation": 2
     }
    ]
   },
   "perspective_c3_y": {
    "Points": [
     {
      "co": {
       "X": 1,
       "Y": -1
      },
      "interpolation": 2
     }
    ]
   },
   "perspective_c4_x": {
    "Points": [
     {
      "co": {
       "X": 1,
       "Y": -1
      },
      "interpolation": 2
     }
    ]
   },
   "perspective_c4_y": {
    "Points": [
     {
      "co": {
       "X": 1,
       "Y": -1
      },
      "interpolation": 2
     }
    ]
   },
   "position": 20,
   "reader": {
    "acodec": "",
    "audio_bit_rate": 0,
    "audio_stream_index": -1,
    "audio_timebase": {
     "den": 1,
     "num": 1
    },
    "channel_layout": 4,
    "channels": 0,
    "display_ratio": {
     "den": 9,
     "num": 16
    },
    "duration": 3600.0,
    "file_size": "8294400",
    "fps": {
     "den": 1,
     "num": 30
    },
    "has_audio": false,
    "has_single_image": true,
    "has_video": true,
    "height": 1080,
    "interlaced_frame": false,
    "metadata": {},
    "path": "generated/h2.png",
    "pixel_format": -1,
    "pixel_ratio": {
     "den": 1,
     "num": 1
    },
    "sample_rate": 0,
    "top_field_first": true,
    "type": "QtImageReader",
    "vcodec": "",
    "video_bit_rate": 0,
    "video_length": "108000",
    "video_stream_index": -1,
    "video_timebase": {
     "den": 30,
     "num": 1
    },
    "width": 1920
   },
   "rotation": {
    "Points": [
     {
      "co": {
       "X": 1,
       "Y": 0
      },
      "interpolation": 2
     }
    ]
   },
   "scale": 1,
   "scale_x": {
    "Points": [
     {
      "co": {
       "X": 1,
       "Y": 1
      },
      "interpolation": 2
     }
    ]
   },
   "scale_y": {
    "Points": [
     {
      "co": {
       "X": 1,
       "Y": 1
      },
      "interpolation": 2
     }
    ]
   },
   "shear_x": {
    "Points": [
     {
      "co": {
       "X": 1,
       "Y": 0
      },
      "interpolation": 2
     }
    ]
   },
   "shear_y": {
    "Points": [
     {
      "co": {
       "X": 1,
       "Y": 0
      },
      "interpolation": 2
     }
    ]
   },
   "start": 0,
   "time": {
    "Points": [
     {
      "co": {
       "X": 1,
       "Y": 1
      },
      "interpolation": 2
     }
    ]
   },
   "volume": {
    "Points": [
     {
      "co": {
       "X": 1,
       "Y": 1
      },
      "interpolation": 2
     }
    ]
   },
   "wave_color": {
    "alpha": {
     "Points": [
      {
       "co": {
        "X": 1,
        "Y": 255
       },
       "handle_left": {
        "X": 0.5,
        "Y": 1
       },
       "handle_right": {
        "X": 0.5,
        "Y": 0
       },
       "handle_type": 0,
       "interpolation": 0
      }
     ]
    },
    "blue": {
     "Points": [
      {
       "co": {
        "X": 1,
        "Y": 255
       },
       "handle_left": {
        "X": 0.5,
        "Y": 1
       },
       "handle_right": {
        "X": 0.5,
        "Y": 0
       },
       "handle_type": 0,
       "interpolation": 0
      }
     ]
    },
    "green": {
     "Points": [
      {
       "co": {
        "X": 1,
        "Y": 123
       },
       "handle_left": {
        "X": 0.5,
        "Y": 1
       },
       "handle_right": {
        "X": 0.5,
        "Y": 0
       },
       "handle_type": 0,
       "interpolation": 0
      }
     ]
    },
    "red": {
     "Points": [
      {
       "co": {
        "X": 1,
        "Y": 0
       },
       "handle_left": {
        "X": 0.5,
        "Y": 1
       },
       "handle_right": {
        "X": 0.5,
        "Y": 0
       },
       "handle_type": 0,
       "interpolation": 0
      }
     ]
    }
   },
   "waveform": false,
   "file_id": "T3MJ00KEDL",
   "title": "h2.png",
   "image": "thumbnail/T3MJ00KEDL.png"
  },
  {
   "alpha": {
    "Points": [
     {
      "co": {
       "X": 1,
       "Y": 1
      },
      "interpolation": 2
     }
    ]
   },
   "anchor": 0,
   "channel_filter": {
    "Points": [
     {
      "co": {
       "X": 1,
       "Y": -1
      },
      "interpolation": 2
     }
    ]
   },
   "channel_mapping": {
    "Points": [
     {
      "co": {
       "X": 1,
       "Y": -1
      },
      "interpolation": 2
     }
    ]
   },
   "crop_height": {
    "Points": [
     {
      "co": {
       "X": 1,
       "Y": 1
      },
      "interpolation": 2
     }
    ]
   },
   "crop_width": {
    "Points": [
     {
      "co": {
       "X": 1,
       "Y": 1
      },
      "interpolation": 2
     }
    ]
   },
   "crop_x": {
    "Points": [
     {
      "co": {
       "X": 1,
       "Y": 0
      },
      "interpolation": 2
     }
    ]
   },
   "crop_y": {
    "Points": [
     {
      "co": {
       "X": 1,
       "Y": 0
      },
      "interpolation": 2
     }
    ]
   },
   "display": 0,
   "duration": 3600.0,
   "effects": [],
   "end": 3,
   "gravity": 4,
   "has_audio": {
    "Points": [
     {
      "co": {
       "X": 1,
       "Y": -1
      },
      "interpolation": 2
     }
    ]
   },
   "has_video": {
    "Points": [
     {
      "co": {
       "X": 1,
       "Y": -1
      },
      "interpolation": 2
     }
    ]
   },
   "id": "4QOLEO0O2I",
   "layer": 4000000,
   "location_x": {
    "Points": [
     {
      "co": {
       "X": 1,
       "Y": 0
      },
      "interpolation": 2
     }
    ]
   },
   "location_y": {
    "Points": [
     {
      "co": {
       "X": 1,
       "Y": 0
      },
      "interpolation": 2
     }
    ]
   },
   "mixing": 0,
   "perspective_c1_x": {
    "Points": [
     {
      "co": {
       "X": 1,
       "Y": -1
      },
      "interpolation": 2
     }
    ]
   },
   "perspective_c1_y": {
    "Points": [
     {
      "co": {
       "X": 1,
       "Y": -1
      },
      "interpolation": 2
     }
    ]
   },
   "perspective_c2_x": {
    "Points": [
     {
      "co": {
       "X": 1,
       "Y": -1
      },
      "interpolation": 2
     }
    ]
   },
   "perspective_c2_y": {
    "Points": [
     {
      "co": {
       "X": 1,
       "Y": -1
      },
      "interpolation": 2
     }
    ]
   },
   "perspective_c3_x": {
    "Points": [
     {
      "co": {
       "X": 1,
       "Y": -1
      },
      "interpolation": 2
     }
    ]
   },
   "perspective_c3_y": {
    "Points": [
     {
      "co": {
       "X": 1,
       "Y": -1
      },
      "interpolation": 2
     }
    ]
   },
   "perspective_c4_x": {
    "Points": [
     {
      "co": {
       "X": 1,
       "Y": -1
      },
      "interpolation": 2
     }
    ]
   },
   "perspective_c4_y": {
    "Points": [
     {
      "co": {
       "X": 1,
       "Y": -1
      },
      "interpolation": 2
     }
    ]
   },
   "position": 22,
   "reader": {
    "acodec": "",
    "audio_bit_rate": 0,
    "audio_stream_index": -1,
    "audio_timebase": {
     "den": 1,
     "num": 1
    },
    "channel_layout": 4,
    "channels": 0,
    "display_ratio": {
     "den": 9,
     "num": 16
    },
    "duration": 3600.0,
    "file_size": "8294400",
    "fps": {
     "den": 1,
     "num": 30
    },
    "has_audio": false,
    "has_single_image": true,
    "has_video": true,
    "height": 1080,
    "interlaced_frame": false,
    "metadata": {},
    "path": "generated/h3.png",
    "pixel_format": -1,
    "pixel_ratio": {
     "den": 1,
     "num": 1
    },
    "sample_rate": 0,
    "top_field_first": true,
    "type": "QtImageReader",
    "vcodec": "",
    "video_bit_rate": 0,
    "video_length": "108000",
    "video_stream_index": -1,
    "video_timebase": {
     "den": 30,
     "num": 1
    },
    "width": 1920
   },
   "rotation": {
    "Points": [
     {
      "co": {
       "X": 1,
       "Y": 0
      },
      "interpolation": 2
     }
    ]
   },
   "scale": 1,
   "scale_x": {
    "Points": [
     {
      "co": {
       "X": 1,
       "Y": 1
      },
      "interpolation": 2
     }
    ]
   },
   "scale_y": {
    "Points": [
     {
      "co": {
       "X": 1,
       "Y": 1
      },
      "interpolation": 2
     }
    ]
   },
   "shear_x": {
    "Points": [
     {
      "co": {
       "X": 1,
       "Y": 0
      },
      "interpolation": 2
     }
    ]
   },
   "shear_y": {
    "Points": [
     {
      "co": {
       "X": 1,
       "Y": 0
      },
      "interpolation": 2
     }
    ]
   },
   "start": 0,
   "time": {
    "Points": [
     {
      "co": {
       "X": 1,
       "Y": 1
      },
      "interpolation": 2
     }
    ]
   },
   "volume": {
    "Points": [
     {
      "co": {
       "X": 1,
       "Y": 1
      },
      "interpolation": 2
     }
    ]
   },
   "wave_color": {
    "alpha": {
     "Points": [
      {
       "co": {
        "X": 1,
        "Y": 255
       },
       "handle_left": {
        "X": 0.5,
        "Y": 1
       },
       "handle_right": {
        "X": 0.5,
        "Y": 0
       },
       "handle_type": 0,
       "interpolation": 0
      }
     ]
    },
    "blue": {
     "Points": [
      {
       "co": {
        "X": 1,
        "Y": 255
       },
       "handle_left": {
        "X": 0.5,
        "Y": 1
       },
       "handle_right": {
        "X": 0.5,
        "Y": 0
       },
       "handle_type": 0,
       "interpolation": 0
      }
     ]
    },
    "green": {
     "Points": [
      {
       "co": {
        "X": 1,
        "Y": 123
       },
       "handle_left": {
        "X": 0.5,
        "Y": 1
       },
       "handle_right": {
        "X": 0.5,
        "Y": 0
       },
       "handle_type": 0,
       "interpolation": 0
      }
     ]
    },
    "red": {
     "Points": [
      {
       "co": {
        "X": 1,
        "Y": 0
       },
       "handle_left": {
        "X": 0.5,
        "Y": 1
       },
       "handle_right": {
        "X": 0.5,
        "Y": 0
       },
       "handle_type": 0,
       "interpolation": 0
      }
     ]
    }
   },
   "waveform": false,
   "file_id": "JOU98JSDB6",
   "title": "h3.png",
   "image": "thumbnail/JOU98JSDB6.png"
  },
  {
   "alpha": {
    "Points": [
     {
      "co": {
       "X": 1,
       "Y": 1
      },
      "interpolation": 2
     }
    ]
   },
   "anchor": 0,
   "channel_filter": {
    "Points": [
     {
      "co": {
       "X": 1,
       "Y": -1
      },
      "interpolation": 2
     }
    ]
   },
   "channel_mapping": {
    "Points": [
     {
      "co": {
       "X": 1,
       "Y": -1
      },
      "interpolation": 2
     }
    ]
   },
   "crop_height": {
    "Points": [
     {
      "co": {
       "X": 1,
       "Y": 1
      },
      "interpolation": 2
     }
    ]
   },
   "crop_width": {
    "Points": [
     {
      "co": {
       "X": 1,
       "Y": 1
      },
      "interpolation": 2
     }
    ]
   },
   "crop_x": {
    "Points": [
     {
      "co": {
       "X": 1,
       "Y": 0
      },
      "interpolation": 2
     }
    ]
   },
   "crop_y": {
    "Points": [
     {
      "co": {
       "X": 1,
       "Y": 0
      },
      "interpolation": 2
     }
    ]
   },
   "display": 0,
   "duration": 3600.0,
   "effects": [],
   "end": 3,
   "gravity": 4,
   "has_audio": {
    "Points": [
     {
      "co": {
       "X": 1,
       "Y": -1
      },
      "interpolation": 2
     }
    ]
   },
   "has_video": {
    "Points": [
     {
      "co": {
       "X": 1,
       "Y": -1
      },
      "interpolation": 2
     }
    ]
   },
   "id": "W8XLV077GB",
   "layer": 4000000,
   "location_x": {
    "Points": [
     {
      "co": {
       "X": 1,
       "Y": 0
      },
      "interpolation": 2
     }
    ]
   },
   "location_y": {
    "Points": [
     {
      "co": {
       "X": 1,
       "Y": 0
      },
      "interpolation": 2
     }
    ]
   },
   "mixing": 0,
   "perspective_c1_x": {
    "Points": [
     {
      "co": {
       "X": 1,
       "Y": -1
      },
      "interpolation": 2
     }
    ]
   },
   "perspective_c1_y": {
    "Points": [
     {
      "co": {
       "X": 1,
       "Y": -1
      },
      "interpolation": 2
     }
    ]
   },
   "perspective_c2_x": {
    "Points": [
     {
      "co": {
       "X": 1,
       "Y": -1
      },
      "interpolation": 2
     }
    ]
   },
   "perspective_c2_y": {
    "Points": [
     {
      "co": {
       "X": 1,
       "Y": -1
      },
      "interpolation": 2
     }
    ]
   },
   "perspective_c3_x": {
    "Points": [
     {
      "co": {
       "X": 1,
       "Y": -1
      },
      "interpolation": 2
     }
    ]
   },
   "perspective_c3_y": {
    "Points": [
     {
      "co": {
       "X": 1,
       "Y": -1
      },
      "interpolation": 2
     }
    ]
   },
   "perspective_c4_x": {
    "Points": [
     {
      "co": {
       "X": 1,
       "Y": -1
      },
      "interpolation": 2
     }
    ]
   },
   "perspective_c4_y": {
    "Points": [
     {
      "co": {
       "X": 1,
       "Y": -1
      },
      "interpolation": 2
     }
    ]
   },
   "position": 24,
   "reader": {
    "acodec": "",
    "audio_bit_rate": 0,
    "audio_stream_index": -1,
    "audio_timebase": {
     "den": 1,
     "num": 1
    },
    "channel_layout": 4,
    "channels": 0,
    "display_ratio": {
     "den": 9,
     "num": 16
    },
    "duration": 3600.0,
    "file_size": "8294400",
    "fps": {
     "den": 1,
     "num": 30
    },
    "has_audio": false,
    "has_single_image": true,
    "has_video": true,
    "height": 1080,
    "interlaced_frame": false,
    "metadata": {},
    "path": "generated/h4.png",
    "pixel_format": -1,
    "pixel_ratio": {
     "den": 1,
     "num": 1
    },
    "sample_rate": 0,
    "top_field_first": true,
    "type": "QtImageReader",
    "vcodec": "",
    "video_bit_rate": 0,
    "video_length": "108000",
    "video_stream_index": -1,
    "video_timebase": {
     "den": 30,
     "num": 1
    },
    "width": 1920
   },
   "rotation": {
    "Points": [
     {
      "co": {
       "X": 1,
       "Y": 0
      },
      "interpolation": 2
     }
    ]
   },
   "scale": 1,
   "scale_x": {
    "Points": [
     {
      "co": {
       "X": 1,
       "Y": 1
      },
      "interpolation": 2
     }
    ]
   },
   "scale_y": {
    "Points": [
     {
      "co": {
       "X": 1,
       "Y": 1
      },
      "interpolation": 2
     }
    ]
   },
   "shear_x": {
    "Points": [
     {
      "co": {
       "X": 1,
       "Y": 0
      },
      "interpolation": 2
     }
    ]
   },
   "shear_y": {
    "Points": [
     {
      "co": {
       "X": 1,
       "Y": 0
      },
      "interpolation": 2
     }
    ]
   },
   "start": 0,
   "time": {
    "Points": [
     {
      "co": {
       "X": 1,
       "Y": 1
      },
      "interpolation": 2
     }
    ]
   },
   "volume": {
    "Points": [
     {
      "co": {
       "X": 1,
       "Y": 1
      },
      "interpolation": 2
     }
    ]
   },
   "wave_color": {
    "alpha": {
     "Points": [
      {
       "co": {
        "X": 1,
        "Y": 255
       },
       "handle_left": {
        "X": 0.5,
        "Y": 1
       },
       "handle_right": {
        "X": 0.5,
        "Y": 0
       },
       "handle_type": 0,
       "interpolation": 0
      }
     ]
    },
    "blue": {
     "Points": [
      {
       "co": {
        "X": 1,
        "Y": 255
       },
       "handle_left": {
        "X": 0.5,
        "Y": 1
       },
       "handle_right": {
        "X": 0.5,
        "Y": 0
       },
       "handle_type": 0,
       "interpolation": 0
      }
     ]
    },
    "green": {
     "Points": [
      {
       "co": {
        "X": 1,
        "Y": 123
       },
       "handle_left": {
        "X": 0.5,
        "Y": 1
       },
       "handle_right": {
        "X": 0.5,
        "Y": 0
       },
       "handle_type": 0,
       "interpolation": 0
      }
     ]
    },
    "red": {
     "Points": [
      {
       "co": {
        "X": 1,
        "Y": 0
       },
       "handle_left": {
        "X": 0.5,
        "Y": 1
       },
       "handle_right": {
        "X": 0.5,
        "Y": 0
       },
       "handle_type": 0,
       "interpolation": 0
      }
     ]
    }
   },
   "waveform": false,
   "file_id": "CCXO5CQWJF",
   "title": "h4.png",
   "image": "thumbnail/CCXO5CQWJF.png"
  },
  {
   "alpha": {
    "Points": [
     {
      "co": {
       "X": 1,
       "Y": 1
      },
      "interpolation": 2
     }
    ]
   },
   "anchor": 0,
   "channel_filter": {
    "Points": [
     {
      "co": {
       "X": 1,
       "Y": -1
      },
      "interpolation": 2
     }
    ]
   },
   "channel_mapping": {
    "Points": [
     {
      "co": {
       "X": 1,
       "Y": -1
      },
      "interpolation": 2
     }
    ]
   },
   "crop_height": {
    "Points": [
     {
      "co": {
       "X": 1,
       "Y": 1
      },
      "interpolation": 2
     }
    ]
   },
   "crop_width": {
    "Points": [
     {
      "co": {
       "X": 1,
       "Y": 1
      },
      "interpolation": 2
     }
    ]
   },
   "crop_x": {
    "Points": [
     {
      "co": {
       "X": 1,
       "Y": 0
      },
      "interpolation": 2
     }
    ]
   },
   "crop_y": {
    "Points": [
     {
      "co": {
       "X": 1,
       "Y": 0
      },
      "interpolation": 2
     }
    ]
   },
   "display": 0,
   "duration": 3600.0,
   "effects": [],
   "end": 3.0,
   "gravity": 4,
   "has_audio": {
    "Points": [
     {
      "co": {
       "X": 1,
       "Y": -1
      },
      "interpolation": 2
     }
    ]
   },
   "has_video": {
    "Points": [
     {
      "co": {
       "X": 1,
       "Y": -1
      },
      "interpolation": 2
     }
    ]
   },
   "id": "MROIK1U0GO",
   "layer": 4000000,
   "location_x": {
    "Points": [
     {
      "co": {
       "X": 1,
       "Y": 0
      },
      "interpolation": 2
     }
    ]
   },
   "location_y": {
    "Points": [
     {
      "co": {
       "X": 1,
       "Y": 0
      },
      "interpolation": 2
     }
    ]
   },
   "mixing": 0,
   "perspective_c1_x": {
    "Points": [
     {
      "co": {
       "X": 1,
       "Y": -1
      },
      "interpolation": 2
     }
    ]
   },
   "perspective_c1_y": {
    "Points": [
     {
      "co": {
       "X": 1,
       "Y": -1
      },
      "interpolation": 2
     }
    ]
   },
   "perspective_c2_x": {
    "Points": [
     {
      "co": {
       "X": 1,
       "Y": -1
      },
      "interpolation": 2
     }
    ]
   },
   "perspective_c2_y": {
    "Points": [
     {
      "co": {
       "X": 1,
       "Y": -1
      },
      "interpolation": 2
     }
    ]
   },
   "perspective_c3_x": {
    "Points": [
     {
      "co": {
       "X": 1,
       "Y": -1
      },
      "interpolation": 2
     }
    ]
   },
   "perspective_c3_y": {
    "Points": [
     {
      "co": {
       "X": 1,
       "Y": -1
      },
      "interpolation": 2
     }
    ]
   },
   "perspective_c4_x": {
    "Points": [
     {
      "co": {
       "X": 1,
       "Y": -1
      },
      "interpolation": 2
     }
    ]
   },
   "perspective_c4_y": {
    "Points": [
     {
      "co": {
       "X": 1,
       "Y": -1
      },
      "interpolation": 2
     }
    ]
   },
   "position": 26,
   "reader": {
    "acodec": "",
    "audio_bit_rate": 0,
    "audio_stream_index": -1,
    "audio_timebase": {
     "den": 1,
     "num": 1
    },
    "channel_layout": 4,
    "channels": 0,
    "display_ratio": {
     "den": 9,
     "num": 16
    },
    "duration": 3600.0,
    "file_size": "8294400",
    "fps": {
     "den": 1,
     "num": 30
    },
    "has_audio": false,
    "has_single_image": true,
    "has_video": true,
    "height": 1080,
    "interlaced_frame": false,
    "metadata": {},
    "path": "generated/h5.png",
    "pixel_format": -1,
    "pixel_ratio": {
     "den": 1,
     "num": 1
    },
    "sample_rate": 0,
    "top_field_first": true,
    "type": "QtImageReader",
    "vcodec": "",
    "video_bit_rate": 0,
    "video_length": "108000",
    "video_stream_index": -1,
    "video_timebase": {
     "den": 30,
     "num": 1
    },
    "width": 1920
   },
   "rotation": {
    "Points": [
     {
      "co": {
       "X": 1,
       "Y": 0
      },
      "interpolation": 2
     }
    ]
   },
   "scale": 1,
   "scale_x": {
    "Points": [
     {
      "co": {
       "X": 1,
       "Y": 1
      },
      "interpolation": 2
     }
    ]
   },
   "scale_y": {
    "Points": [
     {
      "co": {
       "X": 1,
       "Y": 1
      },
      "interpolation": 2
     }
    ]
   },
   "shear_x": {
    "Points": [
     {
      "co": {
       "X": 1,
       "Y": 0
      },
      "interpolation": 2
     }
    ]
   },
   "shear_y": {
    "Points": [
     {
      "co": {
       "X": 1,
       "Y": 0
      },
      "interpolation": 2
     }
    ]
   },
   "start": 0,
   "time": {
    "Points": [
     {
      "co": {
       "X": 1,
       "Y": 1
      },
      "interpolation": 2
     }
    ]
   },
   "volume": {
    "Points": [
     {
      "co": {
       "X": 1,
       "Y": 1
      },
      "interpolation": 2
     }
    ]
   },
   "wave_color": {
    "alpha": {
     "Points": [
      {
       "co": {
        "X": 1,
        "Y": 255
       },
       "handle_left": {
        "X": 0.5,
        "Y": 1
       },
       "handle_right": {
        "X": 0.5,
        "Y": 0
       },
       "handle_type": 0,
       "interpolation": 0
      }
     ]
    },
    "blue": {
     "Points": [
      {
       "co": {
        "X": 1,
        "Y": 255
       },
       "handle_left": {
        "X": 0.5,
        "Y": 1
       },
       "handle_right": {
        "X": 0.5,
        "Y": 0
       },
       "handle_type": 0,
       "interpolation": 0
      }
     ]
    },
    "green": {
     "Points": [
      {
       "co": {
        "X": 1,
        "Y": 123
       },
       "handle_left": {
        "X": 0.5,
        "Y": 1
       },
       "handle_right": {
        "X": 0.5,
        "Y": 0
       },
       "handle_type": 0,
       "interpolation": 0
      }
     ]
    },
    "red": {
     "Points": [
      {
       "co": {
        "X": 1,
        "Y": 0
       },
       "handle_left": {
        "X": 0.5,
        "Y": 1
       },
       "handle_right": {
        "X": 0.5,
        "Y": 0
       },
       "handle_type": 0,
       "interpolation": 0
      }
     ]
    }
   },
   "waveform": false,
   "file_id": "OHTYNJHJ4A",
   "title": "h5.png",
   "image": "thumbnail/OHTYNJHJ4A.png"
  },
  {
   "alpha": {
    "Points": [
     {
      "co": {
       "X": 1,
       "Y": 1
      },
      "interpolation": 2
     }
    ]
   },
   "anchor": 0,
   "channel_filter": {
    "Points": [
     {
      "co": {
       "X": 1,
       "Y": -1
      },
      "interpolation": 2
     }
    ]
   },
   "channel_mapping": {
    "Points": [
     {
      "co": {
       "X": 1,
       "Y": -1
      },
      "interpolation": 2
     }
    ]
   },
   "crop_height": {
    "Points": [
     {
      "co": {
       "X": 1,
       "Y": 1
      },
      "interpolation": 2
     }
    ]
   },
   "crop_width": {
    "Points": [
     {
      "co": {
       "X": 1,
       "Y": 1
      },
      "interpolation": 2
     }
    ]
   },
   "crop_x": {
    "Points": [
     {
      "co": {
       "X": 1,
       "Y": 0
      },
      "interpolation": 2
     }
    ]
   },
   "crop_y": {
    "Points": [
     {
      "co": {
       "X": 1,
       "Y": 0
      },
      "interpolation": 2
     }
    ]
   },
   "display": 0,
   "duration": 59.67503356933594,
   "effects": [],
   "end": 59.67503356933594,
   "gravity": 4,
   "has_audio": {
    "Points": [
     {
      "co": {
       "X": 1,
       "Y": -1
      },
      "interpolation": 2
     }
    ]
   },
   "has_video": {
    "Points": [
     {
      "co": {
       "X": 1,
       "Y": -1
      },
      "interpolation": 2
     }
    ]
   },
   "id": "0RGSG8RUAQ",
   "layer": 1000000,
   "location_x": {
    "Points": [
     {
      "co": {
       "X": 1,
       "Y": 0
      },
      "interpolation": 2
     }
    ]
   },
   "location_y": {
    "Points": [
     {
      "co": {
       "X": 1,
       "Y": 0
      },
      "interpolation": 2
     }
    ]
   },
   "mixing": 0,
   "perspective_c1_x": {
    "Points": [
     {
      "co": {
       "X": 1,
       "Y": -1
      },
      "interpolation": 2
     }
    ]
   },
   "perspective_c1_y": {
    "Points": [
     {
      "co": {
       "X": 1,
       "Y": -1
      },
      "interpolation": 2
     }
    ]
   },
   "perspective_c2_x": {
    "Points": [
     {
      "co": {
       "X": 1,
       "Y": -1
      },
      "interpolation": 2
     }
    ]
   },
   "perspective_c2_y": {
    "Points": [
     {
      "co": {
       "X": 1,
       "Y": -1
      },
      "interpolation": 2
     }
    ]
   },
   "perspective_c3_x": {
    "Points": [
     {
      "co": {
       "X": 1,
       "Y": -1
      },
      "interpolation": 2
     }
    ]
   },
   "perspective_c3_y": {
    "Points": [
     {
      "co": {
       "X": 1,
       "Y": -1
      },
      "interpolation": 2
     }
    ]
   },
   "perspective_c4_x": {
    "Points": [
     {
      "co": {
       "X": 1,
       "Y": -1
      },
      "interpolation": 2
     }
    ]
   },
   "perspective_c4_y": {
    "Points": [
     {
      "co": {
       "X": 1,
       "Y": -1
      },
      "interpolation": 2
     }
    ]
   },
   "position": 0,
   "reader": {
    "acodec": "pcm_s16le",
    "audio_bit_rate": 705600,
    "audio_stream_index": 0,
    "audio_timebase": {
     "den": 44100,
     "num": 1
    },
    "channel_layout": 4,
    "channels": 1,
    "display_ratio": {
     "den": 1,
     "num": 1
    },
    "duration": 59.67503356933594,
    "file_size": "5263498",
    "fps": {
     "den": 1,
     "num": 24
    },
    "has_audio": true,
    "has_single_image": false,
    "has_video": false,
    "height": 480,
    "interlaced_frame": false,
    "metadata": {
     "artist": "Colin Sindle",
     "date": "2021"
    },
    "path": "./voice_over.wav",
    "pixel_format": -1,
    "pixel_ratio": {
     "den": 1,
     "num": 1
    },
    "sample_rate": 44100,
    "top_field_first": true,
    "type": "FFmpegReader",
    "vcodec": "",
    "video_bit_rate": 0,
    "video_length": "1432",
    "video_stream_index": -1,
    "video_timebase": {
     "den": 24,
     "num": 1
    },
    "width": 720
   },
   "rotation": {
    "Points": [
     {
      "co": {
       "X": 1,
       "Y": 0
      },
      "interpolation": 2
     }
    ]
   },
   "scale": 1,
   "scale_x": {
    "Points": [
     {
      "co": {
       "X": 1,
       "Y": 1
      },
      "interpolation": 2
     }
    ]
   },
   "scale_y": {
    "Points": [
     {
      "co": {
       "X": 1,
       "Y": 1
      },
      "interpolation": 2
     }
    ]
   },
   "shear_x": {
    "Points": [
     {
      "co": {
       "X": 1,
       "Y": 0
      },
      "interpolation": 2
     }
    ]
   },
   "shear_y": {
    "Points": [
     {
      "co": {
       "X": 1,
       "Y": 0
      },
      "interpolation": 2
     }
    ]
   },
   "start": 0,
   "time": {
    "Points": [
     {
      "co": {
       "X": 1,
       "Y": 1
      },
      "interpolation": 2
     }
    ]
   },
   "volume": {
    "Points": [
     {
      "co": {
       "X": 1,
       "Y": 1
      },
      "interpolation": 2
     }
    ]
   },
   "wave_color": {
    "alpha": {
     "Points": [
      {
       "co": {
        "X": 1,
        "Y": 255
       },
       "handle_left": {
        "X": 0.5,
        "Y": 1
       },
       "handle_right": {
        "X": 0.5,
        "Y": 0
       },
       "handle_type": 0,
       "interpolation": 0
      }
     ]
    },
    "blue": {
     "Points": [
      {
       "co": {
        "X": 1,
        "Y": 255
       },
       "handle_left": {
        "X": 0.5,
        "Y": 1
       },
       "handle_right": {
        "X": 0.5,
        "Y": 0
       },
       "handle_type": 0,
       "interpolation": 0
      }
     ]
    },
    "green": {
     "Points": [
      {
       "co": {
        "X": 1,
        "Y": 123
       },
       "handle_left": {
        "X": 0.5,
        "Y": 1
       },
       "handle_right": {
        "X": 0.5,
        "Y": 0
       },
       "handle_type": 0,
       "interpolation": 0
      }
     ]
    },
    "red": {
     "Points": [
      {
       "co": {
        "X": 1,
        "Y": 0
       },
       "handle_left": {
        "X": 0.5,
        "Y": 1
       },
       "handle_right": {
        "X": 0.5,
        "Y": 0
       },
       "handle_type": 0,
       "interpolation": 0
      }
     ]
    }
   },
   "waveform": false,
   "file_id": "ZD0LJGZUTV",
   "title": "voice_over.wav",
   "image": "thumbnail/ZD0LJGZUTV.png"
  },
  {
   "alpha": {
    "Points": [
     {
      "co": {
       "X": 1,
       "Y": 1
      },
      "interpolation": 2
     }
    ]
   },
   "anchor": 0,
   "channel_filter": {
    "Points": [
     {
      "co": {
       "X": 1,
       "Y": -1
      },
      "interpolation": 2
     }
    ]
   },
   "channel_mapping": {
    "Points": [
     {
      "co": {
       "X": 1,
       "Y": -1
      },
      "interpolation": 2
     }
    ]
   },
   "crop_height": {
    "Points": [
     {
      "co": {
       "X": 1,
       "Y": 1
      },
      "interpolation": 2
     }
    ]
   },
   "crop_width": {
    "Points": [
     {
      "co": {
       "X": 1,
       "Y": 1
      },
      "interpolation": 2
     }
    ]
   },
   "crop_x": {
    "Points": [
     {
      "co": {
       "X": 1,
       "Y": 0
      },
      "interpolation": 2
     }
    ]
   },
   "crop_y": {
    "Points": [
     {
      "co": {
       "X": 1,
       "Y": 0
      },
      "interpolation": 2
     }
    ]
   },
   "display": 0,
   "duration": 3600.0,
   "effects": [],
   "end": 5,
   "gravity": 4,
   "has_audio": {
    "Points": [
     {
      "co": {
       "X": 1,
       "Y": -1
      },
      "interpolation": 2
     }
    ]
   },
   "has_video": {
    "Points": [
     {
      "co": {
       "X": 1,
       "Y": -1
      },
      "interpolation": 2
     }
    ]
   },
   "id": "ZHDYXRXU2X",
   "layer": 5000000,
   "location_x": {
    "Points": [
     {
      "co": {
       "X": 1,
       "Y": 0
      },
      "interpolation": 2
     }
    ]
   },
   "location_y": {
    "Points": [
     {
      "co": {
       "X": 1,
       "Y": 0
      },
      "interpolation": 2
     }
    ]
   },
   "mixing": 0,
   "perspective_c1_x": {
    "Points": [
     {
      "co": {
       "X": 1,
       "Y": -1
      },
      "interpolation": 2
     }
    ]
   },
   "perspective_c1_y": {
    "Points": [
     {
      "co": {
       "X": 1,
       "Y": -1
      },
      "interpolation": 2
     }
    ]
   },
   "perspective_c2_x": {
    "Points": [
     {
      "co": {
       "X": 1,
       "Y": -1
      },
      "interpolation": 2
     }
    ]
   },
   "perspective_c2_y": {
    "Points": [
     {
      "co": {
       "X": 1,
       "Y": -1
      },
      "interpolation": 2
     }
    ]
   },
   "perspective_c3_x": {
    "Points": [
     {
      "co": {
       "X": 1,
       "Y": -1
      },
      "interpolation": 2
     }
    ]
   },
   "perspective_c3_y": {
    "Points": [
     {
      "co": {
       "X": 1,
       "Y": -1
      },
      "interpolation": 2
     }
    ]
   },
   "perspective_c4_x": {
    "Points": [
     {
      "co": {
       "X": 1,
       "Y": -1
      },
      "interpolation": 2
     }
    ]
   },
   "perspective_c4_y": {
    "Points": [
     {
      "co": {
       "X": 1,
       "Y": -1
      },
      "interpolation": 2
     }
    ]
   },
   "position": 0,
   "reader": {
    "acodec": "",
    "audio_bit_rate": 0,
    "audio_stream_index": -1,
    "audio_timebase": {
     "den": 1,
     "num": 1
    },
    "channel_layout": 4,
    "channels": 0,
    "display_ratio": {
     "den": 9,
     "num": 16
    },
    "duration": 3600.0,
    "file_size": "8294400",
    "fps": {
     "den": 1,
     "num": 30
    },
    "has_audio": false,
    "has_single_image": true,
    "has_video": true,
    "height": 1080,
    "interlaced_frame": false,
    "metadata": {},
    "path": "./title.svg",
    "pixel_format": -1,
    "pixel_ratio": {
     "den": 1,
     "num": 1
    },
    "sample_rate": 0,
    "top_field_first": true,
    "type": "QtImageReader",
    "vcodec": "",
    "video_bit_rate": 0,
    "video_length": "108000",
    "video_stream_index": -1,
    "video_timebase": {
     "den": 30,
     "num": 1
    },
    "width": 1920
   },
   "rotation": {
    "Points": [
     {
      "co": {
       "X": 1,
       "Y": 0
      },
      "interpolation": 2
     }
    ]
   },
   "scale": 1,
   "scale_x": {
    "Points": [
     {
      "co": {
       "X": 1,
       "Y": 1
      },
      "interpolation": 2
     }
    ]
   },
   "scale_y": {
    "Points": [
     {
      "co": {
       "X": 1,
       "Y": 1
      },
      "interpolation": 2
     }
    ]
   },
   "shear_x": {
    "Points": [
     {
      "co": {
       "X": 1,
       "Y": 0
      },
      "interpolation": 2
     }
    ]
   },
   "shear_y": {
    "Points": [
     {
      "co": {
       "X": 1,
       "Y": 0
      },
      "interpolation": 2
     }
    ]
   },
   "start": 0,
   "time": {
    "Points": [
     {
      "co": {
       "X": 1,
       "Y": 1
      },
      "interpolation": 2
     }
    ]
   },
   "volume": {
    "Points": [
     {
      "co": {
       "X": 1,
       "Y": 1
      },
      "interpolation": 2
     }
    ]
   },
   "wave_color": {
    "alpha": {
     "Points": [
      {
       "co": {
        "X": 1,
        "Y": 255
       },
       "handle_left": {
        "X": 0.5,
        "Y": 1
       },
       "handle_right": {
        "X": 0.5,
        "Y": 0
       },
       "handle_type": 0,
       "interpolation": 0
      }
     ]
    },
    "blue": {
     "Points": [
      {
       "co": {
        "X": 1,
        "Y": 255
       },
       "handle_left": {
        "X": 0.5,
        "Y": 1
       },
       "handle_right": {
        "X": 0.5,
        "Y": 0
       },
       "handle_type": 0,
       "interpolation": 0
      }
     ]
    },
    "green": {
     "Points": [
      {
       "co": {
        "X": 1,
        "Y": 123
       },
       "handle_left": {
        "X": 0.5,
        "Y": 1
       },
       "handle_right": {
        "X": 0.5,
        "Y": 0
       },
       "handle_type": 0,
       "interpolation": 0
      }
     ]
    },
    "red": {
     "Points": [
      {
       "co": {
        "X": 1,
        "Y": 0
       },
       "handle_left": {
        "X": 0.5,
        "Y": 1
       },
       "handle_right": {
        "X": 0.5,
        "Y": 0
       },
       "handle_type": 0,
       "interpolation": 0
      }
     ]
    }
   },
   "waveform": false,
   "file_id": "WSC6UG118N",
   "title": "title.svg",
   "image": "thumbnail/WSC6UG118N.png"
  }
 ],
 "effects": [
  {
   "id": "Z8XV0QYPIC",
   "layer": 4000000,
   "title": "Transition",
   "type": "Mask",
   "position": 8,
   "start": 0,
   "end": 1,
   "brightness": {
    "Points": [
     {
      "co": {
       "X": 1,
       "Y": 1
      },
      "handle_left": {
       "X": 0.5,
       "Y": 1
      },
      "handle_right": {
       "X": 0.5,
       "Y": 0
      },
      "handle_type": 0,
      "interpolation": 0
     },
     {
      "co": {
       "X": 26,
       "Y": -1
      },
      "handle_left": {
       "X": 0.5,
       "Y": 1
      },
      "handle_right": {
       "X": 0.5,
       "Y": 0
      },
      "handle_type": 0,
      "interpolation": 0
     }
    ]
   },
   "contrast": {
    "Points": [
     {
      "co": {
       "X": 1,
       "Y": 3
      },
      "interpolation": 2
     }
    ]
   },
   "reader": {
    "acodec": "",
    "audio_bit_rate": 0,
    "audio_stream_index": -1,
    "audio_timebase": {
     "den": 1,
     "num": 1
    },
    "channel_layout": 4,
    "channels": 0,
    "display_ratio": {
     "den": 4,
     "num": 5
    },
    "duration": 3600,
    "file_size": "1658880",
    "fps": {
     "den": 1,
     "num": 30
    },
    "has_audio": false,
    "has_single_image": true,
    "has_video": true,
    "height": 576,
    "interlaced_frame": false,
    "metadata": {},
    "path": "@transitions/common/fade.svg",
    "pixel_format": -1,
    "pixel_ratio": {
     "den": 1,
     "num": 1
    },
    "sample_rate": 0,
    "top_field_first": true,
    "type": "QtImageReader",
    "vcodec": "",
    "video_bit_rate": 0,
    "video_length": "108000",
    "video_stream_index": -1,
    "video_timebase": {
     "den": 30,
     "num": 1
    },
    "width": 720
   },
   "replace_image": false
  },
  {
   "layer": 4000000,
   "title": "Transition",
   "type": "Mask",
   "position": 10,
   "start": 0,
   "end": 1,
   "brightness": {
    "Points": [
     {
      "co": {
       "X": 1,
       "Y": 1
      },
      "handle_left": {
       "X": 0.5,
       "Y": 1
      },
      "handle_right": {
       "X": 0.5,
       "Y": 0
      },
      "handle_type": 0,
      "interpolation": 0
     },
     {
      "co": {
       "X": 26,
       "Y": -1
      },
      "handle_left": {
       "X": 0.5,
       "Y": 1
      },
      "handle_right": {
       "X": 0.5,
       "Y": 0
      },
      "handle_type": 0,
      "interpolation": 0
     }
    ]
   },
   "contrast": {
    "Points": [
     {
      "co": {
       "X": 1,
       "Y": 3
      },
      "interpolation": 2
     }
    ]
   },
   "reader": {
    "acodec": "",
    "audio_bit_rate": 0,
    "audio_stream_index": -1,
    "audio_timebase": {
     "den": 1,
     "num": 1
    },
    "channel_layout": 4,
    "channels": 0,
    "display_ratio": {
     "den": 4,
     "num": 5
    },
    "duration": 3600,
    "file_size": "1658880",
    "fps": {
     "den": 1,
     "num": 30
    },
    "has_audio": false,
    "has_single_image": true,
    "has_video": true,
    "height": 576,
    "interlaced_frame": false,
    "metadata": {},
    "path": "@transitions/common/fade.svg",
    "pixel_format": -1,
    "pixel_ratio": {
     "den": 1,
     "num": 1
    },
    "sample_rate": 0,
    "top_field_first": true,
    "type": "QtImageReader",
    "vcodec": "",
    "video_bit_rate": 0,
    "video_length": "108000",
    "video_stream_index": -1,
    "video_timebase": {
     "den": 30,
     "num": 1
    },
    "width": 720
   },
   "replace_image": false,
   "id": "A91CXGNOQ9"
  },
  {
   "layer": 4000000,
   "title": "Transition",
   "type": "Mask",
   "position": 12,
   "start": 0,
   "end": 1,
   "brightness": {
    "Points": [
     {
      "co": {
       "X": 1,
       "Y": 1
      },
      "handle_left": {
       "X": 0.5,
       "Y": 1
      },
      "handle_right": {
       "X": 0.5,
       "Y": 0
      },
      "handle_type": 0,
      "interpolation": 0
     },
     {
      "co": {
       "X": 26,
       "Y": -1
      },
      "handle_left": {
       "X": 0.5,
       "Y": 1
      },
      "handle_right": {
       "X": 0.5,
       "Y": 0
      },
      "handle_type": 0,
      "interpolation": 0
     }
    ]
   },
   "contrast": {
    "Points": [
     {
      "co": {
       "X": 1,
       "Y": 3
      },
      "interpolation": 2
     }
    ]
   },
   "reader": {
    "acodec": "",
    "audio_bit_rate": 0,
    "audio_stream_index": -1,
    "audio_timebase": {
     "den": 1,
     "num": 1
    },
    "channel_layout": 4,
    "channels": 0,
    "display_ratio": {
     "den": 4,
     "num": 5
    },
    "duration": 3600,
    "file_size": "1658880",
    "fps": {
     "den": 1,
     "num": 30
    },
    "has_audio": false,
    "has_single_image": true,
    "has_video": true,
    "height": 576,
    "interlaced_frame": false,
    "metadata": {},
    "path": "@transitions/common/fade.svg",
    "pixel_format": -1,
    "pixel_ratio": {
     "den": 1,
     "num": 1
    },
    "sample_rate": 0,
    "top_field_first": true,
    "type": "QtImageReader",
    "vcodec": "",
    "video_bit_rate": 0,
    "video_length": "108000",
    "video_stream_index": -1,
    "video_timebase": {
     "den": 30,
     "num": 1
    },
    "width": 720
   },
   "replace_image": false,
   "id": "4WH5GQ2VA6"
  },
  {
   "layer": 4000000,
   "title": "Transition",
   "type": "Mask",
   "position": 14,
   "start": 0,
   "end": 1,
   "brightness": {
    "Points": [
     {
      "co": {
       "X": 1,
       "Y": 1
      },
      "handle_left": {
       "X": 0.5,
       "Y": 1
      },
      "handle_right": {
       "X": 0.5,
       "Y": 0
      },
      "handle_type": 0,
      "interpolation": 0
     },
     {
      "co": {
       "X": 26,
       "Y": -1
      },
      "handle_left": {
       "X": 0.5,
       "Y": 1
      },
      "handle_right": {
       "X": 0.5,
       "Y": 0
      },
      "handle_type": 0,
      "interpolation": 0
     }
    ]
   },
   "contrast": {
    "Points": [
     {
      "co": {
       "X": 1,
       "Y": 3
      },
      "interpolation": 2
     }
    ]
   },
   "reader": {
    "acodec": "",
    "audio_bit_rate": 0,
    "audio_stream_index": -1,
    "audio_timebase": {
     "den": 1,
     "num": 1
    },
    "channel_layout": 4,
    "channels": 0,
    "display_ratio": {
     "den": 4,
     "num": 5
    },
    "duration": 3600,
    "file_size": "1658880",
    "fps": {
     "den": 1,
     "num": 30
    },
    "has_audio": false,
    "has_single_image": true,
    "has_video": true,
    "height": 576,
    "interlaced_frame": false,
    "metadata": {},
    "path": "@transitions/common/fade.svg",
    "pixel_format": -1,
    "pixel_ratio": {
     "den": 1,
     "num": 1
    },
    "sample_rate": 0,
    "top_field_first": true,
    "type": "QtImageReader",
    "vcodec": "",
    "video_bit_rate": 0,
    "video_length": "108000",
    "video_stream_index": -1,
    "video_timebase": {
     "den": 30,
     "num": 1
    },
    "width": 720
   },
   "replace_image": false,
   "id": "RUR6F8046F"
  },
  {
   "layer": 4000000,
   "title": "Transition",
   "type": "Mask",
   "position": 6,
   "start": 0,
   "end": 1,
   "brightness": {
    "Points": [
     {
      "co": {
       "X": 1,
       "Y": 1
      },
      "handle_left": {
       "X": 0.5,
       "Y": 1
      },
      "handle_right": {
       "X": 0.5,
       "Y": 0
      },
      "handle_type": 0,
      "interpolation": 0
     },
     {
      "co": {
       "X": 26,
       "Y": -1
      },
      "handle_left": {
       "X": 0.5,
       "Y": 1
      },
      "handle_right": {
       "X": 0.5,
       "Y": 0
      },
      "handle_type": 0,
      "interpolation": 0
     }
    ]
   },
   "contrast": {
    "Points": [
     {
      "co": {
       "X": 1,
       "Y": 3
      },
      "interpolation": 2
     }
    ]
   },
   "reader": {
    "acodec": "",
    "audio_bit_rate": 0,
    "audio_stream_index": -1,
    "audio_timebase": {
     "den": 1,
     "num": 1
    },
    "channel_layout": 4,
    "channels": 0,
    "display_ratio": {
     "den": 4,
     "num": 5
    },
    "duration": 3600,
    "file_size": "1658880",
    "fps": {
     "den": 1,
     "num": 30
    },
    "has_audio": false,
    "has_single_image": true,
    "has_video": true,
    "height": 576,
    "interlaced_frame": false,
    "metadata": {},
    "path": "@transitions/common/fade.svg",
    "pixel_format": -1,
    "pixel_ratio": {
     "den": 1,
     "num": 1
    },
    "sample_rate": 0,
    "top_field_first": true,
    "type": "QtImageReader",
    "vcodec": "",
    "video_bit_rate": 0,
    "video_length": "108000",
    "video_stream_index": -1,
    "video_timebase": {
     "den": 30,
     "num": 1
    },
    "width": 720
   },
   "replace_image": false,
   "id": "BJ46LYUW7F"
  },
  {
   "id": "RCBQGCMDXL",
   "layer": 4000000,
   "title": "Transition",
   "type": "Mask",
   "position": 30,
   "start": 0,
   "end": 1,
   "brightness": {
    "Points": [
     {
      "co": {
       "X": 1,
       "Y": 1
      },
      "handle_left": {
       "X": 0.5,
       "Y": 1
      },
      "handle_right": {
       "X": 0.5,
       "Y": 0
      },
      "handle_type": 0,
      "interpolation": 0
     },
     {
      "co": {
       "X": 26,
       "Y": -1
      },
      "handle_left": {
       "X": 0.5,
       "Y": 1
      },
      "handle_right": {
       "X": 0.5,
       "Y": 0
      },
      "handle_type": 0,
      "interpolation": 0
     }
    ]
   },
   "contrast": {
    "Points": [
     {
      "co": {
       "X": 1,
       "Y": 3
      },
      "interpolation": 2
     }
    ]
   },
   "reader": {
    "acodec": "",
    "audio_bit_rate": 0,
    "audio_stream_index": -1,
    "audio_timebase": {
     "den": 1,
     "num": 1
    },
    "channel_layout": 4,
    "channels": 0,
    "display_ratio": {
     "den": 4,
     "num": 5
    },
    "duration": 3600,
    "file_size": "1658880",
    "fps": {
     "den": 1,
     "num": 30
    },
    "has_audio": false,
    "has_single_image": true,
    "has_video": true,
    "height": 576,
    "interlaced_frame": false,
    "metadata": {},
    "path": "@transitions/common/fade.svg",
    "pixel_format": -1,
    "pixel_ratio": {
     "den": 1,
     "num": 1
    },
    "sample_rate": 0,
    "top_field_first": true,
    "type": "QtImageReader",
    "vcodec": "",
    "video_bit_rate": 0,
    "video_length": "108000",
    "video_stream_index": -1,
    "video_timebase": {
     "den": 30,
     "num": 1
    },
    "width": 720
   },
   "replace_image": false
  },
  {
   "layer": 4000000,
   "title": "Transition",
   "type": "Mask",
   "position": 18,
   "start": 0,
   "end": 1,
   "brightness": {
    "Points": [
     {
      "co": {
       "X": 1,
       "Y": 1
      },
      "handle_left": {
       "X": 0.5,
       "Y": 1
      },
      "handle_right": {
       "X": 0.5,
       "Y": 0
      },
      "handle_type": 0,
      "interpolation": 0
     },
     {
      "co": {
       "X": 26,
       "Y": -1
      },
      "handle_left": {
       "X": 0.5,
       "Y": 1
      },
      "handle_right": {
       "X": 0.5,
       "Y": 0
      },
      "handle_type": 0,
      "interpolation": 0
     }
    ]
   },
   "contrast": {
    "Points": [
     {
      "co": {
       "X": 1,
       "Y": 3
      },
      "interpolation": 2
     }
    ]
   },
   "reader": {
    "acodec": "",
    "audio_bit_rate": 0,
    "audio_stream_index": -1,
    "audio_timebase": {
     "den": 1,
     "num": 1
    },
    "channel_layout": 4,
    "channels": 0,
    "display_ratio": {
     "den": 4,
     "num": 5
    },
    "duration": 3600,
    "file_size": "1658880",
    "fps": {
     "den": 1,
     "num": 30
    },
    "has_audio": false,
    "has_single_image": true,
    "has_video": true,
    "height": 576,
    "interlaced_frame": false,
    "metadata": {},
    "path": "@transitions/common/fade.svg",
    "pixel_format": -1,
    "pixel_ratio": {
     "den": 1,
     "num": 1
    },
    "sample_rate": 0,
    "top_field_first": true,
    "type": "QtImageReader",
    "vcodec": "",
    "video_bit_rate": 0,
    "video_length": "108000",
    "video_stream_index": -1,
    "video_timebase": {
     "den": 30,
     "num": 1
    },
    "width": 720
   },
   "replace_image": false,
   "id": "U6SJ673HD3"
  },
  {
   "layer": 4000000,
   "title": "Transition",
   "type": "Mask",
   "position": 19,
   "start": 0,
   "end": 1,
   "brightness": {
    "Points": [
     {
      "co": {
       "X": 1,
       "Y": 1
      },
      "handle_left": {
       "X": 0.5,
       "Y": 1
      },
      "handle_right": {
       "X": 0.5,
       "Y": 0
      },
      "handle_type": 0,
      "interpolation": 0
     },
     {
      "co": {
       "X": 26,
       "Y": -1
      },
      "handle_left": {
       "X": 0.5,
       "Y": 1
      },
      "handle_right": {
       "X": 0.5,
       "Y": 0
      },
      "handle_type": 0,
      "interpolation": 0
     }
    ]
   },
   "contrast": {
    "Points": [
     {
      "co": {
       "X": 1,
       "Y": 3
      },
      "interpolation": 2
     }
    ]
   },
   "reader": {
    "acodec": "",
    "audio_bit_rate": 0,
    "audio_stream_index": -1,
    "audio_timebase": {
     "den": 1,
     "num": 1
    },
    "channel_layout": 4,
    "channels": 0,
    "display_ratio": {
     "den": 4,
     "num": 5
    },
    "duration": 3600,
    "file_size": "1658880",
    "fps": {
     "den": 1,
     "num": 30
    },
    "has_audio": false,
    "has_single_image": true,
    "has_video": true,
    "height": 576,
    "interlaced_frame": false,
    "metadata": {},
    "path": "@transitions/common/fade.svg",
    "pixel_format": -1,
    "pixel_ratio": {
     "den": 1,
     "num": 1
    },
    "sample_rate": 0,
    "top_field_first": true,
    "type": "QtImageReader",
    "vcodec": "",
    "video_bit_rate": 0,
    "video_length": "108000",
    "video_stream_index": -1,
    "video_timebase": {
     "den": 30,
     "num": 1
    },
    "width": 720
   },
   "replace_image": false,
   "id": "CQX4ZXUH9C"
  },
  {
   "layer": 4000000,
   "title": "Transition",
   "type": "Mask",
   "position": 20,
   "start": 0,
   "end": 1,
   "brightness": {
    "Points": [
     {
      "co": {
       "X": 1,
       "Y": 1
      },
      "handle_left": {
       "X": 0.5,
       "Y": 1
      },
      "handle_right": {
       "X": 0.5,
       "Y": 0
      },
      "handle_type": 0,
      "interpolation": 0
     },
     {
      "co": {
       "X": 26,
       "Y": -1
      },
      "handle_left": {
       "X": 0.5,
       "Y": 1
      },
      "handle_right": {
       "X": 0.5,
       "Y": 0
      },
      "handle_type": 0,
      "interpolation": 0
     }
    ]
   },
   "contrast": {
    "Points": [
     {
      "co": {
       "X": 1,
       "Y": 3
      },
      "interpolation": 2
     }
    ]
   },
   "reader": {
    "acodec": "",
    "audio_bit_rate": 0,
    "audio_stream_index": -1,
    "audio_timebase": {
     "den": 1,
     "num": 1
    },
    "channel_layout": 4,
    "channels": 0,
    "display_ratio": {
     "den": 4,
     "num": 5
    },
    "duration": 3600,
    "file_size": "1658880",
    "fps": {
     "den": 1,
     "num": 30
    },
    "has_audio": false,
    "has_single_image": true,
    "has_video": true,
    "height": 576,
    "interlaced_frame": false,
    "metadata": {},
    "path": "@transitions/common/fade.svg",
    "pixel_format": -1,
    "pixel_ratio": {
     "den": 1,
     "num": 1
    },
    "sample_rate": 0,
    "top_field_first": true,
    "type": "QtImageReader",
    "vcodec": "",
    "video_bit_rate": 0,
    "video_length": "108000",
    "video_stream_index": -1,
    "video_timebase": {
     "den": 30,
     "num": 1
    },
    "width": 720
   },
   "replace_image": false,
   "id": "FL1WLL1U2Z"
  },
  {
   "id": "FTWPT067CV",
   "layer": 4000000,
   "title": "Transition",
   "type": "Mask",
   "position": 24,
   "start": 0,
   "end": 1,
   "brightness": {
    "Points": [
     {
      "co": {
       "X": 1,
       "Y": 1
      },
      "handle_left": {
       "X": 0.5,
       "Y": 1
      },
      "handle_right": {
       "X": 0.5,
       "Y": 0
      },
      "handle_type": 0,
      "interpolation": 0
     },
     {
      "co": {
       "X": 26,
       "Y": -1
      },
      "handle_left": {
       "X": 0.5,
       "Y": 1
      },
      "handle_right": {
       "X": 0.5,
       "Y": 0
      },
      "handle_type": 0,
      "interpolation": 0
     }
    ]
   },
   "contrast": {
    "Points": [
     {
      "co": {
       "X": 1,
       "Y": 3
      },
      "interpolation": 2
     }
    ]
   },
   "reader": {
    "acodec": "",
    "audio_bit_rate": 0,
    "audio_stream_index": -1,
    "audio_timebase": {
     "den": 1,
     "num": 1
    },
    "channel_layout": 4,
    "channels": 0,
    "display_ratio": {
     "den": 4,
     "num": 5
    },
    "duration": 3600,
    "file_size": "1658880",
    "fps": {
     "den": 1,
     "num": 30
    },
    "has_audio": false,
    "has_single_image": true,
    "has_video": true,
    "height": 576,
    "interlaced_frame": false,
    "metadata": {},
    "path": "@transitions/common/fade.svg",
    "pixel_format": -1,
    "pixel_ratio": {
     "den": 1,
     "num": 1
    },
    "sample_rate": 0,
    "top_field_first": true,
    "type": "QtImageReader",
    "vcodec": "",
    "video_bit_rate": 0,
    "video_length": "108000",
    "video_stream_index": -1,
    "video_timebase": {
     "den": 30,
     "num": 1
    },
    "width": 720
   },
   "replace_image": false
  },
  {
   "layer": 4000000,
   "title": "Transition",
   "type": "Mask",
   "position": 22,
   "start": 0,
   "end": 1,
   "brightness": {
    "Points": [
     {
      "co": {
       "X": 1,
       "Y": 1
      },
      "handle_left": {
       "X": 0.5,
       "Y": 1
      },
      "handle_right": {
       "X": 0.5,
       "Y": 0
      },
      "handle_type": 0,
      "interpolation": 0
     },
     {
      "co": {
       "X": 26,
       "Y": -1
      },
      "handle_left": {
       "X": 0.5,
       "Y": 1
      },
      "handle_right": {
       "X": 0.5,
       "Y": 0
      },
      "handle_type": 0,
      "interpolation": 0
     }
    ]
   },
   "contrast": {
    "Points": [
     {
      "co": {
       "X": 1,
       "Y": 3
      },
      "interpolation": 2
     }
    ]
   },
   "reader": {
    "acodec": "",
    "audio_bit_rate": 0,
    "audio_stream_index": -1,
    "audio_timebase": {
     "den": 1,
     "num": 1
    },
    "channel_layout": 4,
    "channels": 0,
    "display_ratio": {
     "den": 4,
     "num": 5
    },
    "duration": 3600,
    "file_size": "1658880",
    "fps": {
     "den": 1,
     "num": 30
    },
    "has_audio": false,
    "has_single_image": true,
    "has_video": true,
    "height": 576,
    "interlaced_frame": false,
    "metadata": {},
    "path": "@transitions/common/fade.svg",
    "pixel_format": -1,
    "pixel_ratio": {
     "den": 1,
     "num": 1
    },
    "sample_rate": 0,
    "top_field_first": true,
    "type": "QtImageReader",
    "vcodec": "",
    "video_bit_rate": 0,
    "video_length": "108000",
    "video_stream_index": -1,
    "video_timebase": {
     "den": 30,
     "num": 1
    },
    "width": 720
   },
   "replace_image": false,
   "id": "KLWBDK809G"
  },
  {
   "layer": 4000000,
   "title": "Transition",
   "type": "Mask",
   "position": 28,
   "start": 0,
   "end": 1,
   "brightness": {
    "Points": [
     {
      "co": {
       "X": 1,
       "Y": 1
      },
      "handle_left": {
       "X": 0.5,
       "Y": 1
      },
      "handle_right": {
       "X": 0.5,
       "Y": 0
      },
      "handle_type": 0,
      "interpolation": 0
     },
     {
      "co": {
       "X": 26,
       "Y": -1
      },
      "handle_left": {
       "X": 0.5,
       "Y": 1
      },
      "handle_right": {
       "X": 0.5,
       "Y": 0
      },
      "handle_type": 0,
      "interpolation": 0
     }
    ]
   },
   "contrast": {
    "Points": [
     {
      "co": {
       "X": 1,
       "Y": 3
      },
      "interpolation": 2
     }
    ]
   },
   "reader": {
    "acodec": "",
    "audio_bit_rate": 0,
    "audio_stream_index": -1,
    "audio_timebase": {
     "den": 1,
     "num": 1
    },
    "channel_layout": 4,
    "channels": 0,
    "display_ratio": {
     "den": 4,
     "num": 5
    },
    "duration": 3600,
    "file_size": "1658880",
    "fps": {
     "den": 1,
     "num": 30
    },
    "has_audio": false,
    "has_single_image": true,
    "has_video": true,
    "height": 576,
    "interlaced_frame": false,
    "metadata": {},
    "path": "@transitions/common/fade.svg",
    "pixel_format": -1,
    "pixel_ratio": {
     "den": 1,
     "num": 1
    },
    "sample_rate": 0,
    "top_field_first": true,
    "type": "QtImageReader",
    "vcodec": "",
    "video_bit_rate": 0,
    "video_length": "108000",
    "video_stream_index": -1,
    "video_timebase": {
     "den": 30,
     "num": 1
    },
    "width": 720
   },
   "replace_image": false,
   "id": "HDJUGEENOO"
  },
  {
   "layer": 4000000,
   "title": "Transition",
   "type": "Mask",
   "position": 26,
   "start": 0,
   "end": 1,
   "brightness": {
    "Points": [
     {
      "co": {
       "X": 1,
       "Y": 1
      },
      "handle_left": {
       "X": 0.5,
       "Y": 1
      },
      "handle_right": {
       "X": 0.5,
       "Y": 0
      },
      "handle_type": 0,
      "interpolation": 0
     },
     {
      "co": {
       "X": 26,
       "Y": -1
      },
      "handle_left": {
       "X": 0.5,
       "Y": 1
      },
      "handle_right": {
       "X": 0.5,
       "Y": 0
      },
      "handle_type": 0,
      "interpolation": 0
     }
    ]
   },
   "contrast": {
    "Points": [
     {
      "co": {
       "X": 1,
       "Y": 3
      },
      "interpolation": 2
     }
    ]
   },
   "reader": {
    "acodec": "",
    "audio_bit_rate": 0,
    "audio_stream_index": -1,
    "audio_timebase": {
     "den": 1,
     "num": 1
    },
    "channel_layout": 4,
    "channels": 0,
    "display_ratio": {
     "den": 4,
     "num": 5
    },
    "duration": 3600,
    "file_size": "1658880",
    "fps": {
     "den": 1,
     "num": 30
    },
    "has_audio": false,
    "has_single_image": true,
    "has_video": true,
    "height": 576,
    "interlaced_frame": false,
    "metadata": {},
    "path": "@transitions/common/fade.svg",
    "pixel_format": -1,
    "pixel_ratio": {
     "den": 1,
     "num": 1
    },
    "sample_rate": 0,
    "top_field_first": true,
    "type": "QtImageReader",
    "vcodec": "",
    "video_bit_rate": 0,
    "video_length": "108000",
    "video_stream_index": -1,
    "video_timebase": {
     "den": 30,
     "num": 1
    },
    "width": 720
   },
   "replace_image": false,
   "id": "EXBZ047XP0"
  },
  {
   "layer": 4000000,
   "title": "Transition",
   "type": "Mask",
   "position": 55,
   "start": 0,
   "end": 2,
   "brightness": {
    "Points": [
     {
      "co": {
       "X": 1,
       "Y": 1
      },
      "handle_left": {
       "X": 0.5,
       "Y": 1
      },
      "handle_right": {
       "X": 0.5,
       "Y": 0
      },
      "handle_type": 0,
      "interpolation": 0
     },
     {
      "co": {
       "X": 51,
       "Y": -1
      },
      "handle_left": {
       "X": 0.5,
       "Y": 1
      },
      "handle_right": {
       "X": 0.5,
       "Y": 0
      },
      "handle_type": 0,
      "interpolation": 0
     }
    ]
   },
   "contrast": {
    "Points": [
     {
      "co": {
       "X": 1,
       "Y": 3
      },
      "interpolation": 2
     }
    ]
   },
   "reader": {
    "acodec": "",
    "audio_bit_rate": 0,
    "audio_stream_index": -1,
    "audio_timebase": {
     "den": 1,
     "num": 1
    },
    "channel_layout": 4,
    "channels": 0,
    "display_ratio": {
     "den": 4,
     "num": 5
    },
    "duration": 3600,
    "file_size": "1658880",
    "fps": {
     "den": 1,
     "num": 30
    },
    "has_audio": false,
    "has_single_image": true,
    "has_video": true,
    "height": 576,
    "interlaced_frame": false,
    "metadata": {},
    "path": "@transitions/common/fade.svg",
    "pixel_format": -1,
    "pixel_ratio": {
     "den": 1,
     "num": 1
    },
    "sample_rate": 0,
    "top_field_first": true,
    "type": "QtImageReader",
    "vcodec": "",
    "video_bit_rate": 0,
    "video_length": "108000",
    "video_stream_index": -1,
    "video_timebase": {
     "den": 30,
     "num": 1
    },
    "width": 720
   },
   "replace_image": false,
   "id": "OY5ORATSXU"
  },
  {
   "id": "PT8UAFI88N",
   "layer": 4000000,
   "title": "Transition",
   "type": "Mask",
   "position": 47.48,
   "start": 0,
   "end": 2.520000000000003,
   "brightness": {
    "Points": [
     {
      "co": {
       "X": 1,
       "Y": 1
      },
      "handle_left": {
       "X": 0.5,
       "Y": 1
      },
      "handle_right": {
       "X": 0.5,
       "Y": 0
      },
      "handle_type": 0,
      "interpolation": 0
     },
     {
      "co": {
       "X": 64,
       "Y": -1
      },
      "handle_left": {
       "X": 0.5,
       "Y": 1
      },
      "handle_right": {
       "X": 0.5,
       "Y": 0
      },
      "handle_type": 0,
      "interpolation": 0
     }
    ]
   },
   "contrast": {
    "Points": [
     {
      "co": {
       "X": 1,
       "Y": 3
      },
      "interpolation": 2
     }
    ]
   },
   "reader": {
    "acodec": "",
    "audio_bit_rate": 0,
    "audio_stream_index": -1,
    "audio_timebase": {
     "den": 1,
     "num": 1
    },
    "channel_layout": 4,
    "channels": 0,
    "display_ratio": {
     "den": 4,
     "num": 5
    },
    "duration": 3600,
    "file_size": "1658880",
    "fps": {
     "den": 1,
     "num": 30
    },
    "has_audio": false,
    "has_single_image": true,
    "has_video": true,
    "height": 576,
    "interlaced_frame": false,
    "metadata": {},
    "path": "@transitions/common/fade.svg",
    "pixel_format": -1,
    "pixel_ratio": {
     "den": 1,
     "num": 1
    },
    "sample_rate": 0,
    "top_field_first": true,
    "type": "QtImageReader",
    "vcodec": "",
    "video_bit_rate": 0,
    "video_length": "108000",
    "video_stream_index": -1,
    "video_timebase": {
     "den": 30,
     "num": 1
    },
    "width": 720
   },
   "replace_image": false
  },
  {
   "id": "MR7DTQUKJH",
   "layer": 4000000,
   "title": "Transition",
   "type": "Mask",
   "position": 40.0,
   "start": 0,
   "end": 2.0,
   "brightness": {
    "Points": [
     {
      "co": {
       "X": 1,
       "Y": 1
      },
      "handle_left": {
       "X": 0.5,
       "Y": 1
      },
      "handle_right": {
       "X": 0.5,
       "Y": 0
      },
      "handle_type": 0,
      "interpolation": 0
     },
     {
      "co": {
       "X": 50,
       "Y": -1
      },
      "handle_left": {
       "X": 0.5,
       "Y": 1
      },
      "handle_right": {
       "X": 0.5,
       "Y": 0
      },
      "handle_type": 0,
      "interpolation": 0
     }
    ]
   },
   "contrast": {
    "Points": [
     {
      "co": {
       "X": 1,
       "Y": 3
      },
      "interpolation": 2
     }
    ]
   },
   "reader": {
    "acodec": "",
    "audio_bit_rate": 0,
    "audio_stream_index": -1,
    "audio_timebase": {
     "den": 1,
     "num": 1
    },
    "channel_layout": 4,
    "channels": 0,
    "display_ratio": {
     "den": 4,
     "num": 5
    },
    "duration": 3600,
    "file_size": "1658880",
    "fps": {
     "den": 1,
     "num": 30
    },
    "has_audio": false,
    "has_single_image": true,
    "has_video": true,
    "height": 576,
    "interlaced_frame": false,
    "metadata": {},
    "path": "@transitions/common/fade.svg",
    "pixel_format": -1,
    "pixel_ratio": {
     "den": 1,
     "num": 1
    },
    "sample_rate": 0,
    "top_field_first": true,
    "type": "QtImageReader",
    "vcodec": "",
    "video_bit_rate": 0,
    "video_length": "108000",
    "video_stream_index": -1,
    "video_timebase": {
     "den": 30,
     "num": 1
    },
    "width": 720
   },
   "replace_image": false
  },
  {
   "id": "P9TUJWFN1J",
   "layer": 4000000,
   "title": "Transition",
   "type": "Mask",
   "position": 43.0,
   "start": 0,
   "end": 2.0,
   "brightness": {
    "Points": [
     {
      "co": {
       "X": 1,
       "Y": 1
      },
      "handle_left": {
       "X": 0.5,
       "Y": 1
      },
      "handle_right": {
       "X": 0.5,
       "Y": 0
      },
      "handle_type": 0,
      "interpolation": 0
     },
     {
      "co": {
       "X": 52,
       "Y": -1
      },
      "handle_left": {
       "X": 0.5,
       "Y": 1
      },
      "handle_right": {
       "X": 0.5,
       "Y": 0
      },
      "handle_type": 0,
      "interpolation": 0
     }
    ]
   },
   "contrast": {
    "Points": [
     {
      "co": {
       "X": 1,
       "Y": 3
      },
      "interpolation": 2
     }
    ]
   },
   "reader": {
    "acodec": "",
    "audio_bit_rate": 0,
    "audio_stream_index": -1,
    "audio_timebase": {
     "den": 1,
     "num": 1
    },
    "channel_layout": 4,
    "channels": 0,
    "display_ratio": {
     "den": 4,
     "num": 5
    },
    "duration": 3600,
    "file_size": "1658880",
    "fps": {
     "den": 1,
     "num": 30
    },
    "has_audio": false,
    "has_single_image": true,
    "has_video": true,
    "height": 576,
    "interlaced_frame": false,
    "metadata": {},
    "path": "@transitions/common/fade.svg",
    "pixel_format": -1,
    "pixel_ratio": {
     "den": 1,
     "num": 1
    },
    "sample_rate": 0,
    "top_field_first": true,
    "type": "QtImageReader",
    "vcodec": "",
    "video_bit_rate": 0,
    "video_length": "108000",
    "video_stream_index": -1,
    "video_timebase": {
     "den": 30,
     "num": 1
    },
    "width": 720
   },
   "replace_image": false
  },
  {
   "layer": 4000000,
   "title": "Transition",
   "type": "Mask",
   "position": 51,
   "start": 0,
   "end": 2.520000000000003,
   "brightness": {
    "Points": [
     {
      "co": {
       "X": 1,
       "Y": 1
      },
      "handle_left": {
       "X": 0.5,
       "Y": 1
      },
      "handle_right": {
       "X": 0.5,
       "Y": 0
      },
      "handle_type": 0,
      "interpolation": 0
     },
     {
      "co": {
       "X": 64,
       "Y": -1
      },
      "handle_left": {
       "X": 0.5,
       "Y": 1
      },
      "handle_right": {
       "X": 0.5,
       "Y": 0
      },
      "handle_type": 0,
      "interpolation": 0
     }
    ]
   },
   "contrast": {
    "Points": [
     {
      "co": {
       "X": 1,
       "Y": 3
      },
      "interpolation": 2
     }
    ]
   },
   "reader": {
    "acodec": "",
    "audio_bit_rate": 0,
    "audio_stream_index": -1,
    "audio_timebase": {
     "den": 1,
     "num": 1
    },
    "channel_layout": 4,
    "channels": 0,
    "display_ratio": {
     "den": 4,
     "num": 5
    },
    "duration": 3600,
    "file_size": "1658880",
    "fps": {
     "den": 1,
     "num": 30
    },
    "has_audio": false,
    "has_single_image": true,
    "has_video": true,
    "height": 576,
    "interlaced_frame": false,
    "metadata": {},
    "path": "@transitions/common/fade.svg",
    "pixel_format": -1,
    "pixel_ratio": {
     "den": 1,
     "num": 1
    },
    "sample_rate": 0,
    "top_field_first": true,
    "type": "QtImageReader",
    "vcodec": "",
    "video_bit_rate": 0,
    "video_length": "108000",
    "video_stream_index": -1,
    "video_timebase": {
     "den": 30,
     "num": 1
    },
    "width": 720
   },
   "replace_image": false,
   "id": "A78Q4Y8MHU"
  },
  {
   "id": "RJOQ04AX4R",
   "layer": 4000000,
   "title": "Transition",
   "type": "Mask",
   "position": 35.04,
   "start": 0,
   "end": 0.9600000000000009,
   "brightness": {
    "Points": [
     {
      "co": {
       "X": 1,
       "Y": 1
      },
      "handle_left": {
       "X": 0.5,
       "Y": 1
      },
      "handle_right": {
       "X": 0.5,
       "Y": 0
      },
      "handle_type": 0,
      "interpolation": 0
     },
     {
      "co": {
       "X": 25,
       "Y": -1
      },
      "handle_left": {
       "X": 0.5,
       "Y": 1
      },
      "handle_right": {
       "X": 0.5,
       "Y": 0
      },
      "handle_type": 0,
      "interpolation": 0
     }
    ]
   },
   "contrast": {
    "Points": [
     {
      "co": {
       "X": 1,
       "Y": 3
      },
      "interpolation": 2
     }
    ]
   },
   "reader": {
    "acodec": "",
    "audio_bit_rate": 0,
    "audio_stream_index": -1,
    "audio_timebase": {
     "den": 1,
     "num": 1
    },
    "channel_layout": 4,
    "channels": 0,
    "display_ratio": {
     "den": 4,
     "num": 5
    },
    "duration": 3600,
    "file_size": "1658880",
    "fps": {
     "den": 1,
     "num": 30
    },
    "has_audio": false,
    "has_single_image": true,
    "has_video": true,
    "height": 576,
    "interlaced_frame": false,
    "metadata": {},
    "path": "@transitions/common/fade.svg",
    "pixel_format": -1,
    "pixel_ratio": {
     "den": 1,
     "num": 1
    },
    "sample_rate": 0,
    "top_field_first": true,
    "type": "QtImageReader",
    "vcodec": "",
    "video_bit_rate": 0,
    "video_length": "108000",
    "video_stream_index": -1,
    "video_timebase": {
     "den": 30,
     "num": 1
    },
    "width": 720
   },
   "replace_image": false
  },
  {
   "layer": 4000000,
   "title": "Transition",
   "type": "Mask",
   "position": 33,
   "start": 0,
   "end": 0.9600000000000009,
   "brightness": {
    "Points": [
     {
      "co": {
       "X": 1,
       "Y": 1
      },
      "handle_left": {
       "X": 0.5,
       "Y": 1
      },
      "handle_right": {
       "X": 0.5,
       "Y": 0
      },
      "handle_type": 0,
      "interpolation": 0
     },
     {
      "co": {
       "X": 25,
       "Y": -1
      },
      "handle_left": {
       "X": 0.5,
       "Y": 1
      },
      "handle_right": {
       "X": 0.5,
       "Y": 0
      },
      "handle_type": 0,
      "interpolation": 0
     }
    ]
   },
   "contrast": {
    "Points": [
     {
      "co": {
       "X": 1,
       "Y": 3
      },
      "interpolation": 2
     }
    ]
   },
   "reader": {
    "acodec": "",
    "audio_bit_rate": 0,
    "audio_stream_index": -1,
    "audio_timebase": {
     "den": 1,
     "num": 1
    },
    "channel_layout": 4,
    "channels": 0,
    "display_ratio": {
     "den": 4,
     "num": 5
    },
    "duration": 3600,
    "file_size": "1658880",
    "fps": {
     "den": 1,
     "num": 30
    },
    "has_audio": false,
    "has_single_image": true,
    "has_video": true,
    "height": 576,
    "interlaced_frame": false,
    "metadata": {},
    "path": "@transitions/common/fade.svg",
    "pixel_format": -1,
    "pixel_ratio": {
     "den": 1,
     "num": 1
    },
    "sample_rate": 0,
    "top_field_first": true,
    "type": "QtImageReader",
    "vcodec": "",
    "video_bit_rate": 0,
    "video_length": "108000",
    "video_stream_index": -1,
    "video_timebase": {
     "den": 30,
     "num": 1
    },
    "width": 720
   },
   "replace_image": false,
   "id": "RTP2SHHVJ7"
  }
 ],
 "export_path": "/home/csindle/Desktop/WingLift",
 "import_path": "/home/csindle/Documents/WingLift",
 "files": [
  {
   "acodec": "",
   "audio_bit_rate": 0,
   "audio_stream_index": -1,
   "audio_timebase": {
    "den": 1,
    "num": 1
   },
   "channel_layout": 4,
   "channels": 0,
   "display_ratio": {
    "den": 9,
    "num": 16
   },
   "duration": 73.36000061035156,
   "file_size": "8991315",
   "fps": {
    "den": 1,
    "num": 25
   },
   "has_audio": false,
   "has_single_image": false,
   "has_video": true,
   "height": 720,
   "interlaced_frame": false,
   "metadata": {
    "compatible_brands": "iso6avc1mp41",
    "creation_time": "2013-12-07T02:59:06.000000Z",
    "handler_name": "VideoHandler",
    "language": "und",
    "major_brand": "dash",
    "minor_version": "0"
   },
   "path": "./Airflow across a wing-UqBmdZ-BNig.f136.mp4",
   "pixel_format": 0,
   "pixel_ratio": {
    "den": 1,
    "num": 1
   },
   "sample_rate": 0,
   "top_field_first": true,
   "type": "FFmpegReader",
   "vcodec": "h264",
   "video_bit_rate": 122564,
   "video_length": "1834",
   "video_stream_index": 0,
   "video_timebase": {
    "den": 90000,
    "num": 1
   },
   "width": 1280,
   "media_type": "video",
   "id": "BQRQPYRVSK",
   "image": "thumbnail/BQRQPYRVSK.png"
  },
  {
   "acodec": "",
   "audio_bit_rate": 0,
   "audio_stream_index": -1,
   "audio_timebase": {
    "den": 1,
    "num": 1
   },
   "channel_layout": 4,
   "channels": 0,
   "display_ratio": {
    "den": 374,
    "num": 521
   },
   "duration": 3600,
   "file_size": "12470656",
   "fps": {
    "den": 1,
    "num": 30
   },
   "has_audio": false,
   "has_single_image": true,
   "has_video": true,
   "height": 1496,
   "interlaced_frame": false,
   "metadata": {},
   "path": "generated/h3.png",
   "pixel_format": -1,
   "pixel_ratio": {
    "den": 1,
    "num": 1
   },
   "sample_rate": 0,
   "top_field_first": true,
   "type": "QtImageReader",
   "vcodec": "",
   "video_bit_rate": 0,
   "video_length": "108000",
   "video_stream_index": -1,
   "video_timebase": {
    "den": 30,
    "num": 1
   },
   "width": 2084,
   "media_type": "image",
   "id": "JOU98JSDB6",
   "image": "thumbnail/JOU98JSDB6.png"
  },
  {
   "acodec": "",
   "audio_bit_rate": 0,
   "audio_stream_index": -1,
   "audio_timebase": {
    "den": 1,
    "num": 1
   },
   "channel_layout": 4,
   "channels": 0,
   "display_ratio": {
    "den": 374,
    "num": 521
   },
   "duration": 3600,
   "file_size": "12470656",
   "fps": {
    "den": 1,
    "num": 30
   },
   "has_audio": false,
   "has_single_image": true,
   "has_video": true,
   "height": 1496,
   "interlaced_frame": false,
   "metadata": {},
   "path": "generated/h1.png",
   "pixel_format": -1,
   "pixel_ratio": {
    "den": 1,
    "num": 1
   },
   "sample_rate": 0,
   "top_field_first": true,
   "type": "QtImageReader",
   "vcodec": "",
   "video_bit_rate": 0,
   "video_length": "108000",
   "video_stream_index": -1,
   "video_timebase": {
    "den": 30,
    "num": 1
   },
   "width": 2084,
   "media_type": "image",
   "id": "N9ZVMRMPJO",
   "image": "thumbnail/N9ZVMRMPJO.png"
  },
  {
   "acodec": "",
   "audio_bit_rate": 0,
   "audio_stream_index": -1,
   "audio_timebase": {
    "den": 1,
    "num": 1
   },
   "channel_layout": 4,
   "channels": 0,
   "display_ratio": {
    "den": 374,
    "num": 521
   },
   "duration": 3600,
   "file_size": "12470656",
   "fps": {
    "den": 1,
    "num": 30
   },
   "has_audio": false,
   "has_single_image": true,
   "has_video": true,
   "height": 1496,
   "interlaced_frame": false,
   "metadata": {},
   "path": "generated/h2.png",
   "pixel_format": -1,
   "pixel_ratio": {
    "den": 1,
    "num": 1
   },
   "sample_rate": 0,
   "top_field_first": true,
   "type": "QtImageReader",
   "vcodec": "",
   "video_bit_rate": 0,
   "video_length": "108000",
   "video_stream_index": -1,
   "video_timebase": {
    "den": 30,
    "num": 1
   },
   "width": 2084,
   "media_type": "image",
   "id": "T3MJ00KEDL",
   "image": "thumbnail/T3MJ00KEDL.png"
  },
  {
   "acodec": "",
   "audio_bit_rate": 0,
   "audio_stream_index": -1,
   "audio_timebase": {
    "den": 1,
    "num": 1
   },
   "channel_layout": 4,
   "channels": 0,
   "display_ratio": {
    "den": 9,
    "num": 16
   },
   "duration": 3600,
   "file_size": "8294400",
   "fps": {
    "den": 1,
    "num": 30
   },
   "has_audio": false,
   "has_single_image": true,
   "has_video": true,
   "height": 1080,
   "interlaced_frame": false,
   "metadata": {},
   "path": "generated/i3.png",
   "pixel_format": -1,
   "pixel_ratio": {
    "den": 1,
    "num": 1
   },
   "sample_rate": 0,
   "top_field_first": true,
   "type": "QtImageReader",
   "vcodec": "",
   "video_bit_rate": 0,
   "video_length": "108000",
   "video_stream_index": -1,
   "video_timebase": {
    "den": 30,
    "num": 1
   },
   "width": 1920,
   "media_type": "image",
   "id": "K2FDZNO37T",
   "image": "thumbnail/K2FDZNO37T.png"
  },
  {
   "acodec": "",
   "audio_bit_rate": 0,
   "audio_stream_index": -1,
   "audio_timebase": {
    "den": 1,
    "num": 1
   },
   "channel_layout": 4,
   "channels": 0,
   "display_ratio": {
    "den": 9,
    "num": 16
   },
   "duration": 3600,
   "file_size": "8294400",
   "fps": {
    "den": 1,
    "num": 30
   },
   "has_audio": false,
   "has_single_image": true,
   "has_video": true,
   "height": 1080,
   "interlaced_frame": false,
   "metadata": {},
   "path": "generated/i2.png",
   "pixel_format": -1,
   "pixel_ratio": {
    "den": 1,
    "num": 1
   },
   "sample_rate": 0,
   "top_field_first": true,
   "type": "QtImageReader",
   "vcodec": "",
   "video_bit_rate": 0,
   "video_length": "108000",
   "video_stream_index": -1,
   "video_timebase": {
    "den": 30,
    "num": 1
   },
   "width": 1920,
   "media_type": "image",
   "id": "KN2RPS9LTZ",
   "image": "thumbnail/KN2RPS9LTZ.png"
  },
  {
   "acodec": "",
   "audio_bit_rate": 0,
   "audio_stream_index": -1,
   "audio_timebase": {
    "den": 1,
    "num": 1
   },
   "channel_layout": 4,
   "channels": 0,
   "display_ratio": {
    "den": 9,
    "num": 16
   },
   "duration": 3600,
   "file_size": "8294400",
   "fps": {
    "den": 1,
    "num": 30
   },
   "has_audio": false,
   "has_single_image": true,
   "has_video": true,
   "height": 1080,
   "interlaced_frame": false,
   "metadata": {},
   "path": "generated/i1.png",
   "pixel_format": -1,
   "pixel_ratio": {
    "den": 1,
    "num": 1
   },
   "sample_rate": 0,
   "top_field_first": true,
   "type": "QtImageReader",
   "vcodec": "",
   "video_bit_rate": 0,
   "video_length": "108000",
   "video_stream_index": -1,
   "video_timebase": {
    "den": 30,
    "num": 1
   },
   "width": 1920,
   "media_type": "image",
   "id": "9OBXZNQR45",
   "image": "thumbnail/9OBXZNQR45.png"
  },
  {
   "acodec": "",
   "audio_bit_rate": 0,
   "audio_stream_index": -1,
   "audio_timebase": {
    "den": 1,
    "num": 1
   },
   "channel_layout": 4,
   "channels": 0,
   "display_ratio": {
    "den": 9,
    "num": 16
   },
   "duration": 3600,
   "file_size": "8294400",
   "fps": {
    "den": 1,
    "num": 30
   },
   "has_audio": false,
   "has_single_image": true,
   "has_video": true,
   "height": 1080,
   "interlaced_frame": false,
   "metadata": {},
   "path": "generated/i0.png",
   "pixel_format": -1,
   "pixel_ratio": {
    "den": 1,
    "num": 1
   },
   "sample_rate": 0,
   "top_field_first": true,
   "type": "QtImageReader",
   "vcodec": "",
   "video_bit_rate": 0,
   "video_length": "108000",
   "video_stream_index": -1,
   "video_timebase": {
    "den": 30,
    "num": 1
   },
   "width": 1920,
   "media_type": "image",
   "id": "GS0GI0S0DY",
   "image": "thumbnail/GS0GI0S0DY.png"
  },
  {
   "acodec": "",
   "audio_bit_rate": 0,
   "audio_stream_index": -1,
   "audio_timebase": {
    "den": 1,
    "num": 1
   },
   "channel_layout": 4,
   "channels": 0,
   "display_ratio": {
    "den": 9,
    "num": 16
   },
   "duration": 3600,
   "file_size": "8294400",
   "fps": {
    "den": 1,
    "num": 30
   },
   "has_audio": false,
   "has_single_image": true,
   "has_video": true,
   "height": 1080,
   "interlaced_frame": false,
   "metadata": {},
   "path": "generated/g4.png",
   "pixel_format": -1,
   "pixel_ratio": {
    "den": 1,
    "num": 1
   },
   "sample_rate": 0,
   "top_field_first": true,
   "type": "QtImageReader",
   "vcodec": "",
   "video_bit_rate": 0,
   "video_length": "108000",
   "video_stream_index": -1,
   "video_timebase": {
    "den": 30,
    "num": 1
   },
   "width": 1920,
   "media_type": "image",
   "id": "B73V91GBIH",
   "image": "thumbnail/B73V91GBIH.png"
  },
  {
   "acodec": "",
   "audio_bit_rate": 0,
   "audio_stream_index": -1,
   "audio_timebase": {
    "den": 1,
    "num": 1
   },
   "channel_layout": 4,
   "channels": 0,
   "display_ratio": {
    "den": 9,
    "num": 16
   },
   "duration": 3600,
   "file_size": "8294400",
   "fps": {
    "den": 1,
    "num": 30
   },
   "has_audio": false,
   "has_single_image": true,
   "has_video": true,
   "height": 1080,
   "interlaced_frame": false,
   "metadata": {},
   "path": "generated/g3.png",
   "pixel_format": -1,
   "pixel_ratio": {
    "den": 1,
    "num": 1
   },
   "sample_rate": 0,
   "top_field_first": true,
   "type": "QtImageReader",
   "vcodec": "",
   "video_bit_rate": 0,
   "video_length": "108000",
   "video_stream_index": -1,
   "video_timebase": {
    "den": 30,
    "num": 1
   },
   "width": 1920,
   "media_type": "image",
   "id": "NFH7JMUJJU",
   "image": "thumbnail/NFH7JMUJJU.png"
  },
  {
   "acodec": "",
   "audio_bit_rate": 0,
   "audio_stream_index": -1,
   "audio_timebase": {
    "den": 1,
    "num": 1
   },
   "channel_layout": 4,
   "channels": 0,
   "display_ratio": {
    "den": 9,
    "num": 16
   },
   "duration": 3600,
   "file_size": "8294400",
   "fps": {
    "den": 1,
    "num": 30
   },
   "has_audio": false,
   "has_single_image": true,
   "has_video": true,
   "height": 1080,
   "interlaced_frame": false,
   "metadata": {},
   "path": "generated/g2.png",
   "pixel_format": -1,
   "pixel_ratio": {
    "den": 1,
    "num": 1
   },
   "sample_rate": 0,
   "top_field_first": true,
   "type": "QtImageReader",
   "vcodec": "",
   "video_bit_rate": 0,
   "video_length": "108000",
   "video_stream_index": -1,
   "video_timebase": {
    "den": 30,
    "num": 1
   },
   "width": 1920,
   "media_type": "image",
   "id": "30TG8KEIVW",
   "image": "thumbnail/30TG8KEIVW.png"
  },
  {
   "acodec": "",
   "audio_bit_rate": 0,
   "audio_stream_index": -1,
   "audio_timebase": {
    "den": 1,
    "num": 1
   },
   "channel_layout": 4,
   "channels": 0,
   "display_ratio": {
    "den": 9,
    "num": 16
   },
   "duration": 3600,
   "file_size": "8294400",
   "fps": {
    "den": 1,
    "num": 30
   },
   "has_audio": false,
   "has_single_image": true,
   "has_video": true,
   "height": 1080,
   "interlaced_frame": false,
   "metadata": {},
   "path": "generated/g1.png",
   "pixel_format": -1,
   "pixel_ratio": {
    "den": 1,
    "num": 1
   },
   "sample_rate": 0,
   "top_field_first": true,
   "type": "QtImageReader",
   "vcodec": "",
   "video_bit_rate": 0,
   "video_length": "108000",
   "video_stream_index": -1,
   "video_timebase": {
    "den": 30,
    "num": 1
   },
   "width": 1920,
   "media_type": "image",
   "id": "0HEIAFGKHN",
   "image": "thumbnail/0HEIAFGKHN.png"
  },
  {
   "acodec": "",
   "audio_bit_rate": 0,
   "audio_stream_index": -1,
   "audio_timebase": {
    "den": 1,
    "num": 1
   },
   "channel_layout": 4,
   "channels": 0,
   "display_ratio": {
    "den": 9,
    "num": 16
   },
   "duration": 3600,
   "file_size": "8294400",
   "fps": {
    "den": 1,
    "num": 30
   },
   "has_audio": false,
   "has_single_image": true,
   "has_video": true,
   "height": 1080,
   "interlaced_frame": false,
   "metadata": {},
   "path": "generated/g0.png",
   "pixel_format": -1,
   "pixel_ratio": {
    "den": 1,
    "num": 1
   },
   "sample_rate": 0,
   "top_field_first": true,
   "type": "QtImageReader",
   "vcodec": "",
   "video_bit_rate": 0,
   "video_length": "108000",
   "video_stream_index": -1,
   "video_timebase": {
    "den": 30,
    "num": 1
   },
   "width": 1920,
   "media_type": "image",
   "id": "14XMU5A0GJ",
   "image": "thumbnail/14XMU5A0GJ.png"
  },
  {
   "acodec": "",
   "audio_bit_rate": 0,
   "audio_stream_index": -1,
   "audio_timebase": {
    "den": 1,
    "num": 1
   },
   "channel_layout": 4,
   "channels": 0,
   "display_ratio": {
    "den": 9,
    "num": 16
   },
   "duration": 3600,
   "file_size": "8294400",
   "fps": {
    "den": 1,
    "num": 30
   },
   "has_audio": false,
   "has_single_image": true,
   "has_video": true,
   "height": 1080,
   "interlaced_frame": false,
   "metadata": {},
   "path": "generated/h5.png",
   "pixel_format": -1,
   "pixel_ratio": {
    "den": 1,
    "num": 1
   },
   "sample_rate": 0,
   "top_field_first": true,
   "type": "QtImageReader",
   "vcodec": "",
   "video_bit_rate": 0,
   "video_length": "108000",
   "video_stream_index": -1,
   "video_timebase": {
    "den": 30,
    "num": 1
   },
   "width": 1920,
   "media_type": "image",
   "id": "OHTYNJHJ4A",
   "image": "thumbnail/OHTYNJHJ4A.png"
  },
  {
   "acodec": "",
   "audio_bit_rate": 0,
   "audio_stream_index": -1,
   "audio_timebase": {
    "den": 1,
    "num": 1
   },
   "channel_layout": 4,
   "channels": 0,
   "display_ratio": {
    "den": 9,
    "num": 16
   },
   "duration": 3600,
   "file_size": "8294400",
   "fps": {
    "den": 1,
    "num": 30
   },
   "has_audio": false,
   "has_single_image": true,
   "has_video": true,
   "height": 1080,
   "interlaced_frame": false,
   "metadata": {},
   "path": "generated/h4.png",
   "pixel_format": -1,
   "pixel_ratio": {
    "den": 1,
    "num": 1
   },
   "sample_rate": 0,
   "top_field_first": true,
   "type": "QtImageReader",
   "vcodec": "",
   "video_bit_rate": 0,
   "video_length": "108000",
   "video_stream_index": -1,
   "video_timebase": {
    "den": 30,
    "num": 1
   },
   "width": 1920,
   "media_type": "image",
   "id": "CCXO5CQWJF",
   "image": "thumbnail/CCXO5CQWJF.png"
  },
  {
   "acodec": "",
   "audio_bit_rate": 0,
   "audio_stream_index": -1,
   "audio_timebase": {
    "den": 1,
    "num": 1
   },
   "channel_layout": 4,
   "channels": 0,
   "display_ratio": {
    "den": 9,
    "num": 16
   },
   "duration": 3600,
   "file_size": "8294400",
   "fps": {
    "den": 1,
    "num": 30
   },
   "has_audio": false,
   "has_single_image": true,
   "has_video": true,
   "height": 1080,
   "interlaced_frame": false,
   "metadata": {},
   "path": "generated/h0.png",
   "pixel_format": -1,
   "pixel_ratio": {
    "den": 1,
    "num": 1
   },
   "sample_rate": 0,
   "top_field_first": true,
   "type": "QtImageReader",
   "vcodec": "",
   "video_bit_rate": 0,
   "video_length": "108000",
   "video_stream_index": -1,
   "video_timebase": {
    "den": 30,
    "num": 1
   },
   "width": 1920,
   "media_type": "image",
   "id": "QVT1S32TXK",
   "image": "thumbnail/QVT1S32TXK.png"
  },
  {
   "acodec": "pcm_s16le",
   "audio_bit_rate": 705600,
   "audio_stream_index": 0,
   "audio_timebase": {
    "den": 44100,
    "num": 1
   },
   "channel_layout": 4,
   "channels": 1,
   "display_ratio": {
    "den": 1,
    "num": 1
   },
   "duration": 59.67503356933594,
   "file_size": "5263498",
   "fps": {
    "den": 1,
    "num": 24
   },
   "has_audio": true,
   "has_single_image": false,
   "has_video": false,
   "height": 480,
   "interlaced_frame": false,
   "metadata": {
    "artist": "Colin Sindle",
    "date": "2021"
   },
   "path": "./voice_over.wav",
   "pixel_format": -1,
   "pixel_ratio": {
    "den": 1,
    "num": 1
   },
   "sample_rate": 44100,
   "top_field_first": true,
   "type": "FFmpegReader",
   "vcodec": "",
   "video_bit_rate": 0,
   "video_length": "1432",
   "video_stream_index": -1,
   "video_timebase": {
    "den": 24,
    "num": 1
   },
   "width": 720,
   "media_type": "audio",
   "id": "ZD0LJGZUTV",
   "image": "thumbnail/ZD0LJGZUTV.png"
  },
  {
   "acodec": "",
   "audio_bit_rate": 0,
   "audio_stream_index": -1,
   "audio_timebase": {
    "den": 1,
    "num": 1
   },
   "channel_layout": 4,
   "channels": 0,
   "display_ratio": {
    "den": 9,
    "num": 16
   },
   "duration": 3600,
   "file_size": "8294400",
   "fps": {
    "den": 1,
    "num": 30
   },
   "has_audio": false,
   "has_single_image": true,
   "has_video": true,
   "height": 1080,
   "interlaced_frame": false,
   "metadata": {},
   "path": "./title.svg",
   "pixel_format": -1,
   "pixel_ratio": {
    "den": 1,
    "num": 1
   },
   "sample_rate": 0,
   "top_field_first": true,
   "type": "QtImageReader",
   "vcodec": "",
   "video_bit_rate": 0,
   "video_length": "108000",
   "video_stream_index": -1,
   "video_timebase": {
    "den": 30,
    "num": 1
   },
   "width": 1920,
   "media_type": "image",
   "id": "WSC6UG118N",
   "image": "thumbnail/WSC6UG118N.png"
  }
 ],
 "duration": 300,
 "scale": 3,
 "tick_pixels": 100,
 "playhead_position": 0,
 "profile": "HDV 1080 25p 1920x1080",
 "layers": [
  {
   "id": "L1",
   "label": "",
   "number": 1000000,
   "y": 0,
   "lock": false
  },
  {
   "id": "L2",
   "label": "",
   "number": 2000000,
   "y": 0,
   "lock": false
  },
  {
   "id": "L3",
   "label": "",
   "number": 3000000,
   "y": 0,
   "lock": false
  },
  {
   "id": "L4",
   "label": "",
   "number": 4000000,
   "y": 0,
   "lock": false
  },
  {
   "id": "L5",
   "label": "",
   "number": 5000000,
   "y": 0,
   "lock": false
  }
 ],
 "markers": [],
 "progress": [],
 "history": {
  "undo": [
   {
    "type": "insert",
    "key": [
     "effects"
    ],
    "value": {
     "layer": 4000000,
     "title": "Transition",
     "type": "Mask",
     "position": 33,
     "start": 0,
     "end": 0.9600000000000009,
     "brightness": {
      "Points": [
       {
        "co": {
         "X": 1,
         "Y": 1
        },
        "handle_left": {
         "X": 0.5,
         "Y": 1
        },
        "handle_right": {
         "X": 0.5,
         "Y": 0
        },
        "handle_type": 0,
        "interpolation": 0
       },
       {
        "co": {
         "X": 25,
         "Y": -1
        },
        "handle_left": {
         "X": 0.5,
         "Y": 1
        },
        "handle_right": {
         "X": 0.5,
         "Y": 0
        },
        "handle_type": 0,
        "interpolation": 0
       }
      ]
     },
     "contrast": {
      "Points": [
       {
        "co": {
         "X": 1,
         "Y": 3
        },
        "interpolation": 2
       }
      ]
     },
     "reader": {
      "acodec": "",
      "audio_bit_rate": 0,
      "audio_stream_index": -1,
      "audio_timebase": {
       "den": 1,
       "num": 1
      },
      "channel_layout": 4,
      "channels": 0,
      "display_ratio": {
       "den": 4,
       "num": 5
      },
      "duration": 3600,
      "file_size": "1658880",
      "fps": {
       "den": 1,
       "num": 30
      },
      "has_audio": false,
      "has_single_image": true,
      "has_video": true,
      "height": 576,
      "interlaced_frame": false,
      "metadata": {},
      "path": "@transitions/common/fade.svg",
      "pixel_format": -1,
      "pixel_ratio": {
       "den": 1,
       "num": 1
      },
      "sample_rate": 0,
      "top_field_first": true,
      "type": "QtImageReader",
      "vcodec": "",
      "video_bit_rate": 0,
      "video_length": "108000",
      "video_stream_index": -1,
      "video_timebase": {
       "den": 30,
       "num": 1
      },
      "width": 720
     },
     "replace_image": false,
     "id": "RTP2SHHVJ7"
    },
    "partial": false,
    "old_values": [
     {
      "id": "Z8XV0QYPIC",
      "layer": 4000000,
      "title": "Transition",
      "type": "Mask",
      "position": 8,
      "start": 0,
      "end": 1,
      "brightness": {
       "Points": [
        {
         "co": {
          "X": 1,
          "Y": 1
         },
         "handle_left": {
          "X": 0.5,
          "Y": 1
         },
         "handle_right": {
          "X": 0.5,
          "Y": 0
         },
         "handle_type": 0,
         "interpolation": 0
        },
        {
         "co": {
          "X": 26,
          "Y": -1
         },
         "handle_left": {
          "X": 0.5,
          "Y": 1
         },
         "handle_right": {
          "X": 0.5,
          "Y": 0
         },
         "handle_type": 0,
         "interpolation": 0
        }
       ]
      },
      "contrast": {
       "Points": [
        {
         "co": {
          "X": 1,
          "Y": 3
         },
         "interpolation": 2
        }
       ]
      },
      "reader": {
       "acodec": "",
       "audio_bit_rate": 0,
       "audio_stream_index": -1,
       "audio_timebase": {
        "den": 1,
        "num": 1
       },
       "channel_layout": 4,
       "channels": 0,
       "display_ratio": {
        "den": 4,
        "num": 5
       },
       "duration": 3600,
       "file_size": "1658880",
       "fps": {
        "den": 1,
        "num": 30
       },
       "has_audio": false,
       "has_single_image": true,
       "has_video": true,
       "height": 576,
       "interlaced_frame": false,
       "metadata": {},
       "path": "@transitions/common/fade.svg",
       "pixel_format": -1,
       "pixel_ratio": {
        "den": 1,
        "num": 1
       },
       "sample_rate": 0,
       "top_field_first": true,
       "type": "QtImageReader",
       "vcodec": "",
       "video_bit_rate": 0,
       "video_length": "108000",
       "video_stream_index": -1,
       "video_timebase": {
        "den": 30,
        "num": 1
       },
       "width": 720
      },
      "replace_image": false
     },
     {
      "layer": 4000000,
      "title": "Transition",
      "type": "Mask",
      "position": 10,
      "start": 0,
      "end": 1,
      "brightness": {
       "Points": [
        {
         "co": {
          "X": 1,
          "Y": 1
         },
         "handle_left": {
          "X": 0.5,
          "Y": 1
         },
         "handle_right": {
          "X": 0.5,
          "Y": 0
         },
         "handle_type": 0,
         "interpolation": 0
        },
        {
         "co": {
          "X": 26,
          "Y": -1
         },
         "handle_left": {
          "X": 0.5,
          "Y": 1
         },
         "handle_right": {
          "X": 0.5,
          "Y": 0
         },
         "handle_type": 0,
         "interpolation": 0
        }
       ]
      },
      "contrast": {
       "Points": [
        {
         "co": {
          "X": 1,
          "Y": 3
         },
         "interpolation": 2
        }
       ]
      },
      "reader": {
       "acodec": "",
       "audio_bit_rate": 0,
       "audio_stream_index": -1,
       "audio_timebase": {
        "den": 1,
        "num": 1
       },
       "channel_layout": 4,
       "channels": 0,
       "display_ratio": {
        "den": 4,
        "num": 5
       },
       "duration": 3600,
       "file_size": "1658880",
       "fps": {
        "den": 1,
        "num": 30
       },
       "has_audio": false,
       "has_single_image": true,
       "has_video": true,
       "height": 576,
       "interlaced_frame": false,
       "metadata": {},
       "path": "@transitions/common/fade.svg",
       "pixel_format": -1,
       "pixel_ratio": {
        "den": 1,
        "num": 1
       },
       "sample_rate": 0,
       "top_field_first": true,
       "type": "QtImageReader",
       "vcodec": "",
       "video_bit_rate": 0,
       "video_length": "108000",
       "video_stream_index": -1,
       "video_timebase": {
        "den": 30,
        "num": 1
       },
       "width": 720
      },
      "replace_image": false,
      "id": "A91CXGNOQ9"
     },
     {
      "layer": 4000000,
      "title": "Transition",
      "type": "Mask",
      "position": 12,
      "start": 0,
      "end": 1,
      "brightness": {
       "Points": [
        {
         "co": {
          "X": 1,
          "Y": 1
         },
         "handle_left": {
          "X": 0.5,
          "Y": 1
         },
         "handle_right": {
          "X": 0.5,
          "Y": 0
         },
         "handle_type": 0,
         "interpolation": 0
        },
        {
         "co": {
          "X": 26,
          "Y": -1
         },
         "handle_left": {
          "X": 0.5,
          "Y": 1
         },
         "handle_right": {
          "X": 0.5,
          "Y": 0
         },
         "handle_type": 0,
         "interpolation": 0
        }
       ]
      },
      "contrast": {
       "Points": [
        {
         "co": {
          "X": 1,
          "Y": 3
         },
         "interpolation": 2
        }
       ]
      },
      "reader": {
       "acodec": "",
       "audio_bit_rate": 0,
       "audio_stream_index": -1,
       "audio_timebase": {
        "den": 1,
        "num": 1
       },
       "channel_layout": 4,
       "channels": 0,
       "display_ratio": {
        "den": 4,
        "num": 5
       },
       "duration": 3600,
       "file_size": "1658880",
       "fps": {
        "den": 1,
        "num": 30
       },
       "has_audio": false,
       "has_single_image": true,
       "has_video": true,
       "height": 576,
       "interlaced_frame": false,
       "metadata": {},
       "path": "@transitions/common/fade.svg",
       "pixel_format": -1,
       "pixel_ratio": {
        "den": 1,
        "num": 1
       },
       "sample_rate": 0,
       "top_field_first": true,
       "type": "QtImageReader",
       "vcodec": "",
       "video_bit_rate": 0,
       "video_length": "108000",
       "video_stream_index": -1,
       "video_timebase": {
        "den": 30,
        "num": 1
       },
       "width": 720
      },
      "replace_image": false,
      "id": "4WH5GQ2VA6"
     },
     {
      "layer": 4000000,
      "title": "Transition",
      "type": "Mask",
      "position": 14,
      "start": 0,
      "end": 1,
      "brightness": {
       "Points": [
        {
         "co": {
          "X": 1,
          "Y": 1
         },
         "handle_left": {
          "X": 0.5,
          "Y": 1
         },
         "handle_right": {
          "X": 0.5,
          "Y": 0
         },
         "handle_type": 0,
         "interpolation": 0
        },
        {
         "co": {
          "X": 26,
          "Y": -1
         },
         "handle_left": {
          "X": 0.5,
          "Y": 1
         },
         "handle_right": {
          "X": 0.5,
          "Y": 0
         },
         "handle_type": 0,
         "interpolation": 0
        }
       ]
      },
      "contrast": {
       "Points": [
        {
         "co": {
          "X": 1,
          "Y": 3
         },
         "interpolation": 2
        }
       ]
      },
      "reader": {
       "acodec": "",
       "audio_bit_rate": 0,
       "audio_stream_index": -1,
       "audio_timebase": {
        "den": 1,
        "num": 1
       },
       "channel_layout": 4,
       "channels": 0,
       "display_ratio": {
        "den": 4,
        "num": 5
       },
       "duration": 3600,
       "file_size": "1658880",
       "fps": {
        "den": 1,
        "num": 30
       },
       "has_audio": false,
       "has_single_image": true,
       "has_video": true,
       "height": 576,
       "interlaced_frame": false,
       "metadata": {},
       "path": "@transitions/common/fade.svg",
       "pixel_format": -1,
       "pixel_ratio": {
        "den": 1,
        "num": 1
       },
       "sample_rate": 0,
       "top_field_first": true,
       "type": "QtImageReader",
       "vcodec": "",
       "video_bit_rate": 0,
       "video_length": "108000",
       "video_stream_index": -1,
       "video_timebase": {
        "den": 30,
        "num": 1
       },
       "width": 720
      },
      "replace_image": false,
      "id": "RUR6F8046F"
     },
     {
      "layer": 4000000,
      "title": "Transition",
      "type": "Mask",
      "position": 6,
      "start": 0,
      "end": 1,
      "brightness": {
       "Points": [
        {
         "co": {
          "X": 1,
          "Y": 1
         },
         "handle_left": {
          "X": 0.5,
          "Y": 1
         },
         "handle_right": {
          "X": 0.5,
          "Y": 0
         },
         "handle_type": 0,
         "interpolation": 0
        },
        {
         "co": {
          "X": 26,
          "Y": -1
         },
         "handle_left": {
          "X": 0.5,
          "Y": 1
         },
         "handle_right": {
          "X": 0.5,
          "Y": 0
         },
         "handle_type": 0,
         "interpolation": 0
        }
       ]
      },
      "contrast": {
       "Points": [
        {
         "co": {
          "X": 1,
          "Y": 3
         },
         "interpolation": 2
        }
       ]
      },
      "reader": {
       "acodec": "",
       "audio_bit_rate": 0,
       "audio_stream_index": -1,
       "audio_timebase": {
        "den": 1,
        "num": 1
       },
       "channel_layout": 4,
       "channels": 0,
       "display_ratio": {
        "den": 4,
        "num": 5
       },
       "duration": 3600,
       "file_size": "1658880",
       "fps": {
        "den": 1,
        "num": 30
       },
       "has_audio": false,
       "has_single_image": true,
       "has_video": true,
       "height": 576,
       "interlaced_frame": false,
       "metadata": {},
       "path": "@transitions/common/fade.svg",
       "pixel_format": -1,
       "pixel_ratio": {
        "den": 1,
        "num": 1
       },
       "sample_rate": 0,
       "top_field_first": true,
       "type": "QtImageReader",
       "vcodec": "",
       "video_bit_rate": 0,
       "video_length": "108000",
       "video_stream_index": -1,
       "video_timebase": {
        "den": 30,
        "num": 1
       },
       "width": 720
      },
      "replace_image": false,
      "id": "BJ46LYUW7F"
     },
     {
      "id": "RCBQGCMDXL",
      "layer": 4000000,
      "title": "Transition",
      "type": "Mask",
      "position": 30,
      "start": 0,
      "end": 1,
      "brightness": {
       "Points": [
        {
         "co": {
          "X": 1,
          "Y": 1
         },
         "handle_left": {
          "X": 0.5,
          "Y": 1
         },
         "handle_right": {
          "X": 0.5,
          "Y": 0
         },
         "handle_type": 0,
         "interpolation": 0
        },
        {
         "co": {
          "X": 26,
          "Y": -1
         },
         "handle_left": {
          "X": 0.5,
          "Y": 1
         },
         "handle_right": {
          "X": 0.5,
          "Y": 0
         },
         "handle_type": 0,
         "interpolation": 0
        }
       ]
      },
      "contrast": {
       "Points": [
        {
         "co": {
          "X": 1,
          "Y": 3
         },
         "interpolation": 2
        }
       ]
      },
      "reader": {
       "acodec": "",
       "audio_bit_rate": 0,
       "audio_stream_index": -1,
       "audio_timebase": {
        "den": 1,
        "num": 1
       },
       "channel_layout": 4,
       "channels": 0,
       "display_ratio": {
        "den": 4,
        "num": 5
       },
       "duration": 3600,
       "file_size": "1658880",
       "fps": {
        "den": 1,
        "num": 30
       },
       "has_audio": false,
       "has_single_image": true,
       "has_video": true,
       "height": 576,
       "interlaced_frame": false,
       "metadata": {},
       "path": "@transitions/common/fade.svg",
       "pixel_format": -1,
       "pixel_ratio": {
        "den": 1,
        "num": 1
       },
       "sample_rate": 0,
       "top_field_first": true,
       "type": "QtImageReader",
       "vcodec": "",
       "video_bit_rate": 0,
       "video_length": "108000",
       "video_stream_index": -1,
       "video_timebase": {
        "den": 30,
        "num": 1
       },
       "width": 720
      },
      "replace_image": false
     },
     {
      "layer": 4000000,
      "title": "Transition",
      "type": "Mask",
      "position": 18,
      "start": 0,
      "end": 1,
      "brightness": {
       "Points": [
        {
         "co": {
          "X": 1,
          "Y": 1
         },
         "handle_left": {
          "X": 0.5,
          "Y": 1
         },
         "handle_right": {
          "X": 0.5,
          "Y": 0
         },
         "handle_type": 0,
         "interpolation": 0
        },
        {
         "co": {
          "X": 26,
          "Y": -1
         },
         "handle_left": {
          "X": 0.5,
          "Y": 1
         },
         "handle_right": {
          "X": 0.5,
          "Y": 0
         },
         "handle_type": 0,
         "interpolation": 0
        }
       ]
      },
      "contrast": {
       "Points": [
        {
         "co": {
          "X": 1,
          "Y": 3
         },
         "interpolation": 2
        }
       ]
      },
      "reader": {
       "acodec": "",
       "audio_bit_rate": 0,
       "audio_stream_index": -1,
       "audio_timebase": {
        "den": 1,
        "num": 1
       },
       "channel_layout": 4,
       "channels": 0,
       "display_ratio": {
        "den": 4,
        "num": 5
       },
       "duration": 3600,
       "file_size": "1658880",
       "fps": {
        "den": 1,
        "num": 30
       },
       "has_audio": false,
       "has_single_image": true,
       "has_video": true,
       "height": 576,
       "interlaced_frame": false,
       "metadata": {},
       "path": "@transitions/common/fade.svg",
       "pixel_format": -1,
       "pixel_ratio": {
        "den": 1,
        "num": 1
       },
       "sample_rate": 0,
       "top_field_first": true,
       "type": "QtImageReader",
       "vcodec": "",
       "video_bit_rate": 0,
       "video_length": "108000",
       "video_stream_index": -1,
       "video_timebase": {
        "den": 30,
        "num": 1
       },
       "width": 720
      },
      "replace_image": false,
      "id": "U6SJ673HD3"
     },
     {
      "layer": 4000000,
      "title": "Transition",
      "type": "Mask",
      "position": 19,
      "start": 0,
      "end": 1,
      "brightness": {
       "Points": [
        {
         "co": {
          "X": 1,
          "Y": 1
         },
         "handle_left": {
          "X": 0.5,
          "Y": 1
         },
         "handle_right": {
          "X": 0.5,
          "Y": 0
         },
         "handle_type": 0,
         "interpolation": 0
        },
        {
         "co": {
          "X": 26,
          "Y": -1
         },
         "handle_left": {
          "X": 0.5,
          "Y": 1
         },
         "handle_right": {
          "X": 0.5,
          "Y": 0
         },
         "handle_type": 0,
         "interpolation": 0
        }
       ]
      },
      "contrast": {
       "Points": [
        {
         "co": {
          "X": 1,
          "Y": 3
         },
         "interpolation": 2
        }
       ]
      },
      "reader": {
       "acodec": "",
       "audio_bit_rate": 0,
       "audio_stream_index": -1,
       "audio_timebase": {
        "den": 1,
        "num": 1
       },
       "channel_layout": 4,
       "channels": 0,
       "display_ratio": {
        "den": 4,
        "num": 5
       },
       "duration": 3600,
       "file_size": "1658880",
       "fps": {
        "den": 1,
        "num": 30
       },
       "has_audio": false,
       "has_single_image": true,
       "has_video": true,
       "height": 576,
       "interlaced_frame": false,
       "metadata": {},
       "path": "@transitions/common/fade.svg",
       "pixel_format": -1,
       "pixel_ratio": {
        "den": 1,
        "num": 1
       },
       "sample_rate": 0,
       "top_field_first": true,
       "type": "QtImageReader",
       "vcodec": "",
       "video_bit_rate": 0,
       "video_length": "108000",
       "video_stream_index": -1,
       "video_timebase": {
        "den": 30,
        "num": 1
       },
       "width": 720
      },
      "replace_image": false,
      "id": "CQX4ZXUH9C"
     },
     {
      "layer": 4000000,
      "title": "Transition",
      "type": "Mask",
      "position": 20,
      "start": 0,
      "end": 1,
      "brightness": {
       "Points": [
        {
         "co": {
          "X": 1,
          "Y": 1
         },
         "handle_left": {
          "X": 0.5,
          "Y": 1
         },
         "handle_right": {
          "X": 0.5,
          "Y": 0
         },
         "handle_type": 0,
         "interpolation": 0
        },
        {
         "co": {
          "X": 26,
          "Y": -1
         },
         "handle_left": {
          "X": 0.5,
          "Y": 1
         },
         "handle_right": {
          "X": 0.5,
          "Y": 0
         },
         "handle_type": 0,
         "interpolation": 0
        }
       ]
      },
      "contrast": {
       "Points": [
        {
         "co": {
          "X": 1,
          "Y": 3
         },
         "interpolation": 2
        }
       ]
      },
      "reader": {
       "acodec": "",
       "audio_bit_rate": 0,
       "audio_stream_index": -1,
       "audio_timebase": {
        "den": 1,
        "num": 1
       },
       "channel_layout": 4,
       "channels": 0,
       "display_ratio": {
        "den": 4,
        "num": 5
       },
       "duration": 3600,
       "file_size": "1658880",
       "fps": {
        "den": 1,
        "num": 30
       },
       "has_audio": false,
       "has_single_image": true,
       "has_video": true,
       "height": 576,
       "interlaced_frame": false,
       "metadata": {},
       "path": "@transitions/common/fade.svg",
       "pixel_format": -1,
       "pixel_ratio": {
        "den": 1,
        "num": 1
       },
       "sample_rate": 0,
       "top_field_first": true,
       "type": "QtImageReader",
       "vcodec": "",
       "video_bit_rate": 0,
       "video_length": "108000",
       "video_stream_index": -1,
       "video_timebase": {
        "den": 30,
        "num": 1
       },
       "width": 720
      },
      "replace_image": false,
      "id": "FL1WLL1U2Z"
     },
     {
      "id": "FTWPT067CV",
      "layer": 4000000,
      "title": "Transition",
      "type": "Mask",
      "position": 24,
      "start": 0,
      "end": 1,
      "brightness": {
       "Points": [
        {
         "co": {
          "X": 1,
          "Y": 1
         },
         "handle_left": {
          "X": 0.5,
          "Y": 1
         },
         "handle_right": {
          "X": 0.5,
          "Y": 0
         },
         "handle_type": 0,
         "interpolation": 0
        },
        {
         "co": {
          "X": 26,
          "Y": -1
         },
         "handle_left": {
          "X": 0.5,
          "Y": 1
         },
         "handle_right": {
          "X": 0.5,
          "Y": 0
         },
         "handle_type": 0,
         "interpolation": 0
        }
       ]
      },
      "contrast": {
       "Points": [
        {
         "co": {
          "X": 1,
          "Y": 3
         },
         "interpolation": 2
        }
       ]
      },
      "reader": {
       "acodec": "",
       "audio_bit_rate": 0,
       "audio_stream_index": -1,
       "audio_timebase": {
        "den": 1,
        "num": 1
       },
       "channel_layout": 4,
       "channels": 0,
       "display_ratio": {
        "den": 4,
        "num": 5
       },
       "duration": 3600,
       "file_size": "1658880",
       "fps": {
        "den": 1,
        "num": 30
       },
       "has_audio": false,
       "has_single_image": true,
       "has_video": true,
       "height": 576,
       "interlaced_frame": false,
       "metadata": {},
       "path": "@transitions/common/fade.svg",
       "pixel_format": -1,
       "pixel_ratio": {
        "den": 1,
        "num": 1
       },
       "sample_rate": 0,
       "top_field_first": true,
       "type": "QtImageReader",
       "vcodec": "",
       "video_bit_rate": 0,
       "video_length": "108000",
       "video_stream_index": -1,
       "video_timebase": {
        "den": 30,
        "num": 1
       },
       "width": 720
      },
      "replace_image": false
     },
     {
      "layer": 4000000,
      "title": "Transition",
      "type": "Mask",
      "position": 22,
      "start": 0,
      "end": 1,
      "brightness": {
       "Points": [
        {
         "co": {
          "X": 1,
          "Y": 1
         },
         "handle_left": {
          "X": 0.5,
          "Y": 1
         },
         "handle_right": {
          "X": 0.5,
          "Y": 0
         },
         "handle_type": 0,
         "interpolation": 0
        },
        {
         "co": {
          "X": 26,
          "Y": -1
         },
         "handle_left": {
          "X": 0.5,
          "Y": 1
         },
         "handle_right": {
          "X": 0.5,
          "Y": 0
         },
         "handle_type": 0,
         "interpolation": 0
        }
       ]
      },
      "contrast": {
       "Points": [
        {
         "co": {
          "X": 1,
          "Y": 3
         },
         "interpolation": 2
        }
       ]
      },
      "reader": {
       "acodec": "",
       "audio_bit_rate": 0,
       "audio_stream_index": -1,
       "audio_timebase": {
        "den": 1,
        "num": 1
       },
       "channel_layout": 4,
       "channels": 0,
       "display_ratio": {
        "den": 4,
        "num": 5
       },
       "duration": 3600,
       "file_size": "1658880",
       "fps": {
        "den": 1,
        "num": 30
       },
       "has_audio": false,
       "has_single_image": true,
       "has_video": true,
       "height": 576,
       "interlaced_frame": false,
       "metadata": {},
       "path": "@transitions/common/fade.svg",
       "pixel_format": -1,
       "pixel_ratio": {
        "den": 1,
        "num": 1
       },
       "sample_rate": 0,
       "top_field_first": true,
       "type": "QtImageReader",
       "vcodec": "",
       "video_bit_rate": 0,
       "video_length": "108000",
       "video_stream_index": -1,
       "video_timebase": {
        "den": 30,
        "num": 1
       },
       "width": 720
      },
      "replace_image": false,
      "id": "KLWBDK809G"
     },
     {
      "layer": 4000000,
      "title": "Transition",
      "type": "Mask",
      "position": 28,
      "start": 0,
      "end": 1,
      "brightness": {
       "Points": [
        {
         "co": {
          "X": 1,
          "Y": 1
         },
         "handle_left": {
          "X": 0.5,
          "Y": 1
         },
         "handle_right": {
          "X": 0.5,
          "Y": 0
         },
         "handle_type": 0,
         "interpolation": 0
        },
        {
         "co": {
          "X": 26,
          "Y": -1
         },
         "handle_left": {
          "X": 0.5,
          "Y": 1
         },
         "handle_right": {
          "X": 0.5,
          "Y": 0
         },
         "handle_type": 0,
         "interpolation": 0
        }
       ]
      },
      "contrast": {
       "Points": [
        {
         "co": {
          "X": 1,
          "Y": 3
         },
         "interpolation": 2
        }
       ]
      },
      "reader": {
       "acodec": "",
       "audio_bit_rate": 0,
       "audio_stream_index": -1,
       "audio_timebase": {
        "den": 1,
        "num": 1
       },
       "channel_layout": 4,
       "channels": 0,
       "display_ratio": {
        "den": 4,
        "num": 5
       },
       "duration": 3600,
       "file_size": "1658880",
       "fps": {
        "den": 1,
        "num": 30
       },
       "has_audio": false,
       "has_single_image": true,
       "has_video": true,
       "height": 576,
       "interlaced_frame": false,
       "metadata": {},
       "path": "@transitions/common/fade.svg",
       "pixel_format": -1,
       "pixel_ratio": {
        "den": 1,
        "num": 1
       },
       "sample_rate": 0,
       "top_field_first": true,
       "type": "QtImageReader",
       "vcodec": "",
       "video_bit_rate": 0,
       "video_length": "108000",
       "video_stream_index": -1,
       "video_timebase": {
        "den": 30,
        "num": 1
       },
       "width": 720
      },
      "replace_image": false,
      "id": "HDJUGEENOO"
     },
     {
      "layer": 4000000,
      "title": "Transition",
      "type": "Mask",
      "position": 26,
      "start": 0,
      "end": 1,
      "brightness": {
       "Points": [
        {
         "co": {
          "X": 1,
          "Y": 1
         },
         "handle_left": {
          "X": 0.5,
          "Y": 1
         },
         "handle_right": {
          "X": 0.5,
          "Y": 0
         },
         "handle_type": 0,
         "interpolation": 0
        },
        {
         "co": {
          "X": 26,
          "Y": -1
         },
         "handle_left": {
          "X": 0.5,
          "Y": 1
         },
         "handle_right": {
          "X": 0.5,
          "Y": 0
         },
         "handle_type": 0,
         "interpolation": 0
        }
       ]
      },
      "contrast": {
       "Points": [
        {
         "co": {
          "X": 1,
          "Y": 3
         },
         "interpolation": 2
        }
       ]
      },
      "reader": {
       "acodec": "",
       "audio_bit_rate": 0,
       "audio_stream_index": -1,
       "audio_timebase": {
        "den": 1,
        "num": 1
       },
       "channel_layout": 4,
       "channels": 0,
       "display_ratio": {
        "den": 4,
        "num": 5
       },
       "duration": 3600,
       "file_size": "1658880",
       "fps": {
        "den": 1,
        "num": 30
       },
       "has_audio": false,
       "has_single_image": true,
       "has_video": true,
       "height": 576,
       "interlaced_frame": false,
       "metadata": {},
       "path": "@transitions/common/fade.svg",
       "pixel_format": -1,
       "pixel_ratio": {
        "den": 1,
        "num": 1
       },
       "sample_rate": 0,
       "top_field_first": true,
       "type": "QtImageReader",
       "vcodec": "",
       "video_bit_rate": 0,
       "video_length": "108000",
       "video_stream_index": -1,
       "video_timebase": {
        "den": 30,
        "num": 1
       },
       "width": 720
      },
      "replace_image": false,
      "id": "EXBZ047XP0"
     },
     {
      "layer": 4000000,
      "title": "Transition",
      "type": "Mask",
      "position": 55,
      "start": 0,
      "end": 2,
      "brightness": {
       "Points": [
        {
         "co": {
          "X": 1,
          "Y": 1
         },
         "handle_left": {
          "X": 0.5,
          "Y": 1
         },
         "handle_right": {
          "X": 0.5,
          "Y": 0
         },
         "handle_type": 0,
         "interpolation": 0
        },
        {
         "co": {
          "X": 51,
          "Y": -1
         },
         "handle_left": {
          "X": 0.5,
          "Y": 1
         },
         "handle_right": {
          "X": 0.5,
          "Y": 0
         },
         "handle_type": 0,
         "interpolation": 0
        }
       ]
      },
      "contrast": {
       "Points": [
        {
         "co": {
          "X": 1,
          "Y": 3
         },
         "interpolation": 2
        }
       ]
      },
      "reader": {
       "acodec": "",
       "audio_bit_rate": 0,
       "audio_stream_index": -1,
       "audio_timebase": {
        "den": 1,
        "num": 1
       },
       "channel_layout": 4,
       "channels": 0,
       "display_ratio": {
        "den": 4,
        "num": 5
       },
       "duration": 3600,
       "file_size": "1658880",
       "fps": {
        "den": 1,
        "num": 30
       },
       "has_audio": false,
       "has_single_image": true,
       "has_video": true,
       "height": 576,
       "interlaced_frame": false,
       "metadata": {},
       "path": "@transitions/common/fade.svg",
       "pixel_format": -1,
       "pixel_ratio": {
        "den": 1,
        "num": 1
       },
       "sample_rate": 0,
       "top_field_first": true,
       "type": "QtImageReader",
       "vcodec": "",
       "video_bit_rate": 0,
       "video_length": "108000",
       "video_stream_index": -1,
       "video_timebase": {
        "den": 30,
        "num": 1
       },
       "width": 720
      },
      "replace_image": false,
      "id": "OY5ORATSXU"
     },
     {
      "id": "PT8UAFI88N",
      "layer": 4000000,
      "title": "Transition",
      "type": "Mask",
      "position": 47.48,
      "start": 0,
      "end": 2.520000000000003,
      "brightness": {
       "Points": [
        {
         "co": {
          "X": 1,
          "Y": 1
         },
         "handle_left": {
          "X": 0.5,
          "Y": 1
         },
         "handle_right": {
          "X": 0.5,
          "Y": 0
         },
         "handle_type": 0,
         "interpolation": 0
        },
        {
         "co": {
          "X": 64,
          "Y": -1
         },
         "handle_left": {
          "X": 0.5,
          "Y": 1
         },
         "handle_right": {
          "X": 0.5,
          "Y": 0
         },
         "handle_type": 0,
         "interpolation": 0
        }
       ]
      },
      "contrast": {
       "Points": [
        {
         "co": {
          "X": 1,
          "Y": 3
         },
         "interpolation": 2
        }
       ]
      },
      "reader": {
       "acodec": "",
       "audio_bit_rate": 0,
       "audio_stream_index": -1,
       "audio_timebase": {
        "den": 1,
        "num": 1
       },
       "channel_layout": 4,
       "channels": 0,
       "display_ratio": {
        "den": 4,
        "num": 5
       },
       "duration": 3600,
       "file_size": "1658880",
       "fps": {
        "den": 1,
        "num": 30
       },
       "has_audio": false,
       "has_single_image": true,
       "has_video": true,
       "height": 576,
       "interlaced_frame": false,
       "metadata": {},
       "path": "@transitions/common/fade.svg",
       "pixel_format": -1,
       "pixel_ratio": {
        "den": 1,
        "num": 1
       },
       "sample_rate": 0,
       "top_field_first": true,
       "type": "QtImageReader",
       "vcodec": "",
       "video_bit_rate": 0,
       "video_length": "108000",
       "video_stream_index": -1,
       "video_timebase": {
        "den": 30,
        "num": 1
       },
       "width": 720
      },
      "replace_image": false
     },
     {
      "id": "MR7DTQUKJH",
      "layer": 4000000,
      "title": "Transition",
      "type": "Mask",
      "position": 39.0,
      "start": 0,
      "end": 2.0,
      "brightness": {
       "Points": [
        {
         "co": {
          "X": 1,
          "Y": 1
         },
         "handle_left": {
          "X": 0.5,
          "Y": 1
         },
         "handle_right": {
          "X": 0.5,
          "Y": 0
         },
         "handle_type": 0,
         "interpolation": 0
        },
        {
         "co": {
          "X": 50,
          "Y": -1
         },
         "handle_left": {
          "X": 0.5,
          "Y": 1
         },
         "handle_right": {
          "X": 0.5,
          "Y": 0
         },
         "handle_type": 0,
         "interpolation": 0
        }
       ]
      },
      "contrast": {
       "Points": [
        {
         "co": {
          "X": 1,
          "Y": 3
         },
         "interpolation": 2
        }
       ]
      },
      "reader": {
       "acodec": "",
       "audio_bit_rate": 0,
       "audio_stream_index": -1,
       "audio_timebase": {
        "den": 1,
        "num": 1
       },
       "channel_layout": 4,
       "channels": 0,
       "display_ratio": {
        "den": 4,
        "num": 5
       },
       "duration": 3600,
       "file_size": "1658880",
       "fps": {
        "den": 1,
        "num": 30
       },
       "has_audio": false,
       "has_single_image": true,
       "has_video": true,
       "height": 576,
       "interlaced_frame": false,
       "metadata": {},
       "path": "@transitions/common/fade.svg",
       "pixel_format": -1,
       "pixel_ratio": {
        "den": 1,
        "num": 1
       },
       "sample_rate": 0,
       "top_field_first": true,
       "type": "QtImageReader",
       "vcodec": "",
       "video_bit_rate": 0,
       "video_length": "108000",
       "video_stream_index": -1,
       "video_timebase": {
        "den": 30,
        "num": 1
       },
       "width": 720
      },
      "replace_image": false
     },
     {
      "id": "P9TUJWFN1J",
      "layer": 4000000,
      "title": "Transition",
      "type": "Mask",
      "position": 43.0,
      "start": 0,
      "end": 2.0,
      "brightness": {
       "Points": [
        {
         "co": {
          "X": 1,
          "Y": 1
         },
         "handle_left": {
          "X": 0.5,
          "Y": 1
         },
         "handle_right": {
          "X": 0.5,
          "Y": 0
         },
         "handle_type": 0,
         "interpolation": 0
        },
        {
         "co": {
          "X": 52,
          "Y": -1
         },
         "handle_left": {
          "X": 0.5,
          "Y": 1
         },
         "handle_right": {
          "X": 0.5,
          "Y": 0
         },
         "handle_type": 0,
         "interpolation": 0
        }
       ]
      },
      "contrast": {
       "Points": [
        {
         "co": {
          "X": 1,
          "Y": 3
         },
         "interpolation": 2
        }
       ]
      },
      "reader": {
       "acodec": "",
       "audio_bit_rate": 0,
       "audio_stream_index": -1,
       "audio_timebase": {
        "den": 1,
        "num": 1
       },
       "channel_layout": 4,
       "channels": 0,
       "display_ratio": {
        "den": 4,
        "num": 5
       },
       "duration": 3600,
       "file_size": "1658880",
       "fps": {
        "den": 1,
        "num": 30
       },
       "has_audio": false,
       "has_single_image": true,
       "has_video": true,
       "height": 576,
       "interlaced_frame": false,
       "metadata": {},
       "path": "@transitions/common/fade.svg",
       "pixel_format": -1,
       "pixel_ratio": {
        "den": 1,
        "num": 1
       },
       "sample_rate": 0,
       "top_field_first": true,
       "type": "QtImageReader",
       "vcodec": "",
       "video_bit_rate": 0,
       "video_length": "108000",
       "video_stream_index": -1,
       "video_timebase": {
        "den": 30,
        "num": 1
       },
       "width": 720
      },
      "replace_image": false
     },
     {
      "layer": 4000000,
      "title": "Transition",
      "type": "Mask",
      "position": 51,
      "start": 0,
      "end": 2.520000000000003,
      "brightness": {
       "Points": [
        {
         "co": {
          "X": 1,
          "Y": 1
         },
         "handle_left": {
          "X": 0.5,
          "Y": 1
         },
         "handle_right": {
          "X": 0.5,
          "Y": 0
         },
         "handle_type": 0,
         "interpolation": 0
        },
        {
         "co": {
          "X": 64,
          "Y": -1
         },
         "handle_left": {
          "X": 0.5,
          "Y": 1
         },
         "handle_right": {
          "X": 0.5,
          "Y": 0
         },
         "handle_type": 0,
         "interpolation": 0
        }
       ]
      },
      "contrast": {
       "Points": [
        {
         "co": {
          "X": 1,
          "Y": 3
         },
         "interpolation": 2
        }
       ]
      },
      "reader": {
       "acodec": "",
       "audio_bit_rate": 0,
       "audio_stream_index": -1,
       "audio_timebase": {
        "den": 1,
        "num": 1
       },
       "channel_layout": 4,
       "channels": 0,
       "display_ratio": {
        "den": 4,
        "num": 5
       },
       "duration": 3600,
       "file_size": "1658880",
       "fps": {
        "den": 1,
        "num": 30
       },
       "has_audio": false,
       "has_single_image": true,
       "has_video": true,
       "height": 576,
       "interlaced_frame": false,
       "metadata": {},
       "path": "@transitions/common/fade.svg",
       "pixel_format": -1,
       "pixel_ratio": {
        "den": 1,
        "num": 1
       },
       "sample_rate": 0,
       "top_field_first": true,
       "type": "QtImageReader",
       "vcodec": "",
       "video_bit_rate": 0,
       "video_length": "108000",
       "video_stream_index": -1,
       "video_timebase": {
        "den": 30,
        "num": 1
       },
       "width": 720
      },
      "replace_image": false,
      "id": "A78Q4Y8MHU"
     },
     {
      "id": "RJOQ04AX4R",
      "layer": 4000000,
      "title": "Transition",
      "type": "Mask",
      "position": 35.04,
      "start": 0,
      "end": 0.9600000000000009,
      "brightness": {
       "Points": [
        {
         "co": {
          "X": 1,
          "Y": 1
         },
         "handle_left": {
          "X": 0.5,
          "Y": 1
         },
         "handle_right": {
          "X": 0.5,
          "Y": 0
         },
         "handle_type": 0,
         "interpolation": 0
        },
        {
         "co": {
          "X": 25,
          "Y": -1
         },
         "handle_left": {
          "X": 0.5,
          "Y": 1
         },
         "handle_right": {
          "X": 0.5,
          "Y": 0
         },
         "handle_type": 0,
         "interpolation": 0
        }
       ]
      },
      "contrast": {
       "Points": [
        {
         "co": {
          "X": 1,
          "Y": 3
         },
         "interpolation": 2
        }
       ]
      },
      "reader": {
       "acodec": "",
       "audio_bit_rate": 0,
       "audio_stream_index": -1,
       "audio_timebase": {
        "den": 1,
        "num": 1
       },
       "channel_layout": 4,
       "channels": 0,
       "display_ratio": {
        "den": 4,
        "num": 5
       },
       "duration": 3600,
       "file_size": "1658880",
       "fps": {
        "den": 1,
        "num": 30
       },
       "has_audio": false,
       "has_single_image": true,
       "has_video": true,
       "height": 576,
       "interlaced_frame": false,
       "metadata": {},
       "path": "@transitions/common/fade.svg",
       "pixel_format": -1,
       "pixel_ratio": {
        "den": 1,
        "num": 1
       },
       "sample_rate": 0,
       "top_field_first": true,
       "type": "QtImageReader",
       "vcodec": "",
       "video_bit_rate": 0,
       "video_length": "108000",
       "video_stream_index": -1,
       "video_timebase": {
        "den": 30,
        "num": 1
       },
       "width": 720
      },
      "replace_image": false
     }
    ]
   },
   {
    "type": "update",
    "key": [
     "effects",
     {
      "id": "RTP2SHHVJ7"
     }
    ],
    "value": {
     "id": "RTP2SHHVJ7",
     "layer": 4000000,
     "position": 33,
     "start": 0,
     "end": 0.9600000000000009,
     "brightness": {
      "Points": [
       {
        "co": {
         "X": 1,
         "Y": 1
        },
        "handle_left": {
         "X": 0.5,
         "Y": 1
        },
        "handle_right": {
         "X": 0.5,
         "Y": 0
        },
        "handle_type": 0,
        "interpolation": 0
       },
       {
        "co": {
         "X": 25,
         "Y": -1
        },
        "handle_left": {
         "X": 0.5,
         "Y": 1
        },
        "handle_right": {
         "X": 0.5,
         "Y": 0
        },
        "handle_type": 0,
        "interpolation": 0
       }
      ]
     },
     "contrast": {
      "Points": [
       {
        "co": {
         "X": 1,
         "Y": 3
        },
        "interpolation": 2
       }
      ]
     }
    },
    "partial": false,
    "old_values": {
     "layer": 4000000,
     "title": "Transition",
     "type": "Mask",
     "position": 31.28,
     "start": 0,
     "end": 0.9600000000000009,
     "brightness": {
      "Points": [
       {
        "co": {
         "X": 1,
         "Y": 1
        },
        "handle_left": {
         "X": 0.5,
         "Y": 1
        },
        "handle_right": {
         "X": 0.5,
         "Y": 0
        },
        "handle_type": 0,
        "interpolation": 0
       },
       {
        "co": {
         "X": 25,
         "Y": -1
        },
        "handle_left": {
         "X": 0.5,
         "Y": 1
        },
        "handle_right": {
         "X": 0.5,
         "Y": 0
        },
        "handle_type": 0,
        "interpolation": 0
       }
      ]
     },
     "contrast": {
      "Points": [
       {
        "co": {
         "X": 1,
         "Y": 3
        },
        "interpolation": 2
       }
      ]
     },
     "reader": {
      "acodec": "",
      "audio_bit_rate": 0,
      "audio_stream_index": -1,
      "audio_timebase": {
       "den": 1,
       "num": 1
      },
      "channel_layout": 4,
      "channels": 0,
      "display_ratio": {
       "den": 4,
       "num": 5
      },
      "duration": 3600,
      "file_size": "1658880",
      "fps": {
       "den": 1,
       "num": 30
      },
      "has_audio": false,
      "has_single_image": true,
      "has_video": true,
      "height": 576,
      "interlaced_frame": false,
      "metadata": {},
      "path": "@transitions/common/fade.svg",
      "pixel_format": -1,
      "pixel_ratio": {
       "den": 1,
       "num": 1
      },
      "sample_rate": 0,
      "top_field_first": true,
      "type": "QtImageReader",
      "vcodec": "",
      "video_bit_rate": 0,
      "video_length": "108000",
      "video_stream_index": -1,
      "video_timebase": {
       "den": 30,
       "num": 1
      },
      "width": 720
     },
     "replace_image": false,
     "id": "RTP2SHHVJ7"
    }
   },
   {
    "type": "update",
    "key": [
     "scale"
    ],
    "value": 3,
    "partial": false,
    "old_values": null
   },
   {
    "type": "update",
    "key": [
     "clips",
     {
      "id": "6VOHFTJALE"
     }
    ],
    "value": {
     "end": 7.0
    },
    "partial": false,
    "old_values": {
     "alpha": {
      "Points": [
       {
        "co": {
         "X": 1,
         "Y": 1
        },
        "interpolation": 2
       }
      ]
     },
     "anchor": 0,
     "channel_filter": {
      "Points": [
       {
        "co": {
         "X": 1,
         "Y": -1
        },
        "interpolation": 2
       }
      ]
     },
     "channel_mapping": {
      "Points": [
       {
        "co": {
         "X": 1,
         "Y": -1
        },
        "interpolation": 2
       }
      ]
     },
     "crop_height": {
      "Points": [
       {
        "co": {
         "X": 1,
         "Y": 1
        },
        "interpolation": 2
       }
      ]
     },
     "crop_width": {
      "Points": [
       {
        "co": {
         "X": 1,
         "Y": 1
        },
        "interpolation": 2
       }
      ]
     },
     "crop_x": {
      "Points": [
       {
        "co": {
         "X": 1,
         "Y": 0
        },
        "interpolation": 2
       }
      ]
     },
     "crop_y": {
      "Points": [
       {
        "co": {
         "X": 1,
         "Y": 0
        },
        "interpolation": 2
       }
      ]
     },
     "display": 0,
     "duration": 3600.0,
     "effects": [],
     "end": 6,
     "gravity": 4,
     "has_audio": {
      "Points": [
       {
        "co": {
         "X": 1,
         "Y": -1
        },
        "interpolation": 2
       }
      ]
     },
     "has_video": {
      "Points": [
       {
        "co": {
         "X": 1,
         "Y": -1
        },
        "interpolation": 2
       }
      ]
     },
     "id": "6VOHFTJALE",
     "layer": 4000000,
     "location_x": {
      "Points": [
       {
        "co": {
         "X": 1,
         "Y": 0
        },
        "interpolation": 2
       }
      ]
     },
     "location_y": {
      "Points": [
       {
        "co": {
         "X": 1,
         "Y": 0
        },
        "interpolation": 2
       }
      ]
     },
     "mixing": 0,
     "perspective_c1_x": {
      "Points": [
       {
        "co": {
         "X": 1,
         "Y": -1
        },
        "interpolation": 2
       }
      ]
     },
     "perspective_c1_y": {
      "Points": [
       {
        "co": {
         "X": 1,
         "Y": -1
        },
        "interpolation": 2
       }
      ]
     },
     "perspective_c2_x": {
      "Points": [
       {
        "co": {
         "X": 1,
         "Y": -1
        },
        "interpolation": 2
       }
      ]
     },
     "perspective_c2_y": {
      "Points": [
       {
        "co": {
         "X": 1,
         "Y": -1
        },
        "interpolation": 2
       }
      ]
     },
     "perspective_c3_x": {
      "Points": [
       {
        "co": {
         "X": 1,
         "Y": -1
        },
        "interpolation": 2
       }
      ]
     },
     "perspective_c3_y": {
      "Points": [
       {
        "co": {
         "X": 1,
         "Y": -1
        },
        "interpolation": 2
       }
      ]
     },
     "perspective_c4_x": {
      "Points": [
       {
        "co": {
         "X": 1,
         "Y": -1
        },
        "interpolation": 2
       }
      ]
     },
     "perspective_c4_y": {
      "Points": [
       {
        "co": {
         "X": 1,
         "Y": -1
        },
        "interpolation": 2
       }
      ]
     },
     "position": 35.04,
     "reader": {
      "acodec": "",
      "audio_bit_rate": 0,
      "audio_stream_index": -1,
      "audio_timebase": {
       "den": 1,
       "num": 1
      },
      "channel_layout": 4,
      "channels": 0,
      "display_ratio": {
       "den": 9,
       "num": 16
      },
      "duration": 3600.0,
      "file_size": "8294400",
      "fps": {
       "den": 1,
       "num": 30
      },
      "has_audio": false,
      "has_single_image": true,
      "has_video": true,
      "height": 1080,
      "interlaced_frame": false,
      "metadata": {},
      "path": "generated/g3.png",
      "pixel_format": -1,
      "pixel_ratio": {
       "den": 1,
       "num": 1
      },
      "sample_rate": 0,
      "top_field_first": true,
      "type": "QtImageReader",
      "vcodec": "",
      "video_bit_rate": 0,
      "video_length": "108000",
      "video_stream_index": -1,
      "video_timebase": {
       "den": 30,
       "num": 1
      },
      "width": 1920
     },
     "rotation": {
      "Points": [
       {
        "co": {
         "X": 1,
         "Y": 0
        },
        "interpolation": 2
       }
      ]
     },
     "scale": 1,
     "scale_x": {
      "Points": [
       {
        "co": {
         "X": 1,
         "Y": 1
        },
        "interpolation": 2
       }
      ]
     },
     "scale_y": {
      "Points": [
       {
        "co": {
         "X": 1,
         "Y": 1
        },
        "interpolation": 2
       }
      ]
     },
     "shear_x": {
      "Points": [
       {
        "co": {
         "X": 1,
         "Y": 0
        },
        "interpolation": 2
       }
      ]
     },
     "shear_y": {
      "Points": [
       {
        "co": {
         "X": 1,
         "Y": 0
        },
        "interpolation": 2
       }
      ]
     },
     "start": 0,
     "time": {
      "Points": [
       {
        "co": {
         "X": 1,
         "Y": 1
        },
        "interpolation": 2
       }
      ]
     },
     "volume": {
      "Points": [
       {
        "co": {
         "X": 1,
         "Y": 1
        },
        "interpolation": 2
       }
      ]
     },
     "wave_color": {
      "alpha": {
       "Points": [
        {
         "co": {
          "X": 1,
          "Y": 255
         },
         "handle_left": {
          "X": 0.5,
          "Y": 1
         },
         "handle_right": {
          "X": 0.5,
          "Y": 0
         },
         "handle_type": 0,
         "interpolation": 0
        }
       ]
      },
      "blue": {
       "Points": [
        {
         "co": {
          "X": 1,
          "Y": 255
         },
         "handle_left": {
          "X": 0.5,
          "Y": 1
         },
         "handle_right": {
          "X": 0.5,
          "Y": 0
         },
         "handle_type": 0,
         "interpolation": 0
        }
       ]
      },
      "green": {
       "Points": [
        {
         "co": {
          "X": 1,
          "Y": 123
         },
         "handle_left": {
          "X": 0.5,
          "Y": 1
         },
         "handle_right": {
          "X": 0.5,
          "Y": 0
         },
         "handle_type": 0,
         "interpolation": 0
        }
       ]
      },
      "red": {
       "Points": [
        {
         "co": {
          "X": 1,
          "Y": 0
         },
         "handle_left": {
          "X": 0.5,
          "Y": 1
         },
         "handle_right": {
          "X": 0.5,
          "Y": 0
         },
         "handle_type": 0,
         "interpolation": 0
        }
       ]
      }
     },
     "waveform": false,
     "file_id": "NFH7JMUJJU",
     "title": "g3.png",
     "image": "thumbnail/NFH7JMUJJU.png"
    }
   },
   {
    "type": "update",
    "key": [
     "clips",
     {
      "id": "7RK9VP477J"
     }
    ],
    "value": {
     "end": 4.0
    },
    "partial": false,
    "old_values": {
     "alpha": {
      "Points": [
       {
        "co": {
         "X": 1,
         "Y": 1
        },
        "interpolation": 2
       }
      ]
     },
     "anchor": 0,
     "channel_filter": {
      "Points": [
       {
        "co": {
         "X": 1,
         "Y": -1
        },
        "interpolation": 2
       }
      ]
     },
     "channel_mapping": {
      "Points": [
       {
        "co": {
         "X": 1,
         "Y": -1
        },
        "interpolation": 2
       }
      ]
     },
     "crop_height": {
      "Points": [
       {
        "co": {
         "X": 1,
         "Y": 1
        },
        "interpolation": 2
       }
      ]
     },
     "crop_width": {
      "Points": [
       {
        "co": {
         "X": 1,
         "Y": 1
        },
        "interpolation": 2
       }
      ]
     },
     "crop_x": {
      "Points": [
       {
        "co": {
         "X": 1,
         "Y": 0
        },
        "interpolation": 2
       }
      ]
     },
     "crop_y": {
      "Points": [
       {
        "co": {
         "X": 1,
         "Y": 0
        },
        "interpolation": 2
       }
      ]
     },
     "display": 0,
     "duration": 3600.0,
     "effects": [],
     "end": 5.0,
     "gravity": 4,
     "has_audio": {
      "Points": [
       {
        "co": {
         "X": 1,
         "Y": -1
        },
        "interpolation": 2
       }
      ]
     },
     "has_video": {
      "Points": [
       {
        "co": {
         "X": 1,
         "Y": -1
        },
        "interpolation": 2
       }
      ]
     },
     "layer": 4000000,
     "location_x": {
      "Points": [
       {
        "co": {
         "X": 1,
         "Y": 0
        },
        "interpolation": 2
       }
      ]
     },
     "location_y": {
      "Points": [
       {
        "co": {
         "X": 1,
         "Y": 0
        },
        "interpolation": 2
       }
      ]
     },
     "mixing": 0,
     "perspective_c1_x": {
      "Points": [
       {
        "co": {
         "X": 1,
         "Y": -1
        },
        "interpolation": 2
       }
      ]
     },
     "perspective_c1_y": {
      "Points": [
       {
        "co": {
         "X": 1,
         "Y": -1
        },
        "interpolation": 2
       }
      ]
     },
     "perspective_c2_x": {
      "Points": [
       {
        "co": {
         "X": 1,
         "Y": -1
        },
        "interpolation": 2
       }
      ]
     },
     "perspective_c2_y": {
      "Points": [
       {
        "co": {
         "X": 1,
         "Y": -1
        },
        "interpolation": 2
       }
      ]
     },
     "perspective_c3_x": {
      "Points": [
       {
        "co": {
         "X": 1,
         "Y": -1
        },
        "interpolation": 2
       }
      ]
     },
     "perspective_c3_y": {
      "Points": [
       {
        "co": {
         "X": 1,
         "Y": -1
        },
        "interpolation": 2
       }
      ]
     },
     "perspective_c4_x": {
      "Points": [
       {
        "co": {
         "X": 1,
         "Y": -1
        },
        "interpolation": 2
       }
      ]
     },
     "perspective_c4_y": {
      "Points": [
       {
        "co": {
         "X": 1,
         "Y": -1
        },
        "interpolation": 2
       }
      ]
     },
     "position": 39.0,
     "reader": {
      "acodec": "",
      "audio_bit_rate": 0,
      "audio_stream_index": -1,
      "audio_timebase": {
       "den": 1,
       "num": 1
      },
      "channel_layout": 4,
      "channels": 0,
      "display_ratio": {
       "den": 9,
       "num": 16
      },
      "duration": 3600.0,
      "file_size": "8294400",
      "fps": {
       "den": 1,
       "num": 30
      },
      "has_audio": false,
      "has_single_image": true,
      "has_video": true,
      "height": 1080,
      "interlaced_frame": false,
      "metadata": {},
      "path": "generated/g0.png",
      "pixel_format": -1,
      "pixel_ratio": {
       "den": 1,
       "num": 1
      },
      "sample_rate": 0,
      "top_field_first": true,
      "type": "QtImageReader",
      "vcodec": "",
      "video_bit_rate": 0,
      "video_length": "108000",
      "video_stream_index": -1,
      "video_timebase": {
       "den": 30,
       "num": 1
      },
      "width": 1920
     },
     "rotation": {
      "Points": [
       {
        "co": {
         "X": 1,
         "Y": 0
        },
        "interpolation": 2
       }
      ]
     },
     "scale": 1,
     "scale_x": {
      "Points": [
       {
        "co": {
         "X": 1,
         "Y": 1
        },
        "interpolation": 2
       }
      ]
     },
     "scale_y": {
      "Points": [
       {
        "co": {
         "X": 1,
         "Y": 1
        },
        "interpolation": 2
       }
      ]
     },
     "shear_x": {
      "Points": [
       {
        "co": {
         "X": 1,
         "Y": 0
        },
        "interpolation": 2
       }
      ]
     },
     "shear_y": {
      "Points": [
       {
        "co": {
         "X": 1,
         "Y": 0
        },
        "interpolation": 2
       }
      ]
     },
     "start": 0,
     "time": {
      "Points": [
       {
        "co": {
         "X": 1,
         "Y": 1
        },
        "interpolation": 2
       }
      ]
     },
     "volume": {
      "Points": [
       {
        "co": {
         "X": 1,
         "Y": 1
        },
        "interpolation": 2
       }
      ]
     },
     "wave_color": {
      "alpha": {
       "Points": [
        {
         "co": {
          "X": 1,
          "Y": 255
         },
         "handle_left": {
          "X": 0.5,
          "Y": 1
         },
         "handle_right": {
          "X": 0.5,
          "Y": 0
         },
         "handle_type": 0,
         "interpolation": 0
        }
       ]
      },
      "blue": {
       "Points": [
        {
         "co": {
          "X": 1,
          "Y": 255
         },
         "handle_left": {
          "X": 0.5,
          "Y": 1
         },
         "handle_right": {
          "X": 0.5,
          "Y": 0
         },
         "handle_type": 0,
         "interpolation": 0
        }
       ]
      },
      "green": {
       "Points": [
        {
         "co": {
          "X": 1,
          "Y": 123
         },
         "handle_left": {
          "X": 0.5,
          "Y": 1
         },
         "handle_right": {
          "X": 0.5,
          "Y": 0
         },
         "handle_type": 0,
         "interpolation": 0
        }
       ]
      },
      "red": {
       "Points": [
        {
         "co": {
          "X": 1,
          "Y": 0
         },
         "handle_left": {
          "X": 0.5,
          "Y": 1
         },
         "handle_right": {
          "X": 0.5,
          "Y": 0
         },
         "handle_type": 0,
         "interpolation": 0
        }
       ]
      }
     },
     "waveform": false,
     "file_id": "14XMU5A0GJ",
     "title": "g0.png",
     "image": "thumbnail/14XMU5A0GJ.png",
     "id": "7RK9VP477J"
    }
   },
   {
    "type": "update",
    "key": [
     "clips",
     {
      "id": "7RK9VP477J"
     }
    ],
    "value": {
     "position": 40.0
    },
    "partial": false,
    "old_values": {
     "alpha": {
      "Points": [
       {
        "co": {
         "X": 1,
         "Y": 1
        },
        "interpolation": 2
       }
      ]
     },
     "anchor": 0,
     "channel_filter": {
      "Points": [
       {
        "co": {
         "X": 1,
         "Y": -1
        },
        "interpolation": 2
       }
      ]
     },
     "channel_mapping": {
      "Points": [
       {
        "co": {
         "X": 1,
         "Y": -1
        },
        "interpolation": 2
       }
      ]
     },
     "crop_height": {
      "Points": [
       {
        "co": {
         "X": 1,
         "Y": 1
        },
        "interpolation": 2
       }
      ]
     },
     "crop_width": {
      "Points": [
       {
        "co": {
         "X": 1,
         "Y": 1
        },
        "interpolation": 2
       }
      ]
     },
     "crop_x": {
      "Points": [
       {
        "co": {
         "X": 1,
         "Y": 0
        },
        "interpolation": 2
       }
      ]
     },
     "crop_y": {
      "Points": [
       {
        "co": {
         "X": 1,
         "Y": 0
        },
        "interpolation": 2
       }
      ]
     },
     "display": 0,
     "duration": 3600.0,
     "effects": [],
     "end": 4.0,
     "gravity": 4,
     "has_audio": {
      "Points": [
       {
        "co": {
         "X": 1,
         "Y": -1
        },
        "interpolation": 2
       }
      ]
     },
     "has_video": {
      "Points": [
       {
        "co": {
         "X": 1,
         "Y": -1
        },
        "interpolation": 2
       }
      ]
     },
     "layer": 4000000,
     "location_x": {
      "Points": [
       {
        "co": {
         "X": 1,
         "Y": 0
        },
        "interpolation": 2
       }
      ]
     },
     "location_y": {
      "Points": [
       {
        "co": {
         "X": 1,
         "Y": 0
        },
        "interpolation": 2
       }
      ]
     },
     "mixing": 0,
     "perspective_c1_x": {
      "Points": [
       {
        "co": {
         "X": 1,
         "Y": -1
        },
        "interpolation": 2
       }
      ]
     },
     "perspective_c1_y": {
      "Points": [
       {
        "co": {
         "X": 1,
         "Y": -1
        },
        "interpolation": 2
       }
      ]
     },
     "perspective_c2_x": {
      "Points": [
       {
        "co": {
         "X": 1,
         "Y": -1
        },
        "interpolation": 2
       }
      ]
     },
     "perspective_c2_y": {
      "Points": [
       {
        "co": {
         "X": 1,
         "Y": -1
        },
        "interpolation": 2
       }
      ]
     },
     "perspective_c3_x": {
      "Points": [
       {
        "co": {
         "X": 1,
         "Y": -1
        },
        "interpolation": 2
       }
      ]
     },
     "perspective_c3_y": {
      "Points": [
       {
        "co": {
         "X": 1,
         "Y": -1
        },
        "interpolation": 2
       }
      ]
     },
     "perspective_c4_x": {
      "Points": [
       {
        "co": {
         "X": 1,
         "Y": -1
        },
        "interpolation": 2
       }
      ]
     },
     "perspective_c4_y": {
      "Points": [
       {
        "co": {
         "X": 1,
         "Y": -1
        },
        "interpolation": 2
       }
      ]
     },
     "position": 39.0,
     "reader": {
      "acodec": "",
      "audio_bit_rate": 0,
      "audio_stream_index": -1,
      "audio_timebase": {
       "den": 1,
       "num": 1
      },
      "channel_layout": 4,
      "channels": 0,
      "display_ratio": {
       "den": 9,
       "num": 16
      },
      "duration": 3600.0,
      "file_size": "8294400",
      "fps": {
       "den": 1,
       "num": 30
      },
      "has_audio": false,
      "has_single_image": true,
      "has_video": true,
      "height": 1080,
      "interlaced_frame": false,
      "metadata": {},
      "path": "generated/g0.png",
      "pixel_format": -1,
      "pixel_ratio": {
       "den": 1,
       "num": 1
      },
      "sample_rate": 0,
      "top_field_first": true,
      "type": "QtImageReader",
      "vcodec": "",
      "video_bit_rate": 0,
      "video_length": "108000",
      "video_stream_index": -1,
      "video_timebase": {
       "den": 30,
       "num": 1
      },
      "width": 1920
     },
     "rotation": {
      "Points": [
       {
        "co": {
         "X": 1,
         "Y": 0
        },
        "interpolation": 2
       }
      ]
     },
     "scale": 1,
     "scale_x": {
      "Points": [
       {
        "co": {
         "X": 1,
         "Y": 1
        },
        "interpolation": 2
       }
      ]
     },
     "scale_y": {
      "Points": [
       {
        "co": {
         "X": 1,
         "Y": 1
        },
        "interpolation": 2
       }
      ]
     },
     "shear_x": {
      "Points": [
       {
        "co": {
         "X": 1,
         "Y": 0
        },
        "interpolation": 2
       }
      ]
     },
     "shear_y": {
      "Points": [
       {
        "co": {
         "X": 1,
         "Y": 0
        },
        "interpolation": 2
       }
      ]
     },
     "start": 0,
     "time": {
      "Points": [
       {
        "co": {
         "X": 1,
         "Y": 1
        },
        "interpolation": 2
       }
      ]
     },
     "volume": {
      "Points": [
       {
        "co": {
         "X": 1,
         "Y": 1
        },
        "interpolation": 2
       }
      ]
     },
     "wave_color": {
      "alpha": {
       "Points": [
        {
         "co": {
          "X": 1,
          "Y": 255
         },
         "handle_left": {
          "X": 0.5,
          "Y": 1
         },
         "handle_right": {
          "X": 0.5,
          "Y": 0
         },
         "handle_type": 0,
         "interpolation": 0
        }
       ]
      },
      "blue": {
       "Points": [
        {
         "co": {
          "X": 1,
          "Y": 255
         },
         "handle_left": {
          "X": 0.5,
          "Y": 1
         },
         "handle_right": {
          "X": 0.5,
          "Y": 0
         },
         "handle_type": 0,
         "interpolation": 0
        }
       ]
      },
      "green": {
       "Points": [
        {
         "co": {
          "X": 1,
          "Y": 123
         },
         "handle_left": {
          "X": 0.5,
          "Y": 1
         },
         "handle_right": {
          "X": 0.5,
          "Y": 0
         },
         "handle_type": 0,
         "interpolation": 0
        }
       ]
      },
      "red": {
       "Points": [
        {
         "co": {
          "X": 1,
          "Y": 0
         },
         "handle_left": {
          "X": 0.5,
          "Y": 1
         },
         "handle_right": {
          "X": 0.5,
          "Y": 0
         },
         "handle_type": 0,
         "interpolation": 0
        }
       ]
      }
     },
     "waveform": false,
     "file_id": "14XMU5A0GJ",
     "title": "g0.png",
     "image": "thumbnail/14XMU5A0GJ.png",
     "id": "7RK9VP477J"
    }
   },
   {
    "type": "update",
    "key": [
     "effects",
     {
      "id": "MR7DTQUKJH"
     }
    ],
    "value": {
     "position": 40.0
    },
    "partial": false,
    "old_values": {
     "id": "MR7DTQUKJH",
     "layer": 4000000,
     "title": "Transition",
     "type": "Mask",
     "position": 39.0,
     "start": 0,
     "end": 2.0,
     "brightness": {
      "Points": [
       {
        "co": {
         "X": 1,
         "Y": 1
        },
        "handle_left": {
         "X": 0.5,
         "Y": 1
        },
        "handle_right": {
         "X": 0.5,
         "Y": 0
        },
        "handle_type": 0,
        "interpolation": 0
       },
       {
        "co": {
         "X": 50,
         "Y": -1
        },
        "handle_left": {
         "X": 0.5,
         "Y": 1
        },
        "handle_right": {
         "X": 0.5,
         "Y": 0
        },
        "handle_type": 0,
        "interpolation": 0
       }
      ]
     },
     "contrast": {
      "Points": [
       {
        "co": {
         "X": 1,
         "Y": 3
        },
        "interpolation": 2
       }
      ]
     },
     "reader": {
      "acodec": "",
      "audio_bit_rate": 0,
      "audio_stream_index": -1,
      "audio_timebase": {
       "den": 1,
       "num": 1
      },
      "channel_layout": 4,
      "channels": 0,
      "display_ratio": {
       "den": 4,
       "num": 5
      },
      "duration": 3600,
      "file_size": "1658880",
      "fps": {
       "den": 1,
       "num": 30
      },
      "has_audio": false,
      "has_single_image": true,
      "has_video": true,
      "height": 576,
      "interlaced_frame": false,
      "metadata": {},
      "path": "@transitions/common/fade.svg",
      "pixel_format": -1,
      "pixel_ratio": {
       "den": 1,
       "num": 1
      },
      "sample_rate": 0,
      "top_field_first": true,
      "type": "QtImageReader",
      "vcodec": "",
      "video_bit_rate": 0,
      "video_length": "108000",
      "video_stream_index": -1,
      "video_timebase": {
       "den": 30,
       "num": 1
      },
      "width": 720
     },
     "replace_image": false
    }
   },
   {
    "type": "insert",
    "key": [
     "files"
    ],
    "value": {
     "acodec": "",
     "audio_bit_rate": 0,
     "audio_stream_index": -1,
     "audio_timebase": {
      "den": 1,
      "num": 1
     },
     "channel_layout": 4,
     "channels": 0,
     "display_ratio": {
      "den": 9,
      "num": 16
     },
     "duration": 3600,
     "file_size": "8294400",
     "fps": {
      "den": 1,
      "num": 30
     },
     "has_audio": false,
     "has_single_image": true,
     "has_video": true,
     "height": 1080,
     "interlaced_frame": false,
     "metadata": {},
     "path": "./title.svg",
     "pixel_format": -1,
     "pixel_ratio": {
      "den": 1,
      "num": 1
     },
     "sample_rate": 0,
     "top_field_first": true,
     "type": "QtImageReader",
     "vcodec": "",
     "video_bit_rate": 0,
     "video_length": "108000",
     "video_stream_index": -1,
     "video_timebase": {
      "den": 30,
      "num": 1
     },
     "width": 1920,
     "media_type": "image",
     "id": "WSC6UG118N"
    },
    "partial": false,
    "old_values": [
     {
      "acodec": "",
      "audio_bit_rate": 0,
      "audio_stream_index": -1,
      "audio_timebase": {
       "den": 1,
       "num": 1
      },
      "channel_layout": 4,
      "channels": 0,
      "display_ratio": {
       "den": 9,
       "num": 16
      },
      "duration": 73.36000061035156,
      "file_size": "8991315",
      "fps": {
       "den": 1,
       "num": 25
      },
      "has_audio": false,
      "has_single_image": false,
      "has_video": true,
      "height": 720,
      "interlaced_frame": false,
      "metadata": {
       "compatible_brands": "iso6avc1mp41",
       "creation_time": "2013-12-07T02:59:06.000000Z",
       "handler_name": "VideoHandler",
       "language": "und",
       "major_brand": "dash",
       "minor_version": "0"
      },
      "path": "./Airflow across a wing-UqBmdZ-BNig.f136.mp4",
      "pixel_format": 0,
      "pixel_ratio": {
       "den": 1,
       "num": 1
      },
      "sample_rate": 0,
      "top_field_first": true,
      "type": "FFmpegReader",
      "vcodec": "h264",
      "video_bit_rate": 122564,
      "video_length": "1834",
      "video_stream_index": 0,
      "video_timebase": {
       "den": 90000,
       "num": 1
      },
      "width": 1280,
      "media_type": "video",
      "id": "BQRQPYRVSK",
      "image": "thumbnail/BQRQPYRVSK.png"
     },
     {
      "acodec": "",
      "audio_bit_rate": 0,
      "audio_stream_index": -1,
      "audio_timebase": {
       "den": 1,
       "num": 1
      },
      "channel_layout": 4,
      "channels": 0,
      "display_ratio": {
       "den": 374,
       "num": 521
      },
      "duration": 3600,
      "file_size": "12470656",
      "fps": {
       "den": 1,
       "num": 30
      },
      "has_audio": false,
      "has_single_image": true,
      "has_video": true,
      "height": 1496,
      "interlaced_frame": false,
      "metadata": {},
      "path": "generated/h3.png",
      "pixel_format": -1,
      "pixel_ratio": {
       "den": 1,
       "num": 1
      },
      "sample_rate": 0,
      "top_field_first": true,
      "type": "QtImageReader",
      "vcodec": "",
      "video_bit_rate": 0,
      "video_length": "108000",
      "video_stream_index": -1,
      "video_timebase": {
       "den": 30,
       "num": 1
      },
      "width": 2084,
      "media_type": "image",
      "id": "JOU98JSDB6",
      "image": "thumbnail/JOU98JSDB6.png"
     },
     {
      "acodec": "",
      "audio_bit_rate": 0,
      "audio_stream_index": -1,
      "audio_timebase": {
       "den": 1,
       "num": 1
      },
      "channel_layout": 4,
      "channels": 0,
      "display_ratio": {
       "den": 374,
       "num": 521
      },
      "duration": 3600,
      "file_size": "12470656",
      "fps": {
       "den": 1,
       "num": 30
      },
      "has_audio": false,
      "has_single_image": true,
      "has_video": true,
      "height": 1496,
      "interlaced_frame": false,
      "metadata": {},
      "path": "generated/h1.png",
      "pixel_format": -1,
      "pixel_ratio": {
       "den": 1,
       "num": 1
      },
      "sample_rate": 0,
      "top_field_first": true,
      "type": "QtImageReader",
      "vcodec": "",
      "video_bit_rate": 0,
      "video_length": "108000",
      "video_stream_index": -1,
      "video_timebase": {
       "den": 30,
       "num": 1
      },
      "width": 2084,
      "media_type": "image",
      "id": "N9ZVMRMPJO",
      "image": "thumbnail/N9ZVMRMPJO.png"
     },
     {
      "acodec": "",
      "audio_bit_rate": 0,
      "audio_stream_index": -1,
      "audio_timebase": {
       "den": 1,
       "num": 1
      },
      "channel_layout": 4,
      "channels": 0,
      "display_ratio": {
       "den": 374,
       "num": 521
      },
      "duration": 3600,
      "file_size": "12470656",
      "fps": {
       "den": 1,
       "num": 30
      },
      "has_audio": false,
      "has_single_image": true,
      "has_video": true,
      "height": 1496,
      "interlaced_frame": false,
      "metadata": {},
      "path": "generated/h2.png",
      "pixel_format": -1,
      "pixel_ratio": {
       "den": 1,
       "num": 1
      },
      "sample_rate": 0,
      "top_field_first": true,
      "type": "QtImageReader",
      "vcodec": "",
      "video_bit_rate": 0,
      "video_length": "108000",
      "video_stream_index": -1,
      "video_timebase": {
       "den": 30,
       "num": 1
      },
      "width": 2084,
      "media_type": "image",
      "id": "T3MJ00KEDL",
      "image": "thumbnail/T3MJ00KEDL.png"
     },
     {
      "acodec": "",
      "audio_bit_rate": 0,
      "audio_stream_index": -1,
      "audio_timebase": {
       "den": 1,
       "num": 1
      },
      "channel_layout": 4,
      "channels": 0,
      "display_ratio": {
       "den": 9,
       "num": 16
      },
      "duration": 3600,
      "file_size": "8294400",
      "fps": {
       "den": 1,
       "num": 30
      },
      "has_audio": false,
      "has_single_image": true,
      "has_video": true,
      "height": 1080,
      "interlaced_frame": false,
      "metadata": {},
      "path": "./TitleFileName-2.svg",
      "pixel_format": -1,
      "pixel_ratio": {
       "den": 1,
       "num": 1
      },
      "sample_rate": 0,
      "top_field_first": true,
      "type": "QtImageReader",
      "vcodec": "",
      "video_bit_rate": 0,
      "video_length": "108000",
      "video_stream_index": -1,
      "video_timebase": {
       "den": 30,
       "num": 1
      },
      "width": 1920,
      "media_type": "image",
      "id": "3C7NVU4Z23",
      "image": "thumbnail/3C7NVU4Z23.png"
     },
     {
      "acodec": "",
      "audio_bit_rate": 0,
      "audio_stream_index": -1,
      "audio_timebase": {
       "den": 1,
       "num": 1
      },
      "channel_layout": 4,
      "channels": 0,
      "display_ratio": {
       "den": 9,
       "num": 16
      },
      "duration": 3600,
      "file_size": "8294400",
      "fps": {
       "den": 1,
       "num": 30
      },
      "has_audio": false,
      "has_single_image": true,
      "has_video": true,
      "height": 1080,
      "interlaced_frame": false,
      "metadata": {},
      "path": "generated/i3.png",
      "pixel_format": -1,
      "pixel_ratio": {
       "den": 1,
       "num": 1
      },
      "sample_rate": 0,
      "top_field_first": true,
      "type": "QtImageReader",
      "vcodec": "",
      "video_bit_rate": 0,
      "video_length": "108000",
      "video_stream_index": -1,
      "video_timebase": {
       "den": 30,
       "num": 1
      },
      "width": 1920,
      "media_type": "image",
      "id": "K2FDZNO37T",
      "image": "thumbnail/K2FDZNO37T.png"
     },
     {
      "acodec": "",
      "audio_bit_rate": 0,
      "audio_stream_index": -1,
      "audio_timebase": {
       "den": 1,
       "num": 1
      },
      "channel_layout": 4,
      "channels": 0,
      "display_ratio": {
       "den": 9,
       "num": 16
      },
      "duration": 3600,
      "file_size": "8294400",
      "fps": {
       "den": 1,
       "num": 30
      },
      "has_audio": false,
      "has_single_image": true,
      "has_video": true,
      "height": 1080,
      "interlaced_frame": false,
      "metadata": {},
      "path": "generated/i2.png",
      "pixel_format": -1,
      "pixel_ratio": {
       "den": 1,
       "num": 1
      },
      "sample_rate": 0,
      "top_field_first": true,
      "type": "QtImageReader",
      "vcodec": "",
      "video_bit_rate": 0,
      "video_length": "108000",
      "video_stream_index": -1,
      "video_timebase": {
       "den": 30,
       "num": 1
      },
      "width": 1920,
      "media_type": "image",
      "id": "KN2RPS9LTZ",
      "image": "thumbnail/KN2RPS9LTZ.png"
     },
     {
      "acodec": "",
      "audio_bit_rate": 0,
      "audio_stream_index": -1,
      "audio_timebase": {
       "den": 1,
       "num": 1
      },
      "channel_layout": 4,
      "channels": 0,
      "display_ratio": {
       "den": 9,
       "num": 16
      },
      "duration": 3600,
      "file_size": "8294400",
      "fps": {
       "den": 1,
       "num": 30
      },
      "has_audio": false,
      "has_single_image": true,
      "has_video": true,
      "height": 1080,
      "interlaced_frame": false,
      "metadata": {},
      "path": "generated/i1.png",
      "pixel_format": -1,
      "pixel_ratio": {
       "den": 1,
       "num": 1
      },
      "sample_rate": 0,
      "top_field_first": true,
      "type": "QtImageReader",
      "vcodec": "",
      "video_bit_rate": 0,
      "video_length": "108000",
      "video_stream_index": -1,
      "video_timebase": {
       "den": 30,
       "num": 1
      },
      "width": 1920,
      "media_type": "image",
      "id": "9OBXZNQR45",
      "image": "thumbnail/9OBXZNQR45.png"
     },
     {
      "acodec": "",
      "audio_bit_rate": 0,
      "audio_stream_index": -1,
      "audio_timebase": {
       "den": 1,
       "num": 1
      },
      "channel_layout": 4,
      "channels": 0,
      "display_ratio": {
       "den": 9,
       "num": 16
      },
      "duration": 3600,
      "file_size": "8294400",
      "fps": {
       "den": 1,
       "num": 30
      },
      "has_audio": false,
      "has_single_image": true,
      "has_video": true,
      "height": 1080,
      "interlaced_frame": false,
      "metadata": {},
      "path": "generated/i0.png",
      "pixel_format": -1,
      "pixel_ratio": {
       "den": 1,
       "num": 1
      },
      "sample_rate": 0,
      "top_field_first": true,
      "type": "QtImageReader",
      "vcodec": "",
      "video_bit_rate": 0,
      "video_length": "108000",
      "video_stream_index": -1,
      "video_timebase": {
       "den": 30,
       "num": 1
      },
      "width": 1920,
      "media_type": "image",
      "id": "GS0GI0S0DY",
      "image": "thumbnail/GS0GI0S0DY.png"
     },
     {
      "acodec": "",
      "audio_bit_rate": 0,
      "audio_stream_index": -1,
      "audio_timebase": {
       "den": 1,
       "num": 1
      },
      "channel_layout": 4,
      "channels": 0,
      "display_ratio": {
       "den": 9,
       "num": 16
      },
      "duration": 3600,
      "file_size": "8294400",
      "fps": {
       "den": 1,
       "num": 30
      },
      "has_audio": false,
      "has_single_image": true,
      "has_video": true,
      "height": 1080,
      "interlaced_frame": false,
      "metadata": {},
      "path": "generated/g4.png",
      "pixel_format": -1,
      "pixel_ratio": {
       "den": 1,
       "num": 1
      },
      "sample_rate": 0,
      "top_field_first": true,
      "type": "QtImageReader",
      "vcodec": "",
      "video_bit_rate": 0,
      "video_length": "108000",
      "video_stream_index": -1,
      "video_timebase": {
       "den": 30,
       "num": 1
      },
      "width": 1920,
      "media_type": "image",
      "id": "B73V91GBIH",
      "image": "thumbnail/B73V91GBIH.png"
     },
     {
      "acodec": "",
      "audio_bit_rate": 0,
      "audio_stream_index": -1,
      "audio_timebase": {
       "den": 1,
       "num": 1
      },
      "channel_layout": 4,
      "channels": 0,
      "display_ratio": {
       "den": 9,
       "num": 16
      },
      "duration": 3600,
      "file_size": "8294400",
      "fps": {
       "den": 1,
       "num": 30
      },
      "has_audio": false,
      "has_single_image": true,
      "has_video": true,
      "height": 1080,
      "interlaced_frame": false,
      "metadata": {},
      "path": "generated/g3.png",
      "pixel_format": -1,
      "pixel_ratio": {
       "den": 1,
       "num": 1
      },
      "sample_rate": 0,
      "top_field_first": true,
      "type": "QtImageReader",
      "vcodec": "",
      "video_bit_rate": 0,
      "video_length": "108000",
      "video_stream_index": -1,
      "video_timebase": {
       "den": 30,
       "num": 1
      },
      "width": 1920,
      "media_type": "image",
      "id": "NFH7JMUJJU",
      "image": "thumbnail/NFH7JMUJJU.png"
     },
     {
      "acodec": "",
      "audio_bit_rate": 0,
      "audio_stream_index": -1,
      "audio_timebase": {
       "den": 1,
       "num": 1
      },
      "channel_layout": 4,
      "channels": 0,
      "display_ratio": {
       "den": 9,
       "num": 16
      },
      "duration": 3600,
      "file_size": "8294400",
      "fps": {
       "den": 1,
       "num": 30
      },
      "has_audio": false,
      "has_single_image": true,
      "has_video": true,
      "height": 1080,
      "interlaced_frame": false,
      "metadata": {},
      "path": "generated/g2.png",
      "pixel_format": -1,
      "pixel_ratio": {
       "den": 1,
       "num": 1
      },
      "sample_rate": 0,
      "top_field_first": true,
      "type": "QtImageReader",
      "vcodec": "",
      "video_bit_rate": 0,
      "video_length": "108000",
      "video_stream_index": -1,
      "video_timebase": {
       "den": 30,
       "num": 1
      },
      "width": 1920,
      "media_type": "image",
      "id": "30TG8KEIVW",
      "image": "thumbnail/30TG8KEIVW.png"
     },
     {
      "acodec": "",
      "audio_bit_rate": 0,
      "audio_stream_index": -1,
      "audio_timebase": {
       "den": 1,
       "num": 1
      },
      "channel_layout": 4,
      "channels": 0,
      "display_ratio": {
       "den": 9,
       "num": 16
      },
      "duration": 3600,
      "file_size": "8294400",
      "fps": {
       "den": 1,
       "num": 30
      },
      "has_audio": false,
      "has_single_image": true,
      "has_video": true,
      "height": 1080,
      "interlaced_frame": false,
      "metadata": {},
      "path": "generated/g1.png",
      "pixel_format": -1,
      "pixel_ratio": {
       "den": 1,
       "num": 1
      },
      "sample_rate": 0,
      "top_field_first": true,
      "type": "QtImageReader",
      "vcodec": "",
      "video_bit_rate": 0,
      "video_length": "108000",
      "video_stream_index": -1,
      "video_timebase": {
       "den": 30,
       "num": 1
      },
      "width": 1920,
      "media_type": "image",
      "id": "0HEIAFGKHN",
      "image": "thumbnail/0HEIAFGKHN.png"
     },
     {
      "acodec": "",
      "audio_bit_rate": 0,
      "audio_stream_index": -1,
      "audio_timebase": {
       "den": 1,
       "num": 1
      },
      "channel_layout": 4,
      "channels": 0,
      "display_ratio": {
       "den": 9,
       "num": 16
      },
      "duration": 3600,
      "file_size": "8294400",
      "fps": {
       "den": 1,
       "num": 30
      },
      "has_audio": false,
      "has_single_image": true,
      "has_video": true,
      "height": 1080,
      "interlaced_frame": false,
      "metadata": {},
      "path": "generated/g0.png",
      "pixel_format": -1,
      "pixel_ratio": {
       "den": 1,
       "num": 1
      },
      "sample_rate": 0,
      "top_field_first": true,
      "type": "QtImageReader",
      "vcodec": "",
      "video_bit_rate": 0,
      "video_length": "108000",
      "video_stream_index": -1,
      "video_timebase": {
       "den": 30,
       "num": 1
      },
      "width": 1920,
      "media_type": "image",
      "id": "14XMU5A0GJ",
      "image": "thumbnail/14XMU5A0GJ.png"
     },
     {
      "acodec": "",
      "audio_bit_rate": 0,
      "audio_stream_index": -1,
      "audio_timebase": {
       "den": 1,
       "num": 1
      },
      "channel_layout": 4,
      "channels": 0,
      "display_ratio": {
       "den": 9,
       "num": 16
      },
      "duration": 3600,
      "file_size": "8294400",
      "fps": {
       "den": 1,
       "num": 30
      },
      "has_audio": false,
      "has_single_image": true,
      "has_video": true,
      "height": 1080,
      "interlaced_frame": false,
      "metadata": {},
      "path": "generated/h5.png",
      "pixel_format": -1,
      "pixel_ratio": {
       "den": 1,
       "num": 1
      },
      "sample_rate": 0,
      "top_field_first": true,
      "type": "QtImageReader",
      "vcodec": "",
      "video_bit_rate": 0,
      "video_length": "108000",
      "video_stream_index": -1,
      "video_timebase": {
       "den": 30,
       "num": 1
      },
      "width": 1920,
      "media_type": "image",
      "id": "OHTYNJHJ4A",
      "image": "thumbnail/OHTYNJHJ4A.png"
     },
     {
      "acodec": "",
      "audio_bit_rate": 0,
      "audio_stream_index": -1,
      "audio_timebase": {
       "den": 1,
       "num": 1
      },
      "channel_layout": 4,
      "channels": 0,
      "display_ratio": {
       "den": 9,
       "num": 16
      },
      "duration": 3600,
      "file_size": "8294400",
      "fps": {
       "den": 1,
       "num": 30
      },
      "has_audio": false,
      "has_single_image": true,
      "has_video": true,
      "height": 1080,
      "interlaced_frame": false,
      "metadata": {},
      "path": "generated/h4.png",
      "pixel_format": -1,
      "pixel_ratio": {
       "den": 1,
       "num": 1
      },
      "sample_rate": 0,
      "top_field_first": true,
      "type": "QtImageReader",
      "vcodec": "",
      "video_bit_rate": 0,
      "video_length": "108000",
      "video_stream_index": -1,
      "video_timebase": {
       "den": 30,
       "num": 1
      },
      "width": 1920,
      "media_type": "image",
      "id": "CCXO5CQWJF",
      "image": "thumbnail/CCXO5CQWJF.png"
     },
     {
      "acodec": "",
      "audio_bit_rate": 0,
      "audio_stream_index": -1,
      "audio_timebase": {
       "den": 1,
       "num": 1
      },
      "channel_layout": 4,
      "channels": 0,
      "display_ratio": {
       "den": 9,
       "num": 16
      },
      "duration": 3600,
      "file_size": "8294400",
      "fps": {
       "den": 1,
       "num": 30
      },
      "has_audio": false,
      "has_single_image": true,
      "has_video": true,
      "height": 1080,
      "interlaced_frame": false,
      "metadata": {},
      "path": "generated/h0.png",
      "pixel_format": -1,
      "pixel_ratio": {
       "den": 1,
       "num": 1
      },
      "sample_rate": 0,
      "top_field_first": true,
      "type": "QtImageReader",
      "vcodec": "",
      "video_bit_rate": 0,
      "video_length": "108000",
      "video_stream_index": -1,
      "video_timebase": {
       "den": 30,
       "num": 1
      },
      "width": 1920,
      "media_type": "image",
      "id": "QVT1S32TXK",
      "image": "thumbnail/QVT1S32TXK.png"
     },
     {
      "acodec": "pcm_s16le",
      "audio_bit_rate": 705600,
      "audio_stream_index": 0,
      "audio_timebase": {
       "den": 44100,
       "num": 1
      },
      "channel_layout": 4,
      "channels": 1,
      "display_ratio": {
       "den": 1,
       "num": 1
      },
      "duration": 59.67503356933594,
      "file_size": "5263498",
      "fps": {
       "den": 1,
       "num": 24
      },
      "has_audio": true,
      "has_single_image": false,
      "has_video": false,
      "height": 480,
      "interlaced_frame": false,
      "metadata": {
       "artist": "Colin Sindle",
       "date": "2021"
      },
      "path": "./voice_over.wav",
      "pixel_format": -1,
      "pixel_ratio": {
       "den": 1,
       "num": 1
      },
      "sample_rate": 44100,
      "top_field_first": true,
      "type": "FFmpegReader",
      "vcodec": "",
      "video_bit_rate": 0,
      "video_length": "1432",
      "video_stream_index": -1,
      "video_timebase": {
       "den": 24,
       "num": 1
      },
      "width": 720,
      "media_type": "audio",
      "id": "ZD0LJGZUTV",
      "image": "thumbnail/ZD0LJGZUTV.png"
     }
    ]
   },
   {
    "type": "insert",
    "key": [
     "clips"
    ],
    "value": {
     "alpha": {
      "Points": [
       {
        "co": {
         "X": 1,
         "Y": 1
        },
        "interpolation": 2
       }
      ]
     },
     "anchor": 0,
     "channel_filter": {
      "Points": [
       {
        "co": {
         "X": 1,
         "Y": -1
        },
        "interpolation": 2
       }
      ]
     },
     "channel_mapping": {
      "Points": [
       {
        "co": {
         "X": 1,
         "Y": -1
        },
        "interpolation": 2
       }
      ]
     },
     "crop_height": {
      "Points": [
       {
        "co": {
         "X": 1,
         "Y": 1
        },
        "interpolation": 2
       }
      ]
     },
     "crop_width": {
      "Points": [
       {
        "co": {
         "X": 1,
         "Y": 1
        },
        "interpolation": 2
       }
      ]
     },
     "crop_x": {
      "Points": [
       {
        "co": {
         "X": 1,
         "Y": 0
        },
        "interpolation": 2
       }
      ]
     },
     "crop_y": {
      "Points": [
       {
        "co": {
         "X": 1,
         "Y": 0
        },
        "interpolation": 2
       }
      ]
     },
     "display": 0,
     "duration": 3600.0,
     "effects": [],
     "end": 5.0,
     "gravity": 4,
     "has_audio": {
      "Points": [
       {
        "co": {
         "X": 1,
         "Y": -1
        },
        "interpolation": 2
       }
      ]
     },
     "has_video": {
      "Points": [
       {
        "co": {
         "X": 1,
         "Y": -1
        },
        "interpolation": 2
       }
      ]
     },
     "id": "ITFSCWYRL6",
     "layer": 5000000,
     "location_x": {
      "Points": [
       {
        "co": {
         "X": 1,
         "Y": 0
        },
        "interpolation": 2
       }
      ]
     },
     "location_y": {
      "Points": [
       {
        "co": {
         "X": 1,
         "Y": 0
        },
        "interpolation": 2
       }
      ]
     },
     "mixing": 0,
     "perspective_c1_x": {
      "Points": [
       {
        "co": {
         "X": 1,
         "Y": -1
        },
        "interpolation": 2
       }
      ]
     },
     "perspective_c1_y": {
      "Points": [
       {
        "co": {
         "X": 1,
         "Y": -1
        },
        "interpolation": 2
       }
      ]
     },
     "perspective_c2_x": {
      "Points": [
       {
        "co": {
         "X": 1,
         "Y": -1
        },
        "interpolation": 2
       }
      ]
     },
     "perspective_c2_y": {
      "Points": [
       {
        "co": {
         "X": 1,
         "Y": -1
        },
        "interpolation": 2
       }
      ]
     },
     "perspective_c3_x": {
      "Points": [
       {
        "co": {
         "X": 1,
         "Y": -1
        },
        "interpolation": 2
       }
      ]
     },
     "perspective_c3_y": {
      "Points": [
       {
        "co": {
         "X": 1,
         "Y": -1
        },
        "interpolation": 2
       }
      ]
     },
     "perspective_c4_x": {
      "Points": [
       {
        "co": {
         "X": 1,
         "Y": -1
        },
        "interpolation": 2
       }
      ]
     },
     "perspective_c4_y": {
      "Points": [
       {
        "co": {
         "X": 1,
         "Y": -1
        },
        "interpolation": 2
       }
      ]
     },
     "position": 6.0,
     "reader": {
      "acodec": "",
      "audio_bit_rate": 0,
      "audio_stream_index": -1,
      "audio_timebase": {
       "den": 1,
       "num": 1
      },
      "channel_layout": 4,
      "channels": 0,
      "display_ratio": {
       "den": 9,
       "num": 16
      },
      "duration": 3600.0,
      "file_size": "8294400",
      "fps": {
       "den": 1,
       "num": 30
      },
      "has_audio": false,
      "has_single_image": true,
      "has_video": true,
      "height": 1080,
      "interlaced_frame": false,
      "metadata": {},
      "path": "./TitleFileName-2.svg",
      "pixel_format": -1,
      "pixel_ratio": {
       "den": 1,
       "num": 1
      },
      "sample_rate": 0,
      "top_field_first": true,
      "type": "QtImageReader",
      "vcodec": "",
      "video_bit_rate": 0,
      "video_length": "108000",
      "video_stream_index": -1,
      "video_timebase": {
       "den": 30,
       "num": 1
      },
      "width": 1920
     },
     "rotation": {
      "Points": [
       {
        "co": {
         "X": 1,
         "Y": 0
        },
        "interpolation": 2
       }
      ]
     },
     "scale": 1,
     "scale_x": {
      "Points": [
       {
        "co": {
         "X": 1,
         "Y": 1
        },
        "interpolation": 2
       }
      ]
     },
     "scale_y": {
      "Points": [
       {
        "co": {
         "X": 1,
         "Y": 1
        },
        "interpolation": 2
       }
      ]
     },
     "shear_x": {
      "Points": [
       {
        "co": {
         "X": 1,
         "Y": 0
        },
        "interpolation": 2
       }
      ]
     },
     "shear_y": {
      "Points": [
       {
        "co": {
         "X": 1,
         "Y": 0
        },
        "interpolation": 2
       }
      ]
     },
     "start": 0,
     "time": {
      "Points": [
       {
        "co": {
         "X": 1,
         "Y": 1
        },
        "interpolation": 2
       }
      ]
     },
     "volume": {
      "Points": [
       {
        "co": {
         "X": 1,
         "Y": 1
        },
        "interpolation": 2
       }
      ]
     },
     "wave_color": {
      "alpha": {
       "Points": [
        {
         "co": {
          "X": 1,
          "Y": 255
         },
         "handle_left": {
          "X": 0.5,
          "Y": 1
         },
         "handle_right": {
          "X": 0.5,
          "Y": 0
         },
         "handle_type": 0,
         "interpolation": 0
        }
       ]
      },
      "blue": {
       "Points": [
        {
         "co": {
          "X": 1,
          "Y": 255
         },
         "handle_left": {
          "X": 0.5,
          "Y": 1
         },
         "handle_right": {
          "X": 0.5,
          "Y": 0
         },
         "handle_type": 0,
         "interpolation": 0
        }
       ]
      },
      "green": {
       "Points": [
        {
         "co": {
          "X": 1,
          "Y": 123
         },
         "handle_left": {
          "X": 0.5,
          "Y": 1
         },
         "handle_right": {
          "X": 0.5,
          "Y": 0
         },
         "handle_type": 0,
         "interpolation": 0
        }
       ]
      },
      "red": {
       "Points": [
        {
         "co": {
          "X": 1,
          "Y": 0
         },
         "handle_left": {
          "X": 0.5,
          "Y": 1
         },
         "handle_right": {
          "X": 0.5,
          "Y": 0
         },
         "handle_type": 0,
         "interpolation": 0
        }
       ]
      }
     },
     "waveform": false,
     "file_id": "3C7NVU4Z23",
     "title": "TitleFileName-2.svg"
    },
    "partial": false,
    "old_values": [
     {
      "alpha": {
       "Points": [
        {
         "co": {
          "X": 1,
          "Y": 1
         },
         "handle_left": {
          "X": 0.5,
          "Y": 1
         },
         "handle_right": {
          "X": 0.5,
          "Y": 0
         },
         "handle_type": 0,
         "interpolation": 0
        },
        {
         "co": {
          "X": 151,
          "Y": 1
         },
         "handle_left": {
          "X": 0.5,
          "Y": 1
         },
         "handle_right": {
          "X": 0.5,
          "Y": 0
         },
         "handle_type": 0,
         "interpolation": 0
        },
        {
         "co": {
          "X": 176,
          "Y": 0
         },
         "handle_left": {
          "X": 0.5,
          "Y": 1
         },
         "handle_right": {
          "X": 0.5,
          "Y": 0
         },
         "handle_type": 0,
         "interpolation": 0
        }
       ]
      },
      "anchor": 0,
      "channel_filter": {
       "Points": [
        {
         "co": {
          "X": 1,
          "Y": -1
         },
         "interpolation": 2
        }
       ]
      },
      "channel_mapping": {
       "Points": [
        {
         "co": {
          "X": 1,
          "Y": -1
         },
         "interpolation": 2
        }
       ]
      },
      "crop_height": {
       "Points": [
        {
         "co": {
          "X": 1,
          "Y": 1
         },
         "interpolation": 2
        }
       ]
      },
      "crop_width": {
       "Points": [
        {
         "co": {
          "X": 1,
          "Y": 1
         },
         "interpolation": 2
        }
       ]
      },
      "crop_x": {
       "Points": [
        {
         "co": {
          "X": 1,
          "Y": 0
         },
         "interpolation": 2
        }
       ]
      },
      "crop_y": {
       "Points": [
        {
         "co": {
          "X": 1,
          "Y": 0
         },
         "interpolation": 2
        }
       ]
      },
      "display": 0,
      "duration": 73.36000061035156,
      "effects": [],
      "end": 7,
      "gravity": 4,
      "has_audio": {
       "Points": [
        {
         "co": {
          "X": 1,
          "Y": -0.8686131386861313
         },
         "interpolation": 2
        }
       ]
      },
      "has_video": {
       "Points": [
        {
         "co": {
          "X": 1,
          "Y": -1
         },
         "interpolation": 2
        }
       ]
      },
      "id": "5CXUIX8A32",
      "layer": 4000000,
      "location_x": {
       "Points": [
        {
         "co": {
          "X": 1,
          "Y": 0.032258064516129004
         },
         "interpolation": 2
        }
       ]
      },
      "location_y": {
       "Points": [
        {
         "co": {
          "X": 1,
          "Y": -0.05069124423963134
         },
         "interpolation": 2
        }
       ]
      },
      "mixing": 0,
      "perspective_c1_x": {
       "Points": [
        {
         "co": {
          "X": 1,
          "Y": -1
         },
         "interpolation": 2
        }
       ]
      },
      "perspective_c1_y": {
       "Points": [
        {
         "co": {
          "X": 1,
          "Y": -1
         },
         "interpolation": 2
        }
       ]
      },
      "perspective_c2_x": {
       "Points": [
        {
         "co": {
          "X": 1,
          "Y": -1
         },
         "interpolation": 2
        }
       ]
      },
      "perspective_c2_y": {
       "Points": [
        {
         "co": {
          "X": 1,
          "Y": -1
         },
         "interpolation": 2
        }
       ]
      },
      "perspective_c3_x": {
       "Points": [
        {
         "co": {
          "X": 1,
          "Y": -1
         },
         "interpolation": 2
        }
       ]
      },
      "perspective_c3_y": {
       "Points": [
        {
         "co": {
          "X": 1,
          "Y": -1
         },
         "interpolation": 2
        }
       ]
      },
      "perspective_c4_x": {
       "Points": [
        {
         "co": {
          "X": 1,
          "Y": -1
         },
         "interpolation": 2
        }
       ]
      },
      "perspective_c4_y": {
       "Points": [
        {
         "co": {
          "X": 1,
          "Y": -1
         },
         "interpolation": 2
        }
       ]
      },
      "position": 0,
      "reader": {
       "acodec": "",
       "audio_bit_rate": 0,
       "audio_stream_index": -1,
       "audio_timebase": {
        "den": 1,
        "num": 1
       },
       "channel_layout": 4,
       "channels": 0,
       "display_ratio": {
        "den": 9,
        "num": 16
       },
       "duration": 73.36000061035156,
       "file_size": "8991315",
       "fps": {
        "den": 1,
        "num": 25
       },
       "has_audio": false,
       "has_single_image": false,
       "has_video": true,
       "height": 720,
       "interlaced_frame": false,
       "metadata": {
        "compatible_brands": "iso6avc1mp41",
        "creation_time": "2013-12-07T02:59:06.000000Z",
        "handler_name": "VideoHandler",
        "language": "und",
        "major_brand": "dash",
        "minor_version": "0"
       },
       "path": "./Airflow across a wing-UqBmdZ-BNig.f136.mp4",
       "pixel_format": 0,
       "pixel_ratio": {
        "den": 1,
        "num": 1
       },
       "sample_rate": 0,
       "top_field_first": true,
       "type": "FFmpegReader",
       "vcodec": "h264",
       "video_bit_rate": 122564,
       "video_length": "1834",
       "video_stream_index": 0,
       "video_timebase": {
        "den": 90000,
        "num": 1
       },
       "width": 1280
      },
      "rotation": {
       "Points": [
        {
         "co": {
          "X": 1,
          "Y": 0
         },
         "interpolation": 2
        }
       ]
      },
      "scale": 1,
      "scale_x": {
       "Points": [
        {
         "co": {
          "X": 1,
          "Y": 1.5
         },
         "interpolation": 0
        }
       ]
      },
      "scale_y": {
       "Points": [
        {
         "co": {
          "X": 1,
          "Y": 1.3015267175572518
         },
         "interpolation": 0
        }
       ]
      },
      "shear_x": {
       "Points": [
        {
         "co": {
          "X": 1,
          "Y": 0.0
         },
         "interpolation": 2
        }
       ]
      },
      "shear_y": {
       "Points": [
        {
         "co": {
          "X": 1,
          "Y": 0
         },
         "interpolation": 2
        }
       ]
      },
      "start": 0,
      "time": {
       "Points": [
        {
         "co": {
          "X": 1,
          "Y": 1
         },
         "interpolation": 2
        }
       ]
      },
      "volume": {
       "Points": [
        {
         "co": {
          "X": 1,
          "Y": 0.0
         },
         "interpolation": 2
        }
       ]
      },
      "wave_color": {
       "alpha": {
        "Points": [
         {
          "co": {
           "X": 1,
           "Y": 255
          },
          "handle_left": {
           "X": 0.5,
           "Y": 1
          },
          "handle_right": {
           "X": 0.5,
           "Y": 0
          },
          "handle_type": 0,
          "interpolation": 0
         }
        ]
       },
       "blue": {
        "Points": [
         {
          "co": {
           "X": 1,
           "Y": 255
          },
          "handle_left": {
           "X": 0.5,
           "Y": 1
          },
          "handle_right": {
           "X": 0.5,
           "Y": 0
          },
          "handle_type": 0,
          "interpolation": 0
         }
        ]
       },
       "green": {
        "Points": [
         {
          "co": {
           "X": 1,
           "Y": 123
          },
          "handle_left": {
           "X": 0.5,
           "Y": 1
          },
          "handle_right": {
           "X": 0.5,
           "Y": 0
          },
          "handle_type": 0,
          "interpolation": 0
         }
        ]
       },
       "red": {
        "Points": [
         {
          "co": {
           "X": 1,
           "Y": 0
          },
          "handle_left": {
           "X": 0.5,
           "Y": 1
          },
          "handle_right": {
           "X": 0.5,
           "Y": 0
          },
          "handle_type": 0,
          "interpolation": 0
         }
        ]
       }
      },
      "waveform": false,
      "file_id": "BQRQPYRVSK",
      "title": "Airflow across a wing-UqBmdZ-BNig.f136.mp4",
      "image": "thumbnail/BQRQPYRVSK.png"
     },
     {
      "alpha": {
       "Points": [
        {
         "co": {
          "X": 1,
          "Y": 1
         },
         "interpolation": 2
        }
       ]
      },
      "anchor": 0,
      "channel_filter": {
       "Points": [
        {
         "co": {
          "X": 1,
          "Y": -1
         },
         "interpolation": 2
        }
       ]
      },
      "channel_mapping": {
       "Points": [
        {
         "co": {
          "X": 1,
          "Y": -1
         },
         "interpolation": 2
        }
       ]
      },
      "crop_height": {
       "Points": [
        {
         "co": {
          "X": 1,
          "Y": 1
         },
         "interpolation": 2
        }
       ]
      },
      "crop_width": {
       "Points": [
        {
         "co": {
          "X": 1,
          "Y": 1
         },
         "interpolation": 2
        }
       ]
      },
      "crop_x": {
       "Points": [
        {
         "co": {
          "X": 1,
          "Y": 0
         },
         "interpolation": 2
        }
       ]
      },
      "crop_y": {
       "Points": [
        {
         "co": {
          "X": 1,
          "Y": 0
         },
         "interpolation": 2
        }
       ]
      },
      "display": 0,
      "duration": 3600.0,
      "effects": [],
      "end": 5,
      "gravity": 4,
      "has_audio": {
       "Points": [
        {
         "co": {
          "X": 1,
          "Y": -1
         },
         "interpolation": 2
        }
       ]
      },
      "has_video": {
       "Points": [
        {
         "co": {
          "X": 1,
          "Y": -1
         },
         "interpolation": 2
        }
       ]
      },
      "id": "XN0KMVOEKN",
      "layer": 5000000,
      "location_x": {
       "Points": [
        {
         "co": {
          "X": 1,
          "Y": 0
         },
         "interpolation": 2
        }
       ]
      },
      "location_y": {
       "Points": [
        {
         "co": {
          "X": 1,
          "Y": 0
         },
         "interpolation": 2
        }
       ]
      },
      "mixing": 0,
      "perspective_c1_x": {
       "Points": [
        {
         "co": {
          "X": 1,
          "Y": -1
         },
         "interpolation": 2
        }
       ]
      },
      "perspective_c1_y": {
       "Points": [
        {
         "co": {
          "X": 1,
          "Y": -1
         },
         "interpolation": 2
        }
       ]
      },
      "perspective_c2_x": {
       "Points": [
        {
         "co": {
          "X": 1,
          "Y": -1
         },
         "interpolation": 2
        }
       ]
      },
      "perspective_c2_y": {
       "Points": [
        {
         "co": {
          "X": 1,
          "Y": -1
         },
         "interpolation": 2
        }
       ]
      },
      "perspective_c3_x": {
       "Points": [
        {
         "co": {
          "X": 1,
          "Y": -1
         },
         "interpolation": 2
        }
       ]
      },
      "perspective_c3_y": {
       "Points": [
        {
         "co": {
          "X": 1,
          "Y": -1
         },
         "interpolation": 2
        }
       ]
      },
      "perspective_c4_x": {
       "Points": [
        {
         "co": {
          "X": 1,
          "Y": -1
         },
         "interpolation": 2
        }
       ]
      },
      "perspective_c4_y": {
       "Points": [
        {
         "co": {
          "X": 1,
          "Y": -1
         },
         "interpolation": 2
        }
       ]
      },
      "position": 0,
      "reader": {
       "acodec": "",
       "audio_bit_rate": 0,
       "audio_stream_index": -1,
       "audio_timebase": {
        "den": 1,
        "num": 1
       },
       "channel_layout": 4,
       "channels": 0,
       "display_ratio": {
        "den": 9,
        "num": 16
       },
       "duration": 3600.0,
       "file_size": "8294400",
       "fps": {
        "den": 1,
        "num": 30
       },
       "has_audio": false,
       "has_single_image": true,
       "has_video": true,
       "height": 1080,
       "interlaced_frame": false,
       "metadata": {},
       "path": "./TitleFileName-2.svg",
       "pixel_format": -1,
       "pixel_ratio": {
        "den": 1,
        "num": 1
       },
       "sample_rate": 0,
       "top_field_first": true,
       "type": "QtImageReader",
       "vcodec": "",
       "video_bit_rate": 0,
       "video_length": "108000",
       "video_stream_index": -1,
       "video_timebase": {
        "den": 30,
        "num": 1
       },
       "width": 1920
      },
      "rotation": {
       "Points": [
        {
         "co": {
          "X": 1,
          "Y": 0
         },
         "interpolation": 2
        }
       ]
      },
      "scale": 1,
      "scale_x": {
       "Points": [
        {
         "co": {
          "X": 1,
          "Y": 1
         },
         "interpolation": 2
        }
       ]
      },
      "scale_y": {
       "Points": [
        {
         "co": {
          "X": 1,
          "Y": 1
         },
         "interpolation": 2
        }
       ]
      },
      "shear_x": {
       "Points": [
        {
         "co": {
          "X": 1,
          "Y": 0
         },
         "interpolation": 2
        }
       ]
      },
      "shear_y": {
       "Points": [
        {
         "co": {
          "X": 1,
          "Y": 0
         },
         "interpolation": 2
        }
       ]
      },
      "start": 0,
      "time": {
       "Points": [
        {
         "co": {
          "X": 1,
          "Y": 1
         },
         "interpolation": 2
        }
       ]
      },
      "volume": {
       "Points": [
        {
         "co": {
          "X": 1,
          "Y": 1
         },
         "interpolation": 2
        }
       ]
      },
      "wave_color": {
       "alpha": {
        "Points": [
         {
          "co": {
           "X": 1,
           "Y": 255
          },
          "handle_left": {
           "X": 0.5,
           "Y": 1
          },
          "handle_right": {
           "X": 0.5,
           "Y": 0
          },
          "handle_type": 0,
          "interpolation": 0
         }
        ]
       },
       "blue": {
        "Points": [
         {
          "co": {
           "X": 1,
           "Y": 255
          },
          "handle_left": {
           "X": 0.5,
           "Y": 1
          },
          "handle_right": {
           "X": 0.5,
           "Y": 0
          },
          "handle_type": 0,
          "interpolation": 0
         }
        ]
       },
       "green": {
        "Points": [
         {
          "co": {
           "X": 1,
           "Y": 123
          },
          "handle_left": {
           "X": 0.5,
           "Y": 1
          },
          "handle_right": {
           "X": 0.5,
           "Y": 0
          },
          "handle_type": 0,
          "interpolation": 0
         }
        ]
       },
       "red": {
        "Points": [
         {
          "co": {
           "X": 1,
           "Y": 0
          },
          "handle_left": {
           "X": 0.5,
           "Y": 1
          },
          "handle_right": {
           "X": 0.5,
           "Y": 0
          },
          "handle_type": 0,
          "interpolation": 0
         }
        ]
       }
      },
      "waveform": false,
      "file_id": "3C7NVU4Z23",
      "title": "TitleFileName-2.svg",
      "image": "thumbnail/3C7NVU4Z23.png"
     },
     {
      "alpha": {
       "Points": [
        {
         "co": {
          "X": 1,
          "Y": 1
         },
         "interpolation": 2
        }
       ]
      },
      "anchor": 0,
      "channel_filter": {
       "Points": [
        {
         "co": {
          "X": 1,
          "Y": -1
         },
         "interpolation": 2
        }
       ]
      },
      "channel_mapping": {
       "Points": [
        {
         "co": {
          "X": 1,
          "Y": -1
         },
         "interpolation": 2
        }
       ]
      },
      "crop_height": {
       "Points": [
        {
         "co": {
          "X": 1,
          "Y": 1
         },
         "interpolation": 2
        }
       ]
      },
      "crop_width": {
       "Points": [
        {
         "co": {
          "X": 1,
          "Y": 1
         },
         "interpolation": 2
        }
       ]
      },
      "crop_x": {
       "Points": [
        {
         "co": {
          "X": 1,
          "Y": 0
         },
         "interpolation": 2
        }
       ]
      },
      "crop_y": {
       "Points": [
        {
         "co": {
          "X": 1,
          "Y": 0
         },
         "interpolation": 2
        }
       ]
      },
      "display": 0,
      "duration": 3600.0,
      "effects": [],
      "end": 3,
      "gravity": 4,
      "has_audio": {
       "Points": [
        {
         "co": {
          "X": 1,
          "Y": -1
         },
         "interpolation": 2
        }
       ]
      },
      "has_video": {
       "Points": [
        {
         "co": {
          "X": 1,
          "Y": -1
         },
         "interpolation": 2
        }
       ]
      },
      "id": "TRGEWM93I8",
      "layer": 4000000,
      "location_x": {
       "Points": [
        {
         "co": {
          "X": 1,
          "Y": 0
         },
         "interpolation": 2
        }
       ]
      },
      "location_y": {
       "Points": [
        {
         "co": {
          "X": 1,
          "Y": 0
         },
         "interpolation": 2
        }
       ]
      },
      "mixing": 0,
      "perspective_c1_x": {
       "Points": [
        {
         "co": {
          "X": 1,
          "Y": -1
         },
         "interpolation": 2
        }
       ]
      },
      "perspective_c1_y": {
       "Points": [
        {
         "co": {
          "X": 1,
          "Y": -1
         },
         "interpolation": 2
        }
       ]
      },
      "perspective_c2_x": {
       "Points": [
        {
         "co": {
          "X": 1,
          "Y": -1
         },
         "interpolation": 2
        }
       ]
      },
      "perspective_c2_y": {
       "Points": [
        {
         "co": {
          "X": 1,
          "Y": -1
         },
         "interpolation": 2
        }
       ]
      },
      "perspective_c3_x": {
       "Points": [
        {
         "co": {
          "X": 1,
          "Y": -1
         },
         "interpolation": 2
        }
       ]
      },
      "perspective_c3_y": {
       "Points": [
        {
         "co": {
          "X": 1,
          "Y": -1
         },
         "interpolation": 2
        }
       ]
      },
      "perspective_c4_x": {
       "Points": [
        {
         "co": {
          "X": 1,
          "Y": -1
         },
         "interpolation": 2
        }
       ]
      },
      "perspective_c4_y": {
       "Points": [
        {
         "co": {
          "X": 1,
          "Y": -1
         },
         "interpolation": 2
        }
       ]
      },
      "position": 6,
      "reader": {
       "acodec": "",
       "audio_bit_rate": 0,
       "audio_stream_index": -1,
       "audio_timebase": {
        "den": 1,
        "num": 1
       },
       "channel_layout": 4,
       "channels": 0,
       "display_ratio": {
        "den": 9,
        "num": 16
       },
       "duration": 3600.0,
       "file_size": "8294400",
       "fps": {
        "den": 1,
        "num": 30
       },
       "has_audio": false,
       "has_single_image": true,
       "has_video": true,
       "height": 1080,
       "interlaced_frame": false,
       "metadata": {},
       "path": "generated/g0.png",
       "pixel_format": -1,
       "pixel_ratio": {
        "den": 1,
        "num": 1
       },
       "sample_rate": 0,
       "top_field_first": true,
       "type": "QtImageReader",
       "vcodec": "",
       "video_bit_rate": 0,
       "video_length": "108000",
       "video_stream_index": -1,
       "video_timebase": {
        "den": 30,
        "num": 1
       },
       "width": 1920
      },
      "rotation": {
       "Points": [
        {
         "co": {
          "X": 1,
          "Y": 0
         },
         "interpolation": 2
        }
       ]
      },
      "scale": 1,
      "scale_x": {
       "Points": [
        {
         "co": {
          "X": 1,
          "Y": 1
         },
         "interpolation": 2
        }
       ]
      },
      "scale_y": {
       "Points": [
        {
         "co": {
          "X": 1,
          "Y": 1
         },
         "interpolation": 2
        }
       ]
      },
      "shear_x": {
       "Points": [
        {
         "co": {
          "X": 1,
          "Y": 0
         },
         "interpolation": 2
        }
       ]
      },
      "shear_y": {
       "Points": [
        {
         "co": {
          "X": 1,
          "Y": 0
         },
         "interpolation": 2
        }
       ]
      },
      "start": 0,
      "time": {
       "Points": [
        {
         "co": {
          "X": 1,
          "Y": 1
         },
         "interpolation": 2
        }
       ]
      },
      "volume": {
       "Points": [
        {
         "co": {
          "X": 1,
          "Y": 1
         },
         "interpolation": 2
        }
       ]
      },
      "wave_color": {
       "alpha": {
        "Points": [
         {
          "co": {
           "X": 1,
           "Y": 255
          },
          "handle_left": {
           "X": 0.5,
           "Y": 1
          },
          "handle_right": {
           "X": 0.5,
           "Y": 0
          },
          "handle_type": 0,
          "interpolation": 0
         }
        ]
       },
       "blue": {
        "Points": [
         {
          "co": {
           "X": 1,
           "Y": 255
          },
          "handle_left": {
           "X": 0.5,
           "Y": 1
          },
          "handle_right": {
           "X": 0.5,
           "Y": 0
          },
          "handle_type": 0,
          "interpolation": 0
         }
        ]
       },
       "green": {
        "Points": [
         {
          "co": {
           "X": 1,
           "Y": 123
          },
          "handle_left": {
           "X": 0.5,
           "Y": 1
          },
          "handle_right": {
           "X": 0.5,
           "Y": 0
          },
          "handle_type": 0,
          "interpolation": 0
         }
        ]
       },
       "red": {
        "Points": [
         {
          "co": {
           "X": 1,
           "Y": 0
          },
          "handle_left": {
           "X": 0.5,
           "Y": 1
          },
          "handle_right": {
           "X": 0.5,
           "Y": 0
          },
          "handle_type": 0,
          "interpolation": 0
         }
        ]
       }
      },
      "waveform": false,
      "file_id": "14XMU5A0GJ",
      "title": "g0.png",
      "image": "thumbnail/14XMU5A0GJ.png"
     },
     {
      "alpha": {
       "Points": [
        {
         "co": {
          "X": 1,
          "Y": 1
         },
         "interpolation": 2
        }
       ]
      },
      "anchor": 0,
      "channel_filter": {
       "Points": [
        {
         "co": {
          "X": 1,
          "Y": -1
         },
         "interpolation": 2
        }
       ]
      },
      "channel_mapping": {
       "Points": [
        {
         "co": {
          "X": 1,
          "Y": -1
         },
         "interpolation": 2
        }
       ]
      },
      "crop_height": {
       "Points": [
        {
         "co": {
          "X": 1,
          "Y": 1
         },
         "interpolation": 2
        }
       ]
      },
      "crop_width": {
       "Points": [
        {
         "co": {
          "X": 1,
          "Y": 1
         },
         "interpolation": 2
        }
       ]
      },
      "crop_x": {
       "Points": [
        {
         "co": {
          "X": 1,
          "Y": 0
         },
         "interpolation": 2
        }
       ]
      },
      "crop_y": {
       "Points": [
        {
         "co": {
          "X": 1,
          "Y": 0
         },
         "interpolation": 2
        }
       ]
      },
      "display": 0,
      "duration": 3600.0,
      "effects": [],
      "end": 3,
      "gravity": 4,
      "has_audio": {
       "Points": [
        {
         "co": {
          "X": 1,
          "Y": -1
         },
         "interpolation": 2
        }
       ]
      },
      "has_video": {
       "Points": [
        {
         "co": {
          "X": 1,
          "Y": -1
         },
         "interpolation": 2
        }
       ]
      },
      "id": "PP95N7ZUS4",
      "layer": 4000000,
      "location_x": {
       "Points": [
        {
         "co": {
          "X": 1,
          "Y": 0
         },
         "interpolation": 2
        }
       ]
      },
      "location_y": {
       "Points": [
        {
         "co": {
          "X": 1,
          "Y": 0
         },
         "interpolation": 2
        }
       ]
      },
      "mixing": 0,
      "perspective_c1_x": {
       "Points": [
        {
         "co": {
          "X": 1,
          "Y": -1
         },
         "interpolation": 2
        }
       ]
      },
      "perspective_c1_y": {
       "Points": [
        {
         "co": {
          "X": 1,
          "Y": -1
         },
         "interpolation": 2
        }
       ]
      },
      "perspective_c2_x": {
       "Points": [
        {
         "co": {
          "X": 1,
          "Y": -1
         },
         "interpolation": 2
        }
       ]
      },
      "perspective_c2_y": {
       "Points": [
        {
         "co": {
          "X": 1,
          "Y": -1
         },
         "interpolation": 2
        }
       ]
      },
      "perspective_c3_x": {
       "Points": [
        {
         "co": {
          "X": 1,
          "Y": -1
         },
         "interpolation": 2
        }
       ]
      },
      "perspective_c3_y": {
       "Points": [
        {
         "co": {
          "X": 1,
          "Y": -1
         },
         "interpolation": 2
        }
       ]
      },
      "perspective_c4_x": {
       "Points": [
        {
         "co": {
          "X": 1,
          "Y": -1
         },
         "interpolation": 2
        }
       ]
      },
      "perspective_c4_y": {
       "Points": [
        {
         "co": {
          "X": 1,
          "Y": -1
         },
         "interpolation": 2
        }
       ]
      },
      "position": 8,
      "reader": {
       "acodec": "",
       "audio_bit_rate": 0,
       "audio_stream_index": -1,
       "audio_timebase": {
        "den": 1,
        "num": 1
       },
       "channel_layout": 4,
       "channels": 0,
       "display_ratio": {
        "den": 9,
        "num": 16
       },
       "duration": 3600.0,
       "file_size": "8294400",
       "fps": {
        "den": 1,
        "num": 30
       },
       "has_audio": false,
       "has_single_image": true,
       "has_video": true,
       "height": 1080,
       "interlaced_frame": false,
       "metadata": {},
       "path": "generated/g1.png",
       "pixel_format": -1,
       "pixel_ratio": {
        "den": 1,
        "num": 1
       },
       "sample_rate": 0,
       "top_field_first": true,
       "type": "QtImageReader",
       "vcodec": "",
       "video_bit_rate": 0,
       "video_length": "108000",
       "video_stream_index": -1,
       "video_timebase": {
        "den": 30,
        "num": 1
       },
       "width": 1920
      },
      "rotation": {
       "Points": [
        {
         "co": {
          "X": 1,
          "Y": 0
         },
         "interpolation": 2
        }
       ]
      },
      "scale": 1,
      "scale_x": {
       "Points": [
        {
         "co": {
          "X": 1,
          "Y": 1
         },
         "interpolation": 2
        }
       ]
      },
      "scale_y": {
       "Points": [
        {
         "co": {
          "X": 1,
          "Y": 1
         },
         "interpolation": 2
        }
       ]
      },
      "shear_x": {
       "Points": [
        {
         "co": {
          "X": 1,
          "Y": 0
         },
         "interpolation": 2
        }
       ]
      },
      "shear_y": {
       "Points": [
        {
         "co": {
          "X": 1,
          "Y": 0
         },
         "interpolation": 2
        }
       ]
      },
      "start": 0,
      "time": {
       "Points": [
        {
         "co": {
          "X": 1,
          "Y": 1
         },
         "interpolation": 2
        }
       ]
      },
      "volume": {
       "Points": [
        {
         "co": {
          "X": 1,
          "Y": 1
         },
         "interpolation": 2
        }
       ]
      },
      "wave_color": {
       "alpha": {
        "Points": [
         {
          "co": {
           "X": 1,
           "Y": 255
          },
          "handle_left": {
           "X": 0.5,
           "Y": 1
          },
          "handle_right": {
           "X": 0.5,
           "Y": 0
          },
          "handle_type": 0,
          "interpolation": 0
         }
        ]
       },
       "blue": {
        "Points": [
         {
          "co": {
           "X": 1,
           "Y": 255
          },
          "handle_left": {
           "X": 0.5,
           "Y": 1
          },
          "handle_right": {
           "X": 0.5,
           "Y": 0
          },
          "handle_type": 0,
          "interpolation": 0
         }
        ]
       },
       "green": {
        "Points": [
         {
          "co": {
           "X": 1,
           "Y": 123
          },
          "handle_left": {
           "X": 0.5,
           "Y": 1
          },
          "handle_right": {
           "X": 0.5,
           "Y": 0
          },
          "handle_type": 0,
          "interpolation": 0
         }
        ]
       },
       "red": {
        "Points": [
         {
          "co": {
           "X": 1,
           "Y": 0
          },
          "handle_left": {
           "X": 0.5,
           "Y": 1
          },
          "handle_right": {
           "X": 0.5,
           "Y": 0
          },
          "handle_type": 0,
          "interpolation": 0
         }
        ]
       }
      },
      "waveform": false,
      "file_id": "0HEIAFGKHN",
      "title": "g1.png",
      "image": "thumbnail/0HEIAFGKHN.png"
     },
     {
      "alpha": {
       "Points": [
        {
         "co": {
          "X": 1,
          "Y": 1
         },
         "interpolation": 2
        }
       ]
      },
      "anchor": 0,
      "channel_filter": {
       "Points": [
        {
         "co": {
          "X": 1,
          "Y": -1
         },
         "interpolation": 2
        }
       ]
      },
      "channel_mapping": {
       "Points": [
        {
         "co": {
          "X": 1,
          "Y": -1
         },
         "interpolation": 2
        }
       ]
      },
      "crop_height": {
       "Points": [
        {
         "co": {
          "X": 1,
          "Y": 1
         },
         "interpolation": 2
        }
       ]
      },
      "crop_width": {
       "Points": [
        {
         "co": {
          "X": 1,
          "Y": 1
         },
         "interpolation": 2
        }
       ]
      },
      "crop_x": {
       "Points": [
        {
         "co": {
          "X": 1,
          "Y": 0
         },
         "interpolation": 2
        }
       ]
      },
      "crop_y": {
       "Points": [
        {
         "co": {
          "X": 1,
          "Y": 0
         },
         "interpolation": 2
        }
       ]
      },
      "display": 0,
      "duration": 3600.0,
      "effects": [],
      "end": 3,
      "gravity": 4,
      "has_audio": {
       "Points": [
        {
         "co": {
          "X": 1,
          "Y": -1
         },
         "interpolation": 2
        }
       ]
      },
      "has_video": {
       "Points": [
        {
         "co": {
          "X": 1,
          "Y": -1
         },
         "interpolation": 2
        }
       ]
      },
      "id": "6SHW9SUNDG",
      "layer": 4000000,
      "location_x": {
       "Points": [
        {
         "co": {
          "X": 1,
          "Y": 0
         },
         "interpolation": 2
        }
       ]
      },
      "location_y": {
       "Points": [
        {
         "co": {
          "X": 1,
          "Y": 0
         },
         "interpolation": 2
        }
       ]
      },
      "mixing": 0,
      "perspective_c1_x": {
       "Points": [
        {
         "co": {
          "X": 1,
          "Y": -1
         },
         "interpolation": 2
        }
       ]
      },
      "perspective_c1_y": {
       "Points": [
        {
         "co": {
          "X": 1,
          "Y": -1
         },
         "interpolation": 2
        }
       ]
      },
      "perspective_c2_x": {
       "Points": [
        {
         "co": {
          "X": 1,
          "Y": -1
         },
         "interpolation": 2
        }
       ]
      },
      "perspective_c2_y": {
       "Points": [
        {
         "co": {
          "X": 1,
          "Y": -1
         },
         "interpolation": 2
        }
       ]
      },
      "perspective_c3_x": {
       "Points": [
        {
         "co": {
          "X": 1,
          "Y": -1
         },
         "interpolation": 2
        }
       ]
      },
      "perspective_c3_y": {
       "Points": [
        {
         "co": {
          "X": 1,
          "Y": -1
         },
         "interpolation": 2
        }
       ]
      },
      "perspective_c4_x": {
       "Points": [
        {
         "co": {
          "X": 1,
          "Y": -1
         },
         "interpolation": 2
        }
       ]
      },
      "perspective_c4_y": {
       "Points": [
        {
         "co": {
          "X": 1,
          "Y": -1
         },
         "interpolation": 2
        }
       ]
      },
      "position": 10,
      "reader": {
       "acodec": "",
       "audio_bit_rate": 0,
       "audio_stream_index": -1,
       "audio_timebase": {
        "den": 1,
        "num": 1
       },
       "channel_layout": 4,
       "channels": 0,
       "display_ratio": {
        "den": 9,
        "num": 16
       },
       "duration": 3600.0,
       "file_size": "8294400",
       "fps": {
        "den": 1,
        "num": 30
       },
       "has_audio": false,
       "has_single_image": true,
       "has_video": true,
       "height": 1080,
       "interlaced_frame": false,
       "metadata": {},
       "path": "generated/g2.png",
       "pixel_format": -1,
       "pixel_ratio": {
        "den": 1,
        "num": 1
       },
       "sample_rate": 0,
       "top_field_first": true,
       "type": "QtImageReader",
       "vcodec": "",
       "video_bit_rate": 0,
       "video_length": "108000",
       "video_stream_index": -1,
       "video_timebase": {
        "den": 30,
        "num": 1
       },
       "width": 1920
      },
      "rotation": {
       "Points": [
        {
         "co": {
          "X": 1,
          "Y": 0
         },
         "interpolation": 2
        }
       ]
      },
      "scale": 1,
      "scale_x": {
       "Points": [
        {
         "co": {
          "X": 1,
          "Y": 1
         },
         "interpolation": 2
        }
       ]
      },
      "scale_y": {
       "Points": [
        {
         "co": {
          "X": 1,
          "Y": 1
         },
         "interpolation": 2
        }
       ]
      },
      "shear_x": {
       "Points": [
        {
         "co": {
          "X": 1,
          "Y": 0
         },
         "interpolation": 2
        }
       ]
      },
      "shear_y": {
       "Points": [
        {
         "co": {
          "X": 1,
          "Y": 0
         },
         "interpolation": 2
        }
       ]
      },
      "start": 0,
      "time": {
       "Points": [
        {
         "co": {
          "X": 1,
          "Y": 1
         },
         "interpolation": 2
        }
       ]
      },
      "volume": {
       "Points": [
        {
         "co": {
          "X": 1,
          "Y": 1
         },
         "interpolation": 2
        }
       ]
      },
      "wave_color": {
       "alpha": {
        "Points": [
         {
          "co": {
           "X": 1,
           "Y": 255
          },
          "handle_left": {
           "X": 0.5,
           "Y": 1
          },
          "handle_right": {
           "X": 0.5,
           "Y": 0
          },
          "handle_type": 0,
          "interpolation": 0
         }
        ]
       },
       "blue": {
        "Points": [
         {
          "co": {
           "X": 1,
           "Y": 255
          },
          "handle_left": {
           "X": 0.5,
           "Y": 1
          },
          "handle_right": {
           "X": 0.5,
           "Y": 0
          },
          "handle_type": 0,
          "interpolation": 0
         }
        ]
       },
       "green": {
        "Points": [
         {
          "co": {
           "X": 1,
           "Y": 123
          },
          "handle_left": {
           "X": 0.5,
           "Y": 1
          },
          "handle_right": {
           "X": 0.5,
           "Y": 0
          },
          "handle_type": 0,
          "interpolation": 0
         }
        ]
       },
       "red": {
        "Points": [
         {
          "co": {
           "X": 1,
           "Y": 0
          },
          "handle_left": {
           "X": 0.5,
           "Y": 1
          },
          "handle_right": {
           "X": 0.5,
           "Y": 0
          },
          "handle_type": 0,
          "interpolation": 0
         }
        ]
       }
      },
      "waveform": false,
      "file_id": "30TG8KEIVW",
      "title": "g2.png",
      "image": "thumbnail/30TG8KEIVW.png"
     },
     {
      "alpha": {
       "Points": [
        {
         "co": {
          "X": 1,
          "Y": 1
         },
         "interpolation": 2
        }
       ]
      },
      "anchor": 0,
      "channel_filter": {
       "Points": [
        {
         "co": {
          "X": 1,
          "Y": -1
         },
         "interpolation": 2
        }
       ]
      },
      "channel_mapping": {
       "Points": [
        {
         "co": {
          "X": 1,
          "Y": -1
         },
         "interpolation": 2
        }
       ]
      },
      "crop_height": {
       "Points": [
        {
         "co": {
          "X": 1,
          "Y": 1
         },
         "interpolation": 2
        }
       ]
      },
      "crop_width": {
       "Points": [
        {
         "co": {
          "X": 1,
          "Y": 1
         },
         "interpolation": 2
        }
       ]
      },
      "crop_x": {
       "Points": [
        {
         "co": {
          "X": 1,
          "Y": 0
         },
         "interpolation": 2
        }
       ]
      },
      "crop_y": {
       "Points": [
        {
         "co": {
          "X": 1,
          "Y": 0
         },
         "interpolation": 2
        }
       ]
      },
      "display": 0,
      "duration": 3600.0,
      "effects": [],
      "end": 3,
      "gravity": 4,
      "has_audio": {
       "Points": [
        {
         "co": {
          "X": 1,
          "Y": -1
         },
         "interpolation": 2
        }
       ]
      },
      "has_video": {
       "Points": [
        {
         "co": {
          "X": 1,
          "Y": -1
         },
         "interpolation": 2
        }
       ]
      },
      "id": "4AI8YYFUYY",
      "layer": 4000000,
      "location_x": {
       "Points": [
        {
         "co": {
          "X": 1,
          "Y": 0
         },
         "interpolation": 2
        }
       ]
      },
      "location_y": {
       "Points": [
        {
         "co": {
          "X": 1,
          "Y": 0
         },
         "interpolation": 2
        }
       ]
      },
      "mixing": 0,
      "perspective_c1_x": {
       "Points": [
        {
         "co": {
          "X": 1,
          "Y": -1
         },
         "interpolation": 2
        }
       ]
      },
      "perspective_c1_y": {
       "Points": [
        {
         "co": {
          "X": 1,
          "Y": -1
         },
         "interpolation": 2
        }
       ]
      },
      "perspective_c2_x": {
       "Points": [
        {
         "co": {
          "X": 1,
          "Y": -1
         },
         "interpolation": 2
        }
       ]
      },
      "perspective_c2_y": {
       "Points": [
        {
         "co": {
          "X": 1,
          "Y": -1
         },
         "interpolation": 2
        }
       ]
      },
      "perspective_c3_x": {
       "Points": [
        {
         "co": {
          "X": 1,
          "Y": -1
         },
         "interpolation": 2
        }
       ]
      },
      "perspective_c3_y": {
       "Points": [
        {
         "co": {
          "X": 1,
          "Y": -1
         },
         "interpolation": 2
        }
       ]
      },
      "perspective_c4_x": {
       "Points": [
        {
         "co": {
          "X": 1,
          "Y": -1
         },
         "interpolation": 2
        }
       ]
      },
      "perspective_c4_y": {
       "Points": [
        {
         "co": {
          "X": 1,
          "Y": -1
         },
         "interpolation": 2
        }
       ]
      },
      "position": 12,
      "reader": {
       "acodec": "",
       "audio_bit_rate": 0,
       "audio_stream_index": -1,
       "audio_timebase": {
        "den": 1,
        "num": 1
       },
       "channel_layout": 4,
       "channels": 0,
       "display_ratio": {
        "den": 9,
        "num": 16
       },
       "duration": 3600.0,
       "file_size": "8294400",
       "fps": {
        "den": 1,
        "num": 30
       },
       "has_audio": false,
       "has_single_image": true,
       "has_video": true,
       "height": 1080,
       "interlaced_frame": false,
       "metadata": {},
       "path": "generated/g3.png",
       "pixel_format": -1,
       "pixel_ratio": {
        "den": 1,
        "num": 1
       },
       "sample_rate": 0,
       "top_field_first": true,
       "type": "QtImageReader",
       "vcodec": "",
       "video_bit_rate": 0,
       "video_length": "108000",
       "video_stream_index": -1,
       "video_timebase": {
        "den": 30,
        "num": 1
       },
       "width": 1920
      },
      "rotation": {
       "Points": [
        {
         "co": {
          "X": 1,
          "Y": 0
         },
         "interpolation": 2
        }
       ]
      },
      "scale": 1,
      "scale_x": {
       "Points": [
        {
         "co": {
          "X": 1,
          "Y": 1
         },
         "interpolation": 2
        }
       ]
      },
      "scale_y": {
       "Points": [
        {
         "co": {
          "X": 1,
          "Y": 1
         },
         "interpolation": 2
        }
       ]
      },
      "shear_x": {
       "Points": [
        {
         "co": {
          "X": 1,
          "Y": 0
         },
         "interpolation": 2
        }
       ]
      },
      "shear_y": {
       "Points": [
        {
         "co": {
          "X": 1,
          "Y": 0
         },
         "interpolation": 2
        }
       ]
      },
      "start": 0,
      "time": {
       "Points": [
        {
         "co": {
          "X": 1,
          "Y": 1
         },
         "interpolation": 2
        }
       ]
      },
      "volume": {
       "Points": [
        {
         "co": {
          "X": 1,
          "Y": 1
         },
         "interpolation": 2
        }
       ]
      },
      "wave_color": {
       "alpha": {
        "Points": [
         {
          "co": {
           "X": 1,
           "Y": 255
          },
          "handle_left": {
           "X": 0.5,
           "Y": 1
          },
          "handle_right": {
           "X": 0.5,
           "Y": 0
          },
          "handle_type": 0,
          "interpolation": 0
         }
        ]
       },
       "blue": {
        "Points": [
         {
          "co": {
           "X": 1,
           "Y": 255
          },
          "handle_left": {
           "X": 0.5,
           "Y": 1
          },
          "handle_right": {
           "X": 0.5,
           "Y": 0
          },
          "handle_type": 0,
          "interpolation": 0
         }
        ]
       },
       "green": {
        "Points": [
         {
          "co": {
           "X": 1,
           "Y": 123
          },
          "handle_left": {
           "X": 0.5,
           "Y": 1
          },
          "handle_right": {
           "X": 0.5,
           "Y": 0
          },
          "handle_type": 0,
          "interpolation": 0
         }
        ]
       },
       "red": {
        "Points": [
         {
          "co": {
           "X": 1,
           "Y": 0
          },
          "handle_left": {
           "X": 0.5,
           "Y": 1
          },
          "handle_right": {
           "X": 0.5,
           "Y": 0
          },
          "handle_type": 0,
          "interpolation": 0
         }
        ]
       }
      },
      "waveform": false,
      "file_id": "NFH7JMUJJU",
      "title": "g3.png",
      "image": "thumbnail/NFH7JMUJJU.png"
     },
     {
      "alpha": {
       "Points": [
        {
         "co": {
          "X": 1,
          "Y": 1
         },
         "interpolation": 2
        }
       ]
      },
      "anchor": 0,
      "channel_filter": {
       "Points": [
        {
         "co": {
          "X": 1,
          "Y": -1
         },
         "interpolation": 2
        }
       ]
      },
      "channel_mapping": {
       "Points": [
        {
         "co": {
          "X": 1,
          "Y": -1
         },
         "interpolation": 2
        }
       ]
      },
      "crop_height": {
       "Points": [
        {
         "co": {
          "X": 1,
          "Y": 1
         },
         "interpolation": 2
        }
       ]
      },
      "crop_width": {
       "Points": [
        {
         "co": {
          "X": 1,
          "Y": 1
         },
         "interpolation": 2
        }
       ]
      },
      "crop_x": {
       "Points": [
        {
         "co": {
          "X": 1,
          "Y": 0
         },
         "interpolation": 2
        }
       ]
      },
      "crop_y": {
       "Points": [
        {
         "co": {
          "X": 1,
          "Y": 0
         },
         "interpolation": 2
        }
       ]
      },
      "display": 0,
      "duration": 3600.0,
      "effects": [],
      "end": 5,
      "gravity": 4,
      "has_audio": {
       "Points": [
        {
         "co": {
          "X": 1,
          "Y": -1
         },
         "interpolation": 2
        }
       ]
      },
      "has_video": {
       "Points": [
        {
         "co": {
          "X": 1,
          "Y": -1
         },
         "interpolation": 2
        }
       ]
      },
      "id": "THWDPIF57E",
      "layer": 4000000,
      "location_x": {
       "Points": [
        {
         "co": {
          "X": 1,
          "Y": 0
         },
         "interpolation": 2
        }
       ]
      },
      "location_y": {
       "Points": [
        {
         "co": {
          "X": 1,
          "Y": 0
         },
         "interpolation": 2
        }
       ]
      },
      "mixing": 0,
      "perspective_c1_x": {
       "Points": [
        {
         "co": {
          "X": 1,
          "Y": -1
         },
         "interpolation": 2
        }
       ]
      },
      "perspective_c1_y": {
       "Points": [
        {
         "co": {
          "X": 1,
          "Y": -1
         },
         "interpolation": 2
        }
       ]
      },
      "perspective_c2_x": {
       "Points": [
        {
         "co": {
          "X": 1,
          "Y": -1
         },
         "interpolation": 2
        }
       ]
      },
      "perspective_c2_y": {
       "Points": [
        {
         "co": {
          "X": 1,
          "Y": -1
         },
         "interpolation": 2
        }
       ]
      },
      "perspective_c3_x": {
       "Points": [
        {
         "co": {
          "X": 1,
          "Y": -1
         },
         "interpolation": 2
        }
       ]
      },
      "perspective_c3_y": {
       "Points": [
        {
         "co": {
          "X": 1,
          "Y": -1
         },
         "interpolation": 2
        }
       ]
      },
      "perspective_c4_x": {
       "Points": [
        {
         "co": {
          "X": 1,
          "Y": -1
         },
         "interpolation": 2
        }
       ]
      },
      "perspective_c4_y": {
       "Points": [
        {
         "co": {
          "X": 1,
          "Y": -1
         },
         "interpolation": 2
        }
       ]
      },
      "position": 14,
      "reader": {
       "acodec": "",
       "audio_bit_rate": 0,
       "audio_stream_index": -1,
       "audio_timebase": {
        "den": 1,
        "num": 1
       },
       "channel_layout": 4,
       "channels": 0,
       "display_ratio": {
        "den": 9,
        "num": 16
       },
       "duration": 3600.0,
       "file_size": "8294400",
       "fps": {
        "den": 1,
        "num": 30
       },
       "has_audio": false,
       "has_single_image": true,
       "has_video": true,
       "height": 1080,
       "interlaced_frame": false,
       "metadata": {},
       "path": "generated/g4.png",
       "pixel_format": -1,
       "pixel_ratio": {
        "den": 1,
        "num": 1
       },
       "sample_rate": 0,
       "top_field_first": true,
       "type": "QtImageReader",
       "vcodec": "",
       "video_bit_rate": 0,
       "video_length": "108000",
       "video_stream_index": -1,
       "video_timebase": {
        "den": 30,
        "num": 1
       },
       "width": 1920
      },
      "rotation": {
       "Points": [
        {
         "co": {
          "X": 1,
          "Y": 0
         },
         "interpolation": 2
        }
       ]
      },
      "scale": 1,
      "scale_x": {
       "Points": [
        {
         "co": {
          "X": 1,
          "Y": 1
         },
         "interpolation": 2
        }
       ]
      },
      "scale_y": {
       "Points": [
        {
         "co": {
          "X": 1,
          "Y": 1
         },
         "interpolation": 2
        }
       ]
      },
      "shear_x": {
       "Points": [
        {
         "co": {
          "X": 1,
          "Y": 0
         },
         "interpolation": 2
        }
       ]
      },
      "shear_y": {
       "Points": [
        {
         "co": {
          "X": 1,
          "Y": 0
         },
         "interpolation": 2
        }
       ]
      },
      "start": 0,
      "time": {
       "Points": [
        {
         "co": {
          "X": 1,
          "Y": 1
         },
         "interpolation": 2
        }
       ]
      },
      "volume": {
       "Points": [
        {
         "co": {
          "X": 1,
          "Y": 1
         },
         "interpolation": 2
        }
       ]
      },
      "wave_color": {
       "alpha": {
        "Points": [
         {
          "co": {
           "X": 1,
           "Y": 255
          },
          "handle_left": {
           "X": 0.5,
           "Y": 1
          },
          "handle_right": {
           "X": 0.5,
           "Y": 0
          },
          "handle_type": 0,
          "interpolation": 0
         }
        ]
       },
       "blue": {
        "Points": [
         {
          "co": {
           "X": 1,
           "Y": 255
          },
          "handle_left": {
           "X": 0.5,
           "Y": 1
          },
          "handle_right": {
           "X": 0.5,
           "Y": 0
          },
          "handle_type": 0,
          "interpolation": 0
         }
        ]
       },
       "green": {
        "Points": [
         {
          "co": {
           "X": 1,
           "Y": 123
          },
          "handle_left": {
           "X": 0.5,
           "Y": 1
          },
          "handle_right": {
           "X": 0.5,
           "Y": 0
          },
          "handle_type": 0,
          "interpolation": 0
         }
        ]
       },
       "red": {
        "Points": [
         {
          "co": {
           "X": 1,
           "Y": 0
          },
          "handle_left": {
           "X": 0.5,
           "Y": 1
          },
          "handle_right": {
           "X": 0.5,
           "Y": 0
          },
          "handle_type": 0,
          "interpolation": 0
         }
        ]
       }
      },
      "waveform": false,
      "file_id": "B73V91GBIH",
      "title": "g4.png",
      "image": "thumbnail/B73V91GBIH.png"
     },
     {
      "alpha": {
       "Points": [
        {
         "co": {
          "X": 1,
          "Y": 1
         },
         "interpolation": 2
        }
       ]
      },
      "anchor": 0,
      "channel_filter": {
       "Points": [
        {
         "co": {
          "X": 1,
          "Y": -1
         },
         "interpolation": 2
        }
       ]
      },
      "channel_mapping": {
       "Points": [
        {
         "co": {
          "X": 1,
          "Y": -1
         },
         "interpolation": 2
        }
       ]
      },
      "crop_height": {
       "Points": [
        {
         "co": {
          "X": 1,
          "Y": 1
         },
         "interpolation": 2
        }
       ]
      },
      "crop_width": {
       "Points": [
        {
         "co": {
          "X": 1,
          "Y": 1
         },
         "interpolation": 2
        }
       ]
      },
      "crop_x": {
       "Points": [
        {
         "co": {
          "X": 1,
          "Y": 0
         },
         "interpolation": 2
        }
       ]
      },
      "crop_y": {
       "Points": [
        {
         "co": {
          "X": 1,
          "Y": 0
         },
         "interpolation": 2
        }
       ]
      },
      "display": 0,
      "duration": 3600.0,
      "effects": [],
      "end": 4,
      "gravity": 4,
      "has_audio": {
       "Points": [
        {
         "co": {
          "X": 1,
          "Y": -1
         },
         "interpolation": 2
        }
       ]
      },
      "has_video": {
       "Points": [
        {
         "co": {
          "X": 1,
          "Y": -1
         },
         "interpolation": 2
        }
       ]
      },
      "id": "2QLTOSNJL5",
      "layer": 4000000,
      "location_x": {
       "Points": [
        {
         "co": {
          "X": 1,
          "Y": 0
         },
         "interpolation": 2
        }
       ]
      },
      "location_y": {
       "Points": [
        {
         "co": {
          "X": 1,
          "Y": 0
         },
         "interpolation": 2
        }
       ]
      },
      "mixing": 0,
      "perspective_c1_x": {
       "Points": [
        {
         "co": {
          "X": 1,
          "Y": -1
         },
         "interpolation": 2
        }
       ]
      },
      "perspective_c1_y": {
       "Points": [
        {
         "co": {
          "X": 1,
          "Y": -1
         },
         "interpolation": 2
        }
       ]
      },
      "perspective_c2_x": {
       "Points": [
        {
         "co": {
          "X": 1,
          "Y": -1
         },
         "interpolation": 2
        }
       ]
      },
      "perspective_c2_y": {
       "Points": [
        {
         "co": {
          "X": 1,
          "Y": -1
         },
         "interpolation": 2
        }
       ]
      },
      "perspective_c3_x": {
       "Points": [
        {
         "co": {
          "X": 1,
          "Y": -1
         },
         "interpolation": 2
        }
       ]
      },
      "perspective_c3_y": {
       "Points": [
        {
         "co": {
          "X": 1,
          "Y": -1
         },
         "interpolation": 2
        }
       ]
      },
      "perspective_c4_x": {
       "Points": [
        {
         "co": {
          "X": 1,
          "Y": -1
         },
         "interpolation": 2
        }
       ]
      },
      "perspective_c4_y": {
       "Points": [
        {
         "co": {
          "X": 1,
          "Y": -1
         },
         "interpolation": 2
        }
       ]
      },
      "position": 30,
      "reader": {
       "acodec": "",
       "audio_bit_rate": 0,
       "audio_stream_index": -1,
       "audio_timebase": {
        "den": 1,
        "num": 1
       },
       "channel_layout": 4,
       "channels": 0,
       "display_ratio": {
        "den": 9,
        "num": 16
       },
       "duration": 3600.0,
       "file_size": "8294400",
       "fps": {
        "den": 1,
        "num": 30
       },
       "has_audio": false,
       "has_single_image": true,
       "has_video": true,
       "height": 1080,
       "interlaced_frame": false,
       "metadata": {},
       "path": "generated/g1.png",
       "pixel_format": -1,
       "pixel_ratio": {
        "den": 1,
        "num": 1
       },
       "sample_rate": 0,
       "top_field_first": true,
       "type": "QtImageReader",
       "vcodec": "",
       "video_bit_rate": 0,
       "video_length": "108000",
       "video_stream_index": -1,
       "video_timebase": {
        "den": 30,
        "num": 1
       },
       "width": 1920
      },
      "rotation": {
       "Points": [
        {
         "co": {
          "X": 1,
          "Y": 0
         },
         "interpolation": 2
        }
       ]
      },
      "scale": 1,
      "scale_x": {
       "Points": [
        {
         "co": {
          "X": 1,
          "Y": 1
         },
         "interpolation": 2
        }
       ]
      },
      "scale_y": {
       "Points": [
        {
         "co": {
          "X": 1,
          "Y": 1
         },
         "interpolation": 2
        }
       ]
      },
      "shear_x": {
       "Points": [
        {
         "co": {
          "X": 1,
          "Y": 0
         },
         "interpolation": 2
        }
       ]
      },
      "shear_y": {
       "Points": [
        {
         "co": {
          "X": 1,
          "Y": 0
         },
         "interpolation": 2
        }
       ]
      },
      "start": 0,
      "time": {
       "Points": [
        {
         "co": {
          "X": 1,
          "Y": 1
         },
         "interpolation": 2
        }
       ]
      },
      "volume": {
       "Points": [
        {
         "co": {
          "X": 1,
          "Y": 1
         },
         "interpolation": 2
        }
       ]
      },
      "wave_color": {
       "alpha": {
        "Points": [
         {
          "co": {
           "X": 1,
           "Y": 255
          },
          "handle_left": {
           "X": 0.5,
           "Y": 1
          },
          "handle_right": {
           "X": 0.5,
           "Y": 0
          },
          "handle_type": 0,
          "interpolation": 0
         }
        ]
       },
       "blue": {
        "Points": [
         {
          "co": {
           "X": 1,
           "Y": 255
          },
          "handle_left": {
           "X": 0.5,
           "Y": 1
          },
          "handle_right": {
           "X": 0.5,
           "Y": 0
          },
          "handle_type": 0,
          "interpolation": 0
         }
        ]
       },
       "green": {
        "Points": [
         {
          "co": {
           "X": 1,
           "Y": 123
          },
          "handle_left": {
           "X": 0.5,
           "Y": 1
          },
          "handle_right": {
           "X": 0.5,
           "Y": 0
          },
          "handle_type": 0,
          "interpolation": 0
         }
        ]
       },
       "red": {
        "Points": [
         {
          "co": {
           "X": 1,
           "Y": 0
          },
          "handle_left": {
           "X": 0.5,
           "Y": 1
          },
          "handle_right": {
           "X": 0.5,
           "Y": 0
          },
          "handle_type": 0,
          "interpolation": 0
         }
        ]
       }
      },
      "waveform": false,
      "file_id": "0HEIAFGKHN",
      "title": "g1.png",
      "image": "thumbnail/0HEIAFGKHN.png"
     },
     {
      "alpha": {
       "Points": [
        {
         "co": {
          "X": 1,
          "Y": 1
         },
         "interpolation": 2
        }
       ]
      },
      "anchor": 0,
      "channel_filter": {
       "Points": [
        {
         "co": {
          "X": 1,
          "Y": -1
         },
         "interpolation": 2
        }
       ]
      },
      "channel_mapping": {
       "Points": [
        {
         "co": {
          "X": 1,
          "Y": -1
         },
         "interpolation": 2
        }
       ]
      },
      "crop_height": {
       "Points": [
        {
         "co": {
          "X": 1,
          "Y": 1
         },
         "interpolation": 2
        }
       ]
      },
      "crop_width": {
       "Points": [
        {
         "co": {
          "X": 1,
          "Y": 1
         },
         "interpolation": 2
        }
       ]
      },
      "crop_x": {
       "Points": [
        {
         "co": {
          "X": 1,
          "Y": 0
         },
         "interpolation": 2
        }
       ]
      },
      "crop_y": {
       "Points": [
        {
         "co": {
          "X": 1,
          "Y": 0
         },
         "interpolation": 2
        }
       ]
      },
      "display": 0,
      "duration": 3600.0,
      "effects": [],
      "end": 3,
      "gravity": 4,
      "has_audio": {
       "Points": [
        {
         "co": {
          "X": 1,
          "Y": -1
         },
         "interpolation": 2
        }
       ]
      },
      "has_video": {
       "Points": [
        {
         "co": {
          "X": 1,
          "Y": -1
         },
         "interpolation": 2
        }
       ]
      },
      "id": "XVEL3AY0OA",
      "layer": 4000000,
      "location_x": {
       "Points": [
        {
         "co": {
          "X": 1,
          "Y": 0
         },
         "interpolation": 2
        }
       ]
      },
      "location_y": {
       "Points": [
        {
         "co": {
          "X": 1,
          "Y": 0
         },
         "interpolation": 2
        }
       ]
      },
      "mixing": 0,
      "perspective_c1_x": {
       "Points": [
        {
         "co": {
          "X": 1,
          "Y": -1
         },
         "interpolation": 2
        }
       ]
      },
      "perspective_c1_y": {
       "Points": [
        {
         "co": {
          "X": 1,
          "Y": -1
         },
         "interpolation": 2
        }
       ]
      },
      "perspective_c2_x": {
       "Points": [
        {
         "co": {
          "X": 1,
          "Y": -1
         },
         "interpolation": 2
        }
       ]
      },
      "perspective_c2_y": {
       "Points": [
        {
         "co": {
          "X": 1,
          "Y": -1
         },
         "interpolation": 2
        }
       ]
      },
      "perspective_c3_x": {
       "Points": [
        {
         "co": {
          "X": 1,
          "Y": -1
         },
         "interpolation": 2
        }
       ]
      },
      "perspective_c3_y": {
       "Points": [
        {
         "co": {
          "X": 1,
          "Y": -1
         },
         "interpolation": 2
        }
       ]
      },
      "perspective_c4_x": {
       "Points": [
        {
         "co": {
          "X": 1,
          "Y": -1
         },
         "interpolation": 2
        }
       ]
      },
      "perspective_c4_y": {
       "Points": [
        {
         "co": {
          "X": 1,
          "Y": -1
         },
         "interpolation": 2
        }
       ]
      },
      "position": 33,
      "reader": {
       "acodec": "",
       "audio_bit_rate": 0,
       "audio_stream_index": -1,
       "audio_timebase": {
        "den": 1,
        "num": 1
       },
       "channel_layout": 4,
       "channels": 0,
       "display_ratio": {
        "den": 9,
        "num": 16
       },
       "duration": 3600.0,
       "file_size": "8294400",
       "fps": {
        "den": 1,
        "num": 30
       },
       "has_audio": false,
       "has_single_image": true,
       "has_video": true,
       "height": 1080,
       "interlaced_frame": false,
       "metadata": {},
       "path": "generated/g2.png",
       "pixel_format": -1,
       "pixel_ratio": {
        "den": 1,
        "num": 1
       },
       "sample_rate": 0,
       "top_field_first": true,
       "type": "QtImageReader",
       "vcodec": "",
       "video_bit_rate": 0,
       "video_length": "108000",
       "video_stream_index": -1,
       "video_timebase": {
        "den": 30,
        "num": 1
       },
       "width": 1920
      },
      "rotation": {
       "Points": [
        {
         "co": {
          "X": 1,
          "Y": 0
         },
         "interpolation": 2
        }
       ]
      },
      "scale": 1,
      "scale_x": {
       "Points": [
        {
         "co": {
          "X": 1,
          "Y": 1
         },
         "interpolation": 2
        }
       ]
      },
      "scale_y": {
       "Points": [
        {
         "co": {
          "X": 1,
          "Y": 1
         },
         "interpolation": 2
        }
       ]
      },
      "shear_x": {
       "Points": [
        {
         "co": {
          "X": 1,
          "Y": 0
         },
         "interpolation": 2
        }
       ]
      },
      "shear_y": {
       "Points": [
        {
         "co": {
          "X": 1,
          "Y": 0
         },
         "interpolation": 2
        }
       ]
      },
      "start": 0,
      "time": {
       "Points": [
        {
         "co": {
          "X": 1,
          "Y": 1
         },
         "interpolation": 2
        }
       ]
      },
      "volume": {
       "Points": [
        {
         "co": {
          "X": 1,
          "Y": 1
         },
         "interpolation": 2
        }
       ]
      },
      "wave_color": {
       "alpha": {
        "Points": [
         {
          "co": {
           "X": 1,
           "Y": 255
          },
          "handle_left": {
           "X": 0.5,
           "Y": 1
          },
          "handle_right": {
           "X": 0.5,
           "Y": 0
          },
          "handle_type": 0,
          "interpolation": 0
         }
        ]
       },
       "blue": {
        "Points": [
         {
          "co": {
           "X": 1,
           "Y": 255
          },
          "handle_left": {
           "X": 0.5,
           "Y": 1
          },
          "handle_right": {
           "X": 0.5,
           "Y": 0
          },
          "handle_type": 0,
          "interpolation": 0
         }
        ]
       },
       "green": {
        "Points": [
         {
          "co": {
           "X": 1,
           "Y": 123
          },
          "handle_left": {
           "X": 0.5,
           "Y": 1
          },
          "handle_right": {
           "X": 0.5,
           "Y": 0
          },
          "handle_type": 0,
          "interpolation": 0
         }
        ]
       },
       "red": {
        "Points": [
         {
          "co": {
           "X": 1,
           "Y": 0
          },
          "handle_left": {
           "X": 0.5,
           "Y": 1
          },
          "handle_right": {
           "X": 0.5,
           "Y": 0
          },
          "handle_type": 0,
          "interpolation": 0
         }
        ]
       }
      },
      "waveform": false,
      "file_id": "30TG8KEIVW",
      "title": "g2.png",
      "image": "thumbnail/30TG8KEIVW.png"
     },
     {
      "alpha": {
       "Points": [
        {
         "co": {
          "X": 1,
          "Y": 1
         },
         "interpolation": 2
        }
       ]
      },
      "anchor": 0,
      "channel_filter": {
       "Points": [
        {
         "co": {
          "X": 1,
          "Y": -1
         },
         "interpolation": 2
        }
       ]
      },
      "channel_mapping": {
       "Points": [
        {
         "co": {
          "X": 1,
          "Y": -1
         },
         "interpolation": 2
        }
       ]
      },
      "crop_height": {
       "Points": [
        {
         "co": {
          "X": 1,
          "Y": 1
         },
         "interpolation": 2
        }
       ]
      },
      "crop_width": {
       "Points": [
        {
         "co": {
          "X": 1,
          "Y": 1
         },
         "interpolation": 2
        }
       ]
      },
      "crop_x": {
       "Points": [
        {
         "co": {
          "X": 1,
          "Y": 0
         },
         "interpolation": 2
        }
       ]
      },
      "crop_y": {
       "Points": [
        {
         "co": {
          "X": 1,
          "Y": 0
         },
         "interpolation": 2
        }
       ]
      },
      "display": 0,
      "duration": 3600.0,
      "effects": [],
      "end": 7.0,
      "gravity": 4,
      "has_audio": {
       "Points": [
        {
         "co": {
          "X": 1,
          "Y": -1
         },
         "interpolation": 2
        }
       ]
      },
      "has_video": {
       "Points": [
        {
         "co": {
          "X": 1,
          "Y": -1
         },
         "interpolation": 2
        }
       ]
      },
      "id": "6VOHFTJALE",
      "layer": 4000000,
      "location_x": {
       "Points": [
        {
         "co": {
          "X": 1,
          "Y": 0
         },
         "interpolation": 2
        }
       ]
      },
      "location_y": {
       "Points": [
        {
         "co": {
          "X": 1,
          "Y": 0
         },
         "interpolation": 2
        }
       ]
      },
      "mixing": 0,
      "perspective_c1_x": {
       "Points": [
        {
         "co": {
          "X": 1,
          "Y": -1
         },
         "interpolation": 2
        }
       ]
      },
      "perspective_c1_y": {
       "Points": [
        {
         "co": {
          "X": 1,
          "Y": -1
         },
         "interpolation": 2
        }
       ]
      },
      "perspective_c2_x": {
       "Points": [
        {
         "co": {
          "X": 1,
          "Y": -1
         },
         "interpolation": 2
        }
       ]
      },
      "perspective_c2_y": {
       "Points": [
        {
         "co": {
          "X": 1,
          "Y": -1
         },
         "interpolation": 2
        }
       ]
      },
      "perspective_c3_x": {
       "Points": [
        {
         "co": {
          "X": 1,
          "Y": -1
         },
         "interpolation": 2
        }
       ]
      },
      "perspective_c3_y": {
       "Points": [
        {
         "co": {
          "X": 1,
          "Y": -1
         },
         "interpolation": 2
        }
       ]
      },
      "perspective_c4_x": {
       "Points": [
        {
         "co": {
          "X": 1,
          "Y": -1
         },
         "interpolation": 2
        }
       ]
      },
      "perspective_c4_y": {
       "Points": [
        {
         "co": {
          "X": 1,
          "Y": -1
         },
         "interpolation": 2
        }
       ]
      },
      "position": 35.04,
      "reader": {
       "acodec": "",
       "audio_bit_rate": 0,
       "audio_stream_index": -1,
       "audio_timebase": {
        "den": 1,
        "num": 1
       },
       "channel_layout": 4,
       "channels": 0,
       "display_ratio": {
        "den": 9,
        "num": 16
       },
       "duration": 3600.0,
       "file_size": "8294400",
       "fps": {
        "den": 1,
        "num": 30
       },
       "has_audio": false,
       "has_single_image": true,
       "has_video": true,
       "height": 1080,
       "interlaced_frame": false,
       "metadata": {},
       "path": "generated/g3.png",
       "pixel_format": -1,
       "pixel_ratio": {
        "den": 1,
        "num": 1
       },
       "sample_rate": 0,
       "top_field_first": true,
       "type": "QtImageReader",
       "vcodec": "",
       "video_bit_rate": 0,
       "video_length": "108000",
       "video_stream_index": -1,
       "video_timebase": {
        "den": 30,
        "num": 1
       },
       "width": 1920
      },
      "rotation": {
       "Points": [
        {
         "co": {
          "X": 1,
          "Y": 0
         },
         "interpolation": 2
        }
       ]
      },
      "scale": 1,
      "scale_x": {
       "Points": [
        {
         "co": {
          "X": 1,
          "Y": 1
         },
         "interpolation": 2
        }
       ]
      },
      "scale_y": {
       "Points": [
        {
         "co": {
          "X": 1,
          "Y": 1
         },
         "interpolation": 2
        }
       ]
      },
      "shear_x": {
       "Points": [
        {
         "co": {
          "X": 1,
          "Y": 0
         },
         "interpolation": 2
        }
       ]
      },
      "shear_y": {
       "Points": [
        {
         "co": {
          "X": 1,
          "Y": 0
         },
         "interpolation": 2
        }
       ]
      },
      "start": 0,
      "time": {
       "Points": [
        {
         "co": {
          "X": 1,
          "Y": 1
         },
         "interpolation": 2
        }
       ]
      },
      "volume": {
       "Points": [
        {
         "co": {
          "X": 1,
          "Y": 1
         },
         "interpolation": 2
        }
       ]
      },
      "wave_color": {
       "alpha": {
        "Points": [
         {
          "co": {
           "X": 1,
           "Y": 255
          },
          "handle_left": {
           "X": 0.5,
           "Y": 1
          },
          "handle_right": {
           "X": 0.5,
           "Y": 0
          },
          "handle_type": 0,
          "interpolation": 0
         }
        ]
       },
       "blue": {
        "Points": [
         {
          "co": {
           "X": 1,
           "Y": 255
          },
          "handle_left": {
           "X": 0.5,
           "Y": 1
          },
          "handle_right": {
           "X": 0.5,
           "Y": 0
          },
          "handle_type": 0,
          "interpolation": 0
         }
        ]
       },
       "green": {
        "Points": [
         {
          "co": {
           "X": 1,
           "Y": 123
          },
          "handle_left": {
           "X": 0.5,
           "Y": 1
          },
          "handle_right": {
           "X": 0.5,
           "Y": 0
          },
          "handle_type": 0,
          "interpolation": 0
         }
        ]
       },
       "red": {
        "Points": [
         {
          "co": {
           "X": 1,
           "Y": 0
          },
          "handle_left": {
           "X": 0.5,
           "Y": 1
          },
          "handle_right": {
           "X": 0.5,
           "Y": 0
          },
          "handle_type": 0,
          "interpolation": 0
         }
        ]
       }
      },
      "waveform": false,
      "file_id": "NFH7JMUJJU",
      "title": "g3.png",
      "image": "thumbnail/NFH7JMUJJU.png"
     },
     {
      "alpha": {
       "Points": [
        {
         "co": {
          "X": 1,
          "Y": 1
         },
         "interpolation": 2
        }
       ]
      },
      "anchor": 0,
      "channel_filter": {
       "Points": [
        {
         "co": {
          "X": 1,
          "Y": -1
         },
         "interpolation": 2
        }
       ]
      },
      "channel_mapping": {
       "Points": [
        {
         "co": {
          "X": 1,
          "Y": -1
         },
         "interpolation": 2
        }
       ]
      },
      "crop_height": {
       "Points": [
        {
         "co": {
          "X": 1,
          "Y": 1
         },
         "interpolation": 2
        }
       ]
      },
      "crop_width": {
       "Points": [
        {
         "co": {
          "X": 1,
          "Y": 1
         },
         "interpolation": 2
        }
       ]
      },
      "crop_x": {
       "Points": [
        {
         "co": {
          "X": 1,
          "Y": 0
         },
         "interpolation": 2
        }
       ]
      },
      "crop_y": {
       "Points": [
        {
         "co": {
          "X": 1,
          "Y": 0
         },
         "interpolation": 2
        }
       ]
      },
      "display": 0,
      "duration": 3600.0,
      "effects": [],
      "end": 7,
      "gravity": 4,
      "has_audio": {
       "Points": [
        {
         "co": {
          "X": 1,
          "Y": -1
         },
         "interpolation": 2
        }
       ]
      },
      "has_video": {
       "Points": [
        {
         "co": {
          "X": 1,
          "Y": -1
         },
         "interpolation": 2
        }
       ]
      },
      "id": "0LP7G81MB2",
      "layer": 4000000,
      "location_x": {
       "Points": [
        {
         "co": {
          "X": 1,
          "Y": 0
         },
         "interpolation": 2
        }
       ]
      },
      "location_y": {
       "Points": [
        {
         "co": {
          "X": 1,
          "Y": 0
         },
         "interpolation": 2
        }
       ]
      },
      "mixing": 0,
      "perspective_c1_x": {
       "Points": [
        {
         "co": {
          "X": 1,
          "Y": -1
         },
         "interpolation": 2
        }
       ]
      },
      "perspective_c1_y": {
       "Points": [
        {
         "co": {
          "X": 1,
          "Y": -1
         },
         "interpolation": 2
        }
       ]
      },
      "perspective_c2_x": {
       "Points": [
        {
         "co": {
          "X": 1,
          "Y": -1
         },
         "interpolation": 2
        }
       ]
      },
      "perspective_c2_y": {
       "Points": [
        {
         "co": {
          "X": 1,
          "Y": -1
         },
         "interpolation": 2
        }
       ]
      },
      "perspective_c3_x": {
       "Points": [
        {
         "co": {
          "X": 1,
          "Y": -1
         },
         "interpolation": 2
        }
       ]
      },
      "perspective_c3_y": {
       "Points": [
        {
         "co": {
          "X": 1,
          "Y": -1
         },
         "interpolation": 2
        }
       ]
      },
      "perspective_c4_x": {
       "Points": [
        {
         "co": {
          "X": 1,
          "Y": -1
         },
         "interpolation": 2
        }
       ]
      },
      "perspective_c4_y": {
       "Points": [
        {
         "co": {
          "X": 1,
          "Y": -1
         },
         "interpolation": 2
        }
       ]
      },
      "position": 43.0,
      "reader": {
       "acodec": "",
       "audio_bit_rate": 0,
       "audio_stream_index": -1,
       "audio_timebase": {
        "den": 1,
        "num": 1
       },
       "channel_layout": 4,
       "channels": 0,
       "display_ratio": {
        "den": 9,
        "num": 16
       },
       "duration": 3600.0,
       "file_size": "8294400",
       "fps": {
        "den": 1,
        "num": 30
       },
       "has_audio": false,
       "has_single_image": true,
       "has_video": true,
       "height": 1080,
       "interlaced_frame": false,
       "metadata": {},
       "path": "generated/i0.png",
       "pixel_format": -1,
       "pixel_ratio": {
        "den": 1,
        "num": 1
       },
       "sample_rate": 0,
       "top_field_first": true,
       "type": "QtImageReader",
       "vcodec": "",
       "video_bit_rate": 0,
       "video_length": "108000",
       "video_stream_index": -1,
       "video_timebase": {
        "den": 30,
        "num": 1
       },
       "width": 1920
      },
      "rotation": {
       "Points": [
        {
         "co": {
          "X": 1,
          "Y": 0
         },
         "interpolation": 2
        }
       ]
      },
      "scale": 1,
      "scale_x": {
       "Points": [
        {
         "co": {
          "X": 1,
          "Y": 1
         },
         "interpolation": 2
        }
       ]
      },
      "scale_y": {
       "Points": [
        {
         "co": {
          "X": 1,
          "Y": 1
         },
         "interpolation": 2
        }
       ]
      },
      "shear_x": {
       "Points": [
        {
         "co": {
          "X": 1,
          "Y": 0
         },
         "interpolation": 2
        }
       ]
      },
      "shear_y": {
       "Points": [
        {
         "co": {
          "X": 1,
          "Y": 0
         },
         "interpolation": 2
        }
       ]
      },
      "start": 0,
      "time": {
       "Points": [
        {
         "co": {
          "X": 1,
          "Y": 1
         },
         "interpolation": 2
        }
       ]
      },
      "volume": {
       "Points": [
        {
         "co": {
          "X": 1,
          "Y": 1
         },
         "interpolation": 2
        }
       ]
      },
      "wave_color": {
       "alpha": {
        "Points": [
         {
          "co": {
           "X": 1,
           "Y": 255
          },
          "handle_left": {
           "X": 0.5,
           "Y": 1
          },
          "handle_right": {
           "X": 0.5,
           "Y": 0
          },
          "handle_type": 0,
          "interpolation": 0
         }
        ]
       },
       "blue": {
        "Points": [
         {
          "co": {
           "X": 1,
           "Y": 255
          },
          "handle_left": {
           "X": 0.5,
           "Y": 1
          },
          "handle_right": {
           "X": 0.5,
           "Y": 0
          },
          "handle_type": 0,
          "interpolation": 0
         }
        ]
       },
       "green": {
        "Points": [
         {
          "co": {
           "X": 1,
           "Y": 123
          },
          "handle_left": {
           "X": 0.5,
           "Y": 1
          },
          "handle_right": {
           "X": 0.5,
           "Y": 0
          },
          "handle_type": 0,
          "interpolation": 0
         }
        ]
       },
       "red": {
        "Points": [
         {
          "co": {
           "X": 1,
           "Y": 0
          },
          "handle_left": {
           "X": 0.5,
           "Y": 1
          },
          "handle_right": {
           "X": 0.5,
           "Y": 0
          },
          "handle_type": 0,
          "interpolation": 0
         }
        ]
       }
      },
      "waveform": false,
      "file_id": "GS0GI0S0DY",
      "title": "i0.png",
      "image": "thumbnail/GS0GI0S0DY.png"
     },
     {
      "alpha": {
       "Points": [
        {
         "co": {
          "X": 1,
          "Y": 1
         },
         "interpolation": 2
        }
       ]
      },
      "anchor": 0,
      "channel_filter": {
       "Points": [
        {
         "co": {
          "X": 1,
          "Y": -1
         },
         "interpolation": 2
        }
       ]
      },
      "channel_mapping": {
       "Points": [
        {
         "co": {
          "X": 1,
          "Y": -1
         },
         "interpolation": 2
        }
       ]
      },
      "crop_height": {
       "Points": [
        {
         "co": {
          "X": 1,
          "Y": 1
         },
         "interpolation": 2
        }
       ]
      },
      "crop_width": {
       "Points": [
        {
         "co": {
          "X": 1,
          "Y": 1
         },
         "interpolation": 2
        }
       ]
      },
      "crop_x": {
       "Points": [
        {
         "co": {
          "X": 1,
          "Y": 0
         },
         "interpolation": 2
        }
       ]
      },
      "crop_y": {
       "Points": [
        {
         "co": {
          "X": 1,
          "Y": 0
         },
         "interpolation": 2
        }
       ]
      },
      "display": 0,
      "duration": 3600.0,
      "effects": [],
      "end": 6,
      "gravity": 4,
      "has_audio": {
       "Points": [
        {
         "co": {
          "X": 1,
          "Y": -1
         },
         "interpolation": 2
        }
       ]
      },
      "has_video": {
       "Points": [
        {
         "co": {
          "X": 1,
          "Y": -1
         },
         "interpolation": 2
        }
       ]
      },
      "id": "11H8KXEBX0",
      "layer": 4000000,
      "location_x": {
       "Points": [
        {
         "co": {
          "X": 1,
          "Y": 0
         },
         "interpolation": 2
        }
       ]
      },
      "location_y": {
       "Points": [
        {
         "co": {
          "X": 1,
          "Y": 0
         },
         "interpolation": 2
        }
       ]
      },
      "mixing": 0,
      "perspective_c1_x": {
       "Points": [
        {
         "co": {
          "X": 1,
          "Y": -1
         },
         "interpolation": 2
        }
       ]
      },
      "perspective_c1_y": {
       "Points": [
        {
         "co": {
          "X": 1,
          "Y": -1
         },
         "interpolation": 2
        }
       ]
      },
      "perspective_c2_x": {
       "Points": [
        {
         "co": {
          "X": 1,
          "Y": -1
         },
         "interpolation": 2
        }
       ]
      },
      "perspective_c2_y": {
       "Points": [
        {
         "co": {
          "X": 1,
          "Y": -1
         },
         "interpolation": 2
        }
       ]
      },
      "perspective_c3_x": {
       "Points": [
        {
         "co": {
          "X": 1,
          "Y": -1
         },
         "interpolation": 2
        }
       ]
      },
      "perspective_c3_y": {
       "Points": [
        {
         "co": {
          "X": 1,
          "Y": -1
         },
         "interpolation": 2
        }
       ]
      },
      "perspective_c4_x": {
       "Points": [
        {
         "co": {
          "X": 1,
          "Y": -1
         },
         "interpolation": 2
        }
       ]
      },
      "perspective_c4_y": {
       "Points": [
        {
         "co": {
          "X": 1,
          "Y": -1
         },
         "interpolation": 2
        }
       ]
      },
      "position": 47.48,
      "reader": {
       "acodec": "",
       "audio_bit_rate": 0,
       "audio_stream_index": -1,
       "audio_timebase": {
        "den": 1,
        "num": 1
       },
       "channel_layout": 4,
       "channels": 0,
       "display_ratio": {
        "den": 9,
        "num": 16
       },
       "duration": 3600.0,
       "file_size": "8294400",
       "fps": {
        "den": 1,
        "num": 30
       },
       "has_audio": false,
       "has_single_image": true,
       "has_video": true,
       "height": 1080,
       "interlaced_frame": false,
       "metadata": {},
       "path": "generated/i1.png",
       "pixel_format": -1,
       "pixel_ratio": {
        "den": 1,
        "num": 1
       },
       "sample_rate": 0,
       "top_field_first": true,
       "type": "QtImageReader",
       "vcodec": "",
       "video_bit_rate": 0,
       "video_length": "108000",
       "video_stream_index": -1,
       "video_timebase": {
        "den": 30,
        "num": 1
       },
       "width": 1920
      },
      "rotation": {
       "Points": [
        {
         "co": {
          "X": 1,
          "Y": 0
         },
         "interpolation": 2
        }
       ]
      },
      "scale": 1,
      "scale_x": {
       "Points": [
        {
         "co": {
          "X": 1,
          "Y": 1
         },
         "interpolation": 2
        }
       ]
      },
      "scale_y": {
       "Points": [
        {
         "co": {
          "X": 1,
          "Y": 1
         },
         "interpolation": 2
        }
       ]
      },
      "shear_x": {
       "Points": [
        {
         "co": {
          "X": 1,
          "Y": 0
         },
         "interpolation": 2
        }
       ]
      },
      "shear_y": {
       "Points": [
        {
         "co": {
          "X": 1,
          "Y": 0
         },
         "interpolation": 2
        }
       ]
      },
      "start": 0,
      "time": {
       "Points": [
        {
         "co": {
          "X": 1,
          "Y": 1
         },
         "interpolation": 2
        }
       ]
      },
      "volume": {
       "Points": [
        {
         "co": {
          "X": 1,
          "Y": 1
         },
         "interpolation": 2
        }
       ]
      },
      "wave_color": {
       "alpha": {
        "Points": [
         {
          "co": {
           "X": 1,
           "Y": 255
          },
          "handle_left": {
           "X": 0.5,
           "Y": 1
          },
          "handle_right": {
           "X": 0.5,
           "Y": 0
          },
          "handle_type": 0,
          "interpolation": 0
         }
        ]
       },
       "blue": {
        "Points": [
         {
          "co": {
           "X": 1,
           "Y": 255
          },
          "handle_left": {
           "X": 0.5,
           "Y": 1
          },
          "handle_right": {
           "X": 0.5,
           "Y": 0
          },
          "handle_type": 0,
          "interpolation": 0
         }
        ]
       },
       "green": {
        "Points": [
         {
          "co": {
           "X": 1,
           "Y": 123
          },
          "handle_left": {
           "X": 0.5,
           "Y": 1
          },
          "handle_right": {
           "X": 0.5,
           "Y": 0
          },
          "handle_type": 0,
          "interpolation": 0
         }
        ]
       },
       "red": {
        "Points": [
         {
          "co": {
           "X": 1,
           "Y": 0
          },
          "handle_left": {
           "X": 0.5,
           "Y": 1
          },
          "handle_right": {
           "X": 0.5,
           "Y": 0
          },
          "handle_type": 0,
          "interpolation": 0
         }
        ]
       }
      },
      "waveform": false,
      "file_id": "9OBXZNQR45",
      "title": "i1.png",
      "image": "thumbnail/9OBXZNQR45.png"
     },
     {
      "alpha": {
       "Points": [
        {
         "co": {
          "X": 1,
          "Y": 1
         },
         "interpolation": 2
        }
       ]
      },
      "anchor": 0,
      "channel_filter": {
       "Points": [
        {
         "co": {
          "X": 1,
          "Y": -1
         },
         "interpolation": 2
        }
       ]
      },
      "channel_mapping": {
       "Points": [
        {
         "co": {
          "X": 1,
          "Y": -1
         },
         "interpolation": 2
        }
       ]
      },
      "crop_height": {
       "Points": [
        {
         "co": {
          "X": 1,
          "Y": 1
         },
         "interpolation": 2
        }
       ]
      },
      "crop_width": {
       "Points": [
        {
         "co": {
          "X": 1,
          "Y": 1
         },
         "interpolation": 2
        }
       ]
      },
      "crop_x": {
       "Points": [
        {
         "co": {
          "X": 1,
          "Y": 0
         },
         "interpolation": 2
        }
       ]
      },
      "crop_y": {
       "Points": [
        {
         "co": {
          "X": 1,
          "Y": 0
         },
         "interpolation": 2
        }
       ]
      },
      "display": 0,
      "duration": 3600.0,
      "effects": [],
      "end": 6,
      "gravity": 4,
      "has_audio": {
       "Points": [
        {
         "co": {
          "X": 1,
          "Y": -1
         },
         "interpolation": 2
        }
       ]
      },
      "has_video": {
       "Points": [
        {
         "co": {
          "X": 1,
          "Y": -1
         },
         "interpolation": 2
        }
       ]
      },
      "id": "FYGPVRXHG0",
      "layer": 4000000,
      "location_x": {
       "Points": [
        {
         "co": {
          "X": 1,
          "Y": 0
         },
         "interpolation": 2
        }
       ]
      },
      "location_y": {
       "Points": [
        {
         "co": {
          "X": 1,
          "Y": 0
         },
         "interpolation": 2
        }
       ]
      },
      "mixing": 0,
      "perspective_c1_x": {
       "Points": [
        {
         "co": {
          "X": 1,
          "Y": -1
         },
         "interpolation": 2
        }
       ]
      },
      "perspective_c1_y": {
       "Points": [
        {
         "co": {
          "X": 1,
          "Y": -1
         },
         "interpolation": 2
        }
       ]
      },
      "perspective_c2_x": {
       "Points": [
        {
         "co": {
          "X": 1,
          "Y": -1
         },
         "interpolation": 2
        }
       ]
      },
      "perspective_c2_y": {
       "Points": [
        {
         "co": {
          "X": 1,
          "Y": -1
         },
         "interpolation": 2
        }
       ]
      },
      "perspective_c3_x": {
       "Points": [
        {
         "co": {
          "X": 1,
          "Y": -1
         },
         "interpolation": 2
        }
       ]
      },
      "perspective_c3_y": {
       "Points": [
        {
         "co": {
          "X": 1,
          "Y": -1
         },
         "interpolation": 2
        }
       ]
      },
      "perspective_c4_x": {
       "Points": [
        {
         "co": {
          "X": 1,
          "Y": -1
         },
         "interpolation": 2
        }
       ]
      },
      "perspective_c4_y": {
       "Points": [
        {
         "co": {
          "X": 1,
          "Y": -1
         },
         "interpolation": 2
        }
       ]
      },
      "position": 51,
      "reader": {
       "acodec": "",
       "audio_bit_rate": 0,
       "audio_stream_index": -1,
       "audio_timebase": {
        "den": 1,
        "num": 1
       },
       "channel_layout": 4,
       "channels": 0,
       "display_ratio": {
        "den": 9,
        "num": 16
       },
       "duration": 3600.0,
       "file_size": "8294400",
       "fps": {
        "den": 1,
        "num": 30
       },
       "has_audio": false,
       "has_single_image": true,
       "has_video": true,
       "height": 1080,
       "interlaced_frame": false,
       "metadata": {},
       "path": "generated/i2.png",
       "pixel_format": -1,
       "pixel_ratio": {
        "den": 1,
        "num": 1
       },
       "sample_rate": 0,
       "top_field_first": true,
       "type": "QtImageReader",
       "vcodec": "",
       "video_bit_rate": 0,
       "video_length": "108000",
       "video_stream_index": -1,
       "video_timebase": {
        "den": 30,
        "num": 1
       },
       "width": 1920
      },
      "rotation": {
       "Points": [
        {
         "co": {
          "X": 1,
          "Y": 0
         },
         "interpolation": 2
        }
       ]
      },
      "scale": 1,
      "scale_x": {
       "Points": [
        {
         "co": {
          "X": 1,
          "Y": 1
         },
         "interpolation": 2
        }
       ]
      },
      "scale_y": {
       "Points": [
        {
         "co": {
          "X": 1,
          "Y": 1
         },
         "interpolation": 2
        }
       ]
      },
      "shear_x": {
       "Points": [
        {
         "co": {
          "X": 1,
          "Y": 0
         },
         "interpolation": 2
        }
       ]
      },
      "shear_y": {
       "Points": [
        {
         "co": {
          "X": 1,
          "Y": 0
         },
         "interpolation": 2
        }
       ]
      },
      "start": 0,
      "time": {
       "Points": [
        {
         "co": {
          "X": 1,
          "Y": 1
         },
         "interpolation": 2
        }
       ]
      },
      "volume": {
       "Points": [
        {
         "co": {
          "X": 1,
          "Y": 1
         },
         "interpolation": 2
        }
       ]
      },
      "wave_color": {
       "alpha": {
        "Points": [
         {
          "co": {
           "X": 1,
           "Y": 255
          },
          "handle_left": {
           "X": 0.5,
           "Y": 1
          },
          "handle_right": {
           "X": 0.5,
           "Y": 0
          },
          "handle_type": 0,
          "interpolation": 0
         }
        ]
       },
       "blue": {
        "Points": [
         {
          "co": {
           "X": 1,
           "Y": 255
          },
          "handle_left": {
           "X": 0.5,
           "Y": 1
          },
          "handle_right": {
           "X": 0.5,
           "Y": 0
          },
          "handle_type": 0,
          "interpolation": 0
         }
        ]
       },
       "green": {
        "Points": [
         {
          "co": {
           "X": 1,
           "Y": 123
          },
          "handle_left": {
           "X": 0.5,
           "Y": 1
          },
          "handle_right": {
           "X": 0.5,
           "Y": 0
          },
          "handle_type": 0,
          "interpolation": 0
         }
        ]
       },
       "red": {
        "Points": [
         {
          "co": {
           "X": 1,
           "Y": 0
          },
          "handle_left": {
           "X": 0.5,
           "Y": 1
          },
          "handle_right": {
           "X": 0.5,
           "Y": 0
          },
          "handle_type": 0,
          "interpolation": 0
         }
        ]
       }
      },
      "waveform": false,
      "file_id": "KN2RPS9LTZ",
      "title": "i2.png",
      "image": "thumbnail/KN2RPS9LTZ.png"
     },
     {
      "alpha": {
       "Points": [
        {
         "co": {
          "X": 1,
          "Y": 1
         },
         "interpolation": 2
        }
       ]
      },
      "anchor": 0,
      "channel_filter": {
       "Points": [
        {
         "co": {
          "X": 1,
          "Y": -1
         },
         "interpolation": 2
        }
       ]
      },
      "channel_mapping": {
       "Points": [
        {
         "co": {
          "X": 1,
          "Y": -1
         },
         "interpolation": 2
        }
       ]
      },
      "crop_height": {
       "Points": [
        {
         "co": {
          "X": 1,
          "Y": 1
         },
         "interpolation": 2
        }
       ]
      },
      "crop_width": {
       "Points": [
        {
         "co": {
          "X": 1,
          "Y": 1
         },
         "interpolation": 2
        }
       ]
      },
      "crop_x": {
       "Points": [
        {
         "co": {
          "X": 1,
          "Y": 0
         },
         "interpolation": 2
        }
       ]
      },
      "crop_y": {
       "Points": [
        {
         "co": {
          "X": 1,
          "Y": 0
         },
         "interpolation": 2
        }
       ]
      },
      "display": 0,
      "duration": 3600.0,
      "effects": [],
      "end": 5.0,
      "gravity": 4,
      "has_audio": {
       "Points": [
        {
         "co": {
          "X": 1,
          "Y": -1
         },
         "interpolation": 2
        }
       ]
      },
      "has_video": {
       "Points": [
        {
         "co": {
          "X": 1,
          "Y": -1
         },
         "interpolation": 2
        }
       ]
      },
      "id": "2I65B7Z1DV",
      "layer": 4000000,
      "location_x": {
       "Points": [
        {
         "co": {
          "X": 1,
          "Y": 0
         },
         "interpolation": 2
        }
       ]
      },
      "location_y": {
       "Points": [
        {
         "co": {
          "X": 1,
          "Y": 0
         },
         "interpolation": 2
        }
       ]
      },
      "mixing": 0,
      "perspective_c1_x": {
       "Points": [
        {
         "co": {
          "X": 1,
          "Y": -1
         },
         "interpolation": 2
        }
       ]
      },
      "perspective_c1_y": {
       "Points": [
        {
         "co": {
          "X": 1,
          "Y": -1
         },
         "interpolation": 2
        }
       ]
      },
      "perspective_c2_x": {
       "Points": [
        {
         "co": {
          "X": 1,
          "Y": -1
         },
         "interpolation": 2
        }
       ]
      },
      "perspective_c2_y": {
       "Points": [
        {
         "co": {
          "X": 1,
          "Y": -1
         },
         "interpolation": 2
        }
       ]
      },
      "perspective_c3_x": {
       "Points": [
        {
         "co": {
          "X": 1,
          "Y": -1
         },
         "interpolation": 2
        }
       ]
      },
      "perspective_c3_y": {
       "Points": [
        {
         "co": {
          "X": 1,
          "Y": -1
         },
         "interpolation": 2
        }
       ]
      },
      "perspective_c4_x": {
       "Points": [
        {
         "co": {
          "X": 1,
          "Y": -1
         },
         "interpolation": 2
        }
       ]
      },
      "perspective_c4_y": {
       "Points": [
        {
         "co": {
          "X": 1,
          "Y": -1
         },
         "interpolation": 2
        }
       ]
      },
      "position": 55,
      "reader": {
       "acodec": "",
       "audio_bit_rate": 0,
       "audio_stream_index": -1,
       "audio_timebase": {
        "den": 1,
        "num": 1
       },
       "channel_layout": 4,
       "channels": 0,
       "display_ratio": {
        "den": 9,
        "num": 16
       },
       "duration": 3600.0,
       "file_size": "8294400",
       "fps": {
        "den": 1,
        "num": 30
       },
       "has_audio": false,
       "has_single_image": true,
       "has_video": true,
       "height": 1080,
       "interlaced_frame": false,
       "metadata": {},
       "path": "generated/i3.png",
       "pixel_format": -1,
       "pixel_ratio": {
        "den": 1,
        "num": 1
       },
       "sample_rate": 0,
       "top_field_first": true,
       "type": "QtImageReader",
       "vcodec": "",
       "video_bit_rate": 0,
       "video_length": "108000",
       "video_stream_index": -1,
       "video_timebase": {
        "den": 30,
        "num": 1
       },
       "width": 1920
      },
      "rotation": {
       "Points": [
        {
         "co": {
          "X": 1,
          "Y": 0
         },
         "interpolation": 2
        }
       ]
      },
      "scale": 1,
      "scale_x": {
       "Points": [
        {
         "co": {
          "X": 1,
          "Y": 1
         },
         "interpolation": 2
        }
       ]
      },
      "scale_y": {
       "Points": [
        {
         "co": {
          "X": 1,
          "Y": 1
         },
         "interpolation": 2
        }
       ]
      },
      "shear_x": {
       "Points": [
        {
         "co": {
          "X": 1,
          "Y": 0
         },
         "interpolation": 2
        }
       ]
      },
      "shear_y": {
       "Points": [
        {
         "co": {
          "X": 1,
          "Y": 0
         },
         "interpolation": 2
        }
       ]
      },
      "start": 0,
      "time": {
       "Points": [
        {
         "co": {
          "X": 1,
          "Y": 1
         },
         "interpolation": 2
        }
       ]
      },
      "volume": {
       "Points": [
        {
         "co": {
          "X": 1,
          "Y": 1
         },
         "interpolation": 2
        }
       ]
      },
      "wave_color": {
       "alpha": {
        "Points": [
         {
          "co": {
           "X": 1,
           "Y": 255
          },
          "handle_left": {
           "X": 0.5,
           "Y": 1
          },
          "handle_right": {
           "X": 0.5,
           "Y": 0
          },
          "handle_type": 0,
          "interpolation": 0
         }
        ]
       },
       "blue": {
        "Points": [
         {
          "co": {
           "X": 1,
           "Y": 255
          },
          "handle_left": {
           "X": 0.5,
           "Y": 1
          },
          "handle_right": {
           "X": 0.5,
           "Y": 0
          },
          "handle_type": 0,
          "interpolation": 0
         }
        ]
       },
       "green": {
        "Points": [
         {
          "co": {
           "X": 1,
           "Y": 123
          },
          "handle_left": {
           "X": 0.5,
           "Y": 1
          },
          "handle_right": {
           "X": 0.5,
           "Y": 0
          },
          "handle_type": 0,
          "interpolation": 0
         }
        ]
       },
       "red": {
        "Points": [
         {
          "co": {
           "X": 1,
           "Y": 0
          },
          "handle_left": {
           "X": 0.5,
           "Y": 1
          },
          "handle_right": {
           "X": 0.5,
           "Y": 0
          },
          "handle_type": 0,
          "interpolation": 0
         }
        ]
       }
      },
      "waveform": false,
      "file_id": "K2FDZNO37T",
      "title": "i3.png",
      "image": "thumbnail/K2FDZNO37T.png"
     },
     {
      "alpha": {
       "Points": [
        {
         "co": {
          "X": 1,
          "Y": 1
         },
         "interpolation": 2
        }
       ]
      },
      "anchor": 0,
      "channel_filter": {
       "Points": [
        {
         "co": {
          "X": 1,
          "Y": -1
         },
         "interpolation": 2
        }
       ]
      },
      "channel_mapping": {
       "Points": [
        {
         "co": {
          "X": 1,
          "Y": -1
         },
         "interpolation": 2
        }
       ]
      },
      "crop_height": {
       "Points": [
        {
         "co": {
          "X": 1,
          "Y": 1
         },
         "interpolation": 2
        }
       ]
      },
      "crop_width": {
       "Points": [
        {
         "co": {
          "X": 1,
          "Y": 1
         },
         "interpolation": 2
        }
       ]
      },
      "crop_x": {
       "Points": [
        {
         "co": {
          "X": 1,
          "Y": 0
         },
         "interpolation": 2
        }
       ]
      },
      "crop_y": {
       "Points": [
        {
         "co": {
          "X": 1,
          "Y": 0
         },
         "interpolation": 2
        }
       ]
      },
      "display": 0,
      "duration": 3600.0,
      "effects": [],
      "end": 3,
      "gravity": 4,
      "has_audio": {
       "Points": [
        {
         "co": {
          "X": 1,
          "Y": -1
         },
         "interpolation": 2
        }
       ]
      },
      "has_video": {
       "Points": [
        {
         "co": {
          "X": 1,
          "Y": -1
         },
         "interpolation": 2
        }
       ]
      },
      "id": "8E7J22Q9ES",
      "layer": 4000000,
      "location_x": {
       "Points": [
        {
         "co": {
          "X": 1,
          "Y": 0
         },
         "interpolation": 2
        }
       ]
      },
      "location_y": {
       "Points": [
        {
         "co": {
          "X": 1,
          "Y": 0
         },
         "interpolation": 2
        }
       ]
      },
      "mixing": 0,
      "perspective_c1_x": {
       "Points": [
        {
         "co": {
          "X": 1,
          "Y": -1
         },
         "interpolation": 2
        }
       ]
      },
      "perspective_c1_y": {
       "Points": [
        {
         "co": {
          "X": 1,
          "Y": -1
         },
         "interpolation": 2
        }
       ]
      },
      "perspective_c2_x": {
       "Points": [
        {
         "co": {
          "X": 1,
          "Y": -1
         },
         "interpolation": 2
        }
       ]
      },
      "perspective_c2_y": {
       "Points": [
        {
         "co": {
          "X": 1,
          "Y": -1
         },
         "interpolation": 2
        }
       ]
      },
      "perspective_c3_x": {
       "Points": [
        {
         "co": {
          "X": 1,
          "Y": -1
         },
         "interpolation": 2
        }
       ]
      },
      "perspective_c3_y": {
       "Points": [
        {
         "co": {
          "X": 1,
          "Y": -1
         },
         "interpolation": 2
        }
       ]
      },
      "perspective_c4_x": {
       "Points": [
        {
         "co": {
          "X": 1,
          "Y": -1
         },
         "interpolation": 2
        }
       ]
      },
      "perspective_c4_y": {
       "Points": [
        {
         "co": {
          "X": 1,
          "Y": -1
         },
         "interpolation": 2
        }
       ]
      },
      "position": 28,
      "reader": {
       "acodec": "",
       "audio_bit_rate": 0,
       "audio_stream_index": -1,
       "audio_timebase": {
        "den": 1,
        "num": 1
       },
       "channel_layout": 4,
       "channels": 0,
       "display_ratio": {
        "den": 9,
        "num": 16
       },
       "duration": 3600.0,
       "file_size": "8294400",
       "fps": {
        "den": 1,
        "num": 30
       },
       "has_audio": false,
       "has_single_image": true,
       "has_video": true,
       "height": 1080,
       "interlaced_frame": false,
       "metadata": {},
       "path": "generated/g0.png",
       "pixel_format": -1,
       "pixel_ratio": {
        "den": 1,
        "num": 1
       },
       "sample_rate": 0,
       "top_field_first": true,
       "type": "QtImageReader",
       "vcodec": "",
       "video_bit_rate": 0,
       "video_length": "108000",
       "video_stream_index": -1,
       "video_timebase": {
        "den": 30,
        "num": 1
       },
       "width": 1920
      },
      "rotation": {
       "Points": [
        {
         "co": {
          "X": 1,
          "Y": 0
         },
         "interpolation": 2
        }
       ]
      },
      "scale": 1,
      "scale_x": {
       "Points": [
        {
         "co": {
          "X": 1,
          "Y": 1
         },
         "interpolation": 2
        }
       ]
      },
      "scale_y": {
       "Points": [
        {
         "co": {
          "X": 1,
          "Y": 1
         },
         "interpolation": 2
        }
       ]
      },
      "shear_x": {
       "Points": [
        {
         "co": {
          "X": 1,
          "Y": 0
         },
         "interpolation": 2
        }
       ]
      },
      "shear_y": {
       "Points": [
        {
         "co": {
          "X": 1,
          "Y": 0
         },
         "interpolation": 2
        }
       ]
      },
      "start": 0,
      "time": {
       "Points": [
        {
         "co": {
          "X": 1,
          "Y": 1
         },
         "interpolation": 2
        }
       ]
      },
      "volume": {
       "Points": [
        {
         "co": {
          "X": 1,
          "Y": 1
         },
         "interpolation": 2
        }
       ]
      },
      "wave_color": {
       "alpha": {
        "Points": [
         {
          "co": {
           "X": 1,
           "Y": 255
          },
          "handle_left": {
           "X": 0.5,
           "Y": 1
          },
          "handle_right": {
           "X": 0.5,
           "Y": 0
          },
          "handle_type": 0,
          "interpolation": 0
         }
        ]
       },
       "blue": {
        "Points": [
         {
          "co": {
           "X": 1,
           "Y": 255
          },
          "handle_left": {
           "X": 0.5,
           "Y": 1
          },
          "handle_right": {
           "X": 0.5,
           "Y": 0
          },
          "handle_type": 0,
          "interpolation": 0
         }
        ]
       },
       "green": {
        "Points": [
         {
          "co": {
           "X": 1,
           "Y": 123
          },
          "handle_left": {
           "X": 0.5,
           "Y": 1
          },
          "handle_right": {
           "X": 0.5,
           "Y": 0
          },
          "handle_type": 0,
          "interpolation": 0
         }
        ]
       },
       "red": {
        "Points": [
         {
          "co": {
           "X": 1,
           "Y": 0
          },
          "handle_left": {
           "X": 0.5,
           "Y": 1
          },
          "handle_right": {
           "X": 0.5,
           "Y": 0
          },
          "handle_type": 0,
          "interpolation": 0
         }
        ]
       }
      },
      "waveform": false,
      "file_id": "14XMU5A0GJ",
      "title": "g0.png",
      "image": "thumbnail/14XMU5A0GJ.png"
     },
     {
      "alpha": {
       "Points": [
        {
         "co": {
          "X": 1,
          "Y": 1
         },
         "interpolation": 2
        }
       ]
      },
      "anchor": 0,
      "channel_filter": {
       "Points": [
        {
         "co": {
          "X": 1,
          "Y": -1
         },
         "interpolation": 2
        }
       ]
      },
      "channel_mapping": {
       "Points": [
        {
         "co": {
          "X": 1,
          "Y": -1
         },
         "interpolation": 2
        }
       ]
      },
      "crop_height": {
       "Points": [
        {
         "co": {
          "X": 1,
          "Y": 1
         },
         "interpolation": 2
        }
       ]
      },
      "crop_width": {
       "Points": [
        {
         "co": {
          "X": 1,
          "Y": 1
         },
         "interpolation": 2
        }
       ]
      },
      "crop_x": {
       "Points": [
        {
         "co": {
          "X": 1,
          "Y": 0
         },
         "interpolation": 2
        }
       ]
      },
      "crop_y": {
       "Points": [
        {
         "co": {
          "X": 1,
          "Y": 0
         },
         "interpolation": 2
        }
       ]
      },
      "display": 0,
      "duration": 3600.0,
      "effects": [],
      "end": 4.0,
      "gravity": 4,
      "has_audio": {
       "Points": [
        {
         "co": {
          "X": 1,
          "Y": -1
         },
         "interpolation": 2
        }
       ]
      },
      "has_video": {
       "Points": [
        {
         "co": {
          "X": 1,
          "Y": -1
         },
         "interpolation": 2
        }
       ]
      },
      "layer": 4000000,
      "location_x": {
       "Points": [
        {
         "co": {
          "X": 1,
          "Y": 0
         },
         "interpolation": 2
        }
       ]
      },
      "location_y": {
       "Points": [
        {
         "co": {
          "X": 1,
          "Y": 0
         },
         "interpolation": 2
        }
       ]
      },
      "mixing": 0,
      "perspective_c1_x": {
       "Points": [
        {
         "co": {
          "X": 1,
          "Y": -1
         },
         "interpolation": 2
        }
       ]
      },
      "perspective_c1_y": {
       "Points": [
        {
         "co": {
          "X": 1,
          "Y": -1
         },
         "interpolation": 2
        }
       ]
      },
      "perspective_c2_x": {
       "Points": [
        {
         "co": {
          "X": 1,
          "Y": -1
         },
         "interpolation": 2
        }
       ]
      },
      "perspective_c2_y": {
       "Points": [
        {
         "co": {
          "X": 1,
          "Y": -1
         },
         "interpolation": 2
        }
       ]
      },
      "perspective_c3_x": {
       "Points": [
        {
         "co": {
          "X": 1,
          "Y": -1
         },
         "interpolation": 2
        }
       ]
      },
      "perspective_c3_y": {
       "Points": [
        {
         "co": {
          "X": 1,
          "Y": -1
         },
         "interpolation": 2
        }
       ]
      },
      "perspective_c4_x": {
       "Points": [
        {
         "co": {
          "X": 1,
          "Y": -1
         },
         "interpolation": 2
        }
       ]
      },
      "perspective_c4_y": {
       "Points": [
        {
         "co": {
          "X": 1,
          "Y": -1
         },
         "interpolation": 2
        }
       ]
      },
      "position": 40.0,
      "reader": {
       "acodec": "",
       "audio_bit_rate": 0,
       "audio_stream_index": -1,
       "audio_timebase": {
        "den": 1,
        "num": 1
       },
       "channel_layout": 4,
       "channels": 0,
       "display_ratio": {
        "den": 9,
        "num": 16
       },
       "duration": 3600.0,
       "file_size": "8294400",
       "fps": {
        "den": 1,
        "num": 30
       },
       "has_audio": false,
       "has_single_image": true,
       "has_video": true,
       "height": 1080,
       "interlaced_frame": false,
       "metadata": {},
       "path": "generated/g0.png",
       "pixel_format": -1,
       "pixel_ratio": {
        "den": 1,
        "num": 1
       },
       "sample_rate": 0,
       "top_field_first": true,
       "type": "QtImageReader",
       "vcodec": "",
       "video_bit_rate": 0,
       "video_length": "108000",
       "video_stream_index": -1,
       "video_timebase": {
        "den": 30,
        "num": 1
       },
       "width": 1920
      },
      "rotation": {
       "Points": [
        {
         "co": {
          "X": 1,
          "Y": 0
         },
         "interpolation": 2
        }
       ]
      },
      "scale": 1,
      "scale_x": {
       "Points": [
        {
         "co": {
          "X": 1,
          "Y": 1
         },
         "interpolation": 2
        }
       ]
      },
      "scale_y": {
       "Points": [
        {
         "co": {
          "X": 1,
          "Y": 1
         },
         "interpolation": 2
        }
       ]
      },
      "shear_x": {
       "Points": [
        {
         "co": {
          "X": 1,
          "Y": 0
         },
         "interpolation": 2
        }
       ]
      },
      "shear_y": {
       "Points": [
        {
         "co": {
          "X": 1,
          "Y": 0
         },
         "interpolation": 2
        }
       ]
      },
      "start": 0,
      "time": {
       "Points": [
        {
         "co": {
          "X": 1,
          "Y": 1
         },
         "interpolation": 2
        }
       ]
      },
      "volume": {
       "Points": [
        {
         "co": {
          "X": 1,
          "Y": 1
         },
         "interpolation": 2
        }
       ]
      },
      "wave_color": {
       "alpha": {
        "Points": [
         {
          "co": {
           "X": 1,
           "Y": 255
          },
          "handle_left": {
           "X": 0.5,
           "Y": 1
          },
          "handle_right": {
           "X": 0.5,
           "Y": 0
          },
          "handle_type": 0,
          "interpolation": 0
         }
        ]
       },
       "blue": {
        "Points": [
         {
          "co": {
           "X": 1,
           "Y": 255
          },
          "handle_left": {
           "X": 0.5,
           "Y": 1
          },
          "handle_right": {
           "X": 0.5,
           "Y": 0
          },
          "handle_type": 0,
          "interpolation": 0
         }
        ]
       },
       "green": {
        "Points": [
         {
          "co": {
           "X": 1,
           "Y": 123
          },
          "handle_left": {
           "X": 0.5,
           "Y": 1
          },
          "handle_right": {
           "X": 0.5,
           "Y": 0
          },
          "handle_type": 0,
          "interpolation": 0
         }
        ]
       },
       "red": {
        "Points": [
         {
          "co": {
           "X": 1,
           "Y": 0
          },
          "handle_left": {
           "X": 0.5,
           "Y": 1
          },
          "handle_right": {
           "X": 0.5,
           "Y": 0
          },
          "handle_type": 0,
          "interpolation": 0
         }
        ]
       }
      },
      "waveform": false,
      "file_id": "14XMU5A0GJ",
      "title": "g0.png",
      "image": "thumbnail/14XMU5A0GJ.png",
      "id": "7RK9VP477J"
     },
     {
      "alpha": {
       "Points": [
        {
         "co": {
          "X": 1,
          "Y": 1
         },
         "interpolation": 2
        }
       ]
      },
      "anchor": 0,
      "channel_filter": {
       "Points": [
        {
         "co": {
          "X": 1,
          "Y": -1
         },
         "interpolation": 2
        }
       ]
      },
      "channel_mapping": {
       "Points": [
        {
         "co": {
          "X": 1,
          "Y": -1
         },
         "interpolation": 2
        }
       ]
      },
      "crop_height": {
       "Points": [
        {
         "co": {
          "X": 1,
          "Y": 1
         },
         "interpolation": 2
        }
       ]
      },
      "crop_width": {
       "Points": [
        {
         "co": {
          "X": 1,
          "Y": 1
         },
         "interpolation": 2
        }
       ]
      },
      "crop_x": {
       "Points": [
        {
         "co": {
          "X": 1,
          "Y": 0
         },
         "interpolation": 2
        }
       ]
      },
      "crop_y": {
       "Points": [
        {
         "co": {
          "X": 1,
          "Y": 0
         },
         "interpolation": 2
        }
       ]
      },
      "display": 0,
      "duration": 3600.0,
      "effects": [],
      "end": 2.0,
      "gravity": 4,
      "has_audio": {
       "Points": [
        {
         "co": {
          "X": 1,
          "Y": -1
         },
         "interpolation": 2
        }
       ]
      },
      "has_video": {
       "Points": [
        {
         "co": {
          "X": 1,
          "Y": -1
         },
         "interpolation": 2
        }
       ]
      },
      "id": "SV22ZA9D4P",
      "layer": 4000000,
      "location_x": {
       "Points": [
        {
         "co": {
          "X": 1,
          "Y": 0
         },
         "interpolation": 2
        }
       ]
      },
      "location_y": {
       "Points": [
        {
         "co": {
          "X": 1,
          "Y": 0
         },
         "interpolation": 2
        }
       ]
      },
      "mixing": 0,
      "perspective_c1_x": {
       "Points": [
        {
         "co": {
          "X": 1,
          "Y": -1
         },
         "interpolation": 2
        }
       ]
      },
      "perspective_c1_y": {
       "Points": [
        {
         "co": {
          "X": 1,
          "Y": -1
         },
         "interpolation": 2
        }
       ]
      },
      "perspective_c2_x": {
       "Points": [
        {
         "co": {
          "X": 1,
          "Y": -1
         },
         "interpolation": 2
        }
       ]
      },
      "perspective_c2_y": {
       "Points": [
        {
         "co": {
          "X": 1,
          "Y": -1
         },
         "interpolation": 2
        }
       ]
      },
      "perspective_c3_x": {
       "Points": [
        {
         "co": {
          "X": 1,
          "Y": -1
         },
         "interpolation": 2
        }
       ]
      },
      "perspective_c3_y": {
       "Points": [
        {
         "co": {
          "X": 1,
          "Y": -1
         },
         "interpolation": 2
        }
       ]
      },
      "perspective_c4_x": {
       "Points": [
        {
         "co": {
          "X": 1,
          "Y": -1
         },
         "interpolation": 2
        }
       ]
      },
      "perspective_c4_y": {
       "Points": [
        {
         "co": {
          "X": 1,
          "Y": -1
         },
         "interpolation": 2
        }
       ]
      },
      "position": 18,
      "reader": {
       "acodec": "",
       "audio_bit_rate": 0,
       "audio_stream_index": -1,
       "audio_timebase": {
        "den": 1,
        "num": 1
       },
       "channel_layout": 4,
       "channels": 0,
       "display_ratio": {
        "den": 9,
        "num": 16
       },
       "duration": 3600.0,
       "file_size": "8294400",
       "fps": {
        "den": 1,
        "num": 30
       },
       "has_audio": false,
       "has_single_image": true,
       "has_video": true,
       "height": 1080,
       "interlaced_frame": false,
       "metadata": {},
       "path": "generated/h0.png",
       "pixel_format": -1,
       "pixel_ratio": {
        "den": 1,
        "num": 1
       },
       "sample_rate": 0,
       "top_field_first": true,
       "type": "QtImageReader",
       "vcodec": "",
       "video_bit_rate": 0,
       "video_length": "108000",
       "video_stream_index": -1,
       "video_timebase": {
        "den": 30,
        "num": 1
       },
       "width": 1920
      },
      "rotation": {
       "Points": [
        {
         "co": {
          "X": 1,
          "Y": 0
         },
         "interpolation": 2
        }
       ]
      },
      "scale": 1,
      "scale_x": {
       "Points": [
        {
         "co": {
          "X": 1,
          "Y": 1
         },
         "interpolation": 2
        }
       ]
      },
      "scale_y": {
       "Points": [
        {
         "co": {
          "X": 1,
          "Y": 1
         },
         "interpolation": 2
        }
       ]
      },
      "shear_x": {
       "Points": [
        {
         "co": {
          "X": 1,
          "Y": 0
         },
         "interpolation": 2
        }
       ]
      },
      "shear_y": {
       "Points": [
        {
         "co": {
          "X": 1,
          "Y": 0
         },
         "interpolation": 2
        }
       ]
      },
      "start": 0,
      "time": {
       "Points": [
        {
         "co": {
          "X": 1,
          "Y": 1
         },
         "interpolation": 2
        }
       ]
      },
      "volume": {
       "Points": [
        {
         "co": {
          "X": 1,
          "Y": 1
         },
         "interpolation": 2
        }
       ]
      },
      "wave_color": {
       "alpha": {
        "Points": [
         {
          "co": {
           "X": 1,
           "Y": 255
          },
          "handle_left": {
           "X": 0.5,
           "Y": 1
          },
          "handle_right": {
           "X": 0.5,
           "Y": 0
          },
          "handle_type": 0,
          "interpolation": 0
         }
        ]
       },
       "blue": {
        "Points": [
         {
          "co": {
           "X": 1,
           "Y": 255
          },
          "handle_left": {
           "X": 0.5,
           "Y": 1
          },
          "handle_right": {
           "X": 0.5,
           "Y": 0
          },
          "handle_type": 0,
          "interpolation": 0
         }
        ]
       },
       "green": {
        "Points": [
         {
          "co": {
           "X": 1,
           "Y": 123
          },
          "handle_left": {
           "X": 0.5,
           "Y": 1
          },
          "handle_right": {
           "X": 0.5,
           "Y": 0
          },
          "handle_type": 0,
          "interpolation": 0
         }
        ]
       },
       "red": {
        "Points": [
         {
          "co": {
           "X": 1,
           "Y": 0
          },
          "handle_left": {
           "X": 0.5,
           "Y": 1
          },
          "handle_right": {
           "X": 0.5,
           "Y": 0
          },
          "handle_type": 0,
          "interpolation": 0
         }
        ]
       }
      },
      "waveform": false,
      "file_id": "QVT1S32TXK",
      "title": "h0.png",
      "image": "thumbnail/QVT1S32TXK.png"
     },
     {
      "alpha": {
       "Points": [
        {
         "co": {
          "X": 1,
          "Y": 1
         },
         "interpolation": 2
        }
       ]
      },
      "anchor": 0,
      "channel_filter": {
       "Points": [
        {
         "co": {
          "X": 1,
          "Y": -1
         },
         "interpolation": 2
        }
       ]
      },
      "channel_mapping": {
       "Points": [
        {
         "co": {
          "X": 1,
          "Y": -1
         },
         "interpolation": 2
        }
       ]
      },
      "crop_height": {
       "Points": [
        {
         "co": {
          "X": 1,
          "Y": 1
         },
         "interpolation": 2
        }
       ]
      },
      "crop_width": {
       "Points": [
        {
         "co": {
          "X": 1,
          "Y": 1
         },
         "interpolation": 2
        }
       ]
      },
      "crop_x": {
       "Points": [
        {
         "co": {
          "X": 1,
          "Y": 0
         },
         "interpolation": 2
        }
       ]
      },
      "crop_y": {
       "Points": [
        {
         "co": {
          "X": 1,
          "Y": 0
         },
         "interpolation": 2
        }
       ]
      },
      "display": 0,
      "duration": 3600.0,
      "effects": [],
      "end": 2,
      "gravity": 4,
      "has_audio": {
       "Points": [
        {
         "co": {
          "X": 1,
          "Y": -1
         },
         "interpolation": 2
        }
       ]
      },
      "has_video": {
       "Points": [
        {
         "co": {
          "X": 1,
          "Y": -1
         },
         "interpolation": 2
        }
       ]
      },
      "id": "VYRPQRJA3D",
      "layer": 4000000,
      "location_x": {
       "Points": [
        {
         "co": {
          "X": 1,
          "Y": 0
         },
         "interpolation": 2
        }
       ]
      },
      "location_y": {
       "Points": [
        {
         "co": {
          "X": 1,
          "Y": 0
         },
         "interpolation": 2
        }
       ]
      },
      "mixing": 0,
      "perspective_c1_x": {
       "Points": [
        {
         "co": {
          "X": 1,
          "Y": -1
         },
         "interpolation": 2
        }
       ]
      },
      "perspective_c1_y": {
       "Points": [
        {
         "co": {
          "X": 1,
          "Y": -1
         },
         "interpolation": 2
        }
       ]
      },
      "perspective_c2_x": {
       "Points": [
        {
         "co": {
          "X": 1,
          "Y": -1
         },
         "interpolation": 2
        }
       ]
      },
      "perspective_c2_y": {
       "Points": [
        {
         "co": {
          "X": 1,
          "Y": -1
         },
         "interpolation": 2
        }
       ]
      },
      "perspective_c3_x": {
       "Points": [
        {
         "co": {
          "X": 1,
          "Y": -1
         },
         "interpolation": 2
        }
       ]
      },
      "perspective_c3_y": {
       "Points": [
        {
         "co": {
          "X": 1,
          "Y": -1
         },
         "interpolation": 2
        }
       ]
      },
      "perspective_c4_x": {
       "Points": [
        {
         "co": {
          "X": 1,
          "Y": -1
         },
         "interpolation": 2
        }
       ]
      },
      "perspective_c4_y": {
       "Points": [
        {
         "co": {
          "X": 1,
          "Y": -1
         },
         "interpolation": 2
        }
       ]
      },
      "position": 19,
      "reader": {
       "acodec": "",
       "audio_bit_rate": 0,
       "audio_stream_index": -1,
       "audio_timebase": {
        "den": 1,
        "num": 1
       },
       "channel_layout": 4,
       "channels": 0,
       "display_ratio": {
        "den": 9,
        "num": 16
       },
       "duration": 3600.0,
       "file_size": "8294400",
       "fps": {
        "den": 1,
        "num": 30
       },
       "has_audio": false,
       "has_single_image": true,
       "has_video": true,
       "height": 1080,
       "interlaced_frame": false,
       "metadata": {},
       "path": "generated/h1.png",
       "pixel_format": -1,
       "pixel_ratio": {
        "den": 1,
        "num": 1
       },
       "sample_rate": 0,
       "top_field_first": true,
       "type": "QtImageReader",
       "vcodec": "",
       "video_bit_rate": 0,
       "video_length": "108000",
       "video_stream_index": -1,
       "video_timebase": {
        "den": 30,
        "num": 1
       },
       "width": 1920
      },
      "rotation": {
       "Points": [
        {
         "co": {
          "X": 1,
          "Y": 0
         },
         "interpolation": 2
        }
       ]
      },
      "scale": 1,
      "scale_x": {
       "Points": [
        {
         "co": {
          "X": 1,
          "Y": 1
         },
         "interpolation": 2
        }
       ]
      },
      "scale_y": {
       "Points": [
        {
         "co": {
          "X": 1,
          "Y": 1
         },
         "interpolation": 2
        }
       ]
      },
      "shear_x": {
       "Points": [
        {
         "co": {
          "X": 1,
          "Y": 0
         },
         "interpolation": 2
        }
       ]
      },
      "shear_y": {
       "Points": [
        {
         "co": {
          "X": 1,
          "Y": 0
         },
         "interpolation": 2
        }
       ]
      },
      "start": 0,
      "time": {
       "Points": [
        {
         "co": {
          "X": 1,
          "Y": 1
         },
         "interpolation": 2
        }
       ]
      },
      "volume": {
       "Points": [
        {
         "co": {
          "X": 1,
          "Y": 1
         },
         "interpolation": 2
        }
       ]
      },
      "wave_color": {
       "alpha": {
        "Points": [
         {
          "co": {
           "X": 1,
           "Y": 255
          },
          "handle_left": {
           "X": 0.5,
           "Y": 1
          },
          "handle_right": {
           "X": 0.5,
           "Y": 0
          },
          "handle_type": 0,
          "interpolation": 0
         }
        ]
       },
       "blue": {
        "Points": [
         {
          "co": {
           "X": 1,
           "Y": 255
          },
          "handle_left": {
           "X": 0.5,
           "Y": 1
          },
          "handle_right": {
           "X": 0.5,
           "Y": 0
          },
          "handle_type": 0,
          "interpolation": 0
         }
        ]
       },
       "green": {
        "Points": [
         {
          "co": {
           "X": 1,
           "Y": 123
          },
          "handle_left": {
           "X": 0.5,
           "Y": 1
          },
          "handle_right": {
           "X": 0.5,
           "Y": 0
          },
          "handle_type": 0,
          "interpolation": 0
         }
        ]
       },
       "red": {
        "Points": [
         {
          "co": {
           "X": 1,
           "Y": 0
          },
          "handle_left": {
           "X": 0.5,
           "Y": 1
          },
          "handle_right": {
           "X": 0.5,
           "Y": 0
          },
          "handle_type": 0,
          "interpolation": 0
         }
        ]
       }
      },
      "waveform": false,
      "file_id": "N9ZVMRMPJO",
      "title": "h1.png",
      "image": "thumbnail/N9ZVMRMPJO.png"
     },
     {
      "alpha": {
       "Points": [
        {
         "co": {
          "X": 1,
          "Y": 1
         },
         "interpolation": 2
        }
       ]
      },
      "anchor": 0,
      "channel_filter": {
       "Points": [
        {
         "co": {
          "X": 1,
          "Y": -1
         },
         "interpolation": 2
        }
       ]
      },
      "channel_mapping": {
       "Points": [
        {
         "co": {
          "X": 1,
          "Y": -1
         },
         "interpolation": 2
        }
       ]
      },
      "crop_height": {
       "Points": [
        {
         "co": {
          "X": 1,
          "Y": 1
         },
         "interpolation": 2
        }
       ]
      },
      "crop_width": {
       "Points": [
        {
         "co": {
          "X": 1,
          "Y": 1
         },
         "interpolation": 2
        }
       ]
      },
      "crop_x": {
       "Points": [
        {
         "co": {
          "X": 1,
          "Y": 0
         },
         "interpolation": 2
        }
       ]
      },
      "crop_y": {
       "Points": [
        {
         "co": {
          "X": 1,
          "Y": 0
         },
         "interpolation": 2
        }
       ]
      },
      "display": 0,
      "duration": 3600.0,
      "effects": [],
      "end": 3.0,
      "gravity": 4,
      "has_audio": {
       "Points": [
        {
         "co": {
          "X": 1,
          "Y": -1
         },
         "interpolation": 2
        }
       ]
      },
      "has_video": {
       "Points": [
        {
         "co": {
          "X": 1,
          "Y": -1
         },
         "interpolation": 2
        }
       ]
      },
      "id": "TLQZTYM12K",
      "layer": 4000000,
      "location_x": {
       "Points": [
        {
         "co": {
          "X": 1,
          "Y": 0
         },
         "interpolation": 2
        }
       ]
      },
      "location_y": {
       "Points": [
        {
         "co": {
          "X": 1,
          "Y": 0
         },
         "interpolation": 2
        }
       ]
      },
      "mixing": 0,
      "perspective_c1_x": {
       "Points": [
        {
         "co": {
          "X": 1,
          "Y": -1
         },
         "interpolation": 2
        }
       ]
      },
      "perspective_c1_y": {
       "Points": [
        {
         "co": {
          "X": 1,
          "Y": -1
         },
         "interpolation": 2
        }
       ]
      },
      "perspective_c2_x": {
       "Points": [
        {
         "co": {
          "X": 1,
          "Y": -1
         },
         "interpolation": 2
        }
       ]
      },
      "perspective_c2_y": {
       "Points": [
        {
         "co": {
          "X": 1,
          "Y": -1
         },
         "interpolation": 2
        }
       ]
      },
      "perspective_c3_x": {
       "Points": [
        {
         "co": {
          "X": 1,
          "Y": -1
         },
         "interpolation": 2
        }
       ]
      },
      "perspective_c3_y": {
       "Points": [
        {
         "co": {
          "X": 1,
          "Y": -1
         },
         "interpolation": 2
        }
       ]
      },
      "perspective_c4_x": {
       "Points": [
        {
         "co": {
          "X": 1,
          "Y": -1
         },
         "interpolation": 2
        }
       ]
      },
      "perspective_c4_y": {
       "Points": [
        {
         "co": {
          "X": 1,
          "Y": -1
         },
         "interpolation": 2
        }
       ]
      },
      "position": 20,
      "reader": {
       "acodec": "",
       "audio_bit_rate": 0,
       "audio_stream_index": -1,
       "audio_timebase": {
        "den": 1,
        "num": 1
       },
       "channel_layout": 4,
       "channels": 0,
       "display_ratio": {
        "den": 9,
        "num": 16
       },
       "duration": 3600.0,
       "file_size": "8294400",
       "fps": {
        "den": 1,
        "num": 30
       },
       "has_audio": false,
       "has_single_image": true,
       "has_video": true,
       "height": 1080,
       "interlaced_frame": false,
       "metadata": {},
       "path": "generated/h2.png",
       "pixel_format": -1,
       "pixel_ratio": {
        "den": 1,
        "num": 1
       },
       "sample_rate": 0,
       "top_field_first": true,
       "type": "QtImageReader",
       "vcodec": "",
       "video_bit_rate": 0,
       "video_length": "108000",
       "video_stream_index": -1,
       "video_timebase": {
        "den": 30,
        "num": 1
       },
       "width": 1920
      },
      "rotation": {
       "Points": [
        {
         "co": {
          "X": 1,
          "Y": 0
         },
         "interpolation": 2
        }
       ]
      },
      "scale": 1,
      "scale_x": {
       "Points": [
        {
         "co": {
          "X": 1,
          "Y": 1
         },
         "interpolation": 2
        }
       ]
      },
      "scale_y": {
       "Points": [
        {
         "co": {
          "X": 1,
          "Y": 1
         },
         "interpolation": 2
        }
       ]
      },
      "shear_x": {
       "Points": [
        {
         "co": {
          "X": 1,
          "Y": 0
         },
         "interpolation": 2
        }
       ]
      },
      "shear_y": {
       "Points": [
        {
         "co": {
          "X": 1,
          "Y": 0
         },
         "interpolation": 2
        }
       ]
      },
      "start": 0,
      "time": {
       "Points": [
        {
         "co": {
          "X": 1,
          "Y": 1
         },
         "interpolation": 2
        }
       ]
      },
      "volume": {
       "Points": [
        {
         "co": {
          "X": 1,
          "Y": 1
         },
         "interpolation": 2
        }
       ]
      },
      "wave_color": {
       "alpha": {
        "Points": [
         {
          "co": {
           "X": 1,
           "Y": 255
          },
          "handle_left": {
           "X": 0.5,
           "Y": 1
          },
          "handle_right": {
           "X": 0.5,
           "Y": 0
          },
          "handle_type": 0,
          "interpolation": 0
         }
        ]
       },
       "blue": {
        "Points": [
         {
          "co": {
           "X": 1,
           "Y": 255
          },
          "handle_left": {
           "X": 0.5,
           "Y": 1
          },
          "handle_right": {
           "X": 0.5,
           "Y": 0
          },
          "handle_type": 0,
          "interpolation": 0
         }
        ]
       },
       "green": {
        "Points": [
         {
          "co": {
           "X": 1,
           "Y": 123
          },
          "handle_left": {
           "X": 0.5,
           "Y": 1
          },
          "handle_right": {
           "X": 0.5,
           "Y": 0
          },
          "handle_type": 0,
          "interpolation": 0
         }
        ]
       },
       "red": {
        "Points": [
         {
          "co": {
           "X": 1,
           "Y": 0
          },
          "handle_left": {
           "X": 0.5,
           "Y": 1
          },
          "handle_right": {
           "X": 0.5,
           "Y": 0
          },
          "handle_type": 0,
          "interpolation": 0
         }
        ]
       }
      },
      "waveform": false,
      "file_id": "T3MJ00KEDL",
      "title": "h2.png",
      "image": "thumbnail/T3MJ00KEDL.png"
     },
     {
      "alpha": {
       "Points": [
        {
         "co": {
          "X": 1,
          "Y": 1
         },
         "interpolation": 2
        }
       ]
      },
      "anchor": 0,
      "channel_filter": {
       "Points": [
        {
         "co": {
          "X": 1,
          "Y": -1
         },
         "interpolation": 2
        }
       ]
      },
      "channel_mapping": {
       "Points": [
        {
         "co": {
          "X": 1,
          "Y": -1
         },
         "interpolation": 2
        }
       ]
      },
      "crop_height": {
       "Points": [
        {
         "co": {
          "X": 1,
          "Y": 1
         },
         "interpolation": 2
        }
       ]
      },
      "crop_width": {
       "Points": [
        {
         "co": {
          "X": 1,
          "Y": 1
         },
         "interpolation": 2
        }
       ]
      },
      "crop_x": {
       "Points": [
        {
         "co": {
          "X": 1,
          "Y": 0
         },
         "interpolation": 2
        }
       ]
      },
      "crop_y": {
       "Points": [
        {
         "co": {
          "X": 1,
          "Y": 0
         },
         "interpolation": 2
        }
       ]
      },
      "display": 0,
      "duration": 3600.0,
      "effects": [],
      "end": 3,
      "gravity": 4,
      "has_audio": {
       "Points": [
        {
         "co": {
          "X": 1,
          "Y": -1
         },
         "interpolation": 2
        }
       ]
      },
      "has_video": {
       "Points": [
        {
         "co": {
          "X": 1,
          "Y": -1
         },
         "interpolation": 2
        }
       ]
      },
      "id": "4QOLEO0O2I",
      "layer": 4000000,
      "location_x": {
       "Points": [
        {
         "co": {
          "X": 1,
          "Y": 0
         },
         "interpolation": 2
        }
       ]
      },
      "location_y": {
       "Points": [
        {
         "co": {
          "X": 1,
          "Y": 0
         },
         "interpolation": 2
        }
       ]
      },
      "mixing": 0,
      "perspective_c1_x": {
       "Points": [
        {
         "co": {
          "X": 1,
          "Y": -1
         },
         "interpolation": 2
        }
       ]
      },
      "perspective_c1_y": {
       "Points": [
        {
         "co": {
          "X": 1,
          "Y": -1
         },
         "interpolation": 2
        }
       ]
      },
      "perspective_c2_x": {
       "Points": [
        {
         "co": {
          "X": 1,
          "Y": -1
         },
         "interpolation": 2
        }
       ]
      },
      "perspective_c2_y": {
       "Points": [
        {
         "co": {
          "X": 1,
          "Y": -1
         },
         "interpolation": 2
        }
       ]
      },
      "perspective_c3_x": {
       "Points": [
        {
         "co": {
          "X": 1,
          "Y": -1
         },
         "interpolation": 2
        }
       ]
      },
      "perspective_c3_y": {
       "Points": [
        {
         "co": {
          "X": 1,
          "Y": -1
         },
         "interpolation": 2
        }
       ]
      },
      "perspective_c4_x": {
       "Points": [
        {
         "co": {
          "X": 1,
          "Y": -1
         },
         "interpolation": 2
        }
       ]
      },
      "perspective_c4_y": {
       "Points": [
        {
         "co": {
          "X": 1,
          "Y": -1
         },
         "interpolation": 2
        }
       ]
      },
      "position": 22,
      "reader": {
       "acodec": "",
       "audio_bit_rate": 0,
       "audio_stream_index": -1,
       "audio_timebase": {
        "den": 1,
        "num": 1
       },
       "channel_layout": 4,
       "channels": 0,
       "display_ratio": {
        "den": 9,
        "num": 16
       },
       "duration": 3600.0,
       "file_size": "8294400",
       "fps": {
        "den": 1,
        "num": 30
       },
       "has_audio": false,
       "has_single_image": true,
       "has_video": true,
       "height": 1080,
       "interlaced_frame": false,
       "metadata": {},
       "path": "generated/h3.png",
       "pixel_format": -1,
       "pixel_ratio": {
        "den": 1,
        "num": 1
       },
       "sample_rate": 0,
       "top_field_first": true,
       "type": "QtImageReader",
       "vcodec": "",
       "video_bit_rate": 0,
       "video_length": "108000",
       "video_stream_index": -1,
       "video_timebase": {
        "den": 30,
        "num": 1
       },
       "width": 1920
      },
      "rotation": {
       "Points": [
        {
         "co": {
          "X": 1,
          "Y": 0
         },
         "interpolation": 2
        }
       ]
      },
      "scale": 1,
      "scale_x": {
       "Points": [
        {
         "co": {
          "X": 1,
          "Y": 1
         },
         "interpolation": 2
        }
       ]
      },
      "scale_y": {
       "Points": [
        {
         "co": {
          "X": 1,
          "Y": 1
         },
         "interpolation": 2
        }
       ]
      },
      "shear_x": {
       "Points": [
        {
         "co": {
          "X": 1,
          "Y": 0
         },
         "interpolation": 2
        }
       ]
      },
      "shear_y": {
       "Points": [
        {
         "co": {
          "X": 1,
          "Y": 0
         },
         "interpolation": 2
        }
       ]
      },
      "start": 0,
      "time": {
       "Points": [
        {
         "co": {
          "X": 1,
          "Y": 1
         },
         "interpolation": 2
        }
       ]
      },
      "volume": {
       "Points": [
        {
         "co": {
          "X": 1,
          "Y": 1
         },
         "interpolation": 2
        }
       ]
      },
      "wave_color": {
       "alpha": {
        "Points": [
         {
          "co": {
           "X": 1,
           "Y": 255
          },
          "handle_left": {
           "X": 0.5,
           "Y": 1
          },
          "handle_right": {
           "X": 0.5,
           "Y": 0
          },
          "handle_type": 0,
          "interpolation": 0
         }
        ]
       },
       "blue": {
        "Points": [
         {
          "co": {
           "X": 1,
           "Y": 255
          },
          "handle_left": {
           "X": 0.5,
           "Y": 1
          },
          "handle_right": {
           "X": 0.5,
           "Y": 0
          },
          "handle_type": 0,
          "interpolation": 0
         }
        ]
       },
       "green": {
        "Points": [
         {
          "co": {
           "X": 1,
           "Y": 123
          },
          "handle_left": {
           "X": 0.5,
           "Y": 1
          },
          "handle_right": {
           "X": 0.5,
           "Y": 0
          },
          "handle_type": 0,
          "interpolation": 0
         }
        ]
       },
       "red": {
        "Points": [
         {
          "co": {
           "X": 1,
           "Y": 0
          },
          "handle_left": {
           "X": 0.5,
           "Y": 1
          },
          "handle_right": {
           "X": 0.5,
           "Y": 0
          },
          "handle_type": 0,
          "interpolation": 0
         }
        ]
       }
      },
      "waveform": false,
      "file_id": "JOU98JSDB6",
      "title": "h3.png",
      "image": "thumbnail/JOU98JSDB6.png"
     },
     {
      "alpha": {
       "Points": [
        {
         "co": {
          "X": 1,
          "Y": 1
         },
         "interpolation": 2
        }
       ]
      },
      "anchor": 0,
      "channel_filter": {
       "Points": [
        {
         "co": {
          "X": 1,
          "Y": -1
         },
         "interpolation": 2
        }
       ]
      },
      "channel_mapping": {
       "Points": [
        {
         "co": {
          "X": 1,
          "Y": -1
         },
         "interpolation": 2
        }
       ]
      },
      "crop_height": {
       "Points": [
        {
         "co": {
          "X": 1,
          "Y": 1
         },
         "interpolation": 2
        }
       ]
      },
      "crop_width": {
       "Points": [
        {
         "co": {
          "X": 1,
          "Y": 1
         },
         "interpolation": 2
        }
       ]
      },
      "crop_x": {
       "Points": [
        {
         "co": {
          "X": 1,
          "Y": 0
         },
         "interpolation": 2
        }
       ]
      },
      "crop_y": {
       "Points": [
        {
         "co": {
          "X": 1,
          "Y": 0
         },
         "interpolation": 2
        }
       ]
      },
      "display": 0,
      "duration": 3600.0,
      "effects": [],
      "end": 3,
      "gravity": 4,
      "has_audio": {
       "Points": [
        {
         "co": {
          "X": 1,
          "Y": -1
         },
         "interpolation": 2
        }
       ]
      },
      "has_video": {
       "Points": [
        {
         "co": {
          "X": 1,
          "Y": -1
         },
         "interpolation": 2
        }
       ]
      },
      "id": "W8XLV077GB",
      "layer": 4000000,
      "location_x": {
       "Points": [
        {
         "co": {
          "X": 1,
          "Y": 0
         },
         "interpolation": 2
        }
       ]
      },
      "location_y": {
       "Points": [
        {
         "co": {
          "X": 1,
          "Y": 0
         },
         "interpolation": 2
        }
       ]
      },
      "mixing": 0,
      "perspective_c1_x": {
       "Points": [
        {
         "co": {
          "X": 1,
          "Y": -1
         },
         "interpolation": 2
        }
       ]
      },
      "perspective_c1_y": {
       "Points": [
        {
         "co": {
          "X": 1,
          "Y": -1
         },
         "interpolation": 2
        }
       ]
      },
      "perspective_c2_x": {
       "Points": [
        {
         "co": {
          "X": 1,
          "Y": -1
         },
         "interpolation": 2
        }
       ]
      },
      "perspective_c2_y": {
       "Points": [
        {
         "co": {
          "X": 1,
          "Y": -1
         },
         "interpolation": 2
        }
       ]
      },
      "perspective_c3_x": {
       "Points": [
        {
         "co": {
          "X": 1,
          "Y": -1
         },
         "interpolation": 2
        }
       ]
      },
      "perspective_c3_y": {
       "Points": [
        {
         "co": {
          "X": 1,
          "Y": -1
         },
         "interpolation": 2
        }
       ]
      },
      "perspective_c4_x": {
       "Points": [
        {
         "co": {
          "X": 1,
          "Y": -1
         },
         "interpolation": 2
        }
       ]
      },
      "perspective_c4_y": {
       "Points": [
        {
         "co": {
          "X": 1,
          "Y": -1
         },
         "interpolation": 2
        }
       ]
      },
      "position": 24,
      "reader": {
       "acodec": "",
       "audio_bit_rate": 0,
       "audio_stream_index": -1,
       "audio_timebase": {
        "den": 1,
        "num": 1
       },
       "channel_layout": 4,
       "channels": 0,
       "display_ratio": {
        "den": 9,
        "num": 16
       },
       "duration": 3600.0,
       "file_size": "8294400",
       "fps": {
        "den": 1,
        "num": 30
       },
       "has_audio": false,
       "has_single_image": true,
       "has_video": true,
       "height": 1080,
       "interlaced_frame": false,
       "metadata": {},
       "path": "generated/h4.png",
       "pixel_format": -1,
       "pixel_ratio": {
        "den": 1,
        "num": 1
       },
       "sample_rate": 0,
       "top_field_first": true,
       "type": "QtImageReader",
       "vcodec": "",
       "video_bit_rate": 0,
       "video_length": "108000",
       "video_stream_index": -1,
       "video_timebase": {
        "den": 30,
        "num": 1
       },
       "width": 1920
      },
      "rotation": {
       "Points": [
        {
         "co": {
          "X": 1,
          "Y": 0
         },
         "interpolation": 2
        }
       ]
      },
      "scale": 1,
      "scale_x": {
       "Points": [
        {
         "co": {
          "X": 1,
          "Y": 1
         },
         "interpolation": 2
        }
       ]
      },
      "scale_y": {
       "Points": [
        {
         "co": {
          "X": 1,
          "Y": 1
         },
         "interpolation": 2
        }
       ]
      },
      "shear_x": {
       "Points": [
        {
         "co": {
          "X": 1,
          "Y": 0
         },
         "interpolation": 2
        }
       ]
      },
      "shear_y": {
       "Points": [
        {
         "co": {
          "X": 1,
          "Y": 0
         },
         "interpolation": 2
        }
       ]
      },
      "start": 0,
      "time": {
       "Points": [
        {
         "co": {
          "X": 1,
          "Y": 1
         },
         "interpolation": 2
        }
       ]
      },
      "volume": {
       "Points": [
        {
         "co": {
          "X": 1,
          "Y": 1
         },
         "interpolation": 2
        }
       ]
      },
      "wave_color": {
       "alpha": {
        "Points": [
         {
          "co": {
           "X": 1,
           "Y": 255
          },
          "handle_left": {
           "X": 0.5,
           "Y": 1
          },
          "handle_right": {
           "X": 0.5,
           "Y": 0
          },
          "handle_type": 0,
          "interpolation": 0
         }
        ]
       },
       "blue": {
        "Points": [
         {
          "co": {
           "X": 1,
           "Y": 255
          },
          "handle_left": {
           "X": 0.5,
           "Y": 1
          },
          "handle_right": {
           "X": 0.5,
           "Y": 0
          },
          "handle_type": 0,
          "interpolation": 0
         }
        ]
       },
       "green": {
        "Points": [
         {
          "co": {
           "X": 1,
           "Y": 123
          },
          "handle_left": {
           "X": 0.5,
           "Y": 1
          },
          "handle_right": {
           "X": 0.5,
           "Y": 0
          },
          "handle_type": 0,
          "interpolation": 0
         }
        ]
       },
       "red": {
        "Points": [
         {
          "co": {
           "X": 1,
           "Y": 0
          },
          "handle_left": {
           "X": 0.5,
           "Y": 1
          },
          "handle_right": {
           "X": 0.5,
           "Y": 0
          },
          "handle_type": 0,
          "interpolation": 0
         }
        ]
       }
      },
      "waveform": false,
      "file_id": "CCXO5CQWJF",
      "title": "h4.png",
      "image": "thumbnail/CCXO5CQWJF.png"
     },
     {
      "alpha": {
       "Points": [
        {
         "co": {
          "X": 1,
          "Y": 1
         },
         "interpolation": 2
        }
       ]
      },
      "anchor": 0,
      "channel_filter": {
       "Points": [
        {
         "co": {
          "X": 1,
          "Y": -1
         },
         "interpolation": 2
        }
       ]
      },
      "channel_mapping": {
       "Points": [
        {
         "co": {
          "X": 1,
          "Y": -1
         },
         "interpolation": 2
        }
       ]
      },
      "crop_height": {
       "Points": [
        {
         "co": {
          "X": 1,
          "Y": 1
         },
         "interpolation": 2
        }
       ]
      },
      "crop_width": {
       "Points": [
        {
         "co": {
          "X": 1,
          "Y": 1
         },
         "interpolation": 2
        }
       ]
      },
      "crop_x": {
       "Points": [
        {
         "co": {
          "X": 1,
          "Y": 0
         },
         "interpolation": 2
        }
       ]
      },
      "crop_y": {
       "Points": [
        {
         "co": {
          "X": 1,
          "Y": 0
         },
         "interpolation": 2
        }
       ]
      },
      "display": 0,
      "duration": 3600.0,
      "effects": [],
      "end": 3.0,
      "gravity": 4,
      "has_audio": {
       "Points": [
        {
         "co": {
          "X": 1,
          "Y": -1
         },
         "interpolation": 2
        }
       ]
      },
      "has_video": {
       "Points": [
        {
         "co": {
          "X": 1,
          "Y": -1
         },
         "interpolation": 2
        }
       ]
      },
      "id": "MROIK1U0GO",
      "layer": 4000000,
      "location_x": {
       "Points": [
        {
         "co": {
          "X": 1,
          "Y": 0
         },
         "interpolation": 2
        }
       ]
      },
      "location_y": {
       "Points": [
        {
         "co": {
          "X": 1,
          "Y": 0
         },
         "interpolation": 2
        }
       ]
      },
      "mixing": 0,
      "perspective_c1_x": {
       "Points": [
        {
         "co": {
          "X": 1,
          "Y": -1
         },
         "interpolation": 2
        }
       ]
      },
      "perspective_c1_y": {
       "Points": [
        {
         "co": {
          "X": 1,
          "Y": -1
         },
         "interpolation": 2
        }
       ]
      },
      "perspective_c2_x": {
       "Points": [
        {
         "co": {
          "X": 1,
          "Y": -1
         },
         "interpolation": 2
        }
       ]
      },
      "perspective_c2_y": {
       "Points": [
        {
         "co": {
          "X": 1,
          "Y": -1
         },
         "interpolation": 2
        }
       ]
      },
      "perspective_c3_x": {
       "Points": [
        {
         "co": {
          "X": 1,
          "Y": -1
         },
         "interpolation": 2
        }
       ]
      },
      "perspective_c3_y": {
       "Points": [
        {
         "co": {
          "X": 1,
          "Y": -1
         },
         "interpolation": 2
        }
       ]
      },
      "perspective_c4_x": {
       "Points": [
        {
         "co": {
          "X": 1,
          "Y": -1
         },
         "interpolation": 2
        }
       ]
      },
      "perspective_c4_y": {
       "Points": [
        {
         "co": {
          "X": 1,
          "Y": -1
         },
         "interpolation": 2
        }
       ]
      },
      "position": 26,
      "reader": {
       "acodec": "",
       "audio_bit_rate": 0,
       "audio_stream_index": -1,
       "audio_timebase": {
        "den": 1,
        "num": 1
       },
       "channel_layout": 4,
       "channels": 0,
       "display_ratio": {
        "den": 9,
        "num": 16
       },
       "duration": 3600.0,
       "file_size": "8294400",
       "fps": {
        "den": 1,
        "num": 30
       },
       "has_audio": false,
       "has_single_image": true,
       "has_video": true,
       "height": 1080,
       "interlaced_frame": false,
       "metadata": {},
       "path": "generated/h5.png",
       "pixel_format": -1,
       "pixel_ratio": {
        "den": 1,
        "num": 1
       },
       "sample_rate": 0,
       "top_field_first": true,
       "type": "QtImageReader",
       "vcodec": "",
       "video_bit_rate": 0,
       "video_length": "108000",
       "video_stream_index": -1,
       "video_timebase": {
        "den": 30,
        "num": 1
       },
       "width": 1920
      },
      "rotation": {
       "Points": [
        {
         "co": {
          "X": 1,
          "Y": 0
         },
         "interpolation": 2
        }
       ]
      },
      "scale": 1,
      "scale_x": {
       "Points": [
        {
         "co": {
          "X": 1,
          "Y": 1
         },
         "interpolation": 2
        }
       ]
      },
      "scale_y": {
       "Points": [
        {
         "co": {
          "X": 1,
          "Y": 1
         },
         "interpolation": 2
        }
       ]
      },
      "shear_x": {
       "Points": [
        {
         "co": {
          "X": 1,
          "Y": 0
         },
         "interpolation": 2
        }
       ]
      },
      "shear_y": {
       "Points": [
        {
         "co": {
          "X": 1,
          "Y": 0
         },
         "interpolation": 2
        }
       ]
      },
      "start": 0,
      "time": {
       "Points": [
        {
         "co": {
          "X": 1,
          "Y": 1
         },
         "interpolation": 2
        }
       ]
      },
      "volume": {
       "Points": [
        {
         "co": {
          "X": 1,
          "Y": 1
         },
         "interpolation": 2
        }
       ]
      },
      "wave_color": {
       "alpha": {
        "Points": [
         {
          "co": {
           "X": 1,
           "Y": 255
          },
          "handle_left": {
           "X": 0.5,
           "Y": 1
          },
          "handle_right": {
           "X": 0.5,
           "Y": 0
          },
          "handle_type": 0,
          "interpolation": 0
         }
        ]
       },
       "blue": {
        "Points": [
         {
          "co": {
           "X": 1,
           "Y": 255
          },
          "handle_left": {
           "X": 0.5,
           "Y": 1
          },
          "handle_right": {
           "X": 0.5,
           "Y": 0
          },
          "handle_type": 0,
          "interpolation": 0
         }
        ]
       },
       "green": {
        "Points": [
         {
          "co": {
           "X": 1,
           "Y": 123
          },
          "handle_left": {
           "X": 0.5,
           "Y": 1
          },
          "handle_right": {
           "X": 0.5,
           "Y": 0
          },
          "handle_type": 0,
          "interpolation": 0
         }
        ]
       },
       "red": {
        "Points": [
         {
          "co": {
           "X": 1,
           "Y": 0
          },
          "handle_left": {
           "X": 0.5,
           "Y": 1
          },
          "handle_right": {
           "X": 0.5,
           "Y": 0
          },
          "handle_type": 0,
          "interpolation": 0
         }
        ]
       }
      },
      "waveform": false,
      "file_id": "OHTYNJHJ4A",
      "title": "h5.png",
      "image": "thumbnail/OHTYNJHJ4A.png"
     },
     {
      "alpha": {
       "Points": [
        {
         "co": {
          "X": 1,
          "Y": 1
         },
         "interpolation": 2
        }
       ]
      },
      "anchor": 0,
      "channel_filter": {
       "Points": [
        {
         "co": {
          "X": 1,
          "Y": -1
         },
         "interpolation": 2
        }
       ]
      },
      "channel_mapping": {
       "Points": [
        {
         "co": {
          "X": 1,
          "Y": -1
         },
         "interpolation": 2
        }
       ]
      },
      "crop_height": {
       "Points": [
        {
         "co": {
          "X": 1,
          "Y": 1
         },
         "interpolation": 2
        }
       ]
      },
      "crop_width": {
       "Points": [
        {
         "co": {
          "X": 1,
          "Y": 1
         },
         "interpolation": 2
        }
       ]
      },
      "crop_x": {
       "Points": [
        {
         "co": {
          "X": 1,
          "Y": 0
         },
         "interpolation": 2
        }
       ]
      },
      "crop_y": {
       "Points": [
        {
         "co": {
          "X": 1,
          "Y": 0
         },
         "interpolation": 2
        }
       ]
      },
      "display": 0,
      "duration": 59.67503356933594,
      "effects": [],
      "end": 59.67503356933594,
      "gravity": 4,
      "has_audio": {
       "Points": [
        {
         "co": {
          "X": 1,
          "Y": -1
         },
         "interpolation": 2
        }
       ]
      },
      "has_video": {
       "Points": [
        {
         "co": {
          "X": 1,
          "Y": -1
         },
         "interpolation": 2
        }
       ]
      },
      "id": "0RGSG8RUAQ",
      "layer": 1000000,
      "location_x": {
       "Points": [
        {
         "co": {
          "X": 1,
          "Y": 0
         },
         "interpolation": 2
        }
       ]
      },
      "location_y": {
       "Points": [
        {
         "co": {
          "X": 1,
          "Y": 0
         },
         "interpolation": 2
        }
       ]
      },
      "mixing": 0,
      "perspective_c1_x": {
       "Points": [
        {
         "co": {
          "X": 1,
          "Y": -1
         },
         "interpolation": 2
        }
       ]
      },
      "perspective_c1_y": {
       "Points": [
        {
         "co": {
          "X": 1,
          "Y": -1
         },
         "interpolation": 2
        }
       ]
      },
      "perspective_c2_x": {
       "Points": [
        {
         "co": {
          "X": 1,
          "Y": -1
         },
         "interpolation": 2
        }
       ]
      },
      "perspective_c2_y": {
       "Points": [
        {
         "co": {
          "X": 1,
          "Y": -1
         },
         "interpolation": 2
        }
       ]
      },
      "perspective_c3_x": {
       "Points": [
        {
         "co": {
          "X": 1,
          "Y": -1
         },
         "interpolation": 2
        }
       ]
      },
      "perspective_c3_y": {
       "Points": [
        {
         "co": {
          "X": 1,
          "Y": -1
         },
         "interpolation": 2
        }
       ]
      },
      "perspective_c4_x": {
       "Points": [
        {
         "co": {
          "X": 1,
          "Y": -1
         },
         "interpolation": 2
        }
       ]
      },
      "perspective_c4_y": {
       "Points": [
        {
         "co": {
          "X": 1,
          "Y": -1
         },
         "interpolation": 2
        }
       ]
      },
      "position": 0,
      "reader": {
       "acodec": "pcm_s16le",
       "audio_bit_rate": 705600,
       "audio_stream_index": 0,
       "audio_timebase": {
        "den": 44100,
        "num": 1
       },
       "channel_layout": 4,
       "channels": 1,
       "display_ratio": {
        "den": 1,
        "num": 1
       },
       "duration": 59.67503356933594,
       "file_size": "5263498",
       "fps": {
        "den": 1,
        "num": 24
       },
       "has_audio": true,
       "has_single_image": false,
       "has_video": false,
       "height": 480,
       "interlaced_frame": false,
       "metadata": {
        "artist": "Colin Sindle",
        "date": "2021"
       },
       "path": "./voice_over.wav",
       "pixel_format": -1,
       "pixel_ratio": {
        "den": 1,
        "num": 1
       },
       "sample_rate": 44100,
       "top_field_first": true,
       "type": "FFmpegReader",
       "vcodec": "",
       "video_bit_rate": 0,
       "video_length": "1432",
       "video_stream_index": -1,
       "video_timebase": {
        "den": 24,
        "num": 1
       },
       "width": 720
      },
      "rotation": {
       "Points": [
        {
         "co": {
          "X": 1,
          "Y": 0
         },
         "interpolation": 2
        }
       ]
      },
      "scale": 1,
      "scale_x": {
       "Points": [
        {
         "co": {
          "X": 1,
          "Y": 1
         },
         "interpolation": 2
        }
       ]
      },
      "scale_y": {
       "Points": [
        {
         "co": {
          "X": 1,
          "Y": 1
         },
         "interpolation": 2
        }
       ]
      },
      "shear_x": {
       "Points": [
        {
         "co": {
          "X": 1,
          "Y": 0
         },
         "interpolation": 2
        }
       ]
      },
      "shear_y": {
       "Points": [
        {
         "co": {
          "X": 1,
          "Y": 0
         },
         "interpolation": 2
        }
       ]
      },
      "start": 0,
      "time": {
       "Points": [
        {
         "co": {
          "X": 1,
          "Y": 1
         },
         "interpolation": 2
        }
       ]
      },
      "volume": {
       "Points": [
        {
         "co": {
          "X": 1,
          "Y": 1
         },
         "interpolation": 2
        }
       ]
      },
      "wave_color": {
       "alpha": {
        "Points": [
         {
          "co": {
           "X": 1,
           "Y": 255
          },
          "handle_left": {
           "X": 0.5,
           "Y": 1
          },
          "handle_right": {
           "X": 0.5,
           "Y": 0
          },
          "handle_type": 0,
          "interpolation": 0
         }
        ]
       },
       "blue": {
        "Points": [
         {
          "co": {
           "X": 1,
           "Y": 255
          },
          "handle_left": {
           "X": 0.5,
           "Y": 1
          },
          "handle_right": {
           "X": 0.5,
           "Y": 0
          },
          "handle_type": 0,
          "interpolation": 0
         }
        ]
       },
       "green": {
        "Points": [
         {
          "co": {
           "X": 1,
           "Y": 123
          },
          "handle_left": {
           "X": 0.5,
           "Y": 1
          },
          "handle_right": {
           "X": 0.5,
           "Y": 0
          },
          "handle_type": 0,
          "interpolation": 0
         }
        ]
       },
       "red": {
        "Points": [
         {
          "co": {
           "X": 1,
           "Y": 0
          },
          "handle_left": {
           "X": 0.5,
           "Y": 1
          },
          "handle_right": {
           "X": 0.5,
           "Y": 0
          },
          "handle_type": 0,
          "interpolation": 0
         }
        ]
       }
      },
      "waveform": false,
      "file_id": "ZD0LJGZUTV",
      "title": "voice_over.wav",
      "image": "thumbnail/ZD0LJGZUTV.png"
     }
    ]
   },
   {
    "type": "delete",
    "key": [
     "clips",
     {
      "id": "ITFSCWYRL6"
     }
    ],
    "value": null,
    "partial": false,
    "old_values": {
     "alpha": {
      "Points": [
       {
        "co": {
         "X": 1,
         "Y": 1
        },
        "interpolation": 2
       }
      ]
     },
     "anchor": 0,
     "channel_filter": {
      "Points": [
       {
        "co": {
         "X": 1,
         "Y": -1
        },
        "interpolation": 2
       }
      ]
     },
     "channel_mapping": {
      "Points": [
       {
        "co": {
         "X": 1,
         "Y": -1
        },
        "interpolation": 2
       }
      ]
     },
     "crop_height": {
      "Points": [
       {
        "co": {
         "X": 1,
         "Y": 1
        },
        "interpolation": 2
       }
      ]
     },
     "crop_width": {
      "Points": [
       {
        "co": {
         "X": 1,
         "Y": 1
        },
        "interpolation": 2
       }
      ]
     },
     "crop_x": {
      "Points": [
       {
        "co": {
         "X": 1,
         "Y": 0
        },
        "interpolation": 2
       }
      ]
     },
     "crop_y": {
      "Points": [
       {
        "co": {
         "X": 1,
         "Y": 0
        },
        "interpolation": 2
       }
      ]
     },
     "display": 0,
     "duration": 3600.0,
     "effects": [],
     "end": 5.0,
     "gravity": 4,
     "has_audio": {
      "Points": [
       {
        "co": {
         "X": 1,
         "Y": -1
        },
        "interpolation": 2
       }
      ]
     },
     "has_video": {
      "Points": [
       {
        "co": {
         "X": 1,
         "Y": -1
        },
        "interpolation": 2
       }
      ]
     },
     "id": "ITFSCWYRL6",
     "layer": 5000000,
     "location_x": {
      "Points": [
       {
        "co": {
         "X": 1,
         "Y": 0
        },
        "interpolation": 2
       }
      ]
     },
     "location_y": {
      "Points": [
       {
        "co": {
         "X": 1,
         "Y": 0
        },
        "interpolation": 2
       }
      ]
     },
     "mixing": 0,
     "perspective_c1_x": {
      "Points": [
       {
        "co": {
         "X": 1,
         "Y": -1
        },
        "interpolation": 2
       }
      ]
     },
     "perspective_c1_y": {
      "Points": [
       {
        "co": {
         "X": 1,
         "Y": -1
        },
        "interpolation": 2
       }
      ]
     },
     "perspective_c2_x": {
      "Points": [
       {
        "co": {
         "X": 1,
         "Y": -1
        },
        "interpolation": 2
       }
      ]
     },
     "perspective_c2_y": {
      "Points": [
       {
        "co": {
         "X": 1,
         "Y": -1
        },
        "interpolation": 2
       }
      ]
     },
     "perspective_c3_x": {
      "Points": [
       {
        "co": {
         "X": 1,
         "Y": -1
        },
        "interpolation": 2
       }
      ]
     },
     "perspective_c3_y": {
      "Points": [
       {
        "co": {
         "X": 1,
         "Y": -1
        },
        "interpolation": 2
       }
      ]
     },
     "perspective_c4_x": {
      "Points": [
       {
        "co": {
         "X": 1,
         "Y": -1
        },
        "interpolation": 2
       }
      ]
     },
     "perspective_c4_y": {
      "Points": [
       {
        "co": {
         "X": 1,
         "Y": -1
        },
        "interpolation": 2
       }
      ]
     },
     "position": 6.0,
     "reader": {
      "acodec": "",
      "audio_bit_rate": 0,
      "audio_stream_index": -1,
      "audio_timebase": {
       "den": 1,
       "num": 1
      },
      "channel_layout": 4,
      "channels": 0,
      "display_ratio": {
       "den": 9,
       "num": 16
      },
      "duration": 3600.0,
      "file_size": "8294400",
      "fps": {
       "den": 1,
       "num": 30
      },
      "has_audio": false,
      "has_single_image": true,
      "has_video": true,
      "height": 1080,
      "interlaced_frame": false,
      "metadata": {},
      "path": "./TitleFileName-2.svg",
      "pixel_format": -1,
      "pixel_ratio": {
       "den": 1,
       "num": 1
      },
      "sample_rate": 0,
      "top_field_first": true,
      "type": "QtImageReader",
      "vcodec": "",
      "video_bit_rate": 0,
      "video_length": "108000",
      "video_stream_index": -1,
      "video_timebase": {
       "den": 30,
       "num": 1
      },
      "width": 1920
     },
     "rotation": {
      "Points": [
       {
        "co": {
         "X": 1,
         "Y": 0
        },
        "interpolation": 2
       }
      ]
     },
     "scale": 1,
     "scale_x": {
      "Points": [
       {
        "co": {
         "X": 1,
         "Y": 1
        },
        "interpolation": 2
       }
      ]
     },
     "scale_y": {
      "Points": [
       {
        "co": {
         "X": 1,
         "Y": 1
        },
        "interpolation": 2
       }
      ]
     },
     "shear_x": {
      "Points": [
       {
        "co": {
         "X": 1,
         "Y": 0
        },
        "interpolation": 2
       }
      ]
     },
     "shear_y": {
      "Points": [
       {
        "co": {
         "X": 1,
         "Y": 0
        },
        "interpolation": 2
       }
      ]
     },
     "start": 0,
     "time": {
      "Points": [
       {
        "co": {
         "X": 1,
         "Y": 1
        },
        "interpolation": 2
       }
      ]
     },
     "volume": {
      "Points": [
       {
        "co": {
         "X": 1,
         "Y": 1
        },
        "interpolation": 2
       }
      ]
     },
     "wave_color": {
      "alpha": {
       "Points": [
        {
         "co": {
          "X": 1,
          "Y": 255
         },
         "handle_left": {
          "X": 0.5,
          "Y": 1
         },
         "handle_right": {
          "X": 0.5,
          "Y": 0
         },
         "handle_type": 0,
         "interpolation": 0
        }
       ]
      },
      "blue": {
       "Points": [
        {
         "co": {
          "X": 1,
          "Y": 255
         },
         "handle_left": {
          "X": 0.5,
          "Y": 1
         },
         "handle_right": {
          "X": 0.5,
          "Y": 0
         },
         "handle_type": 0,
         "interpolation": 0
        }
       ]
      },
      "green": {
       "Points": [
        {
         "co": {
          "X": 1,
          "Y": 123
         },
         "handle_left": {
          "X": 0.5,
          "Y": 1
         },
         "handle_right": {
          "X": 0.5,
          "Y": 0
         },
         "handle_type": 0,
         "interpolation": 0
        }
       ]
      },
      "red": {
       "Points": [
        {
         "co": {
          "X": 1,
          "Y": 0
         },
         "handle_left": {
          "X": 0.5,
          "Y": 1
         },
         "handle_right": {
          "X": 0.5,
          "Y": 0
         },
         "handle_type": 0,
         "interpolation": 0
        }
       ]
      }
     },
     "waveform": false,
     "file_id": "3C7NVU4Z23",
     "title": "TitleFileName-2.svg"
    }
   },
   {
    "type": "insert",
    "key": [
     "clips"
    ],
    "value": {
     "alpha": {
      "Points": [
       {
        "co": {
         "X": 1,
         "Y": 1
        },
        "interpolation": 2
       }
      ]
     },
     "anchor": 0,
     "channel_filter": {
      "Points": [
       {
        "co": {
         "X": 1,
         "Y": -1
        },
        "interpolation": 2
       }
      ]
     },
     "channel_mapping": {
      "Points": [
       {
        "co": {
         "X": 1,
         "Y": -1
        },
        "interpolation": 2
       }
      ]
     },
     "crop_height": {
      "Points": [
       {
        "co": {
         "X": 1,
         "Y": 1
        },
        "interpolation": 2
       }
      ]
     },
     "crop_width": {
      "Points": [
       {
        "co": {
         "X": 1,
         "Y": 1
        },
        "interpolation": 2
       }
      ]
     },
     "crop_x": {
      "Points": [
       {
        "co": {
         "X": 1,
         "Y": 0
        },
        "interpolation": 2
       }
      ]
     },
     "crop_y": {
      "Points": [
       {
        "co": {
         "X": 1,
         "Y": 0
        },
        "interpolation": 2
       }
      ]
     },
     "display": 0,
     "duration": 3600.0,
     "effects": [],
     "end": 5,
     "gravity": 4,
     "has_audio": {
      "Points": [
       {
        "co": {
         "X": 1,
         "Y": -1
        },
        "interpolation": 2
       }
      ]
     },
     "has_video": {
      "Points": [
       {
        "co": {
         "X": 1,
         "Y": -1
        },
        "interpolation": 2
       }
      ]
     },
     "id": "ZHDYXRXU2X",
     "layer": 5000000,
     "location_x": {
      "Points": [
       {
        "co": {
         "X": 1,
         "Y": 0
        },
        "interpolation": 2
       }
      ]
     },
     "location_y": {
      "Points": [
       {
        "co": {
         "X": 1,
         "Y": 0
        },
        "interpolation": 2
       }
      ]
     },
     "mixing": 0,
     "perspective_c1_x": {
      "Points": [
       {
        "co": {
         "X": 1,
         "Y": -1
        },
        "interpolation": 2
       }
      ]
     },
     "perspective_c1_y": {
      "Points": [
       {
        "co": {
         "X": 1,
         "Y": -1
        },
        "interpolation": 2
       }
      ]
     },
     "perspective_c2_x": {
      "Points": [
       {
        "co": {
         "X": 1,
         "Y": -1
        },
        "interpolation": 2
       }
      ]
     },
     "perspective_c2_y": {
      "Points": [
       {
        "co": {
         "X": 1,
         "Y": -1
        },
        "interpolation": 2
       }
      ]
     },
     "perspective_c3_x": {
      "Points": [
       {
        "co": {
         "X": 1,
         "Y": -1
        },
        "interpolation": 2
       }
      ]
     },
     "perspective_c3_y": {
      "Points": [
       {
        "co": {
         "X": 1,
         "Y": -1
        },
        "interpolation": 2
       }
      ]
     },
     "perspective_c4_x": {
      "Points": [
       {
        "co": {
         "X": 1,
         "Y": -1
        },
        "interpolation": 2
       }
      ]
     },
     "perspective_c4_y": {
      "Points": [
       {
        "co": {
         "X": 1,
         "Y": -1
        },
        "interpolation": 2
       }
      ]
     },
     "position": 0,
     "reader": {
      "acodec": "",
      "audio_bit_rate": 0,
      "audio_stream_index": -1,
      "audio_timebase": {
       "den": 1,
       "num": 1
      },
      "channel_layout": 4,
      "channels": 0,
      "display_ratio": {
       "den": 9,
       "num": 16
      },
      "duration": 3600.0,
      "file_size": "8294400",
      "fps": {
       "den": 1,
       "num": 30
      },
      "has_audio": false,
      "has_single_image": true,
      "has_video": true,
      "height": 1080,
      "interlaced_frame": false,
      "metadata": {},
      "path": "./title.svg",
      "pixel_format": -1,
      "pixel_ratio": {
       "den": 1,
       "num": 1
      },
      "sample_rate": 0,
      "top_field_first": true,
      "type": "QtImageReader",
      "vcodec": "",
      "video_bit_rate": 0,
      "video_length": "108000",
      "video_stream_index": -1,
      "video_timebase": {
       "den": 30,
       "num": 1
      },
      "width": 1920
     },
     "rotation": {
      "Points": [
       {
        "co": {
         "X": 1,
         "Y": 0
        },
        "interpolation": 2
       }
      ]
     },
     "scale": 1,
     "scale_x": {
      "Points": [
       {
        "co": {
         "X": 1,
         "Y": 1
        },
        "interpolation": 2
       }
      ]
     },
     "scale_y": {
      "Points": [
       {
        "co": {
         "X": 1,
         "Y": 1
        },
        "interpolation": 2
       }
      ]
     },
     "shear_x": {
      "Points": [
       {
        "co": {
         "X": 1,
         "Y": 0
        },
        "interpolation": 2
       }
      ]
     },
     "shear_y": {
      "Points": [
       {
        "co": {
         "X": 1,
         "Y": 0
        },
        "interpolation": 2
       }
      ]
     },
     "start": 0,
     "time": {
      "Points": [
       {
        "co": {
         "X": 1,
         "Y": 1
        },
        "interpolation": 2
       }
      ]
     },
     "volume": {
      "Points": [
       {
        "co": {
         "X": 1,
         "Y": 1
        },
        "interpolation": 2
       }
      ]
     },
     "wave_color": {
      "alpha": {
       "Points": [
        {
         "co": {
          "X": 1,
          "Y": 255
         },
         "handle_left": {
          "X": 0.5,
          "Y": 1
         },
         "handle_right": {
          "X": 0.5,
          "Y": 0
         },
         "handle_type": 0,
         "interpolation": 0
        }
       ]
      },
      "blue": {
       "Points": [
        {
         "co": {
          "X": 1,
          "Y": 255
         },
         "handle_left": {
          "X": 0.5,
          "Y": 1
         },
         "handle_right": {
          "X": 0.5,
          "Y": 0
         },
         "handle_type": 0,
         "interpolation": 0
        }
       ]
      },
      "green": {
       "Points": [
        {
         "co": {
          "X": 1,
          "Y": 123
         },
         "handle_left": {
          "X": 0.5,
          "Y": 1
         },
         "handle_right": {
          "X": 0.5,
          "Y": 0
         },
         "handle_type": 0,
         "interpolation": 0
        }
       ]
      },
      "red": {
       "Points": [
        {
         "co": {
          "X": 1,
          "Y": 0
         },
         "handle_left": {
          "X": 0.5,
          "Y": 1
         },
         "handle_right": {
          "X": 0.5,
          "Y": 0
         },
         "handle_type": 0,
         "interpolation": 0
        }
       ]
      }
     },
     "waveform": false,
     "file_id": "WSC6UG118N",
     "title": "title.svg"
    },
    "partial": false,
    "old_values": [
     {
      "alpha": {
       "Points": [
        {
         "co": {
          "X": 1,
          "Y": 1
         },
         "handle_left": {
          "X": 0.5,
          "Y": 1
         },
         "handle_right": {
          "X": 0.5,
          "Y": 0
         },
         "handle_type": 0,
         "interpolation": 0
        },
        {
         "co": {
          "X": 151,
          "Y": 1
         },
         "handle_left": {
          "X": 0.5,
          "Y": 1
         },
         "handle_right": {
          "X": 0.5,
          "Y": 0
         },
         "handle_type": 0,
         "interpolation": 0
        },
        {
         "co": {
          "X": 176,
          "Y": 0
         },
         "handle_left": {
          "X": 0.5,
          "Y": 1
         },
         "handle_right": {
          "X": 0.5,
          "Y": 0
         },
         "handle_type": 0,
         "interpolation": 0
        }
       ]
      },
      "anchor": 0,
      "channel_filter": {
       "Points": [
        {
         "co": {
          "X": 1,
          "Y": -1
         },
         "interpolation": 2
        }
       ]
      },
      "channel_mapping": {
       "Points": [
        {
         "co": {
          "X": 1,
          "Y": -1
         },
         "interpolation": 2
        }
       ]
      },
      "crop_height": {
       "Points": [
        {
         "co": {
          "X": 1,
          "Y": 1
         },
         "interpolation": 2
        }
       ]
      },
      "crop_width": {
       "Points": [
        {
         "co": {
          "X": 1,
          "Y": 1
         },
         "interpolation": 2
        }
       ]
      },
      "crop_x": {
       "Points": [
        {
         "co": {
          "X": 1,
          "Y": 0
         },
         "interpolation": 2
        }
       ]
      },
      "crop_y": {
       "Points": [
        {
         "co": {
          "X": 1,
          "Y": 0
         },
         "interpolation": 2
        }
       ]
      },
      "display": 0,
      "duration": 73.36000061035156,
      "effects": [],
      "end": 7,
      "gravity": 4,
      "has_audio": {
       "Points": [
        {
         "co": {
          "X": 1,
          "Y": -0.8686131386861313
         },
         "interpolation": 2
        }
       ]
      },
      "has_video": {
       "Points": [
        {
         "co": {
          "X": 1,
          "Y": -1
         },
         "interpolation": 2
        }
       ]
      },
      "id": "5CXUIX8A32",
      "layer": 4000000,
      "location_x": {
       "Points": [
        {
         "co": {
          "X": 1,
          "Y": 0.032258064516129004
         },
         "interpolation": 2
        }
       ]
      },
      "location_y": {
       "Points": [
        {
         "co": {
          "X": 1,
          "Y": -0.05069124423963134
         },
         "interpolation": 2
        }
       ]
      },
      "mixing": 0,
      "perspective_c1_x": {
       "Points": [
        {
         "co": {
          "X": 1,
          "Y": -1
         },
         "interpolation": 2
        }
       ]
      },
      "perspective_c1_y": {
       "Points": [
        {
         "co": {
          "X": 1,
          "Y": -1
         },
         "interpolation": 2
        }
       ]
      },
      "perspective_c2_x": {
       "Points": [
        {
         "co": {
          "X": 1,
          "Y": -1
         },
         "interpolation": 2
        }
       ]
      },
      "perspective_c2_y": {
       "Points": [
        {
         "co": {
          "X": 1,
          "Y": -1
         },
         "interpolation": 2
        }
       ]
      },
      "perspective_c3_x": {
       "Points": [
        {
         "co": {
          "X": 1,
          "Y": -1
         },
         "interpolation": 2
        }
       ]
      },
      "perspective_c3_y": {
       "Points": [
        {
         "co": {
          "X": 1,
          "Y": -1
         },
         "interpolation": 2
        }
       ]
      },
      "perspective_c4_x": {
       "Points": [
        {
         "co": {
          "X": 1,
          "Y": -1
         },
         "interpolation": 2
        }
       ]
      },
      "perspective_c4_y": {
       "Points": [
        {
         "co": {
          "X": 1,
          "Y": -1
         },
         "interpolation": 2
        }
       ]
      },
      "position": 0,
      "reader": {
       "acodec": "",
       "audio_bit_rate": 0,
       "audio_stream_index": -1,
       "audio_timebase": {
        "den": 1,
        "num": 1
       },
       "channel_layout": 4,
       "channels": 0,
       "display_ratio": {
        "den": 9,
        "num": 16
       },
       "duration": 73.36000061035156,
       "file_size": "8991315",
       "fps": {
        "den": 1,
        "num": 25
       },
       "has_audio": false,
       "has_single_image": false,
       "has_video": true,
       "height": 720,
       "interlaced_frame": false,
       "metadata": {
        "compatible_brands": "iso6avc1mp41",
        "creation_time": "2013-12-07T02:59:06.000000Z",
        "handler_name": "VideoHandler",
        "language": "und",
        "major_brand": "dash",
        "minor_version": "0"
       },
       "path": "./Airflow across a wing-UqBmdZ-BNig.f136.mp4",
       "pixel_format": 0,
       "pixel_ratio": {
        "den": 1,
        "num": 1
       },
       "sample_rate": 0,
       "top_field_first": true,
       "type": "FFmpegReader",
       "vcodec": "h264",
       "video_bit_rate": 122564,
       "video_length": "1834",
       "video_stream_index": 0,
       "video_timebase": {
        "den": 90000,
        "num": 1
       },
       "width": 1280
      },
      "rotation": {
       "Points": [
        {
         "co": {
          "X": 1,
          "Y": 0
         },
         "interpolation": 2
        }
       ]
      },
      "scale": 1,
      "scale_x": {
       "Points": [
        {
         "co": {
          "X": 1,
          "Y": 1.5
         },
         "interpolation": 0
        }
       ]
      },
      "scale_y": {
       "Points": [
        {
         "co": {
          "X": 1,
          "Y": 1.3015267175572518
         },
         "interpolation": 0
        }
       ]
      },
      "shear_x": {
       "Points": [
        {
         "co": {
          "X": 1,
          "Y": 0.0
         },
         "interpolation": 2
        }
       ]
      },
      "shear_y": {
       "Points": [
        {
         "co": {
          "X": 1,
          "Y": 0
         },
         "interpolation": 2
        }
       ]
      },
      "start": 0,
      "time": {
       "Points": [
        {
         "co": {
          "X": 1,
          "Y": 1
         },
         "interpolation": 2
        }
       ]
      },
      "volume": {
       "Points": [
        {
         "co": {
          "X": 1,
          "Y": 0.0
         },
         "interpolation": 2
        }
       ]
      },
      "wave_color": {
       "alpha": {
        "Points": [
         {
          "co": {
           "X": 1,
           "Y": 255
          },
          "handle_left": {
           "X": 0.5,
           "Y": 1
          },
          "handle_right": {
           "X": 0.5,
           "Y": 0
          },
          "handle_type": 0,
          "interpolation": 0
         }
        ]
       },
       "blue": {
        "Points": [
         {
          "co": {
           "X": 1,
           "Y": 255
          },
          "handle_left": {
           "X": 0.5,
           "Y": 1
          },
          "handle_right": {
           "X": 0.5,
           "Y": 0
          },
          "handle_type": 0,
          "interpolation": 0
         }
        ]
       },
       "green": {
        "Points": [
         {
          "co": {
           "X": 1,
           "Y": 123
          },
          "handle_left": {
           "X": 0.5,
           "Y": 1
          },
          "handle_right": {
           "X": 0.5,
           "Y": 0
          },
          "handle_type": 0,
          "interpolation": 0
         }
        ]
       },
       "red": {
        "Points": [
         {
          "co": {
           "X": 1,
           "Y": 0
          },
          "handle_left": {
           "X": 0.5,
           "Y": 1
          },
          "handle_right": {
           "X": 0.5,
           "Y": 0
          },
          "handle_type": 0,
          "interpolation": 0
         }
        ]
       }
      },
      "waveform": false,
      "file_id": "BQRQPYRVSK",
      "title": "Airflow across a wing-UqBmdZ-BNig.f136.mp4",
      "image": "thumbnail/BQRQPYRVSK.png"
     },
     {
      "alpha": {
       "Points": [
        {
         "co": {
          "X": 1,
          "Y": 1
         },
         "interpolation": 2
        }
       ]
      },
      "anchor": 0,
      "channel_filter": {
       "Points": [
        {
         "co": {
          "X": 1,
          "Y": -1
         },
         "interpolation": 2
        }
       ]
      },
      "channel_mapping": {
       "Points": [
        {
         "co": {
          "X": 1,
          "Y": -1
         },
         "interpolation": 2
        }
       ]
      },
      "crop_height": {
       "Points": [
        {
         "co": {
          "X": 1,
          "Y": 1
         },
         "interpolation": 2
        }
       ]
      },
      "crop_width": {
       "Points": [
        {
         "co": {
          "X": 1,
          "Y": 1
         },
         "interpolation": 2
        }
       ]
      },
      "crop_x": {
       "Points": [
        {
         "co": {
          "X": 1,
          "Y": 0
         },
         "interpolation": 2
        }
       ]
      },
      "crop_y": {
       "Points": [
        {
         "co": {
          "X": 1,
          "Y": 0
         },
         "interpolation": 2
        }
       ]
      },
      "display": 0,
      "duration": 3600.0,
      "effects": [],
      "end": 5,
      "gravity": 4,
      "has_audio": {
       "Points": [
        {
         "co": {
          "X": 1,
          "Y": -1
         },
         "interpolation": 2
        }
       ]
      },
      "has_video": {
       "Points": [
        {
         "co": {
          "X": 1,
          "Y": -1
         },
         "interpolation": 2
        }
       ]
      },
      "id": "XN0KMVOEKN",
      "layer": 5000000,
      "location_x": {
       "Points": [
        {
         "co": {
          "X": 1,
          "Y": 0
         },
         "interpolation": 2
        }
       ]
      },
      "location_y": {
       "Points": [
        {
         "co": {
          "X": 1,
          "Y": 0
         },
         "interpolation": 2
        }
       ]
      },
      "mixing": 0,
      "perspective_c1_x": {
       "Points": [
        {
         "co": {
          "X": 1,
          "Y": -1
         },
         "interpolation": 2
        }
       ]
      },
      "perspective_c1_y": {
       "Points": [
        {
         "co": {
          "X": 1,
          "Y": -1
         },
         "interpolation": 2
        }
       ]
      },
      "perspective_c2_x": {
       "Points": [
        {
         "co": {
          "X": 1,
          "Y": -1
         },
         "interpolation": 2
        }
       ]
      },
      "perspective_c2_y": {
       "Points": [
        {
         "co": {
          "X": 1,
          "Y": -1
         },
         "interpolation": 2
        }
       ]
      },
      "perspective_c3_x": {
       "Points": [
        {
         "co": {
          "X": 1,
          "Y": -1
         },
         "interpolation": 2
        }
       ]
      },
      "perspective_c3_y": {
       "Points": [
        {
         "co": {
          "X": 1,
          "Y": -1
         },
         "interpolation": 2
        }
       ]
      },
      "perspective_c4_x": {
       "Points": [
        {
         "co": {
          "X": 1,
          "Y": -1
         },
         "interpolation": 2
        }
       ]
      },
      "perspective_c4_y": {
       "Points": [
        {
         "co": {
          "X": 1,
          "Y": -1
         },
         "interpolation": 2
        }
       ]
      },
      "position": 0,
      "reader": {
       "acodec": "",
       "audio_bit_rate": 0,
       "audio_stream_index": -1,
       "audio_timebase": {
        "den": 1,
        "num": 1
       },
       "channel_layout": 4,
       "channels": 0,
       "display_ratio": {
        "den": 9,
        "num": 16
       },
       "duration": 3600.0,
       "file_size": "8294400",
       "fps": {
        "den": 1,
        "num": 30
       },
       "has_audio": false,
       "has_single_image": true,
       "has_video": true,
       "height": 1080,
       "interlaced_frame": false,
       "metadata": {},
       "path": "./TitleFileName-2.svg",
       "pixel_format": -1,
       "pixel_ratio": {
        "den": 1,
        "num": 1
       },
       "sample_rate": 0,
       "top_field_first": true,
       "type": "QtImageReader",
       "vcodec": "",
       "video_bit_rate": 0,
       "video_length": "108000",
       "video_stream_index": -1,
       "video_timebase": {
        "den": 30,
        "num": 1
       },
       "width": 1920
      },
      "rotation": {
       "Points": [
        {
         "co": {
          "X": 1,
          "Y": 0
         },
         "interpolation": 2
        }
       ]
      },
      "scale": 1,
      "scale_x": {
       "Points": [
        {
         "co": {
          "X": 1,
          "Y": 1
         },
         "interpolation": 2
        }
       ]
      },
      "scale_y": {
       "Points": [
        {
         "co": {
          "X": 1,
          "Y": 1
         },
         "interpolation": 2
        }
       ]
      },
      "shear_x": {
       "Points": [
        {
         "co": {
          "X": 1,
          "Y": 0
         },
         "interpolation": 2
        }
       ]
      },
      "shear_y": {
       "Points": [
        {
         "co": {
          "X": 1,
          "Y": 0
         },
         "interpolation": 2
        }
       ]
      },
      "start": 0,
      "time": {
       "Points": [
        {
         "co": {
          "X": 1,
          "Y": 1
         },
         "interpolation": 2
        }
       ]
      },
      "volume": {
       "Points": [
        {
         "co": {
          "X": 1,
          "Y": 1
         },
         "interpolation": 2
        }
       ]
      },
      "wave_color": {
       "alpha": {
        "Points": [
         {
          "co": {
           "X": 1,
           "Y": 255
          },
          "handle_left": {
           "X": 0.5,
           "Y": 1
          },
          "handle_right": {
           "X": 0.5,
           "Y": 0
          },
          "handle_type": 0,
          "interpolation": 0
         }
        ]
       },
       "blue": {
        "Points": [
         {
          "co": {
           "X": 1,
           "Y": 255
          },
          "handle_left": {
           "X": 0.5,
           "Y": 1
          },
          "handle_right": {
           "X": 0.5,
           "Y": 0
          },
          "handle_type": 0,
          "interpolation": 0
         }
        ]
       },
       "green": {
        "Points": [
         {
          "co": {
           "X": 1,
           "Y": 123
          },
          "handle_left": {
           "X": 0.5,
           "Y": 1
          },
          "handle_right": {
           "X": 0.5,
           "Y": 0
          },
          "handle_type": 0,
          "interpolation": 0
         }
        ]
       },
       "red": {
        "Points": [
         {
          "co": {
           "X": 1,
           "Y": 0
          },
          "handle_left": {
           "X": 0.5,
           "Y": 1
          },
          "handle_right": {
           "X": 0.5,
           "Y": 0
          },
          "handle_type": 0,
          "interpolation": 0
         }
        ]
       }
      },
      "waveform": false,
      "file_id": "3C7NVU4Z23",
      "title": "TitleFileName-2.svg",
      "image": "thumbnail/3C7NVU4Z23.png"
     },
     {
      "alpha": {
       "Points": [
        {
         "co": {
          "X": 1,
          "Y": 1
         },
         "interpolation": 2
        }
       ]
      },
      "anchor": 0,
      "channel_filter": {
       "Points": [
        {
         "co": {
          "X": 1,
          "Y": -1
         },
         "interpolation": 2
        }
       ]
      },
      "channel_mapping": {
       "Points": [
        {
         "co": {
          "X": 1,
          "Y": -1
         },
         "interpolation": 2
        }
       ]
      },
      "crop_height": {
       "Points": [
        {
         "co": {
          "X": 1,
          "Y": 1
         },
         "interpolation": 2
        }
       ]
      },
      "crop_width": {
       "Points": [
        {
         "co": {
          "X": 1,
          "Y": 1
         },
         "interpolation": 2
        }
       ]
      },
      "crop_x": {
       "Points": [
        {
         "co": {
          "X": 1,
          "Y": 0
         },
         "interpolation": 2
        }
       ]
      },
      "crop_y": {
       "Points": [
        {
         "co": {
          "X": 1,
          "Y": 0
         },
         "interpolation": 2
        }
       ]
      },
      "display": 0,
      "duration": 3600.0,
      "effects": [],
      "end": 3,
      "gravity": 4,
      "has_audio": {
       "Points": [
        {
         "co": {
          "X": 1,
          "Y": -1
         },
         "interpolation": 2
        }
       ]
      },
      "has_video": {
       "Points": [
        {
         "co": {
          "X": 1,
          "Y": -1
         },
         "interpolation": 2
        }
       ]
      },
      "id": "TRGEWM93I8",
      "layer": 4000000,
      "location_x": {
       "Points": [
        {
         "co": {
          "X": 1,
          "Y": 0
         },
         "interpolation": 2
        }
       ]
      },
      "location_y": {
       "Points": [
        {
         "co": {
          "X": 1,
          "Y": 0
         },
         "interpolation": 2
        }
       ]
      },
      "mixing": 0,
      "perspective_c1_x": {
       "Points": [
        {
         "co": {
          "X": 1,
          "Y": -1
         },
         "interpolation": 2
        }
       ]
      },
      "perspective_c1_y": {
       "Points": [
        {
         "co": {
          "X": 1,
          "Y": -1
         },
         "interpolation": 2
        }
       ]
      },
      "perspective_c2_x": {
       "Points": [
        {
         "co": {
          "X": 1,
          "Y": -1
         },
         "interpolation": 2
        }
       ]
      },
      "perspective_c2_y": {
       "Points": [
        {
         "co": {
          "X": 1,
          "Y": -1
         },
         "interpolation": 2
        }
       ]
      },
      "perspective_c3_x": {
       "Points": [
        {
         "co": {
          "X": 1,
          "Y": -1
         },
         "interpolation": 2
        }
       ]
      },
      "perspective_c3_y": {
       "Points": [
        {
         "co": {
          "X": 1,
          "Y": -1
         },
         "interpolation": 2
        }
       ]
      },
      "perspective_c4_x": {
       "Points": [
        {
         "co": {
          "X": 1,
          "Y": -1
         },
         "interpolation": 2
        }
       ]
      },
      "perspective_c4_y": {
       "Points": [
        {
         "co": {
          "X": 1,
          "Y": -1
         },
         "interpolation": 2
        }
       ]
      },
      "position": 6,
      "reader": {
       "acodec": "",
       "audio_bit_rate": 0,
       "audio_stream_index": -1,
       "audio_timebase": {
        "den": 1,
        "num": 1
       },
       "channel_layout": 4,
       "channels": 0,
       "display_ratio": {
        "den": 9,
        "num": 16
       },
       "duration": 3600.0,
       "file_size": "8294400",
       "fps": {
        "den": 1,
        "num": 30
       },
       "has_audio": false,
       "has_single_image": true,
       "has_video": true,
       "height": 1080,
       "interlaced_frame": false,
       "metadata": {},
       "path": "generated/g0.png",
       "pixel_format": -1,
       "pixel_ratio": {
        "den": 1,
        "num": 1
       },
       "sample_rate": 0,
       "top_field_first": true,
       "type": "QtImageReader",
       "vcodec": "",
       "video_bit_rate": 0,
       "video_length": "108000",
       "video_stream_index": -1,
       "video_timebase": {
        "den": 30,
        "num": 1
       },
       "width": 1920
      },
      "rotation": {
       "Points": [
        {
         "co": {
          "X": 1,
          "Y": 0
         },
         "interpolation": 2
        }
       ]
      },
      "scale": 1,
      "scale_x": {
       "Points": [
        {
         "co": {
          "X": 1,
          "Y": 1
         },
         "interpolation": 2
        }
       ]
      },
      "scale_y": {
       "Points": [
        {
         "co": {
          "X": 1,
          "Y": 1
         },
         "interpolation": 2
        }
       ]
      },
      "shear_x": {
       "Points": [
        {
         "co": {
          "X": 1,
          "Y": 0
         },
         "interpolation": 2
        }
       ]
      },
      "shear_y": {
       "Points": [
        {
         "co": {
          "X": 1,
          "Y": 0
         },
         "interpolation": 2
        }
       ]
      },
      "start": 0,
      "time": {
       "Points": [
        {
         "co": {
          "X": 1,
          "Y": 1
         },
         "interpolation": 2
        }
       ]
      },
      "volume": {
       "Points": [
        {
         "co": {
          "X": 1,
          "Y": 1
         },
         "interpolation": 2
        }
       ]
      },
      "wave_color": {
       "alpha": {
        "Points": [
         {
          "co": {
           "X": 1,
           "Y": 255
          },
          "handle_left": {
           "X": 0.5,
           "Y": 1
          },
          "handle_right": {
           "X": 0.5,
           "Y": 0
          },
          "handle_type": 0,
          "interpolation": 0
         }
        ]
       },
       "blue": {
        "Points": [
         {
          "co": {
           "X": 1,
           "Y": 255
          },
          "handle_left": {
           "X": 0.5,
           "Y": 1
          },
          "handle_right": {
           "X": 0.5,
           "Y": 0
          },
          "handle_type": 0,
          "interpolation": 0
         }
        ]
       },
       "green": {
        "Points": [
         {
          "co": {
           "X": 1,
           "Y": 123
          },
          "handle_left": {
           "X": 0.5,
           "Y": 1
          },
          "handle_right": {
           "X": 0.5,
           "Y": 0
          },
          "handle_type": 0,
          "interpolation": 0
         }
        ]
       },
       "red": {
        "Points": [
         {
          "co": {
           "X": 1,
           "Y": 0
          },
          "handle_left": {
           "X": 0.5,
           "Y": 1
          },
          "handle_right": {
           "X": 0.5,
           "Y": 0
          },
          "handle_type": 0,
          "interpolation": 0
         }
        ]
       }
      },
      "waveform": false,
      "file_id": "14XMU5A0GJ",
      "title": "g0.png",
      "image": "thumbnail/14XMU5A0GJ.png"
     },
     {
      "alpha": {
       "Points": [
        {
         "co": {
          "X": 1,
          "Y": 1
         },
         "interpolation": 2
        }
       ]
      },
      "anchor": 0,
      "channel_filter": {
       "Points": [
        {
         "co": {
          "X": 1,
          "Y": -1
         },
         "interpolation": 2
        }
       ]
      },
      "channel_mapping": {
       "Points": [
        {
         "co": {
          "X": 1,
          "Y": -1
         },
         "interpolation": 2
        }
       ]
      },
      "crop_height": {
       "Points": [
        {
         "co": {
          "X": 1,
          "Y": 1
         },
         "interpolation": 2
        }
       ]
      },
      "crop_width": {
       "Points": [
        {
         "co": {
          "X": 1,
          "Y": 1
         },
         "interpolation": 2
        }
       ]
      },
      "crop_x": {
       "Points": [
        {
         "co": {
          "X": 1,
          "Y": 0
         },
         "interpolation": 2
        }
       ]
      },
      "crop_y": {
       "Points": [
        {
         "co": {
          "X": 1,
          "Y": 0
         },
         "interpolation": 2
        }
       ]
      },
      "display": 0,
      "duration": 3600.0,
      "effects": [],
      "end": 3,
      "gravity": 4,
      "has_audio": {
       "Points": [
        {
         "co": {
          "X": 1,
          "Y": -1
         },
         "interpolation": 2
        }
       ]
      },
      "has_video": {
       "Points": [
        {
         "co": {
          "X": 1,
          "Y": -1
         },
         "interpolation": 2
        }
       ]
      },
      "id": "PP95N7ZUS4",
      "layer": 4000000,
      "location_x": {
       "Points": [
        {
         "co": {
          "X": 1,
          "Y": 0
         },
         "interpolation": 2
        }
       ]
      },
      "location_y": {
       "Points": [
        {
         "co": {
          "X": 1,
          "Y": 0
         },
         "interpolation": 2
        }
       ]
      },
      "mixing": 0,
      "perspective_c1_x": {
       "Points": [
        {
         "co": {
          "X": 1,
          "Y": -1
         },
         "interpolation": 2
        }
       ]
      },
      "perspective_c1_y": {
       "Points": [
        {
         "co": {
          "X": 1,
          "Y": -1
         },
         "interpolation": 2
        }
       ]
      },
      "perspective_c2_x": {
       "Points": [
        {
         "co": {
          "X": 1,
          "Y": -1
         },
         "interpolation": 2
        }
       ]
      },
      "perspective_c2_y": {
       "Points": [
        {
         "co": {
          "X": 1,
          "Y": -1
         },
         "interpolation": 2
        }
       ]
      },
      "perspective_c3_x": {
       "Points": [
        {
         "co": {
          "X": 1,
          "Y": -1
         },
         "interpolation": 2
        }
       ]
      },
      "perspective_c3_y": {
       "Points": [
        {
         "co": {
          "X": 1,
          "Y": -1
         },
         "interpolation": 2
        }
       ]
      },
      "perspective_c4_x": {
       "Points": [
        {
         "co": {
          "X": 1,
          "Y": -1
         },
         "interpolation": 2
        }
       ]
      },
      "perspective_c4_y": {
       "Points": [
        {
         "co": {
          "X": 1,
          "Y": -1
         },
         "interpolation": 2
        }
       ]
      },
      "position": 8,
      "reader": {
       "acodec": "",
       "audio_bit_rate": 0,
       "audio_stream_index": -1,
       "audio_timebase": {
        "den": 1,
        "num": 1
       },
       "channel_layout": 4,
       "channels": 0,
       "display_ratio": {
        "den": 9,
        "num": 16
       },
       "duration": 3600.0,
       "file_size": "8294400",
       "fps": {
        "den": 1,
        "num": 30
       },
       "has_audio": false,
       "has_single_image": true,
       "has_video": true,
       "height": 1080,
       "interlaced_frame": false,
       "metadata": {},
       "path": "generated/g1.png",
       "pixel_format": -1,
       "pixel_ratio": {
        "den": 1,
        "num": 1
       },
       "sample_rate": 0,
       "top_field_first": true,
       "type": "QtImageReader",
       "vcodec": "",
       "video_bit_rate": 0,
       "video_length": "108000",
       "video_stream_index": -1,
       "video_timebase": {
        "den": 30,
        "num": 1
       },
       "width": 1920
      },
      "rotation": {
       "Points": [
        {
         "co": {
          "X": 1,
          "Y": 0
         },
         "interpolation": 2
        }
       ]
      },
      "scale": 1,
      "scale_x": {
       "Points": [
        {
         "co": {
          "X": 1,
          "Y": 1
         },
         "interpolation": 2
        }
       ]
      },
      "scale_y": {
       "Points": [
        {
         "co": {
          "X": 1,
          "Y": 1
         },
         "interpolation": 2
        }
       ]
      },
      "shear_x": {
       "Points": [
        {
         "co": {
          "X": 1,
          "Y": 0
         },
         "interpolation": 2
        }
       ]
      },
      "shear_y": {
       "Points": [
        {
         "co": {
          "X": 1,
          "Y": 0
         },
         "interpolation": 2
        }
       ]
      },
      "start": 0,
      "time": {
       "Points": [
        {
         "co": {
          "X": 1,
          "Y": 1
         },
         "interpolation": 2
        }
       ]
      },
      "volume": {
       "Points": [
        {
         "co": {
          "X": 1,
          "Y": 1
         },
         "interpolation": 2
        }
       ]
      },
      "wave_color": {
       "alpha": {
        "Points": [
         {
          "co": {
           "X": 1,
           "Y": 255
          },
          "handle_left": {
           "X": 0.5,
           "Y": 1
          },
          "handle_right": {
           "X": 0.5,
           "Y": 0
          },
          "handle_type": 0,
          "interpolation": 0
         }
        ]
       },
       "blue": {
        "Points": [
         {
          "co": {
           "X": 1,
           "Y": 255
          },
          "handle_left": {
           "X": 0.5,
           "Y": 1
          },
          "handle_right": {
           "X": 0.5,
           "Y": 0
          },
          "handle_type": 0,
          "interpolation": 0
         }
        ]
       },
       "green": {
        "Points": [
         {
          "co": {
           "X": 1,
           "Y": 123
          },
          "handle_left": {
           "X": 0.5,
           "Y": 1
          },
          "handle_right": {
           "X": 0.5,
           "Y": 0
          },
          "handle_type": 0,
          "interpolation": 0
         }
        ]
       },
       "red": {
        "Points": [
         {
          "co": {
           "X": 1,
           "Y": 0
          },
          "handle_left": {
           "X": 0.5,
           "Y": 1
          },
          "handle_right": {
           "X": 0.5,
           "Y": 0
          },
          "handle_type": 0,
          "interpolation": 0
         }
        ]
       }
      },
      "waveform": false,
      "file_id": "0HEIAFGKHN",
      "title": "g1.png",
      "image": "thumbnail/0HEIAFGKHN.png"
     },
     {
      "alpha": {
       "Points": [
        {
         "co": {
          "X": 1,
          "Y": 1
         },
         "interpolation": 2
        }
       ]
      },
      "anchor": 0,
      "channel_filter": {
       "Points": [
        {
         "co": {
          "X": 1,
          "Y": -1
         },
         "interpolation": 2
        }
       ]
      },
      "channel_mapping": {
       "Points": [
        {
         "co": {
          "X": 1,
          "Y": -1
         },
         "interpolation": 2
        }
       ]
      },
      "crop_height": {
       "Points": [
        {
         "co": {
          "X": 1,
          "Y": 1
         },
         "interpolation": 2
        }
       ]
      },
      "crop_width": {
       "Points": [
        {
         "co": {
          "X": 1,
          "Y": 1
         },
         "interpolation": 2
        }
       ]
      },
      "crop_x": {
       "Points": [
        {
         "co": {
          "X": 1,
          "Y": 0
         },
         "interpolation": 2
        }
       ]
      },
      "crop_y": {
       "Points": [
        {
         "co": {
          "X": 1,
          "Y": 0
         },
         "interpolation": 2
        }
       ]
      },
      "display": 0,
      "duration": 3600.0,
      "effects": [],
      "end": 3,
      "gravity": 4,
      "has_audio": {
       "Points": [
        {
         "co": {
          "X": 1,
          "Y": -1
         },
         "interpolation": 2
        }
       ]
      },
      "has_video": {
       "Points": [
        {
         "co": {
          "X": 1,
          "Y": -1
         },
         "interpolation": 2
        }
       ]
      },
      "id": "6SHW9SUNDG",
      "layer": 4000000,
      "location_x": {
       "Points": [
        {
         "co": {
          "X": 1,
          "Y": 0
         },
         "interpolation": 2
        }
       ]
      },
      "location_y": {
       "Points": [
        {
         "co": {
          "X": 1,
          "Y": 0
         },
         "interpolation": 2
        }
       ]
      },
      "mixing": 0,
      "perspective_c1_x": {
       "Points": [
        {
         "co": {
          "X": 1,
          "Y": -1
         },
         "interpolation": 2
        }
       ]
      },
      "perspective_c1_y": {
       "Points": [
        {
         "co": {
          "X": 1,
          "Y": -1
         },
         "interpolation": 2
        }
       ]
      },
      "perspective_c2_x": {
       "Points": [
        {
         "co": {
          "X": 1,
          "Y": -1
         },
         "interpolation": 2
        }
       ]
      },
      "perspective_c2_y": {
       "Points": [
        {
         "co": {
          "X": 1,
          "Y": -1
         },
         "interpolation": 2
        }
       ]
      },
      "perspective_c3_x": {
       "Points": [
        {
         "co": {
          "X": 1,
          "Y": -1
         },
         "interpolation": 2
        }
       ]
      },
      "perspective_c3_y": {
       "Points": [
        {
         "co": {
          "X": 1,
          "Y": -1
         },
         "interpolation": 2
        }
       ]
      },
      "perspective_c4_x": {
       "Points": [
        {
         "co": {
          "X": 1,
          "Y": -1
         },
         "interpolation": 2
        }
       ]
      },
      "perspective_c4_y": {
       "Points": [
        {
         "co": {
          "X": 1,
          "Y": -1
         },
         "interpolation": 2
        }
       ]
      },
      "position": 10,
      "reader": {
       "acodec": "",
       "audio_bit_rate": 0,
       "audio_stream_index": -1,
       "audio_timebase": {
        "den": 1,
        "num": 1
       },
       "channel_layout": 4,
       "channels": 0,
       "display_ratio": {
        "den": 9,
        "num": 16
       },
       "duration": 3600.0,
       "file_size": "8294400",
       "fps": {
        "den": 1,
        "num": 30
       },
       "has_audio": false,
       "has_single_image": true,
       "has_video": true,
       "height": 1080,
       "interlaced_frame": false,
       "metadata": {},
       "path": "generated/g2.png",
       "pixel_format": -1,
       "pixel_ratio": {
        "den": 1,
        "num": 1
       },
       "sample_rate": 0,
       "top_field_first": true,
       "type": "QtImageReader",
       "vcodec": "",
       "video_bit_rate": 0,
       "video_length": "108000",
       "video_stream_index": -1,
       "video_timebase": {
        "den": 30,
        "num": 1
       },
       "width": 1920
      },
      "rotation": {
       "Points": [
        {
         "co": {
          "X": 1,
          "Y": 0
         },
         "interpolation": 2
        }
       ]
      },
      "scale": 1,
      "scale_x": {
       "Points": [
        {
         "co": {
          "X": 1,
          "Y": 1
         },
         "interpolation": 2
        }
       ]
      },
      "scale_y": {
       "Points": [
        {
         "co": {
          "X": 1,
          "Y": 1
         },
         "interpolation": 2
        }
       ]
      },
      "shear_x": {
       "Points": [
        {
         "co": {
          "X": 1,
          "Y": 0
         },
         "interpolation": 2
        }
       ]
      },
      "shear_y": {
       "Points": [
        {
         "co": {
          "X": 1,
          "Y": 0
         },
         "interpolation": 2
        }
       ]
      },
      "start": 0,
      "time": {
       "Points": [
        {
         "co": {
          "X": 1,
          "Y": 1
         },
         "interpolation": 2
        }
       ]
      },
      "volume": {
       "Points": [
        {
         "co": {
          "X": 1,
          "Y": 1
         },
         "interpolation": 2
        }
       ]
      },
      "wave_color": {
       "alpha": {
        "Points": [
         {
          "co": {
           "X": 1,
           "Y": 255
          },
          "handle_left": {
           "X": 0.5,
           "Y": 1
          },
          "handle_right": {
           "X": 0.5,
           "Y": 0
          },
          "handle_type": 0,
          "interpolation": 0
         }
        ]
       },
       "blue": {
        "Points": [
         {
          "co": {
           "X": 1,
           "Y": 255
          },
          "handle_left": {
           "X": 0.5,
           "Y": 1
          },
          "handle_right": {
           "X": 0.5,
           "Y": 0
          },
          "handle_type": 0,
          "interpolation": 0
         }
        ]
       },
       "green": {
        "Points": [
         {
          "co": {
           "X": 1,
           "Y": 123
          },
          "handle_left": {
           "X": 0.5,
           "Y": 1
          },
          "handle_right": {
           "X": 0.5,
           "Y": 0
          },
          "handle_type": 0,
          "interpolation": 0
         }
        ]
       },
       "red": {
        "Points": [
         {
          "co": {
           "X": 1,
           "Y": 0
          },
          "handle_left": {
           "X": 0.5,
           "Y": 1
          },
          "handle_right": {
           "X": 0.5,
           "Y": 0
          },
          "handle_type": 0,
          "interpolation": 0
         }
        ]
       }
      },
      "waveform": false,
      "file_id": "30TG8KEIVW",
      "title": "g2.png",
      "image": "thumbnail/30TG8KEIVW.png"
     },
     {
      "alpha": {
       "Points": [
        {
         "co": {
          "X": 1,
          "Y": 1
         },
         "interpolation": 2
        }
       ]
      },
      "anchor": 0,
      "channel_filter": {
       "Points": [
        {
         "co": {
          "X": 1,
          "Y": -1
         },
         "interpolation": 2
        }
       ]
      },
      "channel_mapping": {
       "Points": [
        {
         "co": {
          "X": 1,
          "Y": -1
         },
         "interpolation": 2
        }
       ]
      },
      "crop_height": {
       "Points": [
        {
         "co": {
          "X": 1,
          "Y": 1
         },
         "interpolation": 2
        }
       ]
      },
      "crop_width": {
       "Points": [
        {
         "co": {
          "X": 1,
          "Y": 1
         },
         "interpolation": 2
        }
       ]
      },
      "crop_x": {
       "Points": [
        {
         "co": {
          "X": 1,
          "Y": 0
         },
         "interpolation": 2
        }
       ]
      },
      "crop_y": {
       "Points": [
        {
         "co": {
          "X": 1,
          "Y": 0
         },
         "interpolation": 2
        }
       ]
      },
      "display": 0,
      "duration": 3600.0,
      "effects": [],
      "end": 3,
      "gravity": 4,
      "has_audio": {
       "Points": [
        {
         "co": {
          "X": 1,
          "Y": -1
         },
         "interpolation": 2
        }
       ]
      },
      "has_video": {
       "Points": [
        {
         "co": {
          "X": 1,
          "Y": -1
         },
         "interpolation": 2
        }
       ]
      },
      "id": "4AI8YYFUYY",
      "layer": 4000000,
      "location_x": {
       "Points": [
        {
         "co": {
          "X": 1,
          "Y": 0
         },
         "interpolation": 2
        }
       ]
      },
      "location_y": {
       "Points": [
        {
         "co": {
          "X": 1,
          "Y": 0
         },
         "interpolation": 2
        }
       ]
      },
      "mixing": 0,
      "perspective_c1_x": {
       "Points": [
        {
         "co": {
          "X": 1,
          "Y": -1
         },
         "interpolation": 2
        }
       ]
      },
      "perspective_c1_y": {
       "Points": [
        {
         "co": {
          "X": 1,
          "Y": -1
         },
         "interpolation": 2
        }
       ]
      },
      "perspective_c2_x": {
       "Points": [
        {
         "co": {
          "X": 1,
          "Y": -1
         },
         "interpolation": 2
        }
       ]
      },
      "perspective_c2_y": {
       "Points": [
        {
         "co": {
          "X": 1,
          "Y": -1
         },
         "interpolation": 2
        }
       ]
      },
      "perspective_c3_x": {
       "Points": [
        {
         "co": {
          "X": 1,
          "Y": -1
         },
         "interpolation": 2
        }
       ]
      },
      "perspective_c3_y": {
       "Points": [
        {
         "co": {
          "X": 1,
          "Y": -1
         },
         "interpolation": 2
        }
       ]
      },
      "perspective_c4_x": {
       "Points": [
        {
         "co": {
          "X": 1,
          "Y": -1
         },
         "interpolation": 2
        }
       ]
      },
      "perspective_c4_y": {
       "Points": [
        {
         "co": {
          "X": 1,
          "Y": -1
         },
         "interpolation": 2
        }
       ]
      },
      "position": 12,
      "reader": {
       "acodec": "",
       "audio_bit_rate": 0,
       "audio_stream_index": -1,
       "audio_timebase": {
        "den": 1,
        "num": 1
       },
       "channel_layout": 4,
       "channels": 0,
       "display_ratio": {
        "den": 9,
        "num": 16
       },
       "duration": 3600.0,
       "file_size": "8294400",
       "fps": {
        "den": 1,
        "num": 30
       },
       "has_audio": false,
       "has_single_image": true,
       "has_video": true,
       "height": 1080,
       "interlaced_frame": false,
       "metadata": {},
       "path": "generated/g3.png",
       "pixel_format": -1,
       "pixel_ratio": {
        "den": 1,
        "num": 1
       },
       "sample_rate": 0,
       "top_field_first": true,
       "type": "QtImageReader",
       "vcodec": "",
       "video_bit_rate": 0,
       "video_length": "108000",
       "video_stream_index": -1,
       "video_timebase": {
        "den": 30,
        "num": 1
       },
       "width": 1920
      },
      "rotation": {
       "Points": [
        {
         "co": {
          "X": 1,
          "Y": 0
         },
         "interpolation": 2
        }
       ]
      },
      "scale": 1,
      "scale_x": {
       "Points": [
        {
         "co": {
          "X": 1,
          "Y": 1
         },
         "interpolation": 2
        }
       ]
      },
      "scale_y": {
       "Points": [
        {
         "co": {
          "X": 1,
          "Y": 1
         },
         "interpolation": 2
        }
       ]
      },
      "shear_x": {
       "Points": [
        {
         "co": {
          "X": 1,
          "Y": 0
         },
         "interpolation": 2
        }
       ]
      },
      "shear_y": {
       "Points": [
        {
         "co": {
          "X": 1,
          "Y": 0
         },
         "interpolation": 2
        }
       ]
      },
      "start": 0,
      "time": {
       "Points": [
        {
         "co": {
          "X": 1,
          "Y": 1
         },
         "interpolation": 2
        }
       ]
      },
      "volume": {
       "Points": [
        {
         "co": {
          "X": 1,
          "Y": 1
         },
         "interpolation": 2
        }
       ]
      },
      "wave_color": {
       "alpha": {
        "Points": [
         {
          "co": {
           "X": 1,
           "Y": 255
          },
          "handle_left": {
           "X": 0.5,
           "Y": 1
          },
          "handle_right": {
           "X": 0.5,
           "Y": 0
          },
          "handle_type": 0,
          "interpolation": 0
         }
        ]
       },
       "blue": {
        "Points": [
         {
          "co": {
           "X": 1,
           "Y": 255
          },
          "handle_left": {
           "X": 0.5,
           "Y": 1
          },
          "handle_right": {
           "X": 0.5,
           "Y": 0
          },
          "handle_type": 0,
          "interpolation": 0
         }
        ]
       },
       "green": {
        "Points": [
         {
          "co": {
           "X": 1,
           "Y": 123
          },
          "handle_left": {
           "X": 0.5,
           "Y": 1
          },
          "handle_right": {
           "X": 0.5,
           "Y": 0
          },
          "handle_type": 0,
          "interpolation": 0
         }
        ]
       },
       "red": {
        "Points": [
         {
          "co": {
           "X": 1,
           "Y": 0
          },
          "handle_left": {
           "X": 0.5,
           "Y": 1
          },
          "handle_right": {
           "X": 0.5,
           "Y": 0
          },
          "handle_type": 0,
          "interpolation": 0
         }
        ]
       }
      },
      "waveform": false,
      "file_id": "NFH7JMUJJU",
      "title": "g3.png",
      "image": "thumbnail/NFH7JMUJJU.png"
     },
     {
      "alpha": {
       "Points": [
        {
         "co": {
          "X": 1,
          "Y": 1
         },
         "interpolation": 2
        }
       ]
      },
      "anchor": 0,
      "channel_filter": {
       "Points": [
        {
         "co": {
          "X": 1,
          "Y": -1
         },
         "interpolation": 2
        }
       ]
      },
      "channel_mapping": {
       "Points": [
        {
         "co": {
          "X": 1,
          "Y": -1
         },
         "interpolation": 2
        }
       ]
      },
      "crop_height": {
       "Points": [
        {
         "co": {
          "X": 1,
          "Y": 1
         },
         "interpolation": 2
        }
       ]
      },
      "crop_width": {
       "Points": [
        {
         "co": {
          "X": 1,
          "Y": 1
         },
         "interpolation": 2
        }
       ]
      },
      "crop_x": {
       "Points": [
        {
         "co": {
          "X": 1,
          "Y": 0
         },
         "interpolation": 2
        }
       ]
      },
      "crop_y": {
       "Points": [
        {
         "co": {
          "X": 1,
          "Y": 0
         },
         "interpolation": 2
        }
       ]
      },
      "display": 0,
      "duration": 3600.0,
      "effects": [],
      "end": 5,
      "gravity": 4,
      "has_audio": {
       "Points": [
        {
         "co": {
          "X": 1,
          "Y": -1
         },
         "interpolation": 2
        }
       ]
      },
      "has_video": {
       "Points": [
        {
         "co": {
          "X": 1,
          "Y": -1
         },
         "interpolation": 2
        }
       ]
      },
      "id": "THWDPIF57E",
      "layer": 4000000,
      "location_x": {
       "Points": [
        {
         "co": {
          "X": 1,
          "Y": 0
         },
         "interpolation": 2
        }
       ]
      },
      "location_y": {
       "Points": [
        {
         "co": {
          "X": 1,
          "Y": 0
         },
         "interpolation": 2
        }
       ]
      },
      "mixing": 0,
      "perspective_c1_x": {
       "Points": [
        {
         "co": {
          "X": 1,
          "Y": -1
         },
         "interpolation": 2
        }
       ]
      },
      "perspective_c1_y": {
       "Points": [
        {
         "co": {
          "X": 1,
          "Y": -1
         },
         "interpolation": 2
        }
       ]
      },
      "perspective_c2_x": {
       "Points": [
        {
         "co": {
          "X": 1,
          "Y": -1
         },
         "interpolation": 2
        }
       ]
      },
      "perspective_c2_y": {
       "Points": [
        {
         "co": {
          "X": 1,
          "Y": -1
         },
         "interpolation": 2
        }
       ]
      },
      "perspective_c3_x": {
       "Points": [
        {
         "co": {
          "X": 1,
          "Y": -1
         },
         "interpolation": 2
        }
       ]
      },
      "perspective_c3_y": {
       "Points": [
        {
         "co": {
          "X": 1,
          "Y": -1
         },
         "interpolation": 2
        }
       ]
      },
      "perspective_c4_x": {
       "Points": [
        {
         "co": {
          "X": 1,
          "Y": -1
         },
         "interpolation": 2
        }
       ]
      },
      "perspective_c4_y": {
       "Points": [
        {
         "co": {
          "X": 1,
          "Y": -1
         },
         "interpolation": 2
        }
       ]
      },
      "position": 14,
      "reader": {
       "acodec": "",
       "audio_bit_rate": 0,
       "audio_stream_index": -1,
       "audio_timebase": {
        "den": 1,
        "num": 1
       },
       "channel_layout": 4,
       "channels": 0,
       "display_ratio": {
        "den": 9,
        "num": 16
       },
       "duration": 3600.0,
       "file_size": "8294400",
       "fps": {
        "den": 1,
        "num": 30
       },
       "has_audio": false,
       "has_single_image": true,
       "has_video": true,
       "height": 1080,
       "interlaced_frame": false,
       "metadata": {},
       "path": "generated/g4.png",
       "pixel_format": -1,
       "pixel_ratio": {
        "den": 1,
        "num": 1
       },
       "sample_rate": 0,
       "top_field_first": true,
       "type": "QtImageReader",
       "vcodec": "",
       "video_bit_rate": 0,
       "video_length": "108000",
       "video_stream_index": -1,
       "video_timebase": {
        "den": 30,
        "num": 1
       },
       "width": 1920
      },
      "rotation": {
       "Points": [
        {
         "co": {
          "X": 1,
          "Y": 0
         },
         "interpolation": 2
        }
       ]
      },
      "scale": 1,
      "scale_x": {
       "Points": [
        {
         "co": {
          "X": 1,
          "Y": 1
         },
         "interpolation": 2
        }
       ]
      },
      "scale_y": {
       "Points": [
        {
         "co": {
          "X": 1,
          "Y": 1
         },
         "interpolation": 2
        }
       ]
      },
      "shear_x": {
       "Points": [
        {
         "co": {
          "X": 1,
          "Y": 0
         },
         "interpolation": 2
        }
       ]
      },
      "shear_y": {
       "Points": [
        {
         "co": {
          "X": 1,
          "Y": 0
         },
         "interpolation": 2
        }
       ]
      },
      "start": 0,
      "time": {
       "Points": [
        {
         "co": {
          "X": 1,
          "Y": 1
         },
         "interpolation": 2
        }
       ]
      },
      "volume": {
       "Points": [
        {
         "co": {
          "X": 1,
          "Y": 1
         },
         "interpolation": 2
        }
       ]
      },
      "wave_color": {
       "alpha": {
        "Points": [
         {
          "co": {
           "X": 1,
           "Y": 255
          },
          "handle_left": {
           "X": 0.5,
           "Y": 1
          },
          "handle_right": {
           "X": 0.5,
           "Y": 0
          },
          "handle_type": 0,
          "interpolation": 0
         }
        ]
       },
       "blue": {
        "Points": [
         {
          "co": {
           "X": 1,
           "Y": 255
          },
          "handle_left": {
           "X": 0.5,
           "Y": 1
          },
          "handle_right": {
           "X": 0.5,
           "Y": 0
          },
          "handle_type": 0,
          "interpolation": 0
         }
        ]
       },
       "green": {
        "Points": [
         {
          "co": {
           "X": 1,
           "Y": 123
          },
          "handle_left": {
           "X": 0.5,
           "Y": 1
          },
          "handle_right": {
           "X": 0.5,
           "Y": 0
          },
          "handle_type": 0,
          "interpolation": 0
         }
        ]
       },
       "red": {
        "Points": [
         {
          "co": {
           "X": 1,
           "Y": 0
          },
          "handle_left": {
           "X": 0.5,
           "Y": 1
          },
          "handle_right": {
           "X": 0.5,
           "Y": 0
          },
          "handle_type": 0,
          "interpolation": 0
         }
        ]
       }
      },
      "waveform": false,
      "file_id": "B73V91GBIH",
      "title": "g4.png",
      "image": "thumbnail/B73V91GBIH.png"
     },
     {
      "alpha": {
       "Points": [
        {
         "co": {
          "X": 1,
          "Y": 1
         },
         "interpolation": 2
        }
       ]
      },
      "anchor": 0,
      "channel_filter": {
       "Points": [
        {
         "co": {
          "X": 1,
          "Y": -1
         },
         "interpolation": 2
        }
       ]
      },
      "channel_mapping": {
       "Points": [
        {
         "co": {
          "X": 1,
          "Y": -1
         },
         "interpolation": 2
        }
       ]
      },
      "crop_height": {
       "Points": [
        {
         "co": {
          "X": 1,
          "Y": 1
         },
         "interpolation": 2
        }
       ]
      },
      "crop_width": {
       "Points": [
        {
         "co": {
          "X": 1,
          "Y": 1
         },
         "interpolation": 2
        }
       ]
      },
      "crop_x": {
       "Points": [
        {
         "co": {
          "X": 1,
          "Y": 0
         },
         "interpolation": 2
        }
       ]
      },
      "crop_y": {
       "Points": [
        {
         "co": {
          "X": 1,
          "Y": 0
         },
         "interpolation": 2
        }
       ]
      },
      "display": 0,
      "duration": 3600.0,
      "effects": [],
      "end": 4,
      "gravity": 4,
      "has_audio": {
       "Points": [
        {
         "co": {
          "X": 1,
          "Y": -1
         },
         "interpolation": 2
        }
       ]
      },
      "has_video": {
       "Points": [
        {
         "co": {
          "X": 1,
          "Y": -1
         },
         "interpolation": 2
        }
       ]
      },
      "id": "2QLTOSNJL5",
      "layer": 4000000,
      "location_x": {
       "Points": [
        {
         "co": {
          "X": 1,
          "Y": 0
         },
         "interpolation": 2
        }
       ]
      },
      "location_y": {
       "Points": [
        {
         "co": {
          "X": 1,
          "Y": 0
         },
         "interpolation": 2
        }
       ]
      },
      "mixing": 0,
      "perspective_c1_x": {
       "Points": [
        {
         "co": {
          "X": 1,
          "Y": -1
         },
         "interpolation": 2
        }
       ]
      },
      "perspective_c1_y": {
       "Points": [
        {
         "co": {
          "X": 1,
          "Y": -1
         },
         "interpolation": 2
        }
       ]
      },
      "perspective_c2_x": {
       "Points": [
        {
         "co": {
          "X": 1,
          "Y": -1
         },
         "interpolation": 2
        }
       ]
      },
      "perspective_c2_y": {
       "Points": [
        {
         "co": {
          "X": 1,
          "Y": -1
         },
         "interpolation": 2
        }
       ]
      },
      "perspective_c3_x": {
       "Points": [
        {
         "co": {
          "X": 1,
          "Y": -1
         },
         "interpolation": 2
        }
       ]
      },
      "perspective_c3_y": {
       "Points": [
        {
         "co": {
          "X": 1,
          "Y": -1
         },
         "interpolation": 2
        }
       ]
      },
      "perspective_c4_x": {
       "Points": [
        {
         "co": {
          "X": 1,
          "Y": -1
         },
         "interpolation": 2
        }
       ]
      },
      "perspective_c4_y": {
       "Points": [
        {
         "co": {
          "X": 1,
          "Y": -1
         },
         "interpolation": 2
        }
       ]
      },
      "position": 30,
      "reader": {
       "acodec": "",
       "audio_bit_rate": 0,
       "audio_stream_index": -1,
       "audio_timebase": {
        "den": 1,
        "num": 1
       },
       "channel_layout": 4,
       "channels": 0,
       "display_ratio": {
        "den": 9,
        "num": 16
       },
       "duration": 3600.0,
       "file_size": "8294400",
       "fps": {
        "den": 1,
        "num": 30
       },
       "has_audio": false,
       "has_single_image": true,
       "has_video": true,
       "height": 1080,
       "interlaced_frame": false,
       "metadata": {},
       "path": "generated/g1.png",
       "pixel_format": -1,
       "pixel_ratio": {
        "den": 1,
        "num": 1
       },
       "sample_rate": 0,
       "top_field_first": true,
       "type": "QtImageReader",
       "vcodec": "",
       "video_bit_rate": 0,
       "video_length": "108000",
       "video_stream_index": -1,
       "video_timebase": {
        "den": 30,
        "num": 1
       },
       "width": 1920
      },
      "rotation": {
       "Points": [
        {
         "co": {
          "X": 1,
          "Y": 0
         },
         "interpolation": 2
        }
       ]
      },
      "scale": 1,
      "scale_x": {
       "Points": [
        {
         "co": {
          "X": 1,
          "Y": 1
         },
         "interpolation": 2
        }
       ]
      },
      "scale_y": {
       "Points": [
        {
         "co": {
          "X": 1,
          "Y": 1
         },
         "interpolation": 2
        }
       ]
      },
      "shear_x": {
       "Points": [
        {
         "co": {
          "X": 1,
          "Y": 0
         },
         "interpolation": 2
        }
       ]
      },
      "shear_y": {
       "Points": [
        {
         "co": {
          "X": 1,
          "Y": 0
         },
         "interpolation": 2
        }
       ]
      },
      "start": 0,
      "time": {
       "Points": [
        {
         "co": {
          "X": 1,
          "Y": 1
         },
         "interpolation": 2
        }
       ]
      },
      "volume": {
       "Points": [
        {
         "co": {
          "X": 1,
          "Y": 1
         },
         "interpolation": 2
        }
       ]
      },
      "wave_color": {
       "alpha": {
        "Points": [
         {
          "co": {
           "X": 1,
           "Y": 255
          },
          "handle_left": {
           "X": 0.5,
           "Y": 1
          },
          "handle_right": {
           "X": 0.5,
           "Y": 0
          },
          "handle_type": 0,
          "interpolation": 0
         }
        ]
       },
       "blue": {
        "Points": [
         {
          "co": {
           "X": 1,
           "Y": 255
          },
          "handle_left": {
           "X": 0.5,
           "Y": 1
          },
          "handle_right": {
           "X": 0.5,
           "Y": 0
          },
          "handle_type": 0,
          "interpolation": 0
         }
        ]
       },
       "green": {
        "Points": [
         {
          "co": {
           "X": 1,
           "Y": 123
          },
          "handle_left": {
           "X": 0.5,
           "Y": 1
          },
          "handle_right": {
           "X": 0.5,
           "Y": 0
          },
          "handle_type": 0,
          "interpolation": 0
         }
        ]
       },
       "red": {
        "Points": [
         {
          "co": {
           "X": 1,
           "Y": 0
          },
          "handle_left": {
           "X": 0.5,
           "Y": 1
          },
          "handle_right": {
           "X": 0.5,
           "Y": 0
          },
          "handle_type": 0,
          "interpolation": 0
         }
        ]
       }
      },
      "waveform": false,
      "file_id": "0HEIAFGKHN",
      "title": "g1.png",
      "image": "thumbnail/0HEIAFGKHN.png"
     },
     {
      "alpha": {
       "Points": [
        {
         "co": {
          "X": 1,
          "Y": 1
         },
         "interpolation": 2
        }
       ]
      },
      "anchor": 0,
      "channel_filter": {
       "Points": [
        {
         "co": {
          "X": 1,
          "Y": -1
         },
         "interpolation": 2
        }
       ]
      },
      "channel_mapping": {
       "Points": [
        {
         "co": {
          "X": 1,
          "Y": -1
         },
         "interpolation": 2
        }
       ]
      },
      "crop_height": {
       "Points": [
        {
         "co": {
          "X": 1,
          "Y": 1
         },
         "interpolation": 2
        }
       ]
      },
      "crop_width": {
       "Points": [
        {
         "co": {
          "X": 1,
          "Y": 1
         },
         "interpolation": 2
        }
       ]
      },
      "crop_x": {
       "Points": [
        {
         "co": {
          "X": 1,
          "Y": 0
         },
         "interpolation": 2
        }
       ]
      },
      "crop_y": {
       "Points": [
        {
         "co": {
          "X": 1,
          "Y": 0
         },
         "interpolation": 2
        }
       ]
      },
      "display": 0,
      "duration": 3600.0,
      "effects": [],
      "end": 3,
      "gravity": 4,
      "has_audio": {
       "Points": [
        {
         "co": {
          "X": 1,
          "Y": -1
         },
         "interpolation": 2
        }
       ]
      },
      "has_video": {
       "Points": [
        {
         "co": {
          "X": 1,
          "Y": -1
         },
         "interpolation": 2
        }
       ]
      },
      "id": "XVEL3AY0OA",
      "layer": 4000000,
      "location_x": {
       "Points": [
        {
         "co": {
          "X": 1,
          "Y": 0
         },
         "interpolation": 2
        }
       ]
      },
      "location_y": {
       "Points": [
        {
         "co": {
          "X": 1,
          "Y": 0
         },
         "interpolation": 2
        }
       ]
      },
      "mixing": 0,
      "perspective_c1_x": {
       "Points": [
        {
         "co": {
          "X": 1,
          "Y": -1
         },
         "interpolation": 2
        }
       ]
      },
      "perspective_c1_y": {
       "Points": [
        {
         "co": {
          "X": 1,
          "Y": -1
         },
         "interpolation": 2
        }
       ]
      },
      "perspective_c2_x": {
       "Points": [
        {
         "co": {
          "X": 1,
          "Y": -1
         },
         "interpolation": 2
        }
       ]
      },
      "perspective_c2_y": {
       "Points": [
        {
         "co": {
          "X": 1,
          "Y": -1
         },
         "interpolation": 2
        }
       ]
      },
      "perspective_c3_x": {
       "Points": [
        {
         "co": {
          "X": 1,
          "Y": -1
         },
         "interpolation": 2
        }
       ]
      },
      "perspective_c3_y": {
       "Points": [
        {
         "co": {
          "X": 1,
          "Y": -1
         },
         "interpolation": 2
        }
       ]
      },
      "perspective_c4_x": {
       "Points": [
        {
         "co": {
          "X": 1,
          "Y": -1
         },
         "interpolation": 2
        }
       ]
      },
      "perspective_c4_y": {
       "Points": [
        {
         "co": {
          "X": 1,
          "Y": -1
         },
         "interpolation": 2
        }
       ]
      },
      "position": 33,
      "reader": {
       "acodec": "",
       "audio_bit_rate": 0,
       "audio_stream_index": -1,
       "audio_timebase": {
        "den": 1,
        "num": 1
       },
       "channel_layout": 4,
       "channels": 0,
       "display_ratio": {
        "den": 9,
        "num": 16
       },
       "duration": 3600.0,
       "file_size": "8294400",
       "fps": {
        "den": 1,
        "num": 30
       },
       "has_audio": false,
       "has_single_image": true,
       "has_video": true,
       "height": 1080,
       "interlaced_frame": false,
       "metadata": {},
       "path": "generated/g2.png",
       "pixel_format": -1,
       "pixel_ratio": {
        "den": 1,
        "num": 1
       },
       "sample_rate": 0,
       "top_field_first": true,
       "type": "QtImageReader",
       "vcodec": "",
       "video_bit_rate": 0,
       "video_length": "108000",
       "video_stream_index": -1,
       "video_timebase": {
        "den": 30,
        "num": 1
       },
       "width": 1920
      },
      "rotation": {
       "Points": [
        {
         "co": {
          "X": 1,
          "Y": 0
         },
         "interpolation": 2
        }
       ]
      },
      "scale": 1,
      "scale_x": {
       "Points": [
        {
         "co": {
          "X": 1,
          "Y": 1
         },
         "interpolation": 2
        }
       ]
      },
      "scale_y": {
       "Points": [
        {
         "co": {
          "X": 1,
          "Y": 1
         },
         "interpolation": 2
        }
       ]
      },
      "shear_x": {
       "Points": [
        {
         "co": {
          "X": 1,
          "Y": 0
         },
         "interpolation": 2
        }
       ]
      },
      "shear_y": {
       "Points": [
        {
         "co": {
          "X": 1,
          "Y": 0
         },
         "interpolation": 2
        }
       ]
      },
      "start": 0,
      "time": {
       "Points": [
        {
         "co": {
          "X": 1,
          "Y": 1
         },
         "interpolation": 2
        }
       ]
      },
      "volume": {
       "Points": [
        {
         "co": {
          "X": 1,
          "Y": 1
         },
         "interpolation": 2
        }
       ]
      },
      "wave_color": {
       "alpha": {
        "Points": [
         {
          "co": {
           "X": 1,
           "Y": 255
          },
          "handle_left": {
           "X": 0.5,
           "Y": 1
          },
          "handle_right": {
           "X": 0.5,
           "Y": 0
          },
          "handle_type": 0,
          "interpolation": 0
         }
        ]
       },
       "blue": {
        "Points": [
         {
          "co": {
           "X": 1,
           "Y": 255
          },
          "handle_left": {
           "X": 0.5,
           "Y": 1
          },
          "handle_right": {
           "X": 0.5,
           "Y": 0
          },
          "handle_type": 0,
          "interpolation": 0
         }
        ]
       },
       "green": {
        "Points": [
         {
          "co": {
           "X": 1,
           "Y": 123
          },
          "handle_left": {
           "X": 0.5,
           "Y": 1
          },
          "handle_right": {
           "X": 0.5,
           "Y": 0
          },
          "handle_type": 0,
          "interpolation": 0
         }
        ]
       },
       "red": {
        "Points": [
         {
          "co": {
           "X": 1,
           "Y": 0
          },
          "handle_left": {
           "X": 0.5,
           "Y": 1
          },
          "handle_right": {
           "X": 0.5,
           "Y": 0
          },
          "handle_type": 0,
          "interpolation": 0
         }
        ]
       }
      },
      "waveform": false,
      "file_id": "30TG8KEIVW",
      "title": "g2.png",
      "image": "thumbnail/30TG8KEIVW.png"
     },
     {
      "alpha": {
       "Points": [
        {
         "co": {
          "X": 1,
          "Y": 1
         },
         "interpolation": 2
        }
       ]
      },
      "anchor": 0,
      "channel_filter": {
       "Points": [
        {
         "co": {
          "X": 1,
          "Y": -1
         },
         "interpolation": 2
        }
       ]
      },
      "channel_mapping": {
       "Points": [
        {
         "co": {
          "X": 1,
          "Y": -1
         },
         "interpolation": 2
        }
       ]
      },
      "crop_height": {
       "Points": [
        {
         "co": {
          "X": 1,
          "Y": 1
         },
         "interpolation": 2
        }
       ]
      },
      "crop_width": {
       "Points": [
        {
         "co": {
          "X": 1,
          "Y": 1
         },
         "interpolation": 2
        }
       ]
      },
      "crop_x": {
       "Points": [
        {
         "co": {
          "X": 1,
          "Y": 0
         },
         "interpolation": 2
        }
       ]
      },
      "crop_y": {
       "Points": [
        {
         "co": {
          "X": 1,
          "Y": 0
         },
         "interpolation": 2
        }
       ]
      },
      "display": 0,
      "duration": 3600.0,
      "effects": [],
      "end": 7.0,
      "gravity": 4,
      "has_audio": {
       "Points": [
        {
         "co": {
          "X": 1,
          "Y": -1
         },
         "interpolation": 2
        }
       ]
      },
      "has_video": {
       "Points": [
        {
         "co": {
          "X": 1,
          "Y": -1
         },
         "interpolation": 2
        }
       ]
      },
      "id": "6VOHFTJALE",
      "layer": 4000000,
      "location_x": {
       "Points": [
        {
         "co": {
          "X": 1,
          "Y": 0
         },
         "interpolation": 2
        }
       ]
      },
      "location_y": {
       "Points": [
        {
         "co": {
          "X": 1,
          "Y": 0
         },
         "interpolation": 2
        }
       ]
      },
      "mixing": 0,
      "perspective_c1_x": {
       "Points": [
        {
         "co": {
          "X": 1,
          "Y": -1
         },
         "interpolation": 2
        }
       ]
      },
      "perspective_c1_y": {
       "Points": [
        {
         "co": {
          "X": 1,
          "Y": -1
         },
         "interpolation": 2
        }
       ]
      },
      "perspective_c2_x": {
       "Points": [
        {
         "co": {
          "X": 1,
          "Y": -1
         },
         "interpolation": 2
        }
       ]
      },
      "perspective_c2_y": {
       "Points": [
        {
         "co": {
          "X": 1,
          "Y": -1
         },
         "interpolation": 2
        }
       ]
      },
      "perspective_c3_x": {
       "Points": [
        {
         "co": {
          "X": 1,
          "Y": -1
         },
         "interpolation": 2
        }
       ]
      },
      "perspective_c3_y": {
       "Points": [
        {
         "co": {
          "X": 1,
          "Y": -1
         },
         "interpolation": 2
        }
       ]
      },
      "perspective_c4_x": {
       "Points": [
        {
         "co": {
          "X": 1,
          "Y": -1
         },
         "interpolation": 2
        }
       ]
      },
      "perspective_c4_y": {
       "Points": [
        {
         "co": {
          "X": 1,
          "Y": -1
         },
         "interpolation": 2
        }
       ]
      },
      "position": 35.04,
      "reader": {
       "acodec": "",
       "audio_bit_rate": 0,
       "audio_stream_index": -1,
       "audio_timebase": {
        "den": 1,
        "num": 1
       },
       "channel_layout": 4,
       "channels": 0,
       "display_ratio": {
        "den": 9,
        "num": 16
       },
       "duration": 3600.0,
       "file_size": "8294400",
       "fps": {
        "den": 1,
        "num": 30
       },
       "has_audio": false,
       "has_single_image": true,
       "has_video": true,
       "height": 1080,
       "interlaced_frame": false,
       "metadata": {},
       "path": "generated/g3.png",
       "pixel_format": -1,
       "pixel_ratio": {
        "den": 1,
        "num": 1
       },
       "sample_rate": 0,
       "top_field_first": true,
       "type": "QtImageReader",
       "vcodec": "",
       "video_bit_rate": 0,
       "video_length": "108000",
       "video_stream_index": -1,
       "video_timebase": {
        "den": 30,
        "num": 1
       },
       "width": 1920
      },
      "rotation": {
       "Points": [
        {
         "co": {
          "X": 1,
          "Y": 0
         },
         "interpolation": 2
        }
       ]
      },
      "scale": 1,
      "scale_x": {
       "Points": [
        {
         "co": {
          "X": 1,
          "Y": 1
         },
         "interpolation": 2
        }
       ]
      },
      "scale_y": {
       "Points": [
        {
         "co": {
          "X": 1,
          "Y": 1
         },
         "interpolation": 2
        }
       ]
      },
      "shear_x": {
       "Points": [
        {
         "co": {
          "X": 1,
          "Y": 0
         },
         "interpolation": 2
        }
       ]
      },
      "shear_y": {
       "Points": [
        {
         "co": {
          "X": 1,
          "Y": 0
         },
         "interpolation": 2
        }
       ]
      },
      "start": 0,
      "time": {
       "Points": [
        {
         "co": {
          "X": 1,
          "Y": 1
         },
         "interpolation": 2
        }
       ]
      },
      "volume": {
       "Points": [
        {
         "co": {
          "X": 1,
          "Y": 1
         },
         "interpolation": 2
        }
       ]
      },
      "wave_color": {
       "alpha": {
        "Points": [
         {
          "co": {
           "X": 1,
           "Y": 255
          },
          "handle_left": {
           "X": 0.5,
           "Y": 1
          },
          "handle_right": {
           "X": 0.5,
           "Y": 0
          },
          "handle_type": 0,
          "interpolation": 0
         }
        ]
       },
       "blue": {
        "Points": [
         {
          "co": {
           "X": 1,
           "Y": 255
          },
          "handle_left": {
           "X": 0.5,
           "Y": 1
          },
          "handle_right": {
           "X": 0.5,
           "Y": 0
          },
          "handle_type": 0,
          "interpolation": 0
         }
        ]
       },
       "green": {
        "Points": [
         {
          "co": {
           "X": 1,
           "Y": 123
          },
          "handle_left": {
           "X": 0.5,
           "Y": 1
          },
          "handle_right": {
           "X": 0.5,
           "Y": 0
          },
          "handle_type": 0,
          "interpolation": 0
         }
        ]
       },
       "red": {
        "Points": [
         {
          "co": {
           "X": 1,
           "Y": 0
          },
          "handle_left": {
           "X": 0.5,
           "Y": 1
          },
          "handle_right": {
           "X": 0.5,
           "Y": 0
          },
          "handle_type": 0,
          "interpolation": 0
         }
        ]
       }
      },
      "waveform": false,
      "file_id": "NFH7JMUJJU",
      "title": "g3.png",
      "image": "thumbnail/NFH7JMUJJU.png"
     },
     {
      "alpha": {
       "Points": [
        {
         "co": {
          "X": 1,
          "Y": 1
         },
         "interpolation": 2
        }
       ]
      },
      "anchor": 0,
      "channel_filter": {
       "Points": [
        {
         "co": {
          "X": 1,
          "Y": -1
         },
         "interpolation": 2
        }
       ]
      },
      "channel_mapping": {
       "Points": [
        {
         "co": {
          "X": 1,
          "Y": -1
         },
         "interpolation": 2
        }
       ]
      },
      "crop_height": {
       "Points": [
        {
         "co": {
          "X": 1,
          "Y": 1
         },
         "interpolation": 2
        }
       ]
      },
      "crop_width": {
       "Points": [
        {
         "co": {
          "X": 1,
          "Y": 1
         },
         "interpolation": 2
        }
       ]
      },
      "crop_x": {
       "Points": [
        {
         "co": {
          "X": 1,
          "Y": 0
         },
         "interpolation": 2
        }
       ]
      },
      "crop_y": {
       "Points": [
        {
         "co": {
          "X": 1,
          "Y": 0
         },
         "interpolation": 2
        }
       ]
      },
      "display": 0,
      "duration": 3600.0,
      "effects": [],
      "end": 7,
      "gravity": 4,
      "has_audio": {
       "Points": [
        {
         "co": {
          "X": 1,
          "Y": -1
         },
         "interpolation": 2
        }
       ]
      },
      "has_video": {
       "Points": [
        {
         "co": {
          "X": 1,
          "Y": -1
         },
         "interpolation": 2
        }
       ]
      },
      "id": "0LP7G81MB2",
      "layer": 4000000,
      "location_x": {
       "Points": [
        {
         "co": {
          "X": 1,
          "Y": 0
         },
         "interpolation": 2
        }
       ]
      },
      "location_y": {
       "Points": [
        {
         "co": {
          "X": 1,
          "Y": 0
         },
         "interpolation": 2
        }
       ]
      },
      "mixing": 0,
      "perspective_c1_x": {
       "Points": [
        {
         "co": {
          "X": 1,
          "Y": -1
         },
         "interpolation": 2
        }
       ]
      },
      "perspective_c1_y": {
       "Points": [
        {
         "co": {
          "X": 1,
          "Y": -1
         },
         "interpolation": 2
        }
       ]
      },
      "perspective_c2_x": {
       "Points": [
        {
         "co": {
          "X": 1,
          "Y": -1
         },
         "interpolation": 2
        }
       ]
      },
      "perspective_c2_y": {
       "Points": [
        {
         "co": {
          "X": 1,
          "Y": -1
         },
         "interpolation": 2
        }
       ]
      },
      "perspective_c3_x": {
       "Points": [
        {
         "co": {
          "X": 1,
          "Y": -1
         },
         "interpolation": 2
        }
       ]
      },
      "perspective_c3_y": {
       "Points": [
        {
         "co": {
          "X": 1,
          "Y": -1
         },
         "interpolation": 2
        }
       ]
      },
      "perspective_c4_x": {
       "Points": [
        {
         "co": {
          "X": 1,
          "Y": -1
         },
         "interpolation": 2
        }
       ]
      },
      "perspective_c4_y": {
       "Points": [
        {
         "co": {
          "X": 1,
          "Y": -1
         },
         "interpolation": 2
        }
       ]
      },
      "position": 43.0,
      "reader": {
       "acodec": "",
       "audio_bit_rate": 0,
       "audio_stream_index": -1,
       "audio_timebase": {
        "den": 1,
        "num": 1
       },
       "channel_layout": 4,
       "channels": 0,
       "display_ratio": {
        "den": 9,
        "num": 16
       },
       "duration": 3600.0,
       "file_size": "8294400",
       "fps": {
        "den": 1,
        "num": 30
       },
       "has_audio": false,
       "has_single_image": true,
       "has_video": true,
       "height": 1080,
       "interlaced_frame": false,
       "metadata": {},
       "path": "generated/i0.png",
       "pixel_format": -1,
       "pixel_ratio": {
        "den": 1,
        "num": 1
       },
       "sample_rate": 0,
       "top_field_first": true,
       "type": "QtImageReader",
       "vcodec": "",
       "video_bit_rate": 0,
       "video_length": "108000",
       "video_stream_index": -1,
       "video_timebase": {
        "den": 30,
        "num": 1
       },
       "width": 1920
      },
      "rotation": {
       "Points": [
        {
         "co": {
          "X": 1,
          "Y": 0
         },
         "interpolation": 2
        }
       ]
      },
      "scale": 1,
      "scale_x": {
       "Points": [
        {
         "co": {
          "X": 1,
          "Y": 1
         },
         "interpolation": 2
        }
       ]
      },
      "scale_y": {
       "Points": [
        {
         "co": {
          "X": 1,
          "Y": 1
         },
         "interpolation": 2
        }
       ]
      },
      "shear_x": {
       "Points": [
        {
         "co": {
          "X": 1,
          "Y": 0
         },
         "interpolation": 2
        }
       ]
      },
      "shear_y": {
       "Points": [
        {
         "co": {
          "X": 1,
          "Y": 0
         },
         "interpolation": 2
        }
       ]
      },
      "start": 0,
      "time": {
       "Points": [
        {
         "co": {
          "X": 1,
          "Y": 1
         },
         "interpolation": 2
        }
       ]
      },
      "volume": {
       "Points": [
        {
         "co": {
          "X": 1,
          "Y": 1
         },
         "interpolation": 2
        }
       ]
      },
      "wave_color": {
       "alpha": {
        "Points": [
         {
          "co": {
           "X": 1,
           "Y": 255
          },
          "handle_left": {
           "X": 0.5,
           "Y": 1
          },
          "handle_right": {
           "X": 0.5,
           "Y": 0
          },
          "handle_type": 0,
          "interpolation": 0
         }
        ]
       },
       "blue": {
        "Points": [
         {
          "co": {
           "X": 1,
           "Y": 255
          },
          "handle_left": {
           "X": 0.5,
           "Y": 1
          },
          "handle_right": {
           "X": 0.5,
           "Y": 0
          },
          "handle_type": 0,
          "interpolation": 0
         }
        ]
       },
       "green": {
        "Points": [
         {
          "co": {
           "X": 1,
           "Y": 123
          },
          "handle_left": {
           "X": 0.5,
           "Y": 1
          },
          "handle_right": {
           "X": 0.5,
           "Y": 0
          },
          "handle_type": 0,
          "interpolation": 0
         }
        ]
       },
       "red": {
        "Points": [
         {
          "co": {
           "X": 1,
           "Y": 0
          },
          "handle_left": {
           "X": 0.5,
           "Y": 1
          },
          "handle_right": {
           "X": 0.5,
           "Y": 0
          },
          "handle_type": 0,
          "interpolation": 0
         }
        ]
       }
      },
      "waveform": false,
      "file_id": "GS0GI0S0DY",
      "title": "i0.png",
      "image": "thumbnail/GS0GI0S0DY.png"
     },
     {
      "alpha": {
       "Points": [
        {
         "co": {
          "X": 1,
          "Y": 1
         },
         "interpolation": 2
        }
       ]
      },
      "anchor": 0,
      "channel_filter": {
       "Points": [
        {
         "co": {
          "X": 1,
          "Y": -1
         },
         "interpolation": 2
        }
       ]
      },
      "channel_mapping": {
       "Points": [
        {
         "co": {
          "X": 1,
          "Y": -1
         },
         "interpolation": 2
        }
       ]
      },
      "crop_height": {
       "Points": [
        {
         "co": {
          "X": 1,
          "Y": 1
         },
         "interpolation": 2
        }
       ]
      },
      "crop_width": {
       "Points": [
        {
         "co": {
          "X": 1,
          "Y": 1
         },
         "interpolation": 2
        }
       ]
      },
      "crop_x": {
       "Points": [
        {
         "co": {
          "X": 1,
          "Y": 0
         },
         "interpolation": 2
        }
       ]
      },
      "crop_y": {
       "Points": [
        {
         "co": {
          "X": 1,
          "Y": 0
         },
         "interpolation": 2
        }
       ]
      },
      "display": 0,
      "duration": 3600.0,
      "effects": [],
      "end": 6,
      "gravity": 4,
      "has_audio": {
       "Points": [
        {
         "co": {
          "X": 1,
          "Y": -1
         },
         "interpolation": 2
        }
       ]
      },
      "has_video": {
       "Points": [
        {
         "co": {
          "X": 1,
          "Y": -1
         },
         "interpolation": 2
        }
       ]
      },
      "id": "11H8KXEBX0",
      "layer": 4000000,
      "location_x": {
       "Points": [
        {
         "co": {
          "X": 1,
          "Y": 0
         },
         "interpolation": 2
        }
       ]
      },
      "location_y": {
       "Points": [
        {
         "co": {
          "X": 1,
          "Y": 0
         },
         "interpolation": 2
        }
       ]
      },
      "mixing": 0,
      "perspective_c1_x": {
       "Points": [
        {
         "co": {
          "X": 1,
          "Y": -1
         },
         "interpolation": 2
        }
       ]
      },
      "perspective_c1_y": {
       "Points": [
        {
         "co": {
          "X": 1,
          "Y": -1
         },
         "interpolation": 2
        }
       ]
      },
      "perspective_c2_x": {
       "Points": [
        {
         "co": {
          "X": 1,
          "Y": -1
         },
         "interpolation": 2
        }
       ]
      },
      "perspective_c2_y": {
       "Points": [
        {
         "co": {
          "X": 1,
          "Y": -1
         },
         "interpolation": 2
        }
       ]
      },
      "perspective_c3_x": {
       "Points": [
        {
         "co": {
          "X": 1,
          "Y": -1
         },
         "interpolation": 2
        }
       ]
      },
      "perspective_c3_y": {
       "Points": [
        {
         "co": {
          "X": 1,
          "Y": -1
         },
         "interpolation": 2
        }
       ]
      },
      "perspective_c4_x": {
       "Points": [
        {
         "co": {
          "X": 1,
          "Y": -1
         },
         "interpolation": 2
        }
       ]
      },
      "perspective_c4_y": {
       "Points": [
        {
         "co": {
          "X": 1,
          "Y": -1
         },
         "interpolation": 2
        }
       ]
      },
      "position": 47.48,
      "reader": {
       "acodec": "",
       "audio_bit_rate": 0,
       "audio_stream_index": -1,
       "audio_timebase": {
        "den": 1,
        "num": 1
       },
       "channel_layout": 4,
       "channels": 0,
       "display_ratio": {
        "den": 9,
        "num": 16
       },
       "duration": 3600.0,
       "file_size": "8294400",
       "fps": {
        "den": 1,
        "num": 30
       },
       "has_audio": false,
       "has_single_image": true,
       "has_video": true,
       "height": 1080,
       "interlaced_frame": false,
       "metadata": {},
       "path": "generated/i1.png",
       "pixel_format": -1,
       "pixel_ratio": {
        "den": 1,
        "num": 1
       },
       "sample_rate": 0,
       "top_field_first": true,
       "type": "QtImageReader",
       "vcodec": "",
       "video_bit_rate": 0,
       "video_length": "108000",
       "video_stream_index": -1,
       "video_timebase": {
        "den": 30,
        "num": 1
       },
       "width": 1920
      },
      "rotation": {
       "Points": [
        {
         "co": {
          "X": 1,
          "Y": 0
         },
         "interpolation": 2
        }
       ]
      },
      "scale": 1,
      "scale_x": {
       "Points": [
        {
         "co": {
          "X": 1,
          "Y": 1
         },
         "interpolation": 2
        }
       ]
      },
      "scale_y": {
       "Points": [
        {
         "co": {
          "X": 1,
          "Y": 1
         },
         "interpolation": 2
        }
       ]
      },
      "shear_x": {
       "Points": [
        {
         "co": {
          "X": 1,
          "Y": 0
         },
         "interpolation": 2
        }
       ]
      },
      "shear_y": {
       "Points": [
        {
         "co": {
          "X": 1,
          "Y": 0
         },
         "interpolation": 2
        }
       ]
      },
      "start": 0,
      "time": {
       "Points": [
        {
         "co": {
          "X": 1,
          "Y": 1
         },
         "interpolation": 2
        }
       ]
      },
      "volume": {
       "Points": [
        {
         "co": {
          "X": 1,
          "Y": 1
         },
         "interpolation": 2
        }
       ]
      },
      "wave_color": {
       "alpha": {
        "Points": [
         {
          "co": {
           "X": 1,
           "Y": 255
          },
          "handle_left": {
           "X": 0.5,
           "Y": 1
          },
          "handle_right": {
           "X": 0.5,
           "Y": 0
          },
          "handle_type": 0,
          "interpolation": 0
         }
        ]
       },
       "blue": {
        "Points": [
         {
          "co": {
           "X": 1,
           "Y": 255
          },
          "handle_left": {
           "X": 0.5,
           "Y": 1
          },
          "handle_right": {
           "X": 0.5,
           "Y": 0
          },
          "handle_type": 0,
          "interpolation": 0
         }
        ]
       },
       "green": {
        "Points": [
         {
          "co": {
           "X": 1,
           "Y": 123
          },
          "handle_left": {
           "X": 0.5,
           "Y": 1
          },
          "handle_right": {
           "X": 0.5,
           "Y": 0
          },
          "handle_type": 0,
          "interpolation": 0
         }
        ]
       },
       "red": {
        "Points": [
         {
          "co": {
           "X": 1,
           "Y": 0
          },
          "handle_left": {
           "X": 0.5,
           "Y": 1
          },
          "handle_right": {
           "X": 0.5,
           "Y": 0
          },
          "handle_type": 0,
          "interpolation": 0
         }
        ]
       }
      },
      "waveform": false,
      "file_id": "9OBXZNQR45",
      "title": "i1.png",
      "image": "thumbnail/9OBXZNQR45.png"
     },
     {
      "alpha": {
       "Points": [
        {
         "co": {
          "X": 1,
          "Y": 1
         },
         "interpolation": 2
        }
       ]
      },
      "anchor": 0,
      "channel_filter": {
       "Points": [
        {
         "co": {
          "X": 1,
          "Y": -1
         },
         "interpolation": 2
        }
       ]
      },
      "channel_mapping": {
       "Points": [
        {
         "co": {
          "X": 1,
          "Y": -1
         },
         "interpolation": 2
        }
       ]
      },
      "crop_height": {
       "Points": [
        {
         "co": {
          "X": 1,
          "Y": 1
         },
         "interpolation": 2
        }
       ]
      },
      "crop_width": {
       "Points": [
        {
         "co": {
          "X": 1,
          "Y": 1
         },
         "interpolation": 2
        }
       ]
      },
      "crop_x": {
       "Points": [
        {
         "co": {
          "X": 1,
          "Y": 0
         },
         "interpolation": 2
        }
       ]
      },
      "crop_y": {
       "Points": [
        {
         "co": {
          "X": 1,
          "Y": 0
         },
         "interpolation": 2
        }
       ]
      },
      "display": 0,
      "duration": 3600.0,
      "effects": [],
      "end": 6,
      "gravity": 4,
      "has_audio": {
       "Points": [
        {
         "co": {
          "X": 1,
          "Y": -1
         },
         "interpolation": 2
        }
       ]
      },
      "has_video": {
       "Points": [
        {
         "co": {
          "X": 1,
          "Y": -1
         },
         "interpolation": 2
        }
       ]
      },
      "id": "FYGPVRXHG0",
      "layer": 4000000,
      "location_x": {
       "Points": [
        {
         "co": {
          "X": 1,
          "Y": 0
         },
         "interpolation": 2
        }
       ]
      },
      "location_y": {
       "Points": [
        {
         "co": {
          "X": 1,
          "Y": 0
         },
         "interpolation": 2
        }
       ]
      },
      "mixing": 0,
      "perspective_c1_x": {
       "Points": [
        {
         "co": {
          "X": 1,
          "Y": -1
         },
         "interpolation": 2
        }
       ]
      },
      "perspective_c1_y": {
       "Points": [
        {
         "co": {
          "X": 1,
          "Y": -1
         },
         "interpolation": 2
        }
       ]
      },
      "perspective_c2_x": {
       "Points": [
        {
         "co": {
          "X": 1,
          "Y": -1
         },
         "interpolation": 2
        }
       ]
      },
      "perspective_c2_y": {
       "Points": [
        {
         "co": {
          "X": 1,
          "Y": -1
         },
         "interpolation": 2
        }
       ]
      },
      "perspective_c3_x": {
       "Points": [
        {
         "co": {
          "X": 1,
          "Y": -1
         },
         "interpolation": 2
        }
       ]
      },
      "perspective_c3_y": {
       "Points": [
        {
         "co": {
          "X": 1,
          "Y": -1
         },
         "interpolation": 2
        }
       ]
      },
      "perspective_c4_x": {
       "Points": [
        {
         "co": {
          "X": 1,
          "Y": -1
         },
         "interpolation": 2
        }
       ]
      },
      "perspective_c4_y": {
       "Points": [
        {
         "co": {
          "X": 1,
          "Y": -1
         },
         "interpolation": 2
        }
       ]
      },
      "position": 51,
      "reader": {
       "acodec": "",
       "audio_bit_rate": 0,
       "audio_stream_index": -1,
       "audio_timebase": {
        "den": 1,
        "num": 1
       },
       "channel_layout": 4,
       "channels": 0,
       "display_ratio": {
        "den": 9,
        "num": 16
       },
       "duration": 3600.0,
       "file_size": "8294400",
       "fps": {
        "den": 1,
        "num": 30
       },
       "has_audio": false,
       "has_single_image": true,
       "has_video": true,
       "height": 1080,
       "interlaced_frame": false,
       "metadata": {},
       "path": "generated/i2.png",
       "pixel_format": -1,
       "pixel_ratio": {
        "den": 1,
        "num": 1
       },
       "sample_rate": 0,
       "top_field_first": true,
       "type": "QtImageReader",
       "vcodec": "",
       "video_bit_rate": 0,
       "video_length": "108000",
       "video_stream_index": -1,
       "video_timebase": {
        "den": 30,
        "num": 1
       },
       "width": 1920
      },
      "rotation": {
       "Points": [
        {
         "co": {
          "X": 1,
          "Y": 0
         },
         "interpolation": 2
        }
       ]
      },
      "scale": 1,
      "scale_x": {
       "Points": [
        {
         "co": {
          "X": 1,
          "Y": 1
         },
         "interpolation": 2
        }
       ]
      },
      "scale_y": {
       "Points": [
        {
         "co": {
          "X": 1,
          "Y": 1
         },
         "interpolation": 2
        }
       ]
      },
      "shear_x": {
       "Points": [
        {
         "co": {
          "X": 1,
          "Y": 0
         },
         "interpolation": 2
        }
       ]
      },
      "shear_y": {
       "Points": [
        {
         "co": {
          "X": 1,
          "Y": 0
         },
         "interpolation": 2
        }
       ]
      },
      "start": 0,
      "time": {
       "Points": [
        {
         "co": {
          "X": 1,
          "Y": 1
         },
         "interpolation": 2
        }
       ]
      },
      "volume": {
       "Points": [
        {
         "co": {
          "X": 1,
          "Y": 1
         },
         "interpolation": 2
        }
       ]
      },
      "wave_color": {
       "alpha": {
        "Points": [
         {
          "co": {
           "X": 1,
           "Y": 255
          },
          "handle_left": {
           "X": 0.5,
           "Y": 1
          },
          "handle_right": {
           "X": 0.5,
           "Y": 0
          },
          "handle_type": 0,
          "interpolation": 0
         }
        ]
       },
       "blue": {
        "Points": [
         {
          "co": {
           "X": 1,
           "Y": 255
          },
          "handle_left": {
           "X": 0.5,
           "Y": 1
          },
          "handle_right": {
           "X": 0.5,
           "Y": 0
          },
          "handle_type": 0,
          "interpolation": 0
         }
        ]
       },
       "green": {
        "Points": [
         {
          "co": {
           "X": 1,
           "Y": 123
          },
          "handle_left": {
           "X": 0.5,
           "Y": 1
          },
          "handle_right": {
           "X": 0.5,
           "Y": 0
          },
          "handle_type": 0,
          "interpolation": 0
         }
        ]
       },
       "red": {
        "Points": [
         {
          "co": {
           "X": 1,
           "Y": 0
          },
          "handle_left": {
           "X": 0.5,
           "Y": 1
          },
          "handle_right": {
           "X": 0.5,
           "Y": 0
          },
          "handle_type": 0,
          "interpolation": 0
         }
        ]
       }
      },
      "waveform": false,
      "file_id": "KN2RPS9LTZ",
      "title": "i2.png",
      "image": "thumbnail/KN2RPS9LTZ.png"
     },
     {
      "alpha": {
       "Points": [
        {
         "co": {
          "X": 1,
          "Y": 1
         },
         "interpolation": 2
        }
       ]
      },
      "anchor": 0,
      "channel_filter": {
       "Points": [
        {
         "co": {
          "X": 1,
          "Y": -1
         },
         "interpolation": 2
        }
       ]
      },
      "channel_mapping": {
       "Points": [
        {
         "co": {
          "X": 1,
          "Y": -1
         },
         "interpolation": 2
        }
       ]
      },
      "crop_height": {
       "Points": [
        {
         "co": {
          "X": 1,
          "Y": 1
         },
         "interpolation": 2
        }
       ]
      },
      "crop_width": {
       "Points": [
        {
         "co": {
          "X": 1,
          "Y": 1
         },
         "interpolation": 2
        }
       ]
      },
      "crop_x": {
       "Points": [
        {
         "co": {
          "X": 1,
          "Y": 0
         },
         "interpolation": 2
        }
       ]
      },
      "crop_y": {
       "Points": [
        {
         "co": {
          "X": 1,
          "Y": 0
         },
         "interpolation": 2
        }
       ]
      },
      "display": 0,
      "duration": 3600.0,
      "effects": [],
      "end": 5.0,
      "gravity": 4,
      "has_audio": {
       "Points": [
        {
         "co": {
          "X": 1,
          "Y": -1
         },
         "interpolation": 2
        }
       ]
      },
      "has_video": {
       "Points": [
        {
         "co": {
          "X": 1,
          "Y": -1
         },
         "interpolation": 2
        }
       ]
      },
      "id": "2I65B7Z1DV",
      "layer": 4000000,
      "location_x": {
       "Points": [
        {
         "co": {
          "X": 1,
          "Y": 0
         },
         "interpolation": 2
        }
       ]
      },
      "location_y": {
       "Points": [
        {
         "co": {
          "X": 1,
          "Y": 0
         },
         "interpolation": 2
        }
       ]
      },
      "mixing": 0,
      "perspective_c1_x": {
       "Points": [
        {
         "co": {
          "X": 1,
          "Y": -1
         },
         "interpolation": 2
        }
       ]
      },
      "perspective_c1_y": {
       "Points": [
        {
         "co": {
          "X": 1,
          "Y": -1
         },
         "interpolation": 2
        }
       ]
      },
      "perspective_c2_x": {
       "Points": [
        {
         "co": {
          "X": 1,
          "Y": -1
         },
         "interpolation": 2
        }
       ]
      },
      "perspective_c2_y": {
       "Points": [
        {
         "co": {
          "X": 1,
          "Y": -1
         },
         "interpolation": 2
        }
       ]
      },
      "perspective_c3_x": {
       "Points": [
        {
         "co": {
          "X": 1,
          "Y": -1
         },
         "interpolation": 2
        }
       ]
      },
      "perspective_c3_y": {
       "Points": [
        {
         "co": {
          "X": 1,
          "Y": -1
         },
         "interpolation": 2
        }
       ]
      },
      "perspective_c4_x": {
       "Points": [
        {
         "co": {
          "X": 1,
          "Y": -1
         },
         "interpolation": 2
        }
       ]
      },
      "perspective_c4_y": {
       "Points": [
        {
         "co": {
          "X": 1,
          "Y": -1
         },
         "interpolation": 2
        }
       ]
      },
      "position": 55,
      "reader": {
       "acodec": "",
       "audio_bit_rate": 0,
       "audio_stream_index": -1,
       "audio_timebase": {
        "den": 1,
        "num": 1
       },
       "channel_layout": 4,
       "channels": 0,
       "display_ratio": {
        "den": 9,
        "num": 16
       },
       "duration": 3600.0,
       "file_size": "8294400",
       "fps": {
        "den": 1,
        "num": 30
       },
       "has_audio": false,
       "has_single_image": true,
       "has_video": true,
       "height": 1080,
       "interlaced_frame": false,
       "metadata": {},
       "path": "generated/i3.png",
       "pixel_format": -1,
       "pixel_ratio": {
        "den": 1,
        "num": 1
       },
       "sample_rate": 0,
       "top_field_first": true,
       "type": "QtImageReader",
       "vcodec": "",
       "video_bit_rate": 0,
       "video_length": "108000",
       "video_stream_index": -1,
       "video_timebase": {
        "den": 30,
        "num": 1
       },
       "width": 1920
      },
      "rotation": {
       "Points": [
        {
         "co": {
          "X": 1,
          "Y": 0
         },
         "interpolation": 2
        }
       ]
      },
      "scale": 1,
      "scale_x": {
       "Points": [
        {
         "co": {
          "X": 1,
          "Y": 1
         },
         "interpolation": 2
        }
       ]
      },
      "scale_y": {
       "Points": [
        {
         "co": {
          "X": 1,
          "Y": 1
         },
         "interpolation": 2
        }
       ]
      },
      "shear_x": {
       "Points": [
        {
         "co": {
          "X": 1,
          "Y": 0
         },
         "interpolation": 2
        }
       ]
      },
      "shear_y": {
       "Points": [
        {
         "co": {
          "X": 1,
          "Y": 0
         },
         "interpolation": 2
        }
       ]
      },
      "start": 0,
      "time": {
       "Points": [
        {
         "co": {
          "X": 1,
          "Y": 1
         },
         "interpolation": 2
        }
       ]
      },
      "volume": {
       "Points": [
        {
         "co": {
          "X": 1,
          "Y": 1
         },
         "interpolation": 2
        }
       ]
      },
      "wave_color": {
       "alpha": {
        "Points": [
         {
          "co": {
           "X": 1,
           "Y": 255
          },
          "handle_left": {
           "X": 0.5,
           "Y": 1
          },
          "handle_right": {
           "X": 0.5,
           "Y": 0
          },
          "handle_type": 0,
          "interpolation": 0
         }
        ]
       },
       "blue": {
        "Points": [
         {
          "co": {
           "X": 1,
           "Y": 255
          },
          "handle_left": {
           "X": 0.5,
           "Y": 1
          },
          "handle_right": {
           "X": 0.5,
           "Y": 0
          },
          "handle_type": 0,
          "interpolation": 0
         }
        ]
       },
       "green": {
        "Points": [
         {
          "co": {
           "X": 1,
           "Y": 123
          },
          "handle_left": {
           "X": 0.5,
           "Y": 1
          },
          "handle_right": {
           "X": 0.5,
           "Y": 0
          },
          "handle_type": 0,
          "interpolation": 0
         }
        ]
       },
       "red": {
        "Points": [
         {
          "co": {
           "X": 1,
           "Y": 0
          },
          "handle_left": {
           "X": 0.5,
           "Y": 1
          },
          "handle_right": {
           "X": 0.5,
           "Y": 0
          },
          "handle_type": 0,
          "interpolation": 0
         }
        ]
       }
      },
      "waveform": false,
      "file_id": "K2FDZNO37T",
      "title": "i3.png",
      "image": "thumbnail/K2FDZNO37T.png"
     },
     {
      "alpha": {
       "Points": [
        {
         "co": {
          "X": 1,
          "Y": 1
         },
         "interpolation": 2
        }
       ]
      },
      "anchor": 0,
      "channel_filter": {
       "Points": [
        {
         "co": {
          "X": 1,
          "Y": -1
         },
         "interpolation": 2
        }
       ]
      },
      "channel_mapping": {
       "Points": [
        {
         "co": {
          "X": 1,
          "Y": -1
         },
         "interpolation": 2
        }
       ]
      },
      "crop_height": {
       "Points": [
        {
         "co": {
          "X": 1,
          "Y": 1
         },
         "interpolation": 2
        }
       ]
      },
      "crop_width": {
       "Points": [
        {
         "co": {
          "X": 1,
          "Y": 1
         },
         "interpolation": 2
        }
       ]
      },
      "crop_x": {
       "Points": [
        {
         "co": {
          "X": 1,
          "Y": 0
         },
         "interpolation": 2
        }
       ]
      },
      "crop_y": {
       "Points": [
        {
         "co": {
          "X": 1,
          "Y": 0
         },
         "interpolation": 2
        }
       ]
      },
      "display": 0,
      "duration": 3600.0,
      "effects": [],
      "end": 3,
      "gravity": 4,
      "has_audio": {
       "Points": [
        {
         "co": {
          "X": 1,
          "Y": -1
         },
         "interpolation": 2
        }
       ]
      },
      "has_video": {
       "Points": [
        {
         "co": {
          "X": 1,
          "Y": -1
         },
         "interpolation": 2
        }
       ]
      },
      "id": "8E7J22Q9ES",
      "layer": 4000000,
      "location_x": {
       "Points": [
        {
         "co": {
          "X": 1,
          "Y": 0
         },
         "interpolation": 2
        }
       ]
      },
      "location_y": {
       "Points": [
        {
         "co": {
          "X": 1,
          "Y": 0
         },
         "interpolation": 2
        }
       ]
      },
      "mixing": 0,
      "perspective_c1_x": {
       "Points": [
        {
         "co": {
          "X": 1,
          "Y": -1
         },
         "interpolation": 2
        }
       ]
      },
      "perspective_c1_y": {
       "Points": [
        {
         "co": {
          "X": 1,
          "Y": -1
         },
         "interpolation": 2
        }
       ]
      },
      "perspective_c2_x": {
       "Points": [
        {
         "co": {
          "X": 1,
          "Y": -1
         },
         "interpolation": 2
        }
       ]
      },
      "perspective_c2_y": {
       "Points": [
        {
         "co": {
          "X": 1,
          "Y": -1
         },
         "interpolation": 2
        }
       ]
      },
      "perspective_c3_x": {
       "Points": [
        {
         "co": {
          "X": 1,
          "Y": -1
         },
         "interpolation": 2
        }
       ]
      },
      "perspective_c3_y": {
       "Points": [
        {
         "co": {
          "X": 1,
          "Y": -1
         },
         "interpolation": 2
        }
       ]
      },
      "perspective_c4_x": {
       "Points": [
        {
         "co": {
          "X": 1,
          "Y": -1
         },
         "interpolation": 2
        }
       ]
      },
      "perspective_c4_y": {
       "Points": [
        {
         "co": {
          "X": 1,
          "Y": -1
         },
         "interpolation": 2
        }
       ]
      },
      "position": 28,
      "reader": {
       "acodec": "",
       "audio_bit_rate": 0,
       "audio_stream_index": -1,
       "audio_timebase": {
        "den": 1,
        "num": 1
       },
       "channel_layout": 4,
       "channels": 0,
       "display_ratio": {
        "den": 9,
        "num": 16
       },
       "duration": 3600.0,
       "file_size": "8294400",
       "fps": {
        "den": 1,
        "num": 30
       },
       "has_audio": false,
       "has_single_image": true,
       "has_video": true,
       "height": 1080,
       "interlaced_frame": false,
       "metadata": {},
       "path": "generated/g0.png",
       "pixel_format": -1,
       "pixel_ratio": {
        "den": 1,
        "num": 1
       },
       "sample_rate": 0,
       "top_field_first": true,
       "type": "QtImageReader",
       "vcodec": "",
       "video_bit_rate": 0,
       "video_length": "108000",
       "video_stream_index": -1,
       "video_timebase": {
        "den": 30,
        "num": 1
       },
       "width": 1920
      },
      "rotation": {
       "Points": [
        {
         "co": {
          "X": 1,
          "Y": 0
         },
         "interpolation": 2
        }
       ]
      },
      "scale": 1,
      "scale_x": {
       "Points": [
        {
         "co": {
          "X": 1,
          "Y": 1
         },
         "interpolation": 2
        }
       ]
      },
      "scale_y": {
       "Points": [
        {
         "co": {
          "X": 1,
          "Y": 1
         },
         "interpolation": 2
        }
       ]
      },
      "shear_x": {
       "Points": [
        {
         "co": {
          "X": 1,
          "Y": 0
         },
         "interpolation": 2
        }
       ]
      },
      "shear_y": {
       "Points": [
        {
         "co": {
          "X": 1,
          "Y": 0
         },
         "interpolation": 2
        }
       ]
      },
      "start": 0,
      "time": {
       "Points": [
        {
         "co": {
          "X": 1,
          "Y": 1
         },
         "interpolation": 2
        }
       ]
      },
      "volume": {
       "Points": [
        {
         "co": {
          "X": 1,
          "Y": 1
         },
         "interpolation": 2
        }
       ]
      },
      "wave_color": {
       "alpha": {
        "Points": [
         {
          "co": {
           "X": 1,
           "Y": 255
          },
          "handle_left": {
           "X": 0.5,
           "Y": 1
          },
          "handle_right": {
           "X": 0.5,
           "Y": 0
          },
          "handle_type": 0,
          "interpolation": 0
         }
        ]
       },
       "blue": {
        "Points": [
         {
          "co": {
           "X": 1,
           "Y": 255
          },
          "handle_left": {
           "X": 0.5,
           "Y": 1
          },
          "handle_right": {
           "X": 0.5,
           "Y": 0
          },
          "handle_type": 0,
          "interpolation": 0
         }
        ]
       },
       "green": {
        "Points": [
         {
          "co": {
           "X": 1,
           "Y": 123
          },
          "handle_left": {
           "X": 0.5,
           "Y": 1
          },
          "handle_right": {
           "X": 0.5,
           "Y": 0
          },
          "handle_type": 0,
          "interpolation": 0
         }
        ]
       },
       "red": {
        "Points": [
         {
          "co": {
           "X": 1,
           "Y": 0
          },
          "handle_left": {
           "X": 0.5,
           "Y": 1
          },
          "handle_right": {
           "X": 0.5,
           "Y": 0
          },
          "handle_type": 0,
          "interpolation": 0
         }
        ]
       }
      },
      "waveform": false,
      "file_id": "14XMU5A0GJ",
      "title": "g0.png",
      "image": "thumbnail/14XMU5A0GJ.png"
     },
     {
      "alpha": {
       "Points": [
        {
         "co": {
          "X": 1,
          "Y": 1
         },
         "interpolation": 2
        }
       ]
      },
      "anchor": 0,
      "channel_filter": {
       "Points": [
        {
         "co": {
          "X": 1,
          "Y": -1
         },
         "interpolation": 2
        }
       ]
      },
      "channel_mapping": {
       "Points": [
        {
         "co": {
          "X": 1,
          "Y": -1
         },
         "interpolation": 2
        }
       ]
      },
      "crop_height": {
       "Points": [
        {
         "co": {
          "X": 1,
          "Y": 1
         },
         "interpolation": 2
        }
       ]
      },
      "crop_width": {
       "Points": [
        {
         "co": {
          "X": 1,
          "Y": 1
         },
         "interpolation": 2
        }
       ]
      },
      "crop_x": {
       "Points": [
        {
         "co": {
          "X": 1,
          "Y": 0
         },
         "interpolation": 2
        }
       ]
      },
      "crop_y": {
       "Points": [
        {
         "co": {
          "X": 1,
          "Y": 0
         },
         "interpolation": 2
        }
       ]
      },
      "display": 0,
      "duration": 3600.0,
      "effects": [],
      "end": 4.0,
      "gravity": 4,
      "has_audio": {
       "Points": [
        {
         "co": {
          "X": 1,
          "Y": -1
         },
         "interpolation": 2
        }
       ]
      },
      "has_video": {
       "Points": [
        {
         "co": {
          "X": 1,
          "Y": -1
         },
         "interpolation": 2
        }
       ]
      },
      "layer": 4000000,
      "location_x": {
       "Points": [
        {
         "co": {
          "X": 1,
          "Y": 0
         },
         "interpolation": 2
        }
       ]
      },
      "location_y": {
       "Points": [
        {
         "co": {
          "X": 1,
          "Y": 0
         },
         "interpolation": 2
        }
       ]
      },
      "mixing": 0,
      "perspective_c1_x": {
       "Points": [
        {
         "co": {
          "X": 1,
          "Y": -1
         },
         "interpolation": 2
        }
       ]
      },
      "perspective_c1_y": {
       "Points": [
        {
         "co": {
          "X": 1,
          "Y": -1
         },
         "interpolation": 2
        }
       ]
      },
      "perspective_c2_x": {
       "Points": [
        {
         "co": {
          "X": 1,
          "Y": -1
         },
         "interpolation": 2
        }
       ]
      },
      "perspective_c2_y": {
       "Points": [
        {
         "co": {
          "X": 1,
          "Y": -1
         },
         "interpolation": 2
        }
       ]
      },
      "perspective_c3_x": {
       "Points": [
        {
         "co": {
          "X": 1,
          "Y": -1
         },
         "interpolation": 2
        }
       ]
      },
      "perspective_c3_y": {
       "Points": [
        {
         "co": {
          "X": 1,
          "Y": -1
         },
         "interpolation": 2
        }
       ]
      },
      "perspective_c4_x": {
       "Points": [
        {
         "co": {
          "X": 1,
          "Y": -1
         },
         "interpolation": 2
        }
       ]
      },
      "perspective_c4_y": {
       "Points": [
        {
         "co": {
          "X": 1,
          "Y": -1
         },
         "interpolation": 2
        }
       ]
      },
      "position": 40.0,
      "reader": {
       "acodec": "",
       "audio_bit_rate": 0,
       "audio_stream_index": -1,
       "audio_timebase": {
        "den": 1,
        "num": 1
       },
       "channel_layout": 4,
       "channels": 0,
       "display_ratio": {
        "den": 9,
        "num": 16
       },
       "duration": 3600.0,
       "file_size": "8294400",
       "fps": {
        "den": 1,
        "num": 30
       },
       "has_audio": false,
       "has_single_image": true,
       "has_video": true,
       "height": 1080,
       "interlaced_frame": false,
       "metadata": {},
       "path": "generated/g0.png",
       "pixel_format": -1,
       "pixel_ratio": {
        "den": 1,
        "num": 1
       },
       "sample_rate": 0,
       "top_field_first": true,
       "type": "QtImageReader",
       "vcodec": "",
       "video_bit_rate": 0,
       "video_length": "108000",
       "video_stream_index": -1,
       "video_timebase": {
        "den": 30,
        "num": 1
       },
       "width": 1920
      },
      "rotation": {
       "Points": [
        {
         "co": {
          "X": 1,
          "Y": 0
         },
         "interpolation": 2
        }
       ]
      },
      "scale": 1,
      "scale_x": {
       "Points": [
        {
         "co": {
          "X": 1,
          "Y": 1
         },
         "interpolation": 2
        }
       ]
      },
      "scale_y": {
       "Points": [
        {
         "co": {
          "X": 1,
          "Y": 1
         },
         "interpolation": 2
        }
       ]
      },
      "shear_x": {
       "Points": [
        {
         "co": {
          "X": 1,
          "Y": 0
         },
         "interpolation": 2
        }
       ]
      },
      "shear_y": {
       "Points": [
        {
         "co": {
          "X": 1,
          "Y": 0
         },
         "interpolation": 2
        }
       ]
      },
      "start": 0,
      "time": {
       "Points": [
        {
         "co": {
          "X": 1,
          "Y": 1
         },
         "interpolation": 2
        }
       ]
      },
      "volume": {
       "Points": [
        {
         "co": {
          "X": 1,
          "Y": 1
         },
         "interpolation": 2
        }
       ]
      },
      "wave_color": {
       "alpha": {
        "Points": [
         {
          "co": {
           "X": 1,
           "Y": 255
          },
          "handle_left": {
           "X": 0.5,
           "Y": 1
          },
          "handle_right": {
           "X": 0.5,
           "Y": 0
          },
          "handle_type": 0,
          "interpolation": 0
         }
        ]
       },
       "blue": {
        "Points": [
         {
          "co": {
           "X": 1,
           "Y": 255
          },
          "handle_left": {
           "X": 0.5,
           "Y": 1
          },
          "handle_right": {
           "X": 0.5,
           "Y": 0
          },
          "handle_type": 0,
          "interpolation": 0
         }
        ]
       },
       "green": {
        "Points": [
         {
          "co": {
           "X": 1,
           "Y": 123
          },
          "handle_left": {
           "X": 0.5,
           "Y": 1
          },
          "handle_right": {
           "X": 0.5,
           "Y": 0
          },
          "handle_type": 0,
          "interpolation": 0
         }
        ]
       },
       "red": {
        "Points": [
         {
          "co": {
           "X": 1,
           "Y": 0
          },
          "handle_left": {
           "X": 0.5,
           "Y": 1
          },
          "handle_right": {
           "X": 0.5,
           "Y": 0
          },
          "handle_type": 0,
          "interpolation": 0
         }
        ]
       }
      },
      "waveform": false,
      "file_id": "14XMU5A0GJ",
      "title": "g0.png",
      "image": "thumbnail/14XMU5A0GJ.png",
      "id": "7RK9VP477J"
     },
     {
      "alpha": {
       "Points": [
        {
         "co": {
          "X": 1,
          "Y": 1
         },
         "interpolation": 2
        }
       ]
      },
      "anchor": 0,
      "channel_filter": {
       "Points": [
        {
         "co": {
          "X": 1,
          "Y": -1
         },
         "interpolation": 2
        }
       ]
      },
      "channel_mapping": {
       "Points": [
        {
         "co": {
          "X": 1,
          "Y": -1
         },
         "interpolation": 2
        }
       ]
      },
      "crop_height": {
       "Points": [
        {
         "co": {
          "X": 1,
          "Y": 1
         },
         "interpolation": 2
        }
       ]
      },
      "crop_width": {
       "Points": [
        {
         "co": {
          "X": 1,
          "Y": 1
         },
         "interpolation": 2
        }
       ]
      },
      "crop_x": {
       "Points": [
        {
         "co": {
          "X": 1,
          "Y": 0
         },
         "interpolation": 2
        }
       ]
      },
      "crop_y": {
       "Points": [
        {
         "co": {
          "X": 1,
          "Y": 0
         },
         "interpolation": 2
        }
       ]
      },
      "display": 0,
      "duration": 3600.0,
      "effects": [],
      "end": 2.0,
      "gravity": 4,
      "has_audio": {
       "Points": [
        {
         "co": {
          "X": 1,
          "Y": -1
         },
         "interpolation": 2
        }
       ]
      },
      "has_video": {
       "Points": [
        {
         "co": {
          "X": 1,
          "Y": -1
         },
         "interpolation": 2
        }
       ]
      },
      "id": "SV22ZA9D4P",
      "layer": 4000000,
      "location_x": {
       "Points": [
        {
         "co": {
          "X": 1,
          "Y": 0
         },
         "interpolation": 2
        }
       ]
      },
      "location_y": {
       "Points": [
        {
         "co": {
          "X": 1,
          "Y": 0
         },
         "interpolation": 2
        }
       ]
      },
      "mixing": 0,
      "perspective_c1_x": {
       "Points": [
        {
         "co": {
          "X": 1,
          "Y": -1
         },
         "interpolation": 2
        }
       ]
      },
      "perspective_c1_y": {
       "Points": [
        {
         "co": {
          "X": 1,
          "Y": -1
         },
         "interpolation": 2
        }
       ]
      },
      "perspective_c2_x": {
       "Points": [
        {
         "co": {
          "X": 1,
          "Y": -1
         },
         "interpolation": 2
        }
       ]
      },
      "perspective_c2_y": {
       "Points": [
        {
         "co": {
          "X": 1,
          "Y": -1
         },
         "interpolation": 2
        }
       ]
      },
      "perspective_c3_x": {
       "Points": [
        {
         "co": {
          "X": 1,
          "Y": -1
         },
         "interpolation": 2
        }
       ]
      },
      "perspective_c3_y": {
       "Points": [
        {
         "co": {
          "X": 1,
          "Y": -1
         },
         "interpolation": 2
        }
       ]
      },
      "perspective_c4_x": {
       "Points": [
        {
         "co": {
          "X": 1,
          "Y": -1
         },
         "interpolation": 2
        }
       ]
      },
      "perspective_c4_y": {
       "Points": [
        {
         "co": {
          "X": 1,
          "Y": -1
         },
         "interpolation": 2
        }
       ]
      },
      "position": 18,
      "reader": {
       "acodec": "",
       "audio_bit_rate": 0,
       "audio_stream_index": -1,
       "audio_timebase": {
        "den": 1,
        "num": 1
       },
       "channel_layout": 4,
       "channels": 0,
       "display_ratio": {
        "den": 9,
        "num": 16
       },
       "duration": 3600.0,
       "file_size": "8294400",
       "fps": {
        "den": 1,
        "num": 30
       },
       "has_audio": false,
       "has_single_image": true,
       "has_video": true,
       "height": 1080,
       "interlaced_frame": false,
       "metadata": {},
       "path": "generated/h0.png",
       "pixel_format": -1,
       "pixel_ratio": {
        "den": 1,
        "num": 1
       },
       "sample_rate": 0,
       "top_field_first": true,
       "type": "QtImageReader",
       "vcodec": "",
       "video_bit_rate": 0,
       "video_length": "108000",
       "video_stream_index": -1,
       "video_timebase": {
        "den": 30,
        "num": 1
       },
       "width": 1920
      },
      "rotation": {
       "Points": [
        {
         "co": {
          "X": 1,
          "Y": 0
         },
         "interpolation": 2
        }
       ]
      },
      "scale": 1,
      "scale_x": {
       "Points": [
        {
         "co": {
          "X": 1,
          "Y": 1
         },
         "interpolation": 2
        }
       ]
      },
      "scale_y": {
       "Points": [
        {
         "co": {
          "X": 1,
          "Y": 1
         },
         "interpolation": 2
        }
       ]
      },
      "shear_x": {
       "Points": [
        {
         "co": {
          "X": 1,
          "Y": 0
         },
         "interpolation": 2
        }
       ]
      },
      "shear_y": {
       "Points": [
        {
         "co": {
          "X": 1,
          "Y": 0
         },
         "interpolation": 2
        }
       ]
      },
      "start": 0,
      "time": {
       "Points": [
        {
         "co": {
          "X": 1,
          "Y": 1
         },
         "interpolation": 2
        }
       ]
      },
      "volume": {
       "Points": [
        {
         "co": {
          "X": 1,
          "Y": 1
         },
         "interpolation": 2
        }
       ]
      },
      "wave_color": {
       "alpha": {
        "Points": [
         {
          "co": {
           "X": 1,
           "Y": 255
          },
          "handle_left": {
           "X": 0.5,
           "Y": 1
          },
          "handle_right": {
           "X": 0.5,
           "Y": 0
          },
          "handle_type": 0,
          "interpolation": 0
         }
        ]
       },
       "blue": {
        "Points": [
         {
          "co": {
           "X": 1,
           "Y": 255
          },
          "handle_left": {
           "X": 0.5,
           "Y": 1
          },
          "handle_right": {
           "X": 0.5,
           "Y": 0
          },
          "handle_type": 0,
          "interpolation": 0
         }
        ]
       },
       "green": {
        "Points": [
         {
          "co": {
           "X": 1,
           "Y": 123
          },
          "handle_left": {
           "X": 0.5,
           "Y": 1
          },
          "handle_right": {
           "X": 0.5,
           "Y": 0
          },
          "handle_type": 0,
          "interpolation": 0
         }
        ]
       },
       "red": {
        "Points": [
         {
          "co": {
           "X": 1,
           "Y": 0
          },
          "handle_left": {
           "X": 0.5,
           "Y": 1
          },
          "handle_right": {
           "X": 0.5,
           "Y": 0
          },
          "handle_type": 0,
          "interpolation": 0
         }
        ]
       }
      },
      "waveform": false,
      "file_id": "QVT1S32TXK",
      "title": "h0.png",
      "image": "thumbnail/QVT1S32TXK.png"
     },
     {
      "alpha": {
       "Points": [
        {
         "co": {
          "X": 1,
          "Y": 1
         },
         "interpolation": 2
        }
       ]
      },
      "anchor": 0,
      "channel_filter": {
       "Points": [
        {
         "co": {
          "X": 1,
          "Y": -1
         },
         "interpolation": 2
        }
       ]
      },
      "channel_mapping": {
       "Points": [
        {
         "co": {
          "X": 1,
          "Y": -1
         },
         "interpolation": 2
        }
       ]
      },
      "crop_height": {
       "Points": [
        {
         "co": {
          "X": 1,
          "Y": 1
         },
         "interpolation": 2
        }
       ]
      },
      "crop_width": {
       "Points": [
        {
         "co": {
          "X": 1,
          "Y": 1
         },
         "interpolation": 2
        }
       ]
      },
      "crop_x": {
       "Points": [
        {
         "co": {
          "X": 1,
          "Y": 0
         },
         "interpolation": 2
        }
       ]
      },
      "crop_y": {
       "Points": [
        {
         "co": {
          "X": 1,
          "Y": 0
         },
         "interpolation": 2
        }
       ]
      },
      "display": 0,
      "duration": 3600.0,
      "effects": [],
      "end": 2,
      "gravity": 4,
      "has_audio": {
       "Points": [
        {
         "co": {
          "X": 1,
          "Y": -1
         },
         "interpolation": 2
        }
       ]
      },
      "has_video": {
       "Points": [
        {
         "co": {
          "X": 1,
          "Y": -1
         },
         "interpolation": 2
        }
       ]
      },
      "id": "VYRPQRJA3D",
      "layer": 4000000,
      "location_x": {
       "Points": [
        {
         "co": {
          "X": 1,
          "Y": 0
         },
         "interpolation": 2
        }
       ]
      },
      "location_y": {
       "Points": [
        {
         "co": {
          "X": 1,
          "Y": 0
         },
         "interpolation": 2
        }
       ]
      },
      "mixing": 0,
      "perspective_c1_x": {
       "Points": [
        {
         "co": {
          "X": 1,
          "Y": -1
         },
         "interpolation": 2
        }
       ]
      },
      "perspective_c1_y": {
       "Points": [
        {
         "co": {
          "X": 1,
          "Y": -1
         },
         "interpolation": 2
        }
       ]
      },
      "perspective_c2_x": {
       "Points": [
        {
         "co": {
          "X": 1,
          "Y": -1
         },
         "interpolation": 2
        }
       ]
      },
      "perspective_c2_y": {
       "Points": [
        {
         "co": {
          "X": 1,
          "Y": -1
         },
         "interpolation": 2
        }
       ]
      },
      "perspective_c3_x": {
       "Points": [
        {
         "co": {
          "X": 1,
          "Y": -1
         },
         "interpolation": 2
        }
       ]
      },
      "perspective_c3_y": {
       "Points": [
        {
         "co": {
          "X": 1,
          "Y": -1
         },
         "interpolation": 2
        }
       ]
      },
      "perspective_c4_x": {
       "Points": [
        {
         "co": {
          "X": 1,
          "Y": -1
         },
         "interpolation": 2
        }
       ]
      },
      "perspective_c4_y": {
       "Points": [
        {
         "co": {
          "X": 1,
          "Y": -1
         },
         "interpolation": 2
        }
       ]
      },
      "position": 19,
      "reader": {
       "acodec": "",
       "audio_bit_rate": 0,
       "audio_stream_index": -1,
       "audio_timebase": {
        "den": 1,
        "num": 1
       },
       "channel_layout": 4,
       "channels": 0,
       "display_ratio": {
        "den": 9,
        "num": 16
       },
       "duration": 3600.0,
       "file_size": "8294400",
       "fps": {
        "den": 1,
        "num": 30
       },
       "has_audio": false,
       "has_single_image": true,
       "has_video": true,
       "height": 1080,
       "interlaced_frame": false,
       "metadata": {},
       "path": "generated/h1.png",
       "pixel_format": -1,
       "pixel_ratio": {
        "den": 1,
        "num": 1
       },
       "sample_rate": 0,
       "top_field_first": true,
       "type": "QtImageReader",
       "vcodec": "",
       "video_bit_rate": 0,
       "video_length": "108000",
       "video_stream_index": -1,
       "video_timebase": {
        "den": 30,
        "num": 1
       },
       "width": 1920
      },
      "rotation": {
       "Points": [
        {
         "co": {
          "X": 1,
          "Y": 0
         },
         "interpolation": 2
        }
       ]
      },
      "scale": 1,
      "scale_x": {
       "Points": [
        {
         "co": {
          "X": 1,
          "Y": 1
         },
         "interpolation": 2
        }
       ]
      },
      "scale_y": {
       "Points": [
        {
         "co": {
          "X": 1,
          "Y": 1
         },
         "interpolation": 2
        }
       ]
      },
      "shear_x": {
       "Points": [
        {
         "co": {
          "X": 1,
          "Y": 0
         },
         "interpolation": 2
        }
       ]
      },
      "shear_y": {
       "Points": [
        {
         "co": {
          "X": 1,
          "Y": 0
         },
         "interpolation": 2
        }
       ]
      },
      "start": 0,
      "time": {
       "Points": [
        {
         "co": {
          "X": 1,
          "Y": 1
         },
         "interpolation": 2
        }
       ]
      },
      "volume": {
       "Points": [
        {
         "co": {
          "X": 1,
          "Y": 1
         },
         "interpolation": 2
        }
       ]
      },
      "wave_color": {
       "alpha": {
        "Points": [
         {
          "co": {
           "X": 1,
           "Y": 255
          },
          "handle_left": {
           "X": 0.5,
           "Y": 1
          },
          "handle_right": {
           "X": 0.5,
           "Y": 0
          },
          "handle_type": 0,
          "interpolation": 0
         }
        ]
       },
       "blue": {
        "Points": [
         {
          "co": {
           "X": 1,
           "Y": 255
          },
          "handle_left": {
           "X": 0.5,
           "Y": 1
          },
          "handle_right": {
           "X": 0.5,
           "Y": 0
          },
          "handle_type": 0,
          "interpolation": 0
         }
        ]
       },
       "green": {
        "Points": [
         {
          "co": {
           "X": 1,
           "Y": 123
          },
          "handle_left": {
           "X": 0.5,
           "Y": 1
          },
          "handle_right": {
           "X": 0.5,
           "Y": 0
          },
          "handle_type": 0,
          "interpolation": 0
         }
        ]
       },
       "red": {
        "Points": [
         {
          "co": {
           "X": 1,
           "Y": 0
          },
          "handle_left": {
           "X": 0.5,
           "Y": 1
          },
          "handle_right": {
           "X": 0.5,
           "Y": 0
          },
          "handle_type": 0,
          "interpolation": 0
         }
        ]
       }
      },
      "waveform": false,
      "file_id": "N9ZVMRMPJO",
      "title": "h1.png",
      "image": "thumbnail/N9ZVMRMPJO.png"
     },
     {
      "alpha": {
       "Points": [
        {
         "co": {
          "X": 1,
          "Y": 1
         },
         "interpolation": 2
        }
       ]
      },
      "anchor": 0,
      "channel_filter": {
       "Points": [
        {
         "co": {
          "X": 1,
          "Y": -1
         },
         "interpolation": 2
        }
       ]
      },
      "channel_mapping": {
       "Points": [
        {
         "co": {
          "X": 1,
          "Y": -1
         },
         "interpolation": 2
        }
       ]
      },
      "crop_height": {
       "Points": [
        {
         "co": {
          "X": 1,
          "Y": 1
         },
         "interpolation": 2
        }
       ]
      },
      "crop_width": {
       "Points": [
        {
         "co": {
          "X": 1,
          "Y": 1
         },
         "interpolation": 2
        }
       ]
      },
      "crop_x": {
       "Points": [
        {
         "co": {
          "X": 1,
          "Y": 0
         },
         "interpolation": 2
        }
       ]
      },
      "crop_y": {
       "Points": [
        {
         "co": {
          "X": 1,
          "Y": 0
         },
         "interpolation": 2
        }
       ]
      },
      "display": 0,
      "duration": 3600.0,
      "effects": [],
      "end": 3.0,
      "gravity": 4,
      "has_audio": {
       "Points": [
        {
         "co": {
          "X": 1,
          "Y": -1
         },
         "interpolation": 2
        }
       ]
      },
      "has_video": {
       "Points": [
        {
         "co": {
          "X": 1,
          "Y": -1
         },
         "interpolation": 2
        }
       ]
      },
      "id": "TLQZTYM12K",
      "layer": 4000000,
      "location_x": {
       "Points": [
        {
         "co": {
          "X": 1,
          "Y": 0
         },
         "interpolation": 2
        }
       ]
      },
      "location_y": {
       "Points": [
        {
         "co": {
          "X": 1,
          "Y": 0
         },
         "interpolation": 2
        }
       ]
      },
      "mixing": 0,
      "perspective_c1_x": {
       "Points": [
        {
         "co": {
          "X": 1,
          "Y": -1
         },
         "interpolation": 2
        }
       ]
      },
      "perspective_c1_y": {
       "Points": [
        {
         "co": {
          "X": 1,
          "Y": -1
         },
         "interpolation": 2
        }
       ]
      },
      "perspective_c2_x": {
       "Points": [
        {
         "co": {
          "X": 1,
          "Y": -1
         },
         "interpolation": 2
        }
       ]
      },
      "perspective_c2_y": {
       "Points": [
        {
         "co": {
          "X": 1,
          "Y": -1
         },
         "interpolation": 2
        }
       ]
      },
      "perspective_c3_x": {
       "Points": [
        {
         "co": {
          "X": 1,
          "Y": -1
         },
         "interpolation": 2
        }
       ]
      },
      "perspective_c3_y": {
       "Points": [
        {
         "co": {
          "X": 1,
          "Y": -1
         },
         "interpolation": 2
        }
       ]
      },
      "perspective_c4_x": {
       "Points": [
        {
         "co": {
          "X": 1,
          "Y": -1
         },
         "interpolation": 2
        }
       ]
      },
      "perspective_c4_y": {
       "Points": [
        {
         "co": {
          "X": 1,
          "Y": -1
         },
         "interpolation": 2
        }
       ]
      },
      "position": 20,
      "reader": {
       "acodec": "",
       "audio_bit_rate": 0,
       "audio_stream_index": -1,
       "audio_timebase": {
        "den": 1,
        "num": 1
       },
       "channel_layout": 4,
       "channels": 0,
       "display_ratio": {
        "den": 9,
        "num": 16
       },
       "duration": 3600.0,
       "file_size": "8294400",
       "fps": {
        "den": 1,
        "num": 30
       },
       "has_audio": false,
       "has_single_image": true,
       "has_video": true,
       "height": 1080,
       "interlaced_frame": false,
       "metadata": {},
       "path": "generated/h2.png",
       "pixel_format": -1,
       "pixel_ratio": {
        "den": 1,
        "num": 1
       },
       "sample_rate": 0,
       "top_field_first": true,
       "type": "QtImageReader",
       "vcodec": "",
       "video_bit_rate": 0,
       "video_length": "108000",
       "video_stream_index": -1,
       "video_timebase": {
        "den": 30,
        "num": 1
       },
       "width": 1920
      },
      "rotation": {
       "Points": [
        {
         "co": {
          "X": 1,
          "Y": 0
         },
         "interpolation": 2
        }
       ]
      },
      "scale": 1,
      "scale_x": {
       "Points": [
        {
         "co": {
          "X": 1,
          "Y": 1
         },
         "interpolation": 2
        }
       ]
      },
      "scale_y": {
       "Points": [
        {
         "co": {
          "X": 1,
          "Y": 1
         },
         "interpolation": 2
        }
       ]
      },
      "shear_x": {
       "Points": [
        {
         "co": {
          "X": 1,
          "Y": 0
         },
         "interpolation": 2
        }
       ]
      },
      "shear_y": {
       "Points": [
        {
         "co": {
          "X": 1,
          "Y": 0
         },
         "interpolation": 2
        }
       ]
      },
      "start": 0,
      "time": {
       "Points": [
        {
         "co": {
          "X": 1,
          "Y": 1
         },
         "interpolation": 2
        }
       ]
      },
      "volume": {
       "Points": [
        {
         "co": {
          "X": 1,
          "Y": 1
         },
         "interpolation": 2
        }
       ]
      },
      "wave_color": {
       "alpha": {
        "Points": [
         {
          "co": {
           "X": 1,
           "Y": 255
          },
          "handle_left": {
           "X": 0.5,
           "Y": 1
          },
          "handle_right": {
           "X": 0.5,
           "Y": 0
          },
          "handle_type": 0,
          "interpolation": 0
         }
        ]
       },
       "blue": {
        "Points": [
         {
          "co": {
           "X": 1,
           "Y": 255
          },
          "handle_left": {
           "X": 0.5,
           "Y": 1
          },
          "handle_right": {
           "X": 0.5,
           "Y": 0
          },
          "handle_type": 0,
          "interpolation": 0
         }
        ]
       },
       "green": {
        "Points": [
         {
          "co": {
           "X": 1,
           "Y": 123
          },
          "handle_left": {
           "X": 0.5,
           "Y": 1
          },
          "handle_right": {
           "X": 0.5,
           "Y": 0
          },
          "handle_type": 0,
          "interpolation": 0
         }
        ]
       },
       "red": {
        "Points": [
         {
          "co": {
           "X": 1,
           "Y": 0
          },
          "handle_left": {
           "X": 0.5,
           "Y": 1
          },
          "handle_right": {
           "X": 0.5,
           "Y": 0
          },
          "handle_type": 0,
          "interpolation": 0
         }
        ]
       }
      },
      "waveform": false,
      "file_id": "T3MJ00KEDL",
      "title": "h2.png",
      "image": "thumbnail/T3MJ00KEDL.png"
     },
     {
      "alpha": {
       "Points": [
        {
         "co": {
          "X": 1,
          "Y": 1
         },
         "interpolation": 2
        }
       ]
      },
      "anchor": 0,
      "channel_filter": {
       "Points": [
        {
         "co": {
          "X": 1,
          "Y": -1
         },
         "interpolation": 2
        }
       ]
      },
      "channel_mapping": {
       "Points": [
        {
         "co": {
          "X": 1,
          "Y": -1
         },
         "interpolation": 2
        }
       ]
      },
      "crop_height": {
       "Points": [
        {
         "co": {
          "X": 1,
          "Y": 1
         },
         "interpolation": 2
        }
       ]
      },
      "crop_width": {
       "Points": [
        {
         "co": {
          "X": 1,
          "Y": 1
         },
         "interpolation": 2
        }
       ]
      },
      "crop_x": {
       "Points": [
        {
         "co": {
          "X": 1,
          "Y": 0
         },
         "interpolation": 2
        }
       ]
      },
      "crop_y": {
       "Points": [
        {
         "co": {
          "X": 1,
          "Y": 0
         },
         "interpolation": 2
        }
       ]
      },
      "display": 0,
      "duration": 3600.0,
      "effects": [],
      "end": 3,
      "gravity": 4,
      "has_audio": {
       "Points": [
        {
         "co": {
          "X": 1,
          "Y": -1
         },
         "interpolation": 2
        }
       ]
      },
      "has_video": {
       "Points": [
        {
         "co": {
          "X": 1,
          "Y": -1
         },
         "interpolation": 2
        }
       ]
      },
      "id": "4QOLEO0O2I",
      "layer": 4000000,
      "location_x": {
       "Points": [
        {
         "co": {
          "X": 1,
          "Y": 0
         },
         "interpolation": 2
        }
       ]
      },
      "location_y": {
       "Points": [
        {
         "co": {
          "X": 1,
          "Y": 0
         },
         "interpolation": 2
        }
       ]
      },
      "mixing": 0,
      "perspective_c1_x": {
       "Points": [
        {
         "co": {
          "X": 1,
          "Y": -1
         },
         "interpolation": 2
        }
       ]
      },
      "perspective_c1_y": {
       "Points": [
        {
         "co": {
          "X": 1,
          "Y": -1
         },
         "interpolation": 2
        }
       ]
      },
      "perspective_c2_x": {
       "Points": [
        {
         "co": {
          "X": 1,
          "Y": -1
         },
         "interpolation": 2
        }
       ]
      },
      "perspective_c2_y": {
       "Points": [
        {
         "co": {
          "X": 1,
          "Y": -1
         },
         "interpolation": 2
        }
       ]
      },
      "perspective_c3_x": {
       "Points": [
        {
         "co": {
          "X": 1,
          "Y": -1
         },
         "interpolation": 2
        }
       ]
      },
      "perspective_c3_y": {
       "Points": [
        {
         "co": {
          "X": 1,
          "Y": -1
         },
         "interpolation": 2
        }
       ]
      },
      "perspective_c4_x": {
       "Points": [
        {
         "co": {
          "X": 1,
          "Y": -1
         },
         "interpolation": 2
        }
       ]
      },
      "perspective_c4_y": {
       "Points": [
        {
         "co": {
          "X": 1,
          "Y": -1
         },
         "interpolation": 2
        }
       ]
      },
      "position": 22,
      "reader": {
       "acodec": "",
       "audio_bit_rate": 0,
       "audio_stream_index": -1,
       "audio_timebase": {
        "den": 1,
        "num": 1
       },
       "channel_layout": 4,
       "channels": 0,
       "display_ratio": {
        "den": 9,
        "num": 16
       },
       "duration": 3600.0,
       "file_size": "8294400",
       "fps": {
        "den": 1,
        "num": 30
       },
       "has_audio": false,
       "has_single_image": true,
       "has_video": true,
       "height": 1080,
       "interlaced_frame": false,
       "metadata": {},
       "path": "generated/h3.png",
       "pixel_format": -1,
       "pixel_ratio": {
        "den": 1,
        "num": 1
       },
       "sample_rate": 0,
       "top_field_first": true,
       "type": "QtImageReader",
       "vcodec": "",
       "video_bit_rate": 0,
       "video_length": "108000",
       "video_stream_index": -1,
       "video_timebase": {
        "den": 30,
        "num": 1
       },
       "width": 1920
      },
      "rotation": {
       "Points": [
        {
         "co": {
          "X": 1,
          "Y": 0
         },
         "interpolation": 2
        }
       ]
      },
      "scale": 1,
      "scale_x": {
       "Points": [
        {
         "co": {
          "X": 1,
          "Y": 1
         },
         "interpolation": 2
        }
       ]
      },
      "scale_y": {
       "Points": [
        {
         "co": {
          "X": 1,
          "Y": 1
         },
         "interpolation": 2
        }
       ]
      },
      "shear_x": {
       "Points": [
        {
         "co": {
          "X": 1,
          "Y": 0
         },
         "interpolation": 2
        }
       ]
      },
      "shear_y": {
       "Points": [
        {
         "co": {
          "X": 1,
          "Y": 0
         },
         "interpolation": 2
        }
       ]
      },
      "start": 0,
      "time": {
       "Points": [
        {
         "co": {
          "X": 1,
          "Y": 1
         },
         "interpolation": 2
        }
       ]
      },
      "volume": {
       "Points": [
        {
         "co": {
          "X": 1,
          "Y": 1
         },
         "interpolation": 2
        }
       ]
      },
      "wave_color": {
       "alpha": {
        "Points": [
         {
          "co": {
           "X": 1,
           "Y": 255
          },
          "handle_left": {
           "X": 0.5,
           "Y": 1
          },
          "handle_right": {
           "X": 0.5,
           "Y": 0
          },
          "handle_type": 0,
          "interpolation": 0
         }
        ]
       },
       "blue": {
        "Points": [
         {
          "co": {
           "X": 1,
           "Y": 255
          },
          "handle_left": {
           "X": 0.5,
           "Y": 1
          },
          "handle_right": {
           "X": 0.5,
           "Y": 0
          },
          "handle_type": 0,
          "interpolation": 0
         }
        ]
       },
       "green": {
        "Points": [
         {
          "co": {
           "X": 1,
           "Y": 123
          },
          "handle_left": {
           "X": 0.5,
           "Y": 1
          },
          "handle_right": {
           "X": 0.5,
           "Y": 0
          },
          "handle_type": 0,
          "interpolation": 0
         }
        ]
       },
       "red": {
        "Points": [
         {
          "co": {
           "X": 1,
           "Y": 0
          },
          "handle_left": {
           "X": 0.5,
           "Y": 1
          },
          "handle_right": {
           "X": 0.5,
           "Y": 0
          },
          "handle_type": 0,
          "interpolation": 0
         }
        ]
       }
      },
      "waveform": false,
      "file_id": "JOU98JSDB6",
      "title": "h3.png",
      "image": "thumbnail/JOU98JSDB6.png"
     },
     {
      "alpha": {
       "Points": [
        {
         "co": {
          "X": 1,
          "Y": 1
         },
         "interpolation": 2
        }
       ]
      },
      "anchor": 0,
      "channel_filter": {
       "Points": [
        {
         "co": {
          "X": 1,
          "Y": -1
         },
         "interpolation": 2
        }
       ]
      },
      "channel_mapping": {
       "Points": [
        {
         "co": {
          "X": 1,
          "Y": -1
         },
         "interpolation": 2
        }
       ]
      },
      "crop_height": {
       "Points": [
        {
         "co": {
          "X": 1,
          "Y": 1
         },
         "interpolation": 2
        }
       ]
      },
      "crop_width": {
       "Points": [
        {
         "co": {
          "X": 1,
          "Y": 1
         },
         "interpolation": 2
        }
       ]
      },
      "crop_x": {
       "Points": [
        {
         "co": {
          "X": 1,
          "Y": 0
         },
         "interpolation": 2
        }
       ]
      },
      "crop_y": {
       "Points": [
        {
         "co": {
          "X": 1,
          "Y": 0
         },
         "interpolation": 2
        }
       ]
      },
      "display": 0,
      "duration": 3600.0,
      "effects": [],
      "end": 3,
      "gravity": 4,
      "has_audio": {
       "Points": [
        {
         "co": {
          "X": 1,
          "Y": -1
         },
         "interpolation": 2
        }
       ]
      },
      "has_video": {
       "Points": [
        {
         "co": {
          "X": 1,
          "Y": -1
         },
         "interpolation": 2
        }
       ]
      },
      "id": "W8XLV077GB",
      "layer": 4000000,
      "location_x": {
       "Points": [
        {
         "co": {
          "X": 1,
          "Y": 0
         },
         "interpolation": 2
        }
       ]
      },
      "location_y": {
       "Points": [
        {
         "co": {
          "X": 1,
          "Y": 0
         },
         "interpolation": 2
        }
       ]
      },
      "mixing": 0,
      "perspective_c1_x": {
       "Points": [
        {
         "co": {
          "X": 1,
          "Y": -1
         },
         "interpolation": 2
        }
       ]
      },
      "perspective_c1_y": {
       "Points": [
        {
         "co": {
          "X": 1,
          "Y": -1
         },
         "interpolation": 2
        }
       ]
      },
      "perspective_c2_x": {
       "Points": [
        {
         "co": {
          "X": 1,
          "Y": -1
         },
         "interpolation": 2
        }
       ]
      },
      "perspective_c2_y": {
       "Points": [
        {
         "co": {
          "X": 1,
          "Y": -1
         },
         "interpolation": 2
        }
       ]
      },
      "perspective_c3_x": {
       "Points": [
        {
         "co": {
          "X": 1,
          "Y": -1
         },
         "interpolation": 2
        }
       ]
      },
      "perspective_c3_y": {
       "Points": [
        {
         "co": {
          "X": 1,
          "Y": -1
         },
         "interpolation": 2
        }
       ]
      },
      "perspective_c4_x": {
       "Points": [
        {
         "co": {
          "X": 1,
          "Y": -1
         },
         "interpolation": 2
        }
       ]
      },
      "perspective_c4_y": {
       "Points": [
        {
         "co": {
          "X": 1,
          "Y": -1
         },
         "interpolation": 2
        }
       ]
      },
      "position": 24,
      "reader": {
       "acodec": "",
       "audio_bit_rate": 0,
       "audio_stream_index": -1,
       "audio_timebase": {
        "den": 1,
        "num": 1
       },
       "channel_layout": 4,
       "channels": 0,
       "display_ratio": {
        "den": 9,
        "num": 16
       },
       "duration": 3600.0,
       "file_size": "8294400",
       "fps": {
        "den": 1,
        "num": 30
       },
       "has_audio": false,
       "has_single_image": true,
       "has_video": true,
       "height": 1080,
       "interlaced_frame": false,
       "metadata": {},
       "path": "generated/h4.png",
       "pixel_format": -1,
       "pixel_ratio": {
        "den": 1,
        "num": 1
       },
       "sample_rate": 0,
       "top_field_first": true,
       "type": "QtImageReader",
       "vcodec": "",
       "video_bit_rate": 0,
       "video_length": "108000",
       "video_stream_index": -1,
       "video_timebase": {
        "den": 30,
        "num": 1
       },
       "width": 1920
      },
      "rotation": {
       "Points": [
        {
         "co": {
          "X": 1,
          "Y": 0
         },
         "interpolation": 2
        }
       ]
      },
      "scale": 1,
      "scale_x": {
       "Points": [
        {
         "co": {
          "X": 1,
          "Y": 1
         },
         "interpolation": 2
        }
       ]
      },
      "scale_y": {
       "Points": [
        {
         "co": {
          "X": 1,
          "Y": 1
         },
         "interpolation": 2
        }
       ]
      },
      "shear_x": {
       "Points": [
        {
         "co": {
          "X": 1,
          "Y": 0
         },
         "interpolation": 2
        }
       ]
      },
      "shear_y": {
       "Points": [
        {
         "co": {
          "X": 1,
          "Y": 0
         },
         "interpolation": 2
        }
       ]
      },
      "start": 0,
      "time": {
       "Points": [
        {
         "co": {
          "X": 1,
          "Y": 1
         },
         "interpolation": 2
        }
       ]
      },
      "volume": {
       "Points": [
        {
         "co": {
          "X": 1,
          "Y": 1
         },
         "interpolation": 2
        }
       ]
      },
      "wave_color": {
       "alpha": {
        "Points": [
         {
          "co": {
           "X": 1,
           "Y": 255
          },
          "handle_left": {
           "X": 0.5,
           "Y": 1
          },
          "handle_right": {
           "X": 0.5,
           "Y": 0
          },
          "handle_type": 0,
          "interpolation": 0
         }
        ]
       },
       "blue": {
        "Points": [
         {
          "co": {
           "X": 1,
           "Y": 255
          },
          "handle_left": {
           "X": 0.5,
           "Y": 1
          },
          "handle_right": {
           "X": 0.5,
           "Y": 0
          },
          "handle_type": 0,
          "interpolation": 0
         }
        ]
       },
       "green": {
        "Points": [
         {
          "co": {
           "X": 1,
           "Y": 123
          },
          "handle_left": {
           "X": 0.5,
           "Y": 1
          },
          "handle_right": {
           "X": 0.5,
           "Y": 0
          },
          "handle_type": 0,
          "interpolation": 0
         }
        ]
       },
       "red": {
        "Points": [
         {
          "co": {
           "X": 1,
           "Y": 0
          },
          "handle_left": {
           "X": 0.5,
           "Y": 1
          },
          "handle_right": {
           "X": 0.5,
           "Y": 0
          },
          "handle_type": 0,
          "interpolation": 0
         }
        ]
       }
      },
      "waveform": false,
      "file_id": "CCXO5CQWJF",
      "title": "h4.png",
      "image": "thumbnail/CCXO5CQWJF.png"
     },
     {
      "alpha": {
       "Points": [
        {
         "co": {
          "X": 1,
          "Y": 1
         },
         "interpolation": 2
        }
       ]
      },
      "anchor": 0,
      "channel_filter": {
       "Points": [
        {
         "co": {
          "X": 1,
          "Y": -1
         },
         "interpolation": 2
        }
       ]
      },
      "channel_mapping": {
       "Points": [
        {
         "co": {
          "X": 1,
          "Y": -1
         },
         "interpolation": 2
        }
       ]
      },
      "crop_height": {
       "Points": [
        {
         "co": {
          "X": 1,
          "Y": 1
         },
         "interpolation": 2
        }
       ]
      },
      "crop_width": {
       "Points": [
        {
         "co": {
          "X": 1,
          "Y": 1
         },
         "interpolation": 2
        }
       ]
      },
      "crop_x": {
       "Points": [
        {
         "co": {
          "X": 1,
          "Y": 0
         },
         "interpolation": 2
        }
       ]
      },
      "crop_y": {
       "Points": [
        {
         "co": {
          "X": 1,
          "Y": 0
         },
         "interpolation": 2
        }
       ]
      },
      "display": 0,
      "duration": 3600.0,
      "effects": [],
      "end": 3.0,
      "gravity": 4,
      "has_audio": {
       "Points": [
        {
         "co": {
          "X": 1,
          "Y": -1
         },
         "interpolation": 2
        }
       ]
      },
      "has_video": {
       "Points": [
        {
         "co": {
          "X": 1,
          "Y": -1
         },
         "interpolation": 2
        }
       ]
      },
      "id": "MROIK1U0GO",
      "layer": 4000000,
      "location_x": {
       "Points": [
        {
         "co": {
          "X": 1,
          "Y": 0
         },
         "interpolation": 2
        }
       ]
      },
      "location_y": {
       "Points": [
        {
         "co": {
          "X": 1,
          "Y": 0
         },
         "interpolation": 2
        }
       ]
      },
      "mixing": 0,
      "perspective_c1_x": {
       "Points": [
        {
         "co": {
          "X": 1,
          "Y": -1
         },
         "interpolation": 2
        }
       ]
      },
      "perspective_c1_y": {
       "Points": [
        {
         "co": {
          "X": 1,
          "Y": -1
         },
         "interpolation": 2
        }
       ]
      },
      "perspective_c2_x": {
       "Points": [
        {
         "co": {
          "X": 1,
          "Y": -1
         },
         "interpolation": 2
        }
       ]
      },
      "perspective_c2_y": {
       "Points": [
        {
         "co": {
          "X": 1,
          "Y": -1
         },
         "interpolation": 2
        }
       ]
      },
      "perspective_c3_x": {
       "Points": [
        {
         "co": {
          "X": 1,
          "Y": -1
         },
         "interpolation": 2
        }
       ]
      },
      "perspective_c3_y": {
       "Points": [
        {
         "co": {
          "X": 1,
          "Y": -1
         },
         "interpolation": 2
        }
       ]
      },
      "perspective_c4_x": {
       "Points": [
        {
         "co": {
          "X": 1,
          "Y": -1
         },
         "interpolation": 2
        }
       ]
      },
      "perspective_c4_y": {
       "Points": [
        {
         "co": {
          "X": 1,
          "Y": -1
         },
         "interpolation": 2
        }
       ]
      },
      "position": 26,
      "reader": {
       "acodec": "",
       "audio_bit_rate": 0,
       "audio_stream_index": -1,
       "audio_timebase": {
        "den": 1,
        "num": 1
       },
       "channel_layout": 4,
       "channels": 0,
       "display_ratio": {
        "den": 9,
        "num": 16
       },
       "duration": 3600.0,
       "file_size": "8294400",
       "fps": {
        "den": 1,
        "num": 30
       },
       "has_audio": false,
       "has_single_image": true,
       "has_video": true,
       "height": 1080,
       "interlaced_frame": false,
       "metadata": {},
       "path": "generated/h5.png",
       "pixel_format": -1,
       "pixel_ratio": {
        "den": 1,
        "num": 1
       },
       "sample_rate": 0,
       "top_field_first": true,
       "type": "QtImageReader",
       "vcodec": "",
       "video_bit_rate": 0,
       "video_length": "108000",
       "video_stream_index": -1,
       "video_timebase": {
        "den": 30,
        "num": 1
       },
       "width": 1920
      },
      "rotation": {
       "Points": [
        {
         "co": {
          "X": 1,
          "Y": 0
         },
         "interpolation": 2
        }
       ]
      },
      "scale": 1,
      "scale_x": {
       "Points": [
        {
         "co": {
          "X": 1,
          "Y": 1
         },
         "interpolation": 2
        }
       ]
      },
      "scale_y": {
       "Points": [
        {
         "co": {
          "X": 1,
          "Y": 1
         },
         "interpolation": 2
        }
       ]
      },
      "shear_x": {
       "Points": [
        {
         "co": {
          "X": 1,
          "Y": 0
         },
         "interpolation": 2
        }
       ]
      },
      "shear_y": {
       "Points": [
        {
         "co": {
          "X": 1,
          "Y": 0
         },
         "interpolation": 2
        }
       ]
      },
      "start": 0,
      "time": {
       "Points": [
        {
         "co": {
          "X": 1,
          "Y": 1
         },
         "interpolation": 2
        }
       ]
      },
      "volume": {
       "Points": [
        {
         "co": {
          "X": 1,
          "Y": 1
         },
         "interpolation": 2
        }
       ]
      },
      "wave_color": {
       "alpha": {
        "Points": [
         {
          "co": {
           "X": 1,
           "Y": 255
          },
          "handle_left": {
           "X": 0.5,
           "Y": 1
          },
          "handle_right": {
           "X": 0.5,
           "Y": 0
          },
          "handle_type": 0,
          "interpolation": 0
         }
        ]
       },
       "blue": {
        "Points": [
         {
          "co": {
           "X": 1,
           "Y": 255
          },
          "handle_left": {
           "X": 0.5,
           "Y": 1
          },
          "handle_right": {
           "X": 0.5,
           "Y": 0
          },
          "handle_type": 0,
          "interpolation": 0
         }
        ]
       },
       "green": {
        "Points": [
         {
          "co": {
           "X": 1,
           "Y": 123
          },
          "handle_left": {
           "X": 0.5,
           "Y": 1
          },
          "handle_right": {
           "X": 0.5,
           "Y": 0
          },
          "handle_type": 0,
          "interpolation": 0
         }
        ]
       },
       "red": {
        "Points": [
         {
          "co": {
           "X": 1,
           "Y": 0
          },
          "handle_left": {
           "X": 0.5,
           "Y": 1
          },
          "handle_right": {
           "X": 0.5,
           "Y": 0
          },
          "handle_type": 0,
          "interpolation": 0
         }
        ]
       }
      },
      "waveform": false,
      "file_id": "OHTYNJHJ4A",
      "title": "h5.png",
      "image": "thumbnail/OHTYNJHJ4A.png"
     },
     {
      "alpha": {
       "Points": [
        {
         "co": {
          "X": 1,
          "Y": 1
         },
         "interpolation": 2
        }
       ]
      },
      "anchor": 0,
      "channel_filter": {
       "Points": [
        {
         "co": {
          "X": 1,
          "Y": -1
         },
         "interpolation": 2
        }
       ]
      },
      "channel_mapping": {
       "Points": [
        {
         "co": {
          "X": 1,
          "Y": -1
         },
         "interpolation": 2
        }
       ]
      },
      "crop_height": {
       "Points": [
        {
         "co": {
          "X": 1,
          "Y": 1
         },
         "interpolation": 2
        }
       ]
      },
      "crop_width": {
       "Points": [
        {
         "co": {
          "X": 1,
          "Y": 1
         },
         "interpolation": 2
        }
       ]
      },
      "crop_x": {
       "Points": [
        {
         "co": {
          "X": 1,
          "Y": 0
         },
         "interpolation": 2
        }
       ]
      },
      "crop_y": {
       "Points": [
        {
         "co": {
          "X": 1,
          "Y": 0
         },
         "interpolation": 2
        }
       ]
      },
      "display": 0,
      "duration": 59.67503356933594,
      "effects": [],
      "end": 59.67503356933594,
      "gravity": 4,
      "has_audio": {
       "Points": [
        {
         "co": {
          "X": 1,
          "Y": -1
         },
         "interpolation": 2
        }
       ]
      },
      "has_video": {
       "Points": [
        {
         "co": {
          "X": 1,
          "Y": -1
         },
         "interpolation": 2
        }
       ]
      },
      "id": "0RGSG8RUAQ",
      "layer": 1000000,
      "location_x": {
       "Points": [
        {
         "co": {
          "X": 1,
          "Y": 0
         },
         "interpolation": 2
        }
       ]
      },
      "location_y": {
       "Points": [
        {
         "co": {
          "X": 1,
          "Y": 0
         },
         "interpolation": 2
        }
       ]
      },
      "mixing": 0,
      "perspective_c1_x": {
       "Points": [
        {
         "co": {
          "X": 1,
          "Y": -1
         },
         "interpolation": 2
        }
       ]
      },
      "perspective_c1_y": {
       "Points": [
        {
         "co": {
          "X": 1,
          "Y": -1
         },
         "interpolation": 2
        }
       ]
      },
      "perspective_c2_x": {
       "Points": [
        {
         "co": {
          "X": 1,
          "Y": -1
         },
         "interpolation": 2
        }
       ]
      },
      "perspective_c2_y": {
       "Points": [
        {
         "co": {
          "X": 1,
          "Y": -1
         },
         "interpolation": 2
        }
       ]
      },
      "perspective_c3_x": {
       "Points": [
        {
         "co": {
          "X": 1,
          "Y": -1
         },
         "interpolation": 2
        }
       ]
      },
      "perspective_c3_y": {
       "Points": [
        {
         "co": {
          "X": 1,
          "Y": -1
         },
         "interpolation": 2
        }
       ]
      },
      "perspective_c4_x": {
       "Points": [
        {
         "co": {
          "X": 1,
          "Y": -1
         },
         "interpolation": 2
        }
       ]
      },
      "perspective_c4_y": {
       "Points": [
        {
         "co": {
          "X": 1,
          "Y": -1
         },
         "interpolation": 2
        }
       ]
      },
      "position": 0,
      "reader": {
       "acodec": "pcm_s16le",
       "audio_bit_rate": 705600,
       "audio_stream_index": 0,
       "audio_timebase": {
        "den": 44100,
        "num": 1
       },
       "channel_layout": 4,
       "channels": 1,
       "display_ratio": {
        "den": 1,
        "num": 1
       },
       "duration": 59.67503356933594,
       "file_size": "5263498",
       "fps": {
        "den": 1,
        "num": 24
       },
       "has_audio": true,
       "has_single_image": false,
       "has_video": false,
       "height": 480,
       "interlaced_frame": false,
       "metadata": {
        "artist": "Colin Sindle",
        "date": "2021"
       },
       "path": "./voice_over.wav",
       "pixel_format": -1,
       "pixel_ratio": {
        "den": 1,
        "num": 1
       },
       "sample_rate": 44100,
       "top_field_first": true,
       "type": "FFmpegReader",
       "vcodec": "",
       "video_bit_rate": 0,
       "video_length": "1432",
       "video_stream_index": -1,
       "video_timebase": {
        "den": 24,
        "num": 1
       },
       "width": 720
      },
      "rotation": {
       "Points": [
        {
         "co": {
          "X": 1,
          "Y": 0
         },
         "interpolation": 2
        }
       ]
      },
      "scale": 1,
      "scale_x": {
       "Points": [
        {
         "co": {
          "X": 1,
          "Y": 1
         },
         "interpolation": 2
        }
       ]
      },
      "scale_y": {
       "Points": [
        {
         "co": {
          "X": 1,
          "Y": 1
         },
         "interpolation": 2
        }
       ]
      },
      "shear_x": {
       "Points": [
        {
         "co": {
          "X": 1,
          "Y": 0
         },
         "interpolation": 2
        }
       ]
      },
      "shear_y": {
       "Points": [
        {
         "co": {
          "X": 1,
          "Y": 0
         },
         "interpolation": 2
        }
       ]
      },
      "start": 0,
      "time": {
       "Points": [
        {
         "co": {
          "X": 1,
          "Y": 1
         },
         "interpolation": 2
        }
       ]
      },
      "volume": {
       "Points": [
        {
         "co": {
          "X": 1,
          "Y": 1
         },
         "interpolation": 2
        }
       ]
      },
      "wave_color": {
       "alpha": {
        "Points": [
         {
          "co": {
           "X": 1,
           "Y": 255
          },
          "handle_left": {
           "X": 0.5,
           "Y": 1
          },
          "handle_right": {
           "X": 0.5,
           "Y": 0
          },
          "handle_type": 0,
          "interpolation": 0
         }
        ]
       },
       "blue": {
        "Points": [
         {
          "co": {
           "X": 1,
           "Y": 255
          },
          "handle_left": {
           "X": 0.5,
           "Y": 1
          },
          "handle_right": {
           "X": 0.5,
           "Y": 0
          },
          "handle_type": 0,
          "interpolation": 0
         }
        ]
       },
       "green": {
        "Points": [
         {
          "co": {
           "X": 1,
           "Y": 123
          },
          "handle_left": {
           "X": 0.5,
           "Y": 1
          },
          "handle_right": {
           "X": 0.5,
           "Y": 0
          },
          "handle_type": 0,
          "interpolation": 0
         }
        ]
       },
       "red": {
        "Points": [
         {
          "co": {
           "X": 1,
           "Y": 0
          },
          "handle_left": {
           "X": 0.5,
           "Y": 1
          },
          "handle_right": {
           "X": 0.5,
           "Y": 0
          },
          "handle_type": 0,
          "interpolation": 0
         }
        ]
       }
      },
      "waveform": false,
      "file_id": "ZD0LJGZUTV",
      "title": "voice_over.wav",
      "image": "thumbnail/ZD0LJGZUTV.png"
     }
    ]
   },
   {
    "type": "update",
    "key": [
     "clips",
     {
      "id": "ZHDYXRXU2X"
     }
    ],
    "value": {
     "id": "ZHDYXRXU2X",
     "layer": 5000000,
     "position": 6,
     "start": 0,
     "end": 5
    },
    "partial": false,
    "old_values": {
     "alpha": {
      "Points": [
       {
        "co": {
         "X": 1,
         "Y": 1
        },
        "interpolation": 2
       }
      ]
     },
     "anchor": 0,
     "channel_filter": {
      "Points": [
       {
        "co": {
         "X": 1,
         "Y": -1
        },
        "interpolation": 2
       }
      ]
     },
     "channel_mapping": {
      "Points": [
       {
        "co": {
         "X": 1,
         "Y": -1
        },
        "interpolation": 2
       }
      ]
     },
     "crop_height": {
      "Points": [
       {
        "co": {
         "X": 1,
         "Y": 1
        },
        "interpolation": 2
       }
      ]
     },
     "crop_width": {
      "Points": [
       {
        "co": {
         "X": 1,
         "Y": 1
        },
        "interpolation": 2
       }
      ]
     },
     "crop_x": {
      "Points": [
       {
        "co": {
         "X": 1,
         "Y": 0
        },
        "interpolation": 2
       }
      ]
     },
     "crop_y": {
      "Points": [
       {
        "co": {
         "X": 1,
         "Y": 0
        },
        "interpolation": 2
       }
      ]
     },
     "display": 0,
     "duration": 3600.0,
     "effects": [],
     "end": 5.0,
     "gravity": 4,
     "has_audio": {
      "Points": [
       {
        "co": {
         "X": 1,
         "Y": -1
        },
        "interpolation": 2
       }
      ]
     },
     "has_video": {
      "Points": [
       {
        "co": {
         "X": 1,
         "Y": -1
        },
        "interpolation": 2
       }
      ]
     },
     "id": "ZHDYXRXU2X",
     "layer": 5000000,
     "location_x": {
      "Points": [
       {
        "co": {
         "X": 1,
         "Y": 0
        },
        "interpolation": 2
       }
      ]
     },
     "location_y": {
      "Points": [
       {
        "co": {
         "X": 1,
         "Y": 0
        },
        "interpolation": 2
       }
      ]
     },
     "mixing": 0,
     "perspective_c1_x": {
      "Points": [
       {
        "co": {
         "X": 1,
         "Y": -1
        },
        "interpolation": 2
       }
      ]
     },
     "perspective_c1_y": {
      "Points": [
       {
        "co": {
         "X": 1,
         "Y": -1
        },
        "interpolation": 2
       }
      ]
     },
     "perspective_c2_x": {
      "Points": [
       {
        "co": {
         "X": 1,
         "Y": -1
        },
        "interpolation": 2
       }
      ]
     },
     "perspective_c2_y": {
      "Points": [
       {
        "co": {
         "X": 1,
         "Y": -1
        },
        "interpolation": 2
       }
      ]
     },
     "perspective_c3_x": {
      "Points": [
       {
        "co": {
         "X": 1,
         "Y": -1
        },
        "interpolation": 2
       }
      ]
     },
     "perspective_c3_y": {
      "Points": [
       {
        "co": {
         "X": 1,
         "Y": -1
        },
        "interpolation": 2
       }
      ]
     },
     "perspective_c4_x": {
      "Points": [
       {
        "co": {
         "X": 1,
         "Y": -1
        },
        "interpolation": 2
       }
      ]
     },
     "perspective_c4_y": {
      "Points": [
       {
        "co": {
         "X": 1,
         "Y": -1
        },
        "interpolation": 2
       }
      ]
     },
     "position": 5.46,
     "reader": {
      "acodec": "",
      "audio_bit_rate": 0,
      "audio_stream_index": -1,
      "audio_timebase": {
       "den": 1,
       "num": 1
      },
      "channel_layout": 4,
      "channels": 0,
      "display_ratio": {
       "den": 9,
       "num": 16
      },
      "duration": 3600.0,
      "file_size": "8294400",
      "fps": {
       "den": 1,
       "num": 30
      },
      "has_audio": false,
      "has_single_image": true,
      "has_video": true,
      "height": 1080,
      "interlaced_frame": false,
      "metadata": {},
      "path": "./title.svg",
      "pixel_format": -1,
      "pixel_ratio": {
       "den": 1,
       "num": 1
      },
      "sample_rate": 0,
      "top_field_first": true,
      "type": "QtImageReader",
      "vcodec": "",
      "video_bit_rate": 0,
      "video_length": "108000",
      "video_stream_index": -1,
      "video_timebase": {
       "den": 30,
       "num": 1
      },
      "width": 1920
     },
     "rotation": {
      "Points": [
       {
        "co": {
         "X": 1,
         "Y": 0
        },
        "interpolation": 2
       }
      ]
     },
     "scale": 1,
     "scale_x": {
      "Points": [
       {
        "co": {
         "X": 1,
         "Y": 1
        },
        "interpolation": 2
       }
      ]
     },
     "scale_y": {
      "Points": [
       {
        "co": {
         "X": 1,
         "Y": 1
        },
        "interpolation": 2
       }
      ]
     },
     "shear_x": {
      "Points": [
       {
        "co": {
         "X": 1,
         "Y": 0
        },
        "interpolation": 2
       }
      ]
     },
     "shear_y": {
      "Points": [
       {
        "co": {
         "X": 1,
         "Y": 0
        },
        "interpolation": 2
       }
      ]
     },
     "start": 0,
     "time": {
      "Points": [
       {
        "co": {
         "X": 1,
         "Y": 1
        },
        "interpolation": 2
       }
      ]
     },
     "volume": {
      "Points": [
       {
        "co": {
         "X": 1,
         "Y": 1
        },
        "interpolation": 2
       }
      ]
     },
     "wave_color": {
      "alpha": {
       "Points": [
        {
         "co": {
          "X": 1,
          "Y": 255
         },
         "handle_left": {
          "X": 0.5,
          "Y": 1
         },
         "handle_right": {
          "X": 0.5,
          "Y": 0
         },
         "handle_type": 0,
         "interpolation": 0
        }
       ]
      },
      "blue": {
       "Points": [
        {
         "co": {
          "X": 1,
          "Y": 255
         },
         "handle_left": {
          "X": 0.5,
          "Y": 1
         },
         "handle_right": {
          "X": 0.5,
          "Y": 0
         },
         "handle_type": 0,
         "interpolation": 0
        }
       ]
      },
      "green": {
       "Points": [
        {
         "co": {
          "X": 1,
          "Y": 123
         },
         "handle_left": {
          "X": 0.5,
          "Y": 1
         },
         "handle_right": {
          "X": 0.5,
          "Y": 0
         },
         "handle_type": 0,
         "interpolation": 0
        }
       ]
      },
      "red": {
       "Points": [
        {
         "co": {
          "X": 1,
          "Y": 0
         },
         "handle_left": {
          "X": 0.5,
          "Y": 1
         },
         "handle_right": {
          "X": 0.5,
          "Y": 0
         },
         "handle_type": 0,
         "interpolation": 0
        }
       ]
      }
     },
     "waveform": false,
     "file_id": "WSC6UG118N",
     "title": "title.svg"
    }
   },
   {
    "type": "delete",
    "key": [
     "clips",
     {
      "id": "XN0KMVOEKN"
     }
    ],
    "value": null,
    "partial": false,
    "old_values": {
     "alpha": {
      "Points": [
       {
        "co": {
         "X": 1,
         "Y": 1
        },
        "interpolation": 2
       }
      ]
     },
     "anchor": 0,
     "channel_filter": {
      "Points": [
       {
        "co": {
         "X": 1,
         "Y": -1
        },
        "interpolation": 2
       }
      ]
     },
     "channel_mapping": {
      "Points": [
       {
        "co": {
         "X": 1,
         "Y": -1
        },
        "interpolation": 2
       }
      ]
     },
     "crop_height": {
      "Points": [
       {
        "co": {
         "X": 1,
         "Y": 1
        },
        "interpolation": 2
       }
      ]
     },
     "crop_width": {
      "Points": [
       {
        "co": {
         "X": 1,
         "Y": 1
        },
        "interpolation": 2
       }
      ]
     },
     "crop_x": {
      "Points": [
       {
        "co": {
         "X": 1,
         "Y": 0
        },
        "interpolation": 2
       }
      ]
     },
     "crop_y": {
      "Points": [
       {
        "co": {
         "X": 1,
         "Y": 0
        },
        "interpolation": 2
       }
      ]
     },
     "display": 0,
     "duration": 3600.0,
     "effects": [],
     "end": 5,
     "gravity": 4,
     "has_audio": {
      "Points": [
       {
        "co": {
         "X": 1,
         "Y": -1
        },
        "interpolation": 2
       }
      ]
     },
     "has_video": {
      "Points": [
       {
        "co": {
         "X": 1,
         "Y": -1
        },
        "interpolation": 2
       }
      ]
     },
     "id": "XN0KMVOEKN",
     "layer": 5000000,
     "location_x": {
      "Points": [
       {
        "co": {
         "X": 1,
         "Y": 0
        },
        "interpolation": 2
       }
      ]
     },
     "location_y": {
      "Points": [
       {
        "co": {
         "X": 1,
         "Y": 0
        },
        "interpolation": 2
       }
      ]
     },
     "mixing": 0,
     "perspective_c1_x": {
      "Points": [
       {
        "co": {
         "X": 1,
         "Y": -1
        },
        "interpolation": 2
       }
      ]
     },
     "perspective_c1_y": {
      "Points": [
       {
        "co": {
         "X": 1,
         "Y": -1
        },
        "interpolation": 2
       }
      ]
     },
     "perspective_c2_x": {
      "Points": [
       {
        "co": {
         "X": 1,
         "Y": -1
        },
        "interpolation": 2
       }
      ]
     },
     "perspective_c2_y": {
      "Points": [
       {
        "co": {
         "X": 1,
         "Y": -1
        },
        "interpolation": 2
       }
      ]
     },
     "perspective_c3_x": {
      "Points": [
       {
        "co": {
         "X": 1,
         "Y": -1
        },
        "interpolation": 2
       }
      ]
     },
     "perspective_c3_y": {
      "Points": [
       {
        "co": {
         "X": 1,
         "Y": -1
        },
        "interpolation": 2
       }
      ]
     },
     "perspective_c4_x": {
      "Points": [
       {
        "co": {
         "X": 1,
         "Y": -1
        },
        "interpolation": 2
       }
      ]
     },
     "perspective_c4_y": {
      "Points": [
       {
        "co": {
         "X": 1,
         "Y": -1
        },
        "interpolation": 2
       }
      ]
     },
     "position": 0,
     "reader": {
      "acodec": "",
      "audio_bit_rate": 0,
      "audio_stream_index": -1,
      "audio_timebase": {
       "den": 1,
       "num": 1
      },
      "channel_layout": 4,
      "channels": 0,
      "display_ratio": {
       "den": 9,
       "num": 16
      },
      "duration": 3600.0,
      "file_size": "8294400",
      "fps": {
       "den": 1,
       "num": 30
      },
      "has_audio": false,
      "has_single_image": true,
      "has_video": true,
      "height": 1080,
      "interlaced_frame": false,
      "metadata": {},
      "path": "./TitleFileName-2.svg",
      "pixel_format": -1,
      "pixel_ratio": {
       "den": 1,
       "num": 1
      },
      "sample_rate": 0,
      "top_field_first": true,
      "type": "QtImageReader",
      "vcodec": "",
      "video_bit_rate": 0,
      "video_length": "108000",
      "video_stream_index": -1,
      "video_timebase": {
       "den": 30,
       "num": 1
      },
      "width": 1920
     },
     "rotation": {
      "Points": [
       {
        "co": {
         "X": 1,
         "Y": 0
        },
        "interpolation": 2
       }
      ]
     },
     "scale": 1,
     "scale_x": {
      "Points": [
       {
        "co": {
         "X": 1,
         "Y": 1
        },
        "interpolation": 2
       }
      ]
     },
     "scale_y": {
      "Points": [
       {
        "co": {
         "X": 1,
         "Y": 1
        },
        "interpolation": 2
       }
      ]
     },
     "shear_x": {
      "Points": [
       {
        "co": {
         "X": 1,
         "Y": 0
        },
        "interpolation": 2
       }
      ]
     },
     "shear_y": {
      "Points": [
       {
        "co": {
         "X": 1,
         "Y": 0
        },
        "interpolation": 2
       }
      ]
     },
     "start": 0,
     "time": {
      "Points": [
       {
        "co": {
         "X": 1,
         "Y": 1
        },
        "interpolation": 2
       }
      ]
     },
     "volume": {
      "Points": [
       {
        "co": {
         "X": 1,
         "Y": 1
        },
        "interpolation": 2
       }
      ]
     },
     "wave_color": {
      "alpha": {
       "Points": [
        {
         "co": {
          "X": 1,
          "Y": 255
         },
         "handle_left": {
          "X": 0.5,
          "Y": 1
         },
         "handle_right": {
          "X": 0.5,
          "Y": 0
         },
         "handle_type": 0,
         "interpolation": 0
        }
       ]
      },
      "blue": {
       "Points": [
        {
         "co": {
          "X": 1,
          "Y": 255
         },
         "handle_left": {
          "X": 0.5,
          "Y": 1
         },
         "handle_right": {
          "X": 0.5,
          "Y": 0
         },
         "handle_type": 0,
         "interpolation": 0
        }
       ]
      },
      "green": {
       "Points": [
        {
         "co": {
          "X": 1,
          "Y": 123
         },
         "handle_left": {
          "X": 0.5,
          "Y": 1
         },
         "handle_right": {
          "X": 0.5,
          "Y": 0
         },
         "handle_type": 0,
         "interpolation": 0
        }
       ]
      },
      "red": {
       "Points": [
        {
         "co": {
          "X": 1,
          "Y": 0
         },
         "handle_left": {
          "X": 0.5,
          "Y": 1
         },
         "handle_right": {
          "X": 0.5,
          "Y": 0
         },
         "handle_type": 0,
         "interpolation": 0
        }
       ]
      }
     },
     "waveform": false,
     "file_id": "3C7NVU4Z23",
     "title": "TitleFileName-2.svg",
     "image": "thumbnail/3C7NVU4Z23.png"
    }
   },
   {
    "type": "update",
    "key": [
     "clips",
     {
      "id": "ZHDYXRXU2X"
     }
    ],
    "value": {
     "id": "ZHDYXRXU2X",
     "layer": 5000000,
     "position": 0,
     "start": 0,
     "end": 5
    },
    "partial": false,
    "old_values": {
     "alpha": {
      "Points": [
       {
        "co": {
         "X": 1,
         "Y": 1
        },
        "interpolation": 2
       }
      ]
     },
     "anchor": 0,
     "channel_filter": {
      "Points": [
       {
        "co": {
         "X": 1,
         "Y": -1
        },
        "interpolation": 2
       }
      ]
     },
     "channel_mapping": {
      "Points": [
       {
        "co": {
         "X": 1,
         "Y": -1
        },
        "interpolation": 2
       }
      ]
     },
     "crop_height": {
      "Points": [
       {
        "co": {
         "X": 1,
         "Y": 1
        },
        "interpolation": 2
       }
      ]
     },
     "crop_width": {
      "Points": [
       {
        "co": {
         "X": 1,
         "Y": 1
        },
        "interpolation": 2
       }
      ]
     },
     "crop_x": {
      "Points": [
       {
        "co": {
         "X": 1,
         "Y": 0
        },
        "interpolation": 2
       }
      ]
     },
     "crop_y": {
      "Points": [
       {
        "co": {
         "X": 1,
         "Y": 0
        },
        "interpolation": 2
       }
      ]
     },
     "display": 0,
     "duration": 3600.0,
     "effects": [],
     "end": 5,
     "gravity": 4,
     "has_audio": {
      "Points": [
       {
        "co": {
         "X": 1,
         "Y": -1
        },
        "interpolation": 2
       }
      ]
     },
     "has_video": {
      "Points": [
       {
        "co": {
         "X": 1,
         "Y": -1
        },
        "interpolation": 2
       }
      ]
     },
     "id": "ZHDYXRXU2X",
     "layer": 5000000,
     "location_x": {
      "Points": [
       {
        "co": {
         "X": 1,
         "Y": 0
        },
        "interpolation": 2
       }
      ]
     },
     "location_y": {
      "Points": [
       {
        "co": {
         "X": 1,
         "Y": 0
        },
        "interpolation": 2
       }
      ]
     },
     "mixing": 0,
     "perspective_c1_x": {
      "Points": [
       {
        "co": {
         "X": 1,
         "Y": -1
        },
        "interpolation": 2
       }
      ]
     },
     "perspective_c1_y": {
      "Points": [
       {
        "co": {
         "X": 1,
         "Y": -1
        },
        "interpolation": 2
       }
      ]
     },
     "perspective_c2_x": {
      "Points": [
       {
        "co": {
         "X": 1,
         "Y": -1
        },
        "interpolation": 2
       }
      ]
     },
     "perspective_c2_y": {
      "Points": [
       {
        "co": {
         "X": 1,
         "Y": -1
        },
        "interpolation": 2
       }
      ]
     },
     "perspective_c3_x": {
      "Points": [
       {
        "co": {
         "X": 1,
         "Y": -1
        },
        "interpolation": 2
       }
      ]
     },
     "perspective_c3_y": {
      "Points": [
       {
        "co": {
         "X": 1,
         "Y": -1
        },
        "interpolation": 2
       }
      ]
     },
     "perspective_c4_x": {
      "Points": [
       {
        "co": {
         "X": 1,
         "Y": -1
        },
        "interpolation": 2
       }
      ]
     },
     "perspective_c4_y": {
      "Points": [
       {
        "co": {
         "X": 1,
         "Y": -1
        },
        "interpolation": 2
       }
      ]
     },
     "position": 6,
     "reader": {
      "acodec": "",
      "audio_bit_rate": 0,
      "audio_stream_index": -1,
      "audio_timebase": {
       "den": 1,
       "num": 1
      },
      "channel_layout": 4,
      "channels": 0,
      "display_ratio": {
       "den": 9,
       "num": 16
      },
      "duration": 3600.0,
      "file_size": "8294400",
      "fps": {
       "den": 1,
       "num": 30
      },
      "has_audio": false,
      "has_single_image": true,
      "has_video": true,
      "height": 1080,
      "interlaced_frame": false,
      "metadata": {},
      "path": "./title.svg",
      "pixel_format": -1,
      "pixel_ratio": {
       "den": 1,
       "num": 1
      },
      "sample_rate": 0,
      "top_field_first": true,
      "type": "QtImageReader",
      "vcodec": "",
      "video_bit_rate": 0,
      "video_length": "108000",
      "video_stream_index": -1,
      "video_timebase": {
       "den": 30,
       "num": 1
      },
      "width": 1920
     },
     "rotation": {
      "Points": [
       {
        "co": {
         "X": 1,
         "Y": 0
        },
        "interpolation": 2
       }
      ]
     },
     "scale": 1,
     "scale_x": {
      "Points": [
       {
        "co": {
         "X": 1,
         "Y": 1
        },
        "interpolation": 2
       }
      ]
     },
     "scale_y": {
      "Points": [
       {
        "co": {
         "X": 1,
         "Y": 1
        },
        "interpolation": 2
       }
      ]
     },
     "shear_x": {
      "Points": [
       {
        "co": {
         "X": 1,
         "Y": 0
        },
        "interpolation": 2
       }
      ]
     },
     "shear_y": {
      "Points": [
       {
        "co": {
         "X": 1,
         "Y": 0
        },
        "interpolation": 2
       }
      ]
     },
     "start": 0,
     "time": {
      "Points": [
       {
        "co": {
         "X": 1,
         "Y": 1
        },
        "interpolation": 2
       }
      ]
     },
     "volume": {
      "Points": [
       {
        "co": {
         "X": 1,
         "Y": 1
        },
        "interpolation": 2
       }
      ]
     },
     "wave_color": {
      "alpha": {
       "Points": [
        {
         "co": {
          "X": 1,
          "Y": 255
         },
         "handle_left": {
          "X": 0.5,
          "Y": 1
         },
         "handle_right": {
          "X": 0.5,
          "Y": 0
         },
         "handle_type": 0,
         "interpolation": 0
        }
       ]
      },
      "blue": {
       "Points": [
        {
         "co": {
          "X": 1,
          "Y": 255
         },
         "handle_left": {
          "X": 0.5,
          "Y": 1
         },
         "handle_right": {
          "X": 0.5,
          "Y": 0
         },
         "handle_type": 0,
         "interpolation": 0
        }
       ]
      },
      "green": {
       "Points": [
        {
         "co": {
          "X": 1,
          "Y": 123
         },
         "handle_left": {
          "X": 0.5,
          "Y": 1
         },
         "handle_right": {
          "X": 0.5,
          "Y": 0
         },
         "handle_type": 0,
         "interpolation": 0
        }
       ]
      },
      "red": {
       "Points": [
        {
         "co": {
          "X": 1,
          "Y": 0
         },
         "handle_left": {
          "X": 0.5,
          "Y": 1
         },
         "handle_right": {
          "X": 0.5,
          "Y": 0
         },
         "handle_type": 0,
         "interpolation": 0
        }
       ]
      }
     },
     "waveform": false,
     "file_id": "WSC6UG118N",
     "title": "title.svg"
    }
   },
   {
    "type": "delete",
    "key": [
     "files",
     {
      "id": "3C7NVU4Z23"
     }
    ],
    "value": null,
    "partial": false,
    "old_values": {
     "acodec": "",
     "audio_bit_rate": 0,
     "audio_stream_index": -1,
     "audio_timebase": {
      "den": 1,
      "num": 1
     },
     "channel_layout": 4,
     "channels": 0,
     "display_ratio": {
      "den": 9,
      "num": 16
     },
     "duration": 3600,
     "file_size": "8294400",
     "fps": {
      "den": 1,
      "num": 30
     },
     "has_audio": false,
     "has_single_image": true,
     "has_video": true,
     "height": 1080,
     "interlaced_frame": false,
     "metadata": {},
     "path": "./TitleFileName-2.svg",
     "pixel_format": -1,
     "pixel_ratio": {
      "den": 1,
      "num": 1
     },
     "sample_rate": 0,
     "top_field_first": true,
     "type": "QtImageReader",
     "vcodec": "",
     "video_bit_rate": 0,
     "video_length": "108000",
     "video_stream_index": -1,
     "video_timebase": {
      "den": 30,
      "num": 1
     },
     "width": 1920,
     "media_type": "image",
     "id": "3C7NVU4Z23",
     "image": "thumbnail/3C7NVU4Z23.png"
    }
   }
  ],
  "redo": []
 },
 "version": {
  "openshot-qt": "2.5.1-dev2",
  "libopenshot": "0.2.5-dev2"
 }
}